<svg width="103" height="103" viewBox="0 0 103 103" fill="none" xmlns="http://www.w3.org/2000/svg">
<path d="M12.3223 51.5069C12.3223 43.7545 14.6208 36.1762 18.9272 29.7304C23.2337 23.2845 29.3545 18.2606 36.5158 15.2939C43.6771 12.3272 51.5572 11.5509 59.1596 13.0633C66.762 14.5758 73.7453 18.3089 79.2263 23.7906C84.7073 29.2724 88.44 36.2566 89.9522 43.86C91.4644 51.4634 90.6883 59.3445 87.722 66.5068C84.7557 73.6691 79.7324 79.7907 73.2874 84.0977C66.8424 88.4047 59.2651 90.7036 51.5138 90.7036C41.1195 90.7036 31.151 86.5739 23.8012 79.2231C16.4514 71.8723 12.3223 61.9025 12.3223 51.5069ZM61.1182 4.58039L55.5185 1.76645C54.2878 1.10721 52.9133 0.762268 51.5172 0.762268C50.1211 0.762268 48.7466 1.10721 47.5159 1.76645L42.4843 4.45031L36.2821 3.99843C34.8706 3.83934 33.4418 4.03674 32.1263 4.57258C30.8108 5.10842 29.6506 5.9656 28.7519 7.0657L25.0963 11.5365L19.6951 13.3303C18.2344 13.667 16.889 14.3848 15.7959 15.4107C14.7028 16.4366 13.9011 17.7339 13.4724 19.1705L11.802 24.6477L6.96212 28.8378C5.91201 29.7259 5.09396 30.8564 4.57869 32.1317C4.06343 33.4069 3.86645 34.7884 4.00479 36.1568L4.57983 41.8874L1.76625 47.4948C1.10711 48.7257 0.762207 50.1003 0.762207 51.4966C0.762207 52.8929 1.10711 54.2676 1.76625 55.4984L4.44976 60.5238L3.99794 66.7268C3.83887 68.1385 4.03624 69.5676 4.57201 70.8832C5.10778 72.1989 5.96484 73.3592 7.0648 74.2581L11.535 77.921L13.3286 83.3161C13.6661 84.7774 14.384 86.1234 15.4096 87.2176C16.4351 88.3118 17.7317 89.1152 19.168 89.5465L24.6445 91.2102L28.834 96.0507C29.7193 97.0969 30.8452 97.9127 32.1151 98.4278C33.3849 98.943 34.7609 99.1423 36.1247 99.0085L41.8545 98.4334L47.4611 101.247C48.6918 101.907 50.0663 102.251 51.4624 102.251C52.8585 102.251 54.233 101.907 55.4637 101.247L60.5158 98.5908L66.718 99.0427C68.1295 99.2018 69.5583 99.0044 70.8738 98.4686C72.1893 97.9327 73.3495 97.0755 74.2482 95.9754L77.9107 91.5046L83.3119 89.6903C84.7695 89.3515 86.1122 88.6346 87.2046 87.6118C88.2971 86.5889 89.1007 85.2962 89.5346 83.8638L91.1981 78.3455L96.0449 74.1554C97.0884 73.2668 97.9017 72.139 98.4154 70.8682C98.9292 69.5974 99.1281 68.2212 98.9953 66.8569L98.4203 61.1263L101.234 55.5258C101.893 54.295 102.238 52.9203 102.238 51.524C102.238 50.1277 101.893 48.753 101.234 47.5222L98.5778 42.4899L99.0296 36.2869C99.1887 34.8752 98.9913 33.4462 98.4555 32.1305C97.9197 30.8148 97.0627 29.6545 95.9627 28.7557L91.4925 25.0928L89.6784 19.6908C89.3406 18.2334 88.6239 16.891 87.601 15.7993C86.578 14.7077 85.285 13.9056 83.8527 13.4741L78.3351 11.8035L74.1456 6.96301C73.2585 5.91716 72.1313 5.10181 70.8604 4.58672C69.5896 4.07163 68.2129 3.87212 66.8481 4.00528L61.1182 4.58039Z" fill="#C4E0BF"/>
<path d="M51.5001 90.7035C59.252 90.7063 66.8306 88.4097 73.2774 84.1044C79.7242 79.799 84.7496 73.6783 87.718 66.5163C90.6864 59.3543 91.4645 51.4727 89.9538 43.8684C88.4432 36.264 84.7116 29.2786 79.2311 23.7955C73.7507 18.3123 66.7674 14.5778 59.1647 13.0643C51.5619 11.5508 43.6811 12.3262 36.519 15.2925C29.3569 18.2588 23.2352 23.2828 18.9282 29.7289C14.6212 36.1751 12.3223 43.7539 12.3223 51.5069C12.3223 61.9001 16.4495 71.8679 23.7963 79.2183C31.1432 86.5687 41.1082 90.6999 51.5001 90.7035Z" fill="white"/>
<path d="M40.6838 70.9717V41.148H29.7855V72.3752H40.6838V70.9717Z" fill="#C4E0BF"/>
<path d="M20.2564 26.6127C14.5887 33.6684 11.5149 42.4563 11.5487 51.5069C11.5487 62.104 15.7579 72.2672 23.2502 79.7605C30.7425 87.2538 40.9043 91.4635 51.5001 91.4635C62.0958 91.4635 72.2576 87.2538 79.75 79.7605C87.2423 72.2672 91.4514 62.104 91.4514 51.5069C91.4845 42.4576 88.4134 33.6707 82.7506 26.6127C77.2166 19.6797 69.5423 14.7755 60.9266 12.6662C60.8268 12.6329 60.7211 12.6206 60.6164 12.6303C60.5116 12.6399 60.4099 12.6712 60.3179 12.7222C60.2258 12.7731 60.1453 12.8427 60.0816 12.9264C60.0178 13.0101 59.9721 13.1061 59.9473 13.2084C59.9226 13.3107 59.9194 13.417 59.9379 13.5206C59.9563 13.6242 59.9962 13.7228 60.0547 13.8102C60.1133 13.8976 60.1894 13.9719 60.2782 14.0284C60.367 14.0848 60.4666 14.1222 60.5706 14.1382C69.7126 16.3514 77.7258 21.8402 83.0932 29.5654C88.4606 37.2906 90.8095 46.716 89.6952 56.057C88.581 65.3979 84.0808 74.0061 77.0469 80.2516C70.0129 86.497 60.9334 89.9463 51.5275 89.9463C42.1215 89.9463 33.042 86.497 26.0081 80.2516C18.9741 74.0061 14.474 65.3979 13.3597 56.057C12.2454 46.716 14.5943 37.2906 19.9617 29.5654C25.3291 21.8402 33.3424 16.3514 42.4843 14.1382C42.6725 14.1034 42.8403 13.9982 42.9537 13.8441C43.0672 13.69 43.1177 13.4985 43.095 13.3085C43.0723 13.1185 42.9782 12.9442 42.8317 12.8211C42.6852 12.698 42.4974 12.6353 42.3063 12.6457H42.1284C33.4923 14.7502 25.7992 19.6628 20.2564 26.6127Z" fill="#0D3643"/>
<path d="M99.3237 42.3254L99.755 36.3826C99.9303 34.8429 99.7163 33.2839 99.1326 31.8484C98.5489 30.413 97.6143 29.147 96.4143 28.1667L92.1153 24.6475L90.3628 19.4305C89.9781 17.8638 89.1928 16.424 88.0838 15.2525C86.9749 14.081 85.5805 13.218 84.0374 12.7482L78.732 11.1392L74.6999 6.47672C73.7338 5.34109 72.5083 4.45508 71.1272 3.89374C69.7461 3.33239 68.25 3.11225 66.7657 3.25198L61.2892 3.80655L55.8811 1.10215C54.5385 0.384157 53.0395 0.0085144 51.517 0.0085144C49.9945 0.0085144 48.4955 0.384157 47.1529 1.10215L42.3198 3.67646L36.3778 3.24513C34.8383 3.06983 33.2795 3.28387 31.8442 3.86762C30.409 4.45138 29.1432 5.38616 28.163 6.58626L24.6443 10.8859L19.4347 12.6113C17.8683 12.996 16.4287 13.7814 15.2574 14.8905C14.086 15.9996 13.2231 17.3942 12.7534 18.9375L11.1515 24.2436L6.47589 28.2762C5.3364 29.2452 4.44807 30.4753 3.88665 31.8618C3.32522 33.2482 3.10733 34.7499 3.25157 36.2388L3.80607 41.7161L1.10203 47.1249C0.384137 48.4677 0.00854492 49.9669 0.00854492 51.4896C0.00854492 53.0123 0.384137 54.5115 1.10203 55.8543L3.6897 60.688L3.25842 66.6308C3.08505 68.1703 3.29993 69.7288 3.88348 71.1639C4.46702 72.599 5.40063 73.8651 6.59911 74.8467L10.8982 78.3658L12.6233 83.5761C13.008 85.1428 13.7933 86.5825 14.9022 87.754C16.0112 88.9255 17.4056 89.7885 18.9487 90.2584L24.2541 91.8673L28.2725 96.5367C29.2409 97.6768 30.4708 98.5655 31.8572 99.1271C33.2436 99.6886 34.7453 99.9063 36.234 99.7614L41.7106 99.2137L47.0913 101.911C48.4359 102.623 49.9341 102.995 51.4554 102.995C52.9767 102.995 54.4749 102.623 55.8195 101.911L60.6525 99.3232L66.5946 99.7546C68.134 99.9286 69.6924 99.714 71.1274 99.1303C72.5625 98.5466 73.8284 97.6126 74.8094 96.4134L78.3281 92.1138L83.5376 90.3884C85.1042 90.0062 86.5441 89.2224 87.7157 88.1143C88.8873 87.0062 89.75 85.612 90.219 84.069L91.8277 78.7561L96.4896 74.7235C97.6286 73.7556 98.5166 72.5266 99.078 71.1413C99.6395 69.7561 99.8576 68.2556 99.714 66.7677L99.1595 61.2562L101.863 55.8748C102.581 54.532 102.957 53.0328 102.957 51.5101C102.957 49.9874 102.581 48.4882 101.863 47.1454L99.3237 42.3254ZM100.563 55.1628L97.7492 60.7701C97.6863 60.8973 97.6602 61.0396 97.6739 61.1809L98.249 66.9047C98.3681 68.1508 98.1844 69.4072 97.7136 70.5671C97.2428 71.727 96.4988 72.7559 95.5449 73.5664L90.7119 77.7496C90.6026 77.8442 90.5219 77.9676 90.4791 78.1057L88.8156 83.624C88.4178 84.9272 87.6849 86.1032 86.6902 87.0343C85.6956 87.9655 84.4739 88.6192 83.1474 88.9301L77.6709 90.7376C77.5347 90.7838 77.4138 90.8667 77.3218 90.9772L73.6662 95.4481C72.8489 96.4482 71.7944 97.2278 70.5986 97.7157C69.4029 98.2036 68.104 98.3844 66.8205 98.2415L60.5909 97.7896C60.4485 97.7822 60.3067 97.8129 60.1802 97.8786L55.1555 100.569C54.0373 101.168 52.7886 101.481 51.5204 101.48C50.2451 101.478 48.9898 101.163 47.8648 100.562L42.2377 97.7417C42.1347 97.6861 42.0192 97.6578 41.9022 97.6595L36.104 98.2346C34.8586 98.3579 33.6018 98.1783 32.4408 97.7109C31.2799 97.2436 30.2491 96.5025 29.4363 95.5508L25.2536 90.7171C25.159 90.6077 25.0357 90.5271 24.8976 90.4843L19.4211 88.8206C18.1167 88.4237 16.9395 87.6912 16.0072 86.6963C15.075 85.7014 14.4203 84.4791 14.1088 83.1516L12.3016 77.6743C12.2554 77.5381 12.1725 77.4172 12.062 77.3252L7.53012 73.6759C6.52868 72.8598 5.74816 71.8053 5.26016 70.6091C4.77216 69.4128 4.5923 68.1132 4.73709 66.8294L5.1889 60.599C5.20304 60.4561 5.1719 60.3124 5.09991 60.1882L2.42325 55.1422C1.82165 54.0212 1.50681 52.7687 1.50681 51.4964C1.50681 50.2241 1.82165 48.9716 2.42325 47.8506L5.24367 42.2296C5.30585 42.0997 5.33187 41.9554 5.31897 41.8119L4.79185 36.0882C4.67684 34.8392 4.86583 33.5809 5.34267 32.4209C5.81951 31.2608 6.57003 30.2334 7.53012 29.4265L12.3221 25.2432C12.4314 25.1486 12.512 25.0253 12.5548 24.8872L14.2183 19.4099C14.6071 18.1033 15.3321 16.9217 16.3208 15.9833C17.3095 15.0449 18.5273 14.3826 19.8523 14.0627L25.3289 12.2552C25.4651 12.2091 25.5859 12.1261 25.678 12.0156L29.3336 7.53109C30.1496 6.52951 31.204 5.74889 32.4001 5.26083C33.5961 4.77276 34.8956 4.59288 36.1793 4.73768L42.4431 5.20325C42.5858 5.21475 42.7287 5.18379 42.8538 5.11425L47.8785 2.42354C48.9994 1.82186 50.2517 1.50698 51.5238 1.50698C52.796 1.50698 54.0483 1.82186 55.1692 2.42354L60.7895 5.24433C60.9194 5.30653 61.0636 5.33254 61.207 5.31964L66.9163 4.79246C68.1652 4.67743 69.4233 4.86644 70.5832 5.34335C71.7431 5.82025 72.7703 6.57087 73.5772 7.53109L77.7599 12.3237C77.8532 12.4345 77.977 12.5154 78.1159 12.5565L83.6335 14.2202C84.9323 14.6151 86.1053 15.3429 87.036 16.3314C87.9667 17.3198 88.6227 18.5346 88.9389 19.8549L90.7461 25.3322C90.7923 25.4685 90.8752 25.5893 90.9857 25.6814L95.4559 29.3443C96.4574 30.1604 97.2379 31.2149 97.7259 32.4112C98.2139 33.6074 98.3938 34.9071 98.249 36.1909L97.7972 42.4213C97.783 42.5642 97.8142 42.7079 97.8862 42.8321L100.577 47.8575C101.178 48.9813 101.492 50.2369 101.49 51.5118C101.487 52.7868 101.169 54.0412 100.563 55.1628Z" fill="#0D3643"/>
<path d="M81.7169 45.4613C81.7248 44.7868 81.5939 44.1178 81.3325 43.4959C81.0711 42.8741 80.6846 42.3126 80.1972 41.8463C79.2258 40.9482 77.9464 40.458 76.6237 40.477H59.2083L58.8181 39.9841C58.0408 39.0449 57.5267 37.9163 57.3283 36.7134C57.1298 35.5106 57.2542 34.2766 57.6886 33.1375C59.0577 29.899 58.955 27.2836 57.4353 24.4012C56.4016 22.4431 53.4922 20.4097 51.2742 20.7246C50.7115 20.801 50.189 21.0589 49.7862 21.4593C49.3834 21.8597 49.1223 22.3806 49.0425 22.9429C48.956 23.4567 48.9079 23.9762 48.8987 24.4971C48.8676 26.9648 48.2679 29.392 47.1462 31.5901C46.413 33.1588 45.9346 34.8345 45.7292 36.5539C45.3048 39.0392 45.0035 40.8399 42.9567 41.5245L41.8614 41.8943L41.3616 40.8467C41.3011 40.7166 41.2043 40.6067 41.0829 40.5302C40.9615 40.4537 40.8206 40.4138 40.6771 40.4154H29.7856C29.6867 40.4154 29.5888 40.4349 29.4974 40.4727C29.4061 40.5106 29.3231 40.566 29.2531 40.636C29.1832 40.7059 29.1278 40.7889 29.0899 40.8803C29.0521 40.9717 29.0326 41.0696 29.0326 41.1685V72.3958C29.0326 72.5962 29.1117 72.7884 29.2527 72.9308C29.3938 73.0731 29.5853 73.1539 29.7856 73.1558H40.6839C40.831 73.1535 40.9743 73.1082 41.0959 73.0255C41.2176 72.9428 41.3123 72.8262 41.3685 72.6902L41.7587 71.7659L42.7513 71.9097C44.4585 72.1892 46.146 72.578 47.8034 73.0736C50.2403 73.8675 52.7733 74.3281 55.3337 74.4429H67.2451C68.6891 74.4975 70.1144 74.1036 71.3255 73.3153C72.5365 72.527 73.4739 71.3831 74.0087 70.0406C74.521 68.8415 74.6361 67.5099 74.3373 66.2407L74.1319 65.4602L74.7275 64.9262C75.2993 64.3913 75.764 63.7523 76.0966 63.0433C76.8184 61.6115 76.9889 59.9644 76.5758 58.4151L76.3567 57.6551L76.9249 57.1074C77.7265 56.3073 78.2946 55.3036 78.5679 54.2044C78.8309 53.1966 78.8309 52.1381 78.5679 51.1303L78.3078 50.1718L79.1635 49.6651C79.9203 49.2499 80.5546 48.6429 81.0028 47.905C81.451 47.1672 81.6972 46.3244 81.7169 45.4613ZM39.9583 71.6221H30.5455V41.9079H39.9309L39.9583 71.6221ZM76.7401 48.8504L71.4278 48.9668C71.2263 48.9668 71.033 49.0468 70.8905 49.1894C70.748 49.3319 70.668 49.5252 70.668 49.7267C70.668 49.9283 70.748 50.1216 70.8905 50.2641C71.033 50.4066 71.2263 50.4867 71.4278 50.4867L76.8085 50.3635L77.1235 51.2604C77.4155 52.222 77.3891 53.2522 77.0481 54.1976C76.7992 55.0461 76.28 55.7902 75.5695 56.3167C74.859 56.8431 73.9961 57.1231 73.1119 57.1142C73.0065 57.1042 72.9002 57.1163 72.7997 57.1497C72.6993 57.1832 72.607 57.2372 72.5286 57.3085C72.4503 57.3797 72.3877 57.4665 72.3449 57.5633C72.3021 57.6602 72.28 57.7649 72.28 57.8708C72.28 57.9766 72.3021 58.0813 72.3449 58.1782C72.3877 58.275 72.4503 58.3618 72.5286 58.433C72.607 58.5043 72.6993 58.5583 72.7997 58.5918C72.9002 58.6252 73.0065 58.6373 73.1119 58.6273C73.3637 58.6287 73.6153 58.6126 73.8649 58.5794L75.3025 58.4014L75.3641 59.8186C75.3929 60.7018 75.2049 61.5786 74.8165 62.3724C74.5043 63.098 73.9852 63.7156 73.3241 64.1479C72.663 64.5802 71.8891 64.808 71.0993 64.8029C70.911 64.8209 70.7363 64.9083 70.6091 65.0482C70.4819 65.1881 70.4114 65.3704 70.4114 65.5595C70.4114 65.7486 70.4819 65.9308 70.6091 66.0707C70.7363 66.2106 70.911 66.2981 71.0993 66.316C71.2772 66.316 71.4484 66.316 71.6195 66.316L73.0571 66.1859V67.6306C73.0409 68.2903 72.8992 68.9409 72.6395 69.5476C72.2076 70.5953 71.4647 71.4853 70.5111 72.0974C69.5575 72.7096 68.439 73.0144 67.3068 72.9709H55.3474C53.0061 72.9709 50.6786 72.3273 48.221 71.6427C46.3793 71.0831 44.4984 70.662 42.5939 70.3829L41.4438 70.246V43.3526L42.5186 43.1335C45.9962 42.5036 46.626 40.1004 47.2284 36.7662C47.4079 35.2044 47.8354 33.6813 48.4948 32.2543C49.718 29.8686 50.3739 27.2327 50.4116 24.5519C50.4227 24.1534 50.4547 23.7557 50.5075 23.3606V22.1556H51.8287C53.0814 22.1556 55.2515 23.4769 56.1004 25.0654C57.4011 27.5438 57.4695 29.7005 56.2921 32.5144C55.5125 34.4986 55.5346 36.7082 56.3537 38.6764L56.9698 40.2237L55.32 40.4496C55.1335 40.4697 54.9609 40.5574 54.8347 40.6962C54.7086 40.835 54.6377 41.0152 54.6354 41.2027C54.6361 41.3068 54.6581 41.4095 54.7001 41.5047C54.742 41.5998 54.8031 41.6854 54.8795 41.7559C54.9558 41.8265 55.0459 41.8807 55.144 41.9151C55.2422 41.9495 55.3463 41.9634 55.45 41.9559H76.6716C77.6114 41.946 78.5187 42.2992 79.2045 42.9418C79.5425 43.2675 79.8099 43.6592 79.9901 44.0927C80.1703 44.5261 80.2594 44.992 80.2519 45.4613C80.2233 46.3772 79.8365 47.2454 79.1747 47.8791C78.5129 48.5128 77.6289 48.8616 76.7127 48.8504H76.7401Z" fill="#0D3643"/>
<path d="M52.7117 12.3239C52.7131 12.0825 52.6427 11.8463 52.5097 11.6449C52.3766 11.4436 52.1868 11.2864 51.9642 11.1931C51.7417 11.0998 51.4965 11.0747 51.2597 11.1209C51.0228 11.1672 50.8051 11.2827 50.634 11.4529C50.4629 11.623 50.3462 11.8401 50.2986 12.0767C50.251 12.3133 50.2747 12.5587 50.3668 12.7818C50.4588 13.0049 50.615 13.1956 50.8155 13.3298C51.016 13.4641 51.2519 13.5357 51.4932 13.5357C51.8152 13.5357 52.1241 13.4083 52.3524 13.1812C52.5807 12.9541 52.7099 12.6459 52.7117 12.3239Z" fill="#0D3643"/>
</svg>
