<svg width="277" height="60" viewBox="0 0 277 60" fill="none" xmlns="http://www.w3.org/2000/svg">
<rect x="1" y="1" width="275" height="58" rx="2" fill="#F4F4F4" stroke="#63A887" stroke-width="2"/>
<path d="M39.875 19H48.125C51.9214 19 55 22.0786 55 25.875V34.125C55 37.9214 51.9214 41 48.125 41H39.875C36.0786 41 33 37.9214 33 34.125V25.875C33 22.0786 36.0786 19 39.875 19ZM35.0625 34.125C35.0625 36.7787 37.2213 38.9375 39.875 38.9375H48.125C50.7787 38.9375 52.9375 36.7787 52.9375 34.125V25.875C52.9375 23.2213 50.7787 21.0625 48.125 21.0625H39.875C37.2213 21.0625 35.0625 23.2213 35.0625 25.875V34.125Z" fill="#63A887"/>
<path d="M44 24.5C47.0374 24.5 49.5 26.9626 49.5 30C49.5 33.0374 47.0374 35.5 44 35.5C40.9626 35.5 38.5 33.0374 38.5 30C38.5 26.9626 40.9626 24.5 44 24.5ZM44 33.4375C45.8948 33.4375 47.4375 31.8948 47.4375 30C47.4375 28.1039 45.8948 26.5625 44 26.5625C42.1052 26.5625 40.5625 28.1039 40.5625 30C40.5625 31.8948 42.1052 33.4375 44 33.4375Z" fill="#63A887"/>
<path d="M38.0875 24.8205C37.6827 24.8205 37.3546 24.4924 37.3546 24.0876C37.3546 23.6829 37.6827 23.3547 38.0875 23.3547C38.4923 23.3547 38.8204 23.6829 38.8204 24.0876C38.8204 24.4924 38.4923 24.8205 38.0875 24.8205Z" fill="#63A887"/>
<path d="M89.3385 24.516C88.6065 24.516 87.9285 24.66 87.3045 24.948C86.6925 25.224 86.1585 25.602 85.7025 26.082C85.2465 26.55 84.8865 27.096 84.6225 27.72C84.3705 28.344 84.2445 28.998 84.2445 29.682C84.2445 30.45 84.3465 31.152 84.5505 31.788C84.7665 32.424 85.0845 32.976 85.5045 33.444C85.9245 33.9 86.4465 34.254 87.0705 34.506C87.7065 34.758 88.4445 34.884 89.2845 34.884C89.5605 34.884 89.8485 34.86 90.1485 34.812C90.4485 34.752 90.7785 34.65 91.1385 34.506L91.7505 35.658C91.2825 35.838 90.8505 35.964 90.4545 36.036C90.0585 36.12 89.6685 36.162 89.2845 36.162C88.1805 36.162 87.2205 35.994 86.4045 35.658C85.6005 35.322 84.9345 34.86 84.4065 34.272C83.8905 33.684 83.5065 33 83.2545 32.22C83.0025 31.428 82.8765 30.582 82.8765 29.682C82.8765 28.782 83.0385 27.942 83.3625 27.162C83.6985 26.37 84.1545 25.686 84.7305 25.11C85.3185 24.522 86.0025 24.06 86.7825 23.724C87.5625 23.388 88.4025 23.22 89.3025 23.22C90.1545 23.22 90.9405 23.358 91.6605 23.634C92.3925 23.898 93.0225 24.27 93.5505 24.75C94.0905 25.218 94.5105 25.776 94.8105 26.424C95.1105 27.06 95.2605 27.75 95.2605 28.494C95.2605 29.226 95.1405 29.91 94.9005 30.546C94.6605 31.17 94.3425 31.716 93.9465 32.184C93.5505 32.652 93.1065 33.018 92.6145 33.282C92.1225 33.546 91.6245 33.678 91.1205 33.678C90.8445 33.678 90.5865 33.6 90.3465 33.444C90.1185 33.276 89.9925 32.982 89.9685 32.562C89.7405 32.922 89.4345 33.186 89.0505 33.354C88.6665 33.522 88.2825 33.606 87.8985 33.606C87.5505 33.606 87.2265 33.528 86.9265 33.372C86.6265 33.216 86.3685 33.012 86.1525 32.76C85.9365 32.508 85.7625 32.226 85.6305 31.914C85.5105 31.59 85.4505 31.266 85.4505 30.942C85.4505 30.33 85.5405 29.724 85.7205 29.124C85.9125 28.512 86.1825 27.966 86.5305 27.486C86.8785 27.006 87.3105 26.616 87.8265 26.316C88.3425 26.016 88.9245 25.866 89.5725 25.866C89.7405 25.866 89.9145 25.896 90.0945 25.956C90.2865 26.004 90.4665 26.082 90.6345 26.19C90.8025 26.286 90.9465 26.412 91.0665 26.568C91.1865 26.712 91.2645 26.886 91.3005 27.09L91.5345 26.46L92.9565 26.514L91.3905 31.356C91.3545 31.452 91.3185 31.56 91.2825 31.68C91.2585 31.788 91.2405 31.89 91.2285 31.986C91.2165 32.07 91.2285 32.142 91.2645 32.202C91.3125 32.262 91.3905 32.292 91.4985 32.292C91.7625 32.292 92.0325 32.178 92.3085 31.95C92.5965 31.722 92.8545 31.428 93.0825 31.068C93.3225 30.696 93.5145 30.288 93.6585 29.844C93.8145 29.388 93.8925 28.938 93.8925 28.494C93.8925 27.582 93.6465 26.814 93.1545 26.19L93.1185 26.136C92.6985 25.608 92.1525 25.206 91.4805 24.93C90.8085 24.654 90.0945 24.516 89.3385 24.516ZM86.8185 30.906C86.8185 31.302 86.9265 31.626 87.1425 31.878C87.3705 32.13 87.6705 32.256 88.0425 32.256C88.4025 32.256 88.7385 32.136 89.0505 31.896C89.3625 31.656 89.6325 31.362 89.8605 31.014C90.1005 30.654 90.2865 30.27 90.4185 29.862C90.5505 29.454 90.6165 29.076 90.6165 28.728C90.6165 28.272 90.5265 27.906 90.3465 27.63C90.1665 27.354 89.8845 27.216 89.5005 27.216C89.4765 27.216 89.4525 27.216 89.4285 27.216C89.0085 27.216 88.6365 27.336 88.3125 27.576C87.9765 27.816 87.6945 28.122 87.4665 28.494C87.2505 28.854 87.0885 29.256 86.9805 29.7C86.8725 30.132 86.8185 30.534 86.8185 30.906ZM100.062 26.496C100.578 26.496 101.082 26.58 101.574 26.748C102.078 26.916 102.51 27.186 102.87 27.558C103.218 27.198 103.632 26.934 104.112 26.766C104.604 26.586 105.066 26.496 105.498 26.496C106.002 26.496 106.464 26.562 106.884 26.694C107.316 26.814 107.688 27 108 27.252C108.312 27.504 108.552 27.828 108.72 28.224C108.9 28.608 108.99 29.07 108.99 29.61V36H107.55V29.502C107.55 29.178 107.49 28.908 107.37 28.692C107.262 28.464 107.112 28.284 106.92 28.152C106.728 28.02 106.506 27.93 106.254 27.882C106.002 27.834 105.744 27.81 105.48 27.81C105.264 27.81 105.042 27.84 104.814 27.9C104.598 27.96 104.4 28.05 104.22 28.17C104.04 28.278 103.89 28.416 103.77 28.584C103.65 28.752 103.59 28.944 103.59 29.16V36H102.186V29.268C102.186 29.016 102.126 28.8 102.006 28.62C101.886 28.428 101.724 28.278 101.52 28.17C101.316 28.05 101.082 27.96 100.818 27.9C100.566 27.84 100.296 27.81 100.008 27.81C99.6843 27.81 99.3723 27.852 99.0723 27.936C98.7723 28.008 98.5263 28.11 98.3343 28.242V36H96.8943V27.342C97.3263 27.102 97.8183 26.904 98.3703 26.748C98.9343 26.58 99.4983 26.496 100.062 26.496ZM110.933 33.084V29.628C110.933 29.124 111.035 28.68 111.239 28.296C111.443 27.9 111.713 27.576 112.049 27.324C112.397 27.06 112.781 26.862 113.201 26.73C113.633 26.586 114.077 26.514 114.533 26.514C114.929 26.514 115.307 26.556 115.667 26.64C116.027 26.724 116.375 26.874 116.711 27.09V23.4H118.151V35.514C117.539 35.718 116.927 35.88 116.315 36C115.703 36.12 115.097 36.18 114.497 36.18C114.053 36.168 113.615 36.102 113.183 35.982C112.763 35.85 112.385 35.658 112.049 35.406C111.713 35.142 111.443 34.818 111.239 34.434C111.035 34.05 110.933 33.6 110.933 33.084ZM114.497 34.902C114.857 34.902 115.229 34.884 115.613 34.848C115.997 34.812 116.363 34.74 116.711 34.632V28.314C116.363 28.134 115.997 28.002 115.613 27.918C115.241 27.834 114.881 27.792 114.533 27.792C114.257 27.792 113.993 27.834 113.741 27.918C113.489 27.99 113.261 28.104 113.057 28.26C112.853 28.404 112.691 28.596 112.571 28.836C112.451 29.064 112.391 29.328 112.391 29.628V33.066C112.391 33.342 112.451 33.594 112.571 33.822C112.691 34.038 112.847 34.23 113.039 34.398C113.243 34.554 113.471 34.68 113.723 34.776C113.975 34.86 114.233 34.902 114.497 34.902ZM129.361 37.494H120.343V36.054H129.361V37.494ZM134.888 27.936C134.612 27.936 134.342 27.972 134.078 28.044C133.826 28.104 133.598 28.206 133.394 28.35C133.202 28.482 133.04 28.656 132.908 28.872C132.788 29.076 132.728 29.322 132.728 29.61V33.102C132.728 33.378 132.788 33.624 132.908 33.84C133.028 34.056 133.184 34.236 133.376 34.38C133.58 34.524 133.814 34.638 134.078 34.722C134.342 34.794 134.618 34.83 134.906 34.83C135.362 34.83 135.806 34.722 136.238 34.506C136.682 34.29 137.012 33.906 137.228 33.354L138.38 33.894C138.248 34.278 138.056 34.614 137.804 34.902C137.564 35.19 137.288 35.43 136.976 35.622C136.664 35.814 136.328 35.952 135.968 36.036C135.608 36.132 135.248 36.18 134.888 36.18C134.444 36.18 134.006 36.12 133.574 36C133.142 35.868 132.758 35.67 132.422 35.406C132.086 35.142 131.81 34.818 131.594 34.434C131.39 34.05 131.288 33.594 131.288 33.066V29.61C131.288 29.094 131.39 28.644 131.594 28.26C131.81 27.864 132.086 27.534 132.422 27.27C132.758 27.006 133.142 26.814 133.574 26.694C134.006 26.562 134.444 26.496 134.888 26.496C135.548 26.496 136.154 26.622 136.706 26.874C137.27 27.126 137.78 27.618 138.236 28.35L137.102 29.016C136.802 28.536 136.46 28.236 136.076 28.116C135.692 27.996 135.296 27.936 134.888 27.936ZM139.638 29.61C139.638 29.094 139.74 28.644 139.944 28.26C140.16 27.864 140.436 27.54 140.772 27.288C141.108 27.024 141.492 26.826 141.924 26.694C142.356 26.562 142.8 26.496 143.256 26.496C143.7 26.496 144.138 26.562 144.57 26.694C145.002 26.826 145.386 27.024 145.722 27.288C146.058 27.54 146.328 27.864 146.532 28.26C146.736 28.644 146.838 29.094 146.838 29.61V33.066C146.838 33.594 146.736 34.05 146.532 34.434C146.328 34.818 146.058 35.142 145.722 35.406C145.386 35.658 145.002 35.85 144.57 35.982C144.138 36.114 143.7 36.18 143.256 36.18C142.8 36.18 142.356 36.114 141.924 35.982C141.492 35.85 141.108 35.658 140.772 35.406C140.436 35.142 140.16 34.818 139.944 34.434C139.74 34.05 139.638 33.594 139.638 33.066V29.61ZM143.256 27.864C142.992 27.864 142.728 27.9 142.464 27.972C142.212 28.032 141.978 28.134 141.762 28.278C141.558 28.422 141.39 28.602 141.258 28.818C141.138 29.034 141.078 29.286 141.078 29.574V33.084C141.078 33.372 141.138 33.624 141.258 33.84C141.39 34.056 141.558 34.236 141.762 34.38C141.978 34.524 142.212 34.632 142.464 34.704C142.728 34.776 142.992 34.812 143.256 34.812C143.508 34.812 143.76 34.776 144.012 34.704C144.264 34.632 144.492 34.524 144.696 34.38C144.912 34.236 145.08 34.056 145.2 33.84C145.332 33.624 145.398 33.372 145.398 33.084V29.574C145.398 29.286 145.332 29.034 145.2 28.818C145.08 28.602 144.912 28.422 144.696 28.278C144.492 28.134 144.264 28.032 144.012 27.972C143.76 27.9 143.508 27.864 143.256 27.864ZM155.966 29.556V36H154.544V29.502C154.544 29.214 154.478 28.968 154.346 28.764C154.226 28.548 154.064 28.374 153.86 28.242C153.668 28.098 153.446 27.996 153.194 27.936C152.954 27.864 152.708 27.828 152.456 27.828C152.036 27.828 151.628 27.876 151.232 27.972C150.848 28.056 150.524 28.146 150.26 28.242V36H148.82V27.27C149.42 27.066 150.026 26.886 150.638 26.73C151.262 26.574 151.868 26.496 152.456 26.496C152.9 26.508 153.332 26.58 153.752 26.712C154.172 26.832 154.544 27.018 154.868 27.27C155.204 27.522 155.468 27.84 155.66 28.224C155.864 28.596 155.966 29.04 155.966 29.556ZM161.286 34.848C161.502 34.848 161.712 34.818 161.916 34.758C162.12 34.686 162.306 34.59 162.474 34.47C162.642 34.338 162.774 34.182 162.87 34.002C162.966 33.822 163.014 33.612 163.014 33.372C163.014 33.12 162.954 32.916 162.834 32.76C162.726 32.592 162.582 32.46 162.402 32.364C162.222 32.256 162.024 32.172 161.808 32.112C161.592 32.052 161.382 32.004 161.178 31.968C160.794 31.896 160.404 31.812 160.008 31.716C159.624 31.608 159.276 31.452 158.964 31.248C158.652 31.044 158.394 30.786 158.19 30.474C157.998 30.15 157.902 29.736 157.902 29.232C157.902 28.74 158.004 28.32 158.208 27.972C158.424 27.624 158.694 27.342 159.018 27.126C159.342 26.91 159.702 26.754 160.098 26.658C160.506 26.55 160.902 26.496 161.286 26.496C161.778 26.496 162.27 26.586 162.762 26.766C163.266 26.946 163.71 27.228 164.094 27.612L163.212 28.638C162.924 28.338 162.612 28.128 162.276 28.008C161.94 27.888 161.61 27.828 161.286 27.828C161.082 27.828 160.866 27.852 160.638 27.9C160.41 27.936 160.194 28.008 159.99 28.116C159.798 28.224 159.636 28.368 159.504 28.548C159.384 28.716 159.324 28.932 159.324 29.196C159.324 29.472 159.396 29.694 159.54 29.862C159.684 30.03 159.858 30.162 160.062 30.258C160.278 30.354 160.506 30.432 160.746 30.492C160.998 30.54 161.226 30.582 161.43 30.618C161.79 30.69 162.15 30.786 162.51 30.906C162.87 31.026 163.188 31.194 163.464 31.41C163.752 31.614 163.986 31.878 164.166 32.202C164.346 32.526 164.436 32.922 164.436 33.39C164.436 33.858 164.346 34.266 164.166 34.614C163.986 34.962 163.746 35.256 163.446 35.496C163.158 35.724 162.822 35.892 162.438 36C162.066 36.12 161.682 36.18 161.286 36.18C160.554 36.18 159.858 36.036 159.198 35.748C158.55 35.46 157.998 34.956 157.542 34.236L158.622 33.498C158.934 33.966 159.336 34.308 159.828 34.524C160.32 34.74 160.806 34.848 161.286 34.848ZM169.627 36.18C169.183 36.18 168.751 36.114 168.331 35.982C167.911 35.85 167.533 35.658 167.197 35.406C166.873 35.142 166.609 34.818 166.405 34.434C166.201 34.05 166.099 33.6 166.099 33.084V26.676H167.539V33.102C167.539 33.378 167.599 33.624 167.719 33.84C167.839 34.044 167.995 34.218 168.187 34.362C168.391 34.506 168.613 34.62 168.853 34.704C169.105 34.776 169.363 34.812 169.627 34.812C170.047 34.812 170.437 34.788 170.797 34.74C171.169 34.692 171.511 34.614 171.823 34.506V26.676H173.263V35.496C172.831 35.652 172.435 35.778 172.075 35.874C171.715 35.958 171.385 36.024 171.085 36.072C170.785 36.12 170.515 36.15 170.275 36.162C170.035 36.174 169.819 36.18 169.627 36.18ZM178.618 36.18C177.598 36.18 176.812 35.916 176.26 35.388C175.72 34.848 175.45 34.098 175.45 33.138V23.418H176.89V33.138C176.89 33.654 177.028 34.068 177.304 34.38C177.58 34.68 178.018 34.83 178.618 34.83V36.18ZM183.067 36.18C182.599 36.18 182.161 36.114 181.753 35.982C181.357 35.838 181.015 35.634 180.727 35.37C180.439 35.106 180.211 34.788 180.043 34.416C179.887 34.032 179.809 33.6 179.809 33.12V24.318H181.231V26.676H183.139V28.008H181.231V33.12C181.231 33.384 181.285 33.642 181.393 33.894C181.501 34.134 181.657 34.344 181.861 34.524C182.077 34.692 182.329 34.812 182.617 34.884C182.773 34.932 182.941 34.956 183.121 34.956C183.277 34.956 183.445 34.938 183.625 34.902V36.144C183.529 36.156 183.433 36.162 183.337 36.162C183.253 36.174 183.163 36.18 183.067 36.18ZM184.691 29.61C184.691 29.094 184.793 28.644 184.997 28.26C185.213 27.864 185.489 27.54 185.825 27.288C186.161 27.024 186.545 26.826 186.977 26.694C187.409 26.562 187.853 26.496 188.309 26.496C188.753 26.496 189.191 26.562 189.623 26.694C190.055 26.826 190.439 27.024 190.775 27.288C191.111 27.54 191.381 27.864 191.585 28.26C191.789 28.644 191.891 29.094 191.891 29.61V33.066C191.891 33.594 191.789 34.05 191.585 34.434C191.381 34.818 191.111 35.142 190.775 35.406C190.439 35.658 190.055 35.85 189.623 35.982C189.191 36.114 188.753 36.18 188.309 36.18C187.853 36.18 187.409 36.114 186.977 35.982C186.545 35.85 186.161 35.658 185.825 35.406C185.489 35.142 185.213 34.818 184.997 34.434C184.793 34.05 184.691 33.594 184.691 33.066V29.61ZM188.309 27.864C188.045 27.864 187.781 27.9 187.517 27.972C187.265 28.032 187.031 28.134 186.815 28.278C186.611 28.422 186.443 28.602 186.311 28.818C186.191 29.034 186.131 29.286 186.131 29.574V33.084C186.131 33.372 186.191 33.624 186.311 33.84C186.443 34.056 186.611 34.236 186.815 34.38C187.031 34.524 187.265 34.632 187.517 34.704C187.781 34.776 188.045 34.812 188.309 34.812C188.561 34.812 188.813 34.776 189.065 34.704C189.317 34.632 189.545 34.524 189.749 34.38C189.965 34.236 190.133 34.056 190.253 33.84C190.385 33.624 190.451 33.372 190.451 33.084V29.574C190.451 29.286 190.385 29.034 190.253 28.818C190.133 28.602 189.965 28.422 189.749 28.278C189.545 28.134 189.317 28.032 189.065 27.972C188.813 27.9 188.561 27.864 188.309 27.864ZM197.383 27.864C197.095 27.864 196.825 27.9 196.573 27.972C196.321 28.044 196.099 28.158 195.907 28.314C195.715 28.458 195.559 28.638 195.439 28.854C195.331 29.07 195.277 29.322 195.277 29.61V36H193.837V29.61C193.837 29.082 193.939 28.626 194.143 28.242C194.359 27.846 194.635 27.522 194.971 27.27C195.307 27.018 195.679 26.826 196.087 26.694C196.507 26.562 196.921 26.496 197.329 26.496C197.461 26.496 197.593 26.502 197.725 26.514C197.869 26.526 198.007 26.544 198.139 26.568V27.918C198.007 27.894 197.881 27.882 197.761 27.882C197.641 27.87 197.515 27.864 197.383 27.864ZM199.192 24.084C199.192 23.784 199.294 23.532 199.498 23.328C199.702 23.124 199.954 23.022 200.254 23.022C200.554 23.022 200.806 23.124 201.01 23.328C201.214 23.532 201.316 23.784 201.316 24.084C201.316 24.384 201.214 24.636 201.01 24.84C200.806 25.044 200.554 25.146 200.254 25.146C199.954 25.146 199.702 25.044 199.498 24.84C199.294 24.636 199.192 24.384 199.192 24.084ZM200.956 36H199.444V26.676H200.956V36ZM208.444 29.502C208.444 29.238 208.378 29.004 208.246 28.8C208.126 28.584 207.964 28.404 207.76 28.26C207.556 28.116 207.322 28.008 207.058 27.936C206.794 27.864 206.524 27.828 206.248 27.828C205.828 27.828 205.408 27.912 204.988 28.08C204.568 28.236 204.22 28.488 203.944 28.836L203.044 27.954C203.476 27.474 203.986 27.114 204.574 26.874C205.174 26.622 205.768 26.496 206.356 26.496C206.8 26.496 207.232 26.562 207.652 26.694C208.084 26.814 208.462 27 208.786 27.252C209.122 27.492 209.386 27.804 209.578 28.188C209.782 28.56 209.884 28.998 209.884 29.502V35.55C209.236 35.778 208.588 35.94 207.94 36.036C207.364 36.132 206.794 36.18 206.23 36.18C206.158 36.18 206.092 36.18 206.032 36.18C205.564 36.18 205.126 36.12 204.718 36C204.31 35.88 203.956 35.7 203.656 35.46C203.368 35.22 203.134 34.92 202.954 34.56C202.786 34.2 202.702 33.768 202.702 33.264C202.702 32.748 202.798 32.304 202.99 31.932C203.194 31.56 203.458 31.254 203.782 31.014C204.106 30.774 204.478 30.594 204.898 30.474C205.318 30.354 205.756 30.294 206.212 30.294C206.992 30.294 207.736 30.444 208.444 30.744V29.502ZM206.356 31.428C206.068 31.428 205.786 31.464 205.51 31.536C205.246 31.596 205.012 31.698 204.808 31.842C204.604 31.986 204.436 32.178 204.304 32.418C204.184 32.646 204.124 32.928 204.124 33.264C204.124 33.864 204.31 34.296 204.682 34.56C205.054 34.812 205.516 34.944 206.068 34.956C206.2 34.956 206.332 34.956 206.464 34.956C206.728 34.956 206.992 34.95 207.256 34.938C207.664 34.914 208.06 34.86 208.444 34.776V31.788C208.156 31.692 207.832 31.608 207.472 31.536C207.112 31.464 206.74 31.428 206.356 31.428Z" fill="#0D3643"/>
</svg>
