<svg width="273" height="56" viewBox="0 0 273 56" fill="none" xmlns="http://www.w3.org/2000/svg">
<rect width="273" height="56" rx="1" fill="#63A887"/>
<path d="M37.875 17H46.125C49.9214 17 53 20.0786 53 23.875V32.125C53 35.9214 49.9214 39 46.125 39H37.875C34.0786 39 31 35.9214 31 32.125V23.875C31 20.0786 34.0786 17 37.875 17ZM33.0625 32.125C33.0625 34.7787 35.2213 36.9375 37.875 36.9375H46.125C48.7787 36.9375 50.9375 34.7787 50.9375 32.125V23.875C50.9375 21.2213 48.7787 19.0625 46.125 19.0625H37.875C35.2213 19.0625 33.0625 21.2213 33.0625 23.875V32.125Z" fill="white"/>
<path d="M42 22.5C45.0374 22.5 47.5 24.9626 47.5 28C47.5 31.0374 45.0374 33.5 42 33.5C38.9626 33.5 36.5 31.0374 36.5 28C36.5 24.9626 38.9626 22.5 42 22.5ZM42 31.4375C43.8948 31.4375 45.4375 29.8948 45.4375 28C45.4375 26.1039 43.8948 24.5625 42 24.5625C40.1052 24.5625 38.5625 26.1039 38.5625 28C38.5625 29.8948 40.1052 31.4375 42 31.4375Z" fill="white"/>
<path d="M36.0876 22.8205C35.6828 22.8205 35.3547 22.4924 35.3547 22.0876C35.3547 21.6829 35.6828 21.3547 36.0876 21.3547C36.4923 21.3547 36.8204 21.6829 36.8204 22.0876C36.8204 22.4924 36.4923 22.8205 36.0876 22.8205Z" fill="white"/>
<path d="M87.3385 22.516C86.6065 22.516 85.9285 22.66 85.3045 22.948C84.6925 23.224 84.1585 23.602 83.7025 24.082C83.2465 24.55 82.8865 25.096 82.6225 25.72C82.3705 26.344 82.2445 26.998 82.2445 27.682C82.2445 28.45 82.3465 29.152 82.5505 29.788C82.7665 30.424 83.0845 30.976 83.5045 31.444C83.9245 31.9 84.4465 32.254 85.0705 32.506C85.7065 32.758 86.4445 32.884 87.2845 32.884C87.5605 32.884 87.8485 32.86 88.1485 32.812C88.4485 32.752 88.7785 32.65 89.1385 32.506L89.7505 33.658C89.2825 33.838 88.8505 33.964 88.4545 34.036C88.0585 34.12 87.6685 34.162 87.2845 34.162C86.1805 34.162 85.2205 33.994 84.4045 33.658C83.6005 33.322 82.9345 32.86 82.4065 32.272C81.8905 31.684 81.5065 31 81.2545 30.22C81.0025 29.428 80.8765 28.582 80.8765 27.682C80.8765 26.782 81.0385 25.942 81.3625 25.162C81.6985 24.37 82.1545 23.686 82.7305 23.11C83.3185 22.522 84.0025 22.06 84.7825 21.724C85.5625 21.388 86.4025 21.22 87.3025 21.22C88.1545 21.22 88.9405 21.358 89.6605 21.634C90.3925 21.898 91.0225 22.27 91.5505 22.75C92.0905 23.218 92.5105 23.776 92.8105 24.424C93.1105 25.06 93.2605 25.75 93.2605 26.494C93.2605 27.226 93.1405 27.91 92.9005 28.546C92.6605 29.17 92.3425 29.716 91.9465 30.184C91.5505 30.652 91.1065 31.018 90.6145 31.282C90.1225 31.546 89.6245 31.678 89.1205 31.678C88.8445 31.678 88.5865 31.6 88.3465 31.444C88.1185 31.276 87.9925 30.982 87.9685 30.562C87.7405 30.922 87.4345 31.186 87.0505 31.354C86.6665 31.522 86.2825 31.606 85.8985 31.606C85.5505 31.606 85.2265 31.528 84.9265 31.372C84.6265 31.216 84.3685 31.012 84.1525 30.76C83.9365 30.508 83.7625 30.226 83.6305 29.914C83.5105 29.59 83.4505 29.266 83.4505 28.942C83.4505 28.33 83.5405 27.724 83.7205 27.124C83.9125 26.512 84.1825 25.966 84.5305 25.486C84.8785 25.006 85.3105 24.616 85.8265 24.316C86.3425 24.016 86.9245 23.866 87.5725 23.866C87.7405 23.866 87.9145 23.896 88.0945 23.956C88.2865 24.004 88.4665 24.082 88.6345 24.19C88.8025 24.286 88.9465 24.412 89.0665 24.568C89.1865 24.712 89.2645 24.886 89.3005 25.09L89.5345 24.46L90.9565 24.514L89.3905 29.356C89.3545 29.452 89.3185 29.56 89.2825 29.68C89.2585 29.788 89.2405 29.89 89.2285 29.986C89.2165 30.07 89.2285 30.142 89.2645 30.202C89.3125 30.262 89.3905 30.292 89.4985 30.292C89.7625 30.292 90.0325 30.178 90.3085 29.95C90.5965 29.722 90.8545 29.428 91.0825 29.068C91.3225 28.696 91.5145 28.288 91.6585 27.844C91.8145 27.388 91.8925 26.938 91.8925 26.494C91.8925 25.582 91.6465 24.814 91.1545 24.19L91.1185 24.136C90.6985 23.608 90.1525 23.206 89.4805 22.93C88.8085 22.654 88.0945 22.516 87.3385 22.516ZM84.8185 28.906C84.8185 29.302 84.9265 29.626 85.1425 29.878C85.3705 30.13 85.6705 30.256 86.0425 30.256C86.4025 30.256 86.7385 30.136 87.0505 29.896C87.3625 29.656 87.6325 29.362 87.8605 29.014C88.1005 28.654 88.2865 28.27 88.4185 27.862C88.5505 27.454 88.6165 27.076 88.6165 26.728C88.6165 26.272 88.5265 25.906 88.3465 25.63C88.1665 25.354 87.8845 25.216 87.5005 25.216C87.4765 25.216 87.4525 25.216 87.4285 25.216C87.0085 25.216 86.6365 25.336 86.3125 25.576C85.9765 25.816 85.6945 26.122 85.4665 26.494C85.2505 26.854 85.0885 27.256 84.9805 27.7C84.8725 28.132 84.8185 28.534 84.8185 28.906ZM98.0623 24.496C98.5783 24.496 99.0823 24.58 99.5743 24.748C100.078 24.916 100.51 25.186 100.87 25.558C101.218 25.198 101.632 24.934 102.112 24.766C102.604 24.586 103.066 24.496 103.498 24.496C104.002 24.496 104.464 24.562 104.884 24.694C105.316 24.814 105.688 25 106 25.252C106.312 25.504 106.552 25.828 106.72 26.224C106.9 26.608 106.99 27.07 106.99 27.61V34H105.55V27.502C105.55 27.178 105.49 26.908 105.37 26.692C105.262 26.464 105.112 26.284 104.92 26.152C104.728 26.02 104.506 25.93 104.254 25.882C104.002 25.834 103.744 25.81 103.48 25.81C103.264 25.81 103.042 25.84 102.814 25.9C102.598 25.96 102.4 26.05 102.22 26.17C102.04 26.278 101.89 26.416 101.77 26.584C101.65 26.752 101.59 26.944 101.59 27.16V34H100.186V27.268C100.186 27.016 100.126 26.8 100.006 26.62C99.8863 26.428 99.7243 26.278 99.5203 26.17C99.3163 26.05 99.0823 25.96 98.8183 25.9C98.5663 25.84 98.2963 25.81 98.0083 25.81C97.6843 25.81 97.3723 25.852 97.0723 25.936C96.7723 26.008 96.5263 26.11 96.3343 26.242V34H94.8943V25.342C95.3263 25.102 95.8183 24.904 96.3703 24.748C96.9343 24.58 97.4983 24.496 98.0623 24.496ZM108.933 31.084V27.628C108.933 27.124 109.035 26.68 109.239 26.296C109.443 25.9 109.713 25.576 110.049 25.324C110.397 25.06 110.781 24.862 111.201 24.73C111.633 24.586 112.077 24.514 112.533 24.514C112.929 24.514 113.307 24.556 113.667 24.64C114.027 24.724 114.375 24.874 114.711 25.09V21.4H116.151V33.514C115.539 33.718 114.927 33.88 114.315 34C113.703 34.12 113.097 34.18 112.497 34.18C112.053 34.168 111.615 34.102 111.183 33.982C110.763 33.85 110.385 33.658 110.049 33.406C109.713 33.142 109.443 32.818 109.239 32.434C109.035 32.05 108.933 31.6 108.933 31.084ZM112.497 32.902C112.857 32.902 113.229 32.884 113.613 32.848C113.997 32.812 114.363 32.74 114.711 32.632V26.314C114.363 26.134 113.997 26.002 113.613 25.918C113.241 25.834 112.881 25.792 112.533 25.792C112.257 25.792 111.993 25.834 111.741 25.918C111.489 25.99 111.261 26.104 111.057 26.26C110.853 26.404 110.691 26.596 110.571 26.836C110.451 27.064 110.391 27.328 110.391 27.628V31.066C110.391 31.342 110.451 31.594 110.571 31.822C110.691 32.038 110.847 32.23 111.039 32.398C111.243 32.554 111.471 32.68 111.723 32.776C111.975 32.86 112.233 32.902 112.497 32.902ZM127.361 35.494H118.343V34.054H127.361V35.494ZM132.888 25.936C132.612 25.936 132.342 25.972 132.078 26.044C131.826 26.104 131.598 26.206 131.394 26.35C131.202 26.482 131.04 26.656 130.908 26.872C130.788 27.076 130.728 27.322 130.728 27.61V31.102C130.728 31.378 130.788 31.624 130.908 31.84C131.028 32.056 131.184 32.236 131.376 32.38C131.58 32.524 131.814 32.638 132.078 32.722C132.342 32.794 132.618 32.83 132.906 32.83C133.362 32.83 133.806 32.722 134.238 32.506C134.682 32.29 135.012 31.906 135.228 31.354L136.38 31.894C136.248 32.278 136.056 32.614 135.804 32.902C135.564 33.19 135.288 33.43 134.976 33.622C134.664 33.814 134.328 33.952 133.968 34.036C133.608 34.132 133.248 34.18 132.888 34.18C132.444 34.18 132.006 34.12 131.574 34C131.142 33.868 130.758 33.67 130.422 33.406C130.086 33.142 129.81 32.818 129.594 32.434C129.39 32.05 129.288 31.594 129.288 31.066V27.61C129.288 27.094 129.39 26.644 129.594 26.26C129.81 25.864 130.086 25.534 130.422 25.27C130.758 25.006 131.142 24.814 131.574 24.694C132.006 24.562 132.444 24.496 132.888 24.496C133.548 24.496 134.154 24.622 134.706 24.874C135.27 25.126 135.78 25.618 136.236 26.35L135.102 27.016C134.802 26.536 134.46 26.236 134.076 26.116C133.692 25.996 133.296 25.936 132.888 25.936ZM137.638 27.61C137.638 27.094 137.74 26.644 137.944 26.26C138.16 25.864 138.436 25.54 138.772 25.288C139.108 25.024 139.492 24.826 139.924 24.694C140.356 24.562 140.8 24.496 141.256 24.496C141.7 24.496 142.138 24.562 142.57 24.694C143.002 24.826 143.386 25.024 143.722 25.288C144.058 25.54 144.328 25.864 144.532 26.26C144.736 26.644 144.838 27.094 144.838 27.61V31.066C144.838 31.594 144.736 32.05 144.532 32.434C144.328 32.818 144.058 33.142 143.722 33.406C143.386 33.658 143.002 33.85 142.57 33.982C142.138 34.114 141.7 34.18 141.256 34.18C140.8 34.18 140.356 34.114 139.924 33.982C139.492 33.85 139.108 33.658 138.772 33.406C138.436 33.142 138.16 32.818 137.944 32.434C137.74 32.05 137.638 31.594 137.638 31.066V27.61ZM141.256 25.864C140.992 25.864 140.728 25.9 140.464 25.972C140.212 26.032 139.978 26.134 139.762 26.278C139.558 26.422 139.39 26.602 139.258 26.818C139.138 27.034 139.078 27.286 139.078 27.574V31.084C139.078 31.372 139.138 31.624 139.258 31.84C139.39 32.056 139.558 32.236 139.762 32.38C139.978 32.524 140.212 32.632 140.464 32.704C140.728 32.776 140.992 32.812 141.256 32.812C141.508 32.812 141.76 32.776 142.012 32.704C142.264 32.632 142.492 32.524 142.696 32.38C142.912 32.236 143.08 32.056 143.2 31.84C143.332 31.624 143.398 31.372 143.398 31.084V27.574C143.398 27.286 143.332 27.034 143.2 26.818C143.08 26.602 142.912 26.422 142.696 26.278C142.492 26.134 142.264 26.032 142.012 25.972C141.76 25.9 141.508 25.864 141.256 25.864ZM153.966 27.556V34H152.544V27.502C152.544 27.214 152.478 26.968 152.346 26.764C152.226 26.548 152.064 26.374 151.86 26.242C151.668 26.098 151.446 25.996 151.194 25.936C150.954 25.864 150.708 25.828 150.456 25.828C150.036 25.828 149.628 25.876 149.232 25.972C148.848 26.056 148.524 26.146 148.26 26.242V34H146.82V25.27C147.42 25.066 148.026 24.886 148.638 24.73C149.262 24.574 149.868 24.496 150.456 24.496C150.9 24.508 151.332 24.58 151.752 24.712C152.172 24.832 152.544 25.018 152.868 25.27C153.204 25.522 153.468 25.84 153.66 26.224C153.864 26.596 153.966 27.04 153.966 27.556ZM159.286 32.848C159.502 32.848 159.712 32.818 159.916 32.758C160.12 32.686 160.306 32.59 160.474 32.47C160.642 32.338 160.774 32.182 160.87 32.002C160.966 31.822 161.014 31.612 161.014 31.372C161.014 31.12 160.954 30.916 160.834 30.76C160.726 30.592 160.582 30.46 160.402 30.364C160.222 30.256 160.024 30.172 159.808 30.112C159.592 30.052 159.382 30.004 159.178 29.968C158.794 29.896 158.404 29.812 158.008 29.716C157.624 29.608 157.276 29.452 156.964 29.248C156.652 29.044 156.394 28.786 156.19 28.474C155.998 28.15 155.902 27.736 155.902 27.232C155.902 26.74 156.004 26.32 156.208 25.972C156.424 25.624 156.694 25.342 157.018 25.126C157.342 24.91 157.702 24.754 158.098 24.658C158.506 24.55 158.902 24.496 159.286 24.496C159.778 24.496 160.27 24.586 160.762 24.766C161.266 24.946 161.71 25.228 162.094 25.612L161.212 26.638C160.924 26.338 160.612 26.128 160.276 26.008C159.94 25.888 159.61 25.828 159.286 25.828C159.082 25.828 158.866 25.852 158.638 25.9C158.41 25.936 158.194 26.008 157.99 26.116C157.798 26.224 157.636 26.368 157.504 26.548C157.384 26.716 157.324 26.932 157.324 27.196C157.324 27.472 157.396 27.694 157.54 27.862C157.684 28.03 157.858 28.162 158.062 28.258C158.278 28.354 158.506 28.432 158.746 28.492C158.998 28.54 159.226 28.582 159.43 28.618C159.79 28.69 160.15 28.786 160.51 28.906C160.87 29.026 161.188 29.194 161.464 29.41C161.752 29.614 161.986 29.878 162.166 30.202C162.346 30.526 162.436 30.922 162.436 31.39C162.436 31.858 162.346 32.266 162.166 32.614C161.986 32.962 161.746 33.256 161.446 33.496C161.158 33.724 160.822 33.892 160.438 34C160.066 34.12 159.682 34.18 159.286 34.18C158.554 34.18 157.858 34.036 157.198 33.748C156.55 33.46 155.998 32.956 155.542 32.236L156.622 31.498C156.934 31.966 157.336 32.308 157.828 32.524C158.32 32.74 158.806 32.848 159.286 32.848ZM167.627 34.18C167.183 34.18 166.751 34.114 166.331 33.982C165.911 33.85 165.533 33.658 165.197 33.406C164.873 33.142 164.609 32.818 164.405 32.434C164.201 32.05 164.099 31.6 164.099 31.084V24.676H165.539V31.102C165.539 31.378 165.599 31.624 165.719 31.84C165.839 32.044 165.995 32.218 166.187 32.362C166.391 32.506 166.613 32.62 166.853 32.704C167.105 32.776 167.363 32.812 167.627 32.812C168.047 32.812 168.437 32.788 168.797 32.74C169.169 32.692 169.511 32.614 169.823 32.506V24.676H171.263V33.496C170.831 33.652 170.435 33.778 170.075 33.874C169.715 33.958 169.385 34.024 169.085 34.072C168.785 34.12 168.515 34.15 168.275 34.162C168.035 34.174 167.819 34.18 167.627 34.18ZM176.618 34.18C175.598 34.18 174.812 33.916 174.26 33.388C173.72 32.848 173.45 32.098 173.45 31.138V21.418H174.89V31.138C174.89 31.654 175.028 32.068 175.304 32.38C175.58 32.68 176.018 32.83 176.618 32.83V34.18ZM181.067 34.18C180.599 34.18 180.161 34.114 179.753 33.982C179.357 33.838 179.015 33.634 178.727 33.37C178.439 33.106 178.211 32.788 178.043 32.416C177.887 32.032 177.809 31.6 177.809 31.12V22.318H179.231V24.676H181.139V26.008H179.231V31.12C179.231 31.384 179.285 31.642 179.393 31.894C179.501 32.134 179.657 32.344 179.861 32.524C180.077 32.692 180.329 32.812 180.617 32.884C180.773 32.932 180.941 32.956 181.121 32.956C181.277 32.956 181.445 32.938 181.625 32.902V34.144C181.529 34.156 181.433 34.162 181.337 34.162C181.253 34.174 181.163 34.18 181.067 34.18ZM182.691 27.61C182.691 27.094 182.793 26.644 182.997 26.26C183.213 25.864 183.489 25.54 183.825 25.288C184.161 25.024 184.545 24.826 184.977 24.694C185.409 24.562 185.853 24.496 186.309 24.496C186.753 24.496 187.191 24.562 187.623 24.694C188.055 24.826 188.439 25.024 188.775 25.288C189.111 25.54 189.381 25.864 189.585 26.26C189.789 26.644 189.891 27.094 189.891 27.61V31.066C189.891 31.594 189.789 32.05 189.585 32.434C189.381 32.818 189.111 33.142 188.775 33.406C188.439 33.658 188.055 33.85 187.623 33.982C187.191 34.114 186.753 34.18 186.309 34.18C185.853 34.18 185.409 34.114 184.977 33.982C184.545 33.85 184.161 33.658 183.825 33.406C183.489 33.142 183.213 32.818 182.997 32.434C182.793 32.05 182.691 31.594 182.691 31.066V27.61ZM186.309 25.864C186.045 25.864 185.781 25.9 185.517 25.972C185.265 26.032 185.031 26.134 184.815 26.278C184.611 26.422 184.443 26.602 184.311 26.818C184.191 27.034 184.131 27.286 184.131 27.574V31.084C184.131 31.372 184.191 31.624 184.311 31.84C184.443 32.056 184.611 32.236 184.815 32.38C185.031 32.524 185.265 32.632 185.517 32.704C185.781 32.776 186.045 32.812 186.309 32.812C186.561 32.812 186.813 32.776 187.065 32.704C187.317 32.632 187.545 32.524 187.749 32.38C187.965 32.236 188.133 32.056 188.253 31.84C188.385 31.624 188.451 31.372 188.451 31.084V27.574C188.451 27.286 188.385 27.034 188.253 26.818C188.133 26.602 187.965 26.422 187.749 26.278C187.545 26.134 187.317 26.032 187.065 25.972C186.813 25.9 186.561 25.864 186.309 25.864ZM195.383 25.864C195.095 25.864 194.825 25.9 194.573 25.972C194.321 26.044 194.099 26.158 193.907 26.314C193.715 26.458 193.559 26.638 193.439 26.854C193.331 27.07 193.277 27.322 193.277 27.61V34H191.837V27.61C191.837 27.082 191.939 26.626 192.143 26.242C192.359 25.846 192.635 25.522 192.971 25.27C193.307 25.018 193.679 24.826 194.087 24.694C194.507 24.562 194.921 24.496 195.329 24.496C195.461 24.496 195.593 24.502 195.725 24.514C195.869 24.526 196.007 24.544 196.139 24.568V25.918C196.007 25.894 195.881 25.882 195.761 25.882C195.641 25.87 195.515 25.864 195.383 25.864ZM197.192 22.084C197.192 21.784 197.294 21.532 197.498 21.328C197.702 21.124 197.954 21.022 198.254 21.022C198.554 21.022 198.806 21.124 199.01 21.328C199.214 21.532 199.316 21.784 199.316 22.084C199.316 22.384 199.214 22.636 199.01 22.84C198.806 23.044 198.554 23.146 198.254 23.146C197.954 23.146 197.702 23.044 197.498 22.84C197.294 22.636 197.192 22.384 197.192 22.084ZM198.956 34H197.444V24.676H198.956V34ZM206.444 27.502C206.444 27.238 206.378 27.004 206.246 26.8C206.126 26.584 205.964 26.404 205.76 26.26C205.556 26.116 205.322 26.008 205.058 25.936C204.794 25.864 204.524 25.828 204.248 25.828C203.828 25.828 203.408 25.912 202.988 26.08C202.568 26.236 202.22 26.488 201.944 26.836L201.044 25.954C201.476 25.474 201.986 25.114 202.574 24.874C203.174 24.622 203.768 24.496 204.356 24.496C204.8 24.496 205.232 24.562 205.652 24.694C206.084 24.814 206.462 25 206.786 25.252C207.122 25.492 207.386 25.804 207.578 26.188C207.782 26.56 207.884 26.998 207.884 27.502V33.55C207.236 33.778 206.588 33.94 205.94 34.036C205.364 34.132 204.794 34.18 204.23 34.18C204.158 34.18 204.092 34.18 204.032 34.18C203.564 34.18 203.126 34.12 202.718 34C202.31 33.88 201.956 33.7 201.656 33.46C201.368 33.22 201.134 32.92 200.954 32.56C200.786 32.2 200.702 31.768 200.702 31.264C200.702 30.748 200.798 30.304 200.99 29.932C201.194 29.56 201.458 29.254 201.782 29.014C202.106 28.774 202.478 28.594 202.898 28.474C203.318 28.354 203.756 28.294 204.212 28.294C204.992 28.294 205.736 28.444 206.444 28.744V27.502ZM204.356 29.428C204.068 29.428 203.786 29.464 203.51 29.536C203.246 29.596 203.012 29.698 202.808 29.842C202.604 29.986 202.436 30.178 202.304 30.418C202.184 30.646 202.124 30.928 202.124 31.264C202.124 31.864 202.31 32.296 202.682 32.56C203.054 32.812 203.516 32.944 204.068 32.956C204.2 32.956 204.332 32.956 204.464 32.956C204.728 32.956 204.992 32.95 205.256 32.938C205.664 32.914 206.06 32.86 206.444 32.776V29.788C206.156 29.692 205.832 29.608 205.472 29.536C205.112 29.464 204.74 29.428 204.356 29.428Z" fill="white"/>
</svg>
