<svg width="76" height="104" viewBox="0 0 76 104" fill="none" xmlns="http://www.w3.org/2000/svg">
<path d="M64.8629 26.7116V37.9137C64.8629 58.3774 54.7125 78.6416 38 90.1396C21.2874 78.6416 11.1233 58.3774 11.1233 37.9137V26.7116C20.9535 25.034 30.2056 20.9273 38.0345 14.7664C45.8396 20.9148 55.0618 25.0209 64.8629 26.7116Z" fill="#C4E0BF"/>
<path d="M50.4068 47.3747V55.6318H42.1264V63.8889H33.846V55.6318H25.5657V47.3747H33.846V39.1177H42.1264V47.3747H50.4068Z" fill="white"/>
<path d="M33.8667 64.6803H42.147C42.2503 64.6803 42.3526 64.66 42.4481 64.6206C42.5435 64.5812 42.6302 64.5234 42.7033 64.4506C42.7763 64.3777 42.8343 64.2913 42.8738 64.1961C42.9133 64.1009 42.9337 63.9989 42.9337 63.8959V56.4233H50.4067C50.6148 56.4215 50.8138 56.3382 50.961 56.1915C51.1081 56.0448 51.1915 55.8463 51.1933 55.6388V47.3818C51.1915 47.1743 51.1081 46.9758 50.961 46.8291C50.8138 46.6824 50.6148 46.5991 50.4067 46.5974H42.9199V39.1316C42.9199 38.9235 42.837 38.724 42.6895 38.5769C42.542 38.4298 42.3419 38.3472 42.1332 38.3472H33.8529C33.7496 38.3472 33.6473 38.3675 33.5518 38.4069C33.4564 38.4463 33.3697 38.5041 33.2966 38.5769C33.2236 38.6498 33.1656 38.7362 33.1261 38.8314C33.0866 38.9266 33.0662 39.0286 33.0662 39.1316V46.5905H25.5932C25.3912 46.601 25.2008 46.688 25.061 46.8338C24.9212 46.9796 24.8425 47.1732 24.8411 47.3749V55.632C24.8408 55.8349 24.9187 56.0301 25.0587 56.1774C25.1986 56.3247 25.39 56.4127 25.5932 56.4233H33.08V63.8684C33.0763 63.9737 33.0939 64.0787 33.1318 64.177C33.1697 64.2754 33.227 64.3651 33.3004 64.4409C33.3739 64.5167 33.4618 64.577 33.5591 64.6181C33.6564 64.6592 33.761 64.6804 33.8667 64.6803ZM26.3798 54.8407V48.1662H33.8667C34.0753 48.1662 34.2754 48.0835 34.4229 47.9364C34.5704 47.7893 34.6533 47.5898 34.6533 47.3818V39.9091H41.3466V47.3749C41.3466 47.5836 41.4293 47.7838 41.5766 47.932C41.7239 48.0802 41.924 48.1644 42.1332 48.1662H49.6201V54.8407H42.1332C41.9252 54.8425 41.7261 54.9257 41.579 55.0724C41.4319 55.2191 41.3484 55.4176 41.3466 55.6251V63.084H34.6533V55.6251C34.6533 55.417 34.5704 55.2175 34.4229 55.0704C34.2754 54.9233 34.0753 54.8407 33.8667 54.8407H26.3798Z" fill="#0D3643"/>
<path d="M65.6633 37.9135V26.7114C65.6616 26.5206 65.5909 26.3368 65.4641 26.194C65.3373 26.0511 65.163 25.9587 64.9733 25.9338C55.3002 24.2611 46.1979 20.21 38.4899 14.1469C38.3492 14.0397 38.1771 13.9817 38 13.9817C37.8229 13.9817 37.6508 14.0397 37.5101 14.1469C29.7922 20.2152 20.6774 24.2666 10.9922 25.9338C10.8113 25.969 10.6484 26.0658 10.5313 26.2077C10.4142 26.3495 10.3503 26.5276 10.3505 26.7114V37.9135C10.3505 58.9896 20.7837 79.2332 37.5653 90.7518C37.6984 90.8394 37.8543 90.8861 38.0138 90.8861C38.1733 90.8861 38.3292 90.8394 38.4623 90.7518C55.237 79.2401 65.6633 58.9896 65.6633 37.9135ZM38.7521 88.6118L38 89.1623L37.2479 88.6118C21.6187 77.2859 11.9099 57.8543 11.9099 37.9135V27.3719L12.9381 27.1655C21.7462 25.3873 30.0518 21.6915 37.2617 16.3419L38.0276 15.7708L38.7935 16.3419C45.9872 21.6841 54.2732 25.3797 63.0619 27.1655L64.0901 27.3719V37.9135C64.0901 57.8543 54.3813 77.2859 38.7521 88.6118Z" fill="#0D3643"/>
<path d="M65.2908 76.0061C65.9615 76.0061 66.5052 75.4639 66.5052 74.795C66.5052 74.1262 65.9615 73.584 65.2908 73.584C64.62 73.584 64.0763 74.1262 64.0763 74.795C64.0763 75.4639 64.62 76.0061 65.2908 76.0061Z" fill="#0D3643"/>
<path d="M70.183 66.8065C74.0199 57.6518 75.9971 47.8289 76 37.9068V17.2641C75.9911 17.0621 75.9043 16.8713 75.7578 16.7316C75.6112 16.5918 75.4162 16.5139 75.2134 16.5141C68.7585 16.5274 62.3651 15.2645 56.4028 12.7985C50.4405 10.3324 45.0276 6.71205 40.4772 2.14683L38.5589 0.227065C38.4094 0.0816416 38.2088 0.000244141 38 0.000244141C37.7912 0.000244141 37.5906 0.0816416 37.4411 0.227065L35.5228 2.14683C30.9729 6.71266 25.5601 10.3334 19.5977 12.7995C13.6352 15.2656 7.24158 16.5282 0.786635 16.5141C0.581544 16.5141 0.384535 16.5939 0.237593 16.7365C0.0906511 16.8792 0.00539712 17.0735 0 17.2779L0 37.9206C0 64.756 14.7667 90.2497 37.6205 102.911C37.7378 102.975 37.8695 103.009 38.0035 103.009C38.1374 103.009 38.2691 102.975 38.3864 102.911C47.2301 97.9808 54.916 91.2245 60.9297 83.0936C61.0527 82.9264 61.1044 82.7175 61.0733 82.5125C61.0423 82.3075 60.9311 82.1231 60.7641 81.9995C60.6823 81.9376 60.5888 81.8929 60.4892 81.868C60.3895 81.8432 60.2859 81.8388 60.1845 81.855C60.0823 81.8686 59.9839 81.9023 59.8951 81.9543C59.8062 82.0063 59.7286 82.0755 59.667 82.1578C54.0215 89.7918 46.8656 96.1899 38.6417 100.956L38 101.321L37.3583 100.95C15.6223 88.3988 1.57327 63.6551 1.57327 37.9137V18.0692L2.80153 18.021C15.5358 17.5254 27.6124 12.2513 36.613 3.25466L37.9931 1.87848L39.3732 3.25466C48.3731 12.2524 60.4501 17.5268 73.1847 18.021L74.4129 18.0692V37.9137C74.4087 47.6253 72.4739 57.2397 68.7202 66.201C68.6806 66.2963 68.6604 66.3985 68.6605 66.5016C68.6606 66.6048 68.6811 66.7069 68.7208 66.8021C68.7606 66.8974 68.8188 66.9838 68.8921 67.0566C68.9654 67.1294 69.0523 67.187 69.148 67.2263C69.2433 67.2689 69.3462 67.2918 69.4506 67.2937C69.5551 67.2955 69.6588 67.2763 69.7555 67.237C69.8522 67.1978 69.94 67.1394 70.0135 67.0654C70.087 66.9914 70.1446 66.9034 70.183 66.8065Z" fill="#0D3643"/>
</svg>
