<svg width="103" height="102" viewBox="0 0 103 102" fill="none" xmlns="http://www.w3.org/2000/svg">
<path d="M49.7136 77.8124C50.2018 77.8138 50.6787 77.9599 51.0839 78.2322C51.4892 78.5046 51.8047 78.8909 51.9905 79.3424C52.1763 79.7939 52.2242 80.2903 52.1281 80.769C52.0319 81.2477 51.7961 81.6872 51.4503 82.0319C51.1046 82.3766 50.6644 82.6112 50.1854 82.7059C49.7065 82.8006 49.2101 82.7513 48.7592 82.5641C48.3083 82.3769 47.9229 82.0603 47.6518 81.6542C47.3807 81.2481 47.236 80.7708 47.236 80.2826C47.235 79.9567 47.2987 79.6338 47.4234 79.3327C47.5481 79.0316 47.7314 78.7582 47.9625 78.5285C48.1936 78.2987 48.4681 78.1171 48.7699 77.9942C49.0718 77.8712 49.395 77.8094 49.7209 77.8124H49.7136Z" fill="#0D3643"/>
<path d="M96.3465 74.8569C100.145 67.7793 102.203 59.8993 102.353 51.8685C102.503 43.8376 100.739 35.8865 97.2067 28.6724L59.7121 51.8896L96.3465 74.8569Z" fill="#C4E0BF"/>
<path d="M53.9335 57.9036L37.1271 99.1256C46.9372 102.156 57.4392 102.114 67.225 99.0067C77.0108 95.899 85.6125 89.8735 91.8766 81.7384L53.9335 57.9036Z" fill="#C4E0BF"/>
<path d="M96.8979 75.1656C100.905 67.707 103.002 59.3714 103 50.9044C103.022 43.0855 101.233 35.3677 97.7728 28.3562C97.7337 28.2774 97.679 28.2075 97.612 28.1506C97.545 28.0938 97.4672 28.0511 97.3832 28.0253C97.3246 28.0182 97.2653 28.0182 97.2067 28.0253C97.0871 28.0238 96.9696 28.057 96.8685 28.1209L59.4107 51.3234C59.3193 51.3803 59.2439 51.4593 59.1912 51.5531C59.1385 51.647 59.1103 51.7525 59.1093 51.8601C59.1104 51.9687 59.1386 52.0753 59.1912 52.1703C59.2438 52.2652 59.3192 52.3456 59.4107 52.4042L96.0083 75.4009C96.0818 75.4477 96.1643 75.4784 96.2505 75.4911C96.3366 75.5038 96.4245 75.4981 96.5083 75.4744C96.6737 75.4267 96.8137 75.3158 96.8979 75.1656ZM96.126 73.9746L60.9472 51.8675L96.9714 29.5472L97.6258 31.0175C100.353 37.2793 101.755 44.0377 101.743 50.8676C101.734 58.3545 100.051 65.7446 96.8171 72.4969L96.126 73.9746Z" fill="#0D3643"/>
<path d="M93.6337 21.7395C93.6522 21.6536 93.6526 21.5648 93.6349 21.4787C93.6172 21.3926 93.5817 21.3112 93.5308 21.2396C89.2277 15.1832 83.6501 10.143 77.1901 6.47356C70.7301 2.8041 63.5447 0.594451 56.1391 1.85951e-05H56.0876C55.9289 -0.00121974 55.7759 0.059435 55.6612 0.169112C55.5955 0.228481 55.5432 0.30113 55.5077 0.382248C55.4722 0.463365 55.4544 0.551097 55.4554 0.639632V44.4789C55.4544 44.5918 55.4837 44.7029 55.5402 44.8006C55.5967 44.8983 55.6783 44.9791 55.7766 45.0347C55.8749 45.0902 55.9863 45.1184 56.0991 45.1163C56.212 45.1143 56.3223 45.082 56.4185 45.0229L93.3249 22.1586C93.4026 22.1139 93.4701 22.0536 93.5233 21.9815C93.5765 21.9093 93.614 21.827 93.6337 21.7395ZM56.7272 43.3761V1.30865L58.3447 1.50715C71.3143 3.14404 83.1058 9.85671 91.134 20.1736L92.1045 21.416L56.7272 43.3761Z" fill="#0D3643"/>
<path d="M77.4596 95.0892C77.4596 94.8639 77.3927 94.6436 77.2675 94.4562C77.1423 94.2688 76.9643 94.1227 76.7561 94.0365C76.5479 93.9502 76.3188 93.9276 76.0977 93.9716C75.8767 94.0156 75.6736 94.1241 75.5142 94.2835C75.3549 94.4428 75.2463 94.6459 75.2024 94.8669C75.1584 95.088 75.181 95.3171 75.2672 95.5253C75.3535 95.7336 75.4995 95.9115 75.6869 96.0368C75.8743 96.162 76.0946 96.2288 76.32 96.2288C76.6217 96.2269 76.9104 96.1062 77.1237 95.8929C77.337 95.6796 77.4576 95.3909 77.4596 95.0892Z" fill="#0D3643"/>
<path d="M92.3765 82.128C92.4305 82.0577 92.4694 81.977 92.4909 81.891C92.5124 81.805 92.516 81.7155 92.5015 81.6281C92.4851 81.5403 92.4512 81.4567 92.402 81.3822C92.3527 81.3077 92.2891 81.2438 92.2148 81.1943L54.2864 57.3448C54.1787 57.2857 54.0558 57.2602 53.9335 57.2713C53.8703 57.2602 53.8056 57.2602 53.7424 57.2713C53.6547 57.3003 53.5741 57.3474 53.5057 57.4094C53.4374 57.4714 53.3827 57.5471 53.3454 57.6315L36.5463 98.8903C36.5083 98.9707 36.4886 99.0586 36.4886 99.1476C36.4886 99.2366 36.5083 99.3245 36.5463 99.4049C36.5819 99.4847 36.6345 99.5557 36.7006 99.6129C36.7667 99.6701 36.8445 99.712 36.9286 99.7357C47.1042 102.867 58.0026 102.748 68.1079 99.3976C68.2584 99.3369 68.3802 99.2214 68.4487 99.0743C68.5172 98.9272 68.5272 98.7596 68.4767 98.6054C68.4263 98.4512 68.3191 98.3219 68.1769 98.2438C68.0347 98.1656 67.8682 98.1444 67.7109 98.1845C58.6034 101.209 48.8167 101.544 39.5238 99.1476L37.9579 98.7432L54.2496 58.8152L90.9649 81.8854L89.9063 83.1278C87.9811 85.3999 85.8552 87.4938 83.5542 89.3843C83.4252 89.4929 83.3443 89.6481 83.3292 89.8161C83.3141 89.9841 83.3659 90.1513 83.4734 90.2812C83.5795 90.4087 83.7314 90.4894 83.8964 90.5059C84.0615 90.5224 84.2264 90.4734 84.3556 90.3694C87.3287 87.9306 90.0192 85.1662 92.3765 82.128Z" fill="#0D3643"/>
<path d="M48.5368 51.0368V0.639663C48.5373 0.551198 48.5193 0.463609 48.4838 0.38256C48.4484 0.30151 48.3963 0.228804 48.331 0.169142C48.2167 0.0587915 48.0634 -0.00197708 47.9046 4.9089e-05H47.8531C36.7424 0.927024 26.2396 5.46165 17.9457 12.9127C9.65183 20.3637 4.02183 30.3224 1.91397 41.2706C-0.193891 52.2188 1.33602 63.5559 6.27048 73.5538C11.2049 83.5517 19.2733 91.6618 29.2455 96.6479C29.4056 96.7141 29.5853 96.7141 29.7454 96.6479C29.828 96.6182 29.9035 96.5714 29.9668 96.5106C30.0302 96.4498 30.08 96.3763 30.113 96.295L48.4927 51.2574C48.5186 51.1865 48.5335 51.1122 48.5368 51.0368ZM47.2723 50.9118L29.194 95.2216L27.7972 94.4423C18.6463 89.3316 11.3397 81.466 6.91617 71.9639C2.49266 62.4618 1.17749 51.8069 3.15767 41.5144C5.13785 31.2219 10.3126 21.8156 17.946 14.6332C25.5795 7.45072 35.283 2.85768 45.6769 1.50718L47.2723 1.30868V50.9118Z" fill="#0D3643"/>
</svg>
