<svg width="104" height="103" viewBox="0 0 104 103" fill="none" xmlns="http://www.w3.org/2000/svg">
<path d="M52 103C80.7188 103 104 79.9427 104 51.5C104 23.0573 80.7188 0 52 0C23.2812 0 0 23.0573 0 51.5C0 79.9427 23.2812 103 52 103Z" fill="white"/>
<path d="M45.9009 89.7948C45.8987 89.5262 45.8027 89.2667 45.629 89.0603C45.4554 88.854 45.2149 88.7135 44.9485 88.663C35.5528 86.9233 27.1517 81.7714 21.3915 74.2168C15.6313 66.6621 12.9273 57.2494 13.8093 47.8232C14.6914 38.397 19.0959 29.6367 26.1598 23.2591C33.2236 16.8816 42.4376 13.3464 51.9962 13.3464C61.5547 13.3464 70.7687 16.8816 77.8326 23.2591C84.8964 29.6367 89.301 38.397 90.183 47.8232C91.0651 57.2494 88.361 66.6621 82.6008 74.2168C76.8407 81.7714 68.4395 86.9233 59.0438 88.663C58.7774 88.7135 58.537 88.854 58.3633 89.0603C58.1897 89.2667 58.0936 89.5262 58.0914 89.7948C58.0936 89.9646 58.1331 90.1318 58.2073 90.2849C58.2815 90.4379 58.3886 90.5731 58.521 90.6809C58.6534 90.7887 58.808 90.8665 58.974 90.909C59.14 90.9514 59.3133 90.9575 59.4819 90.9267C69.4522 89.0781 78.3662 83.609 84.4774 75.5909C90.5885 67.5729 93.4565 57.5837 92.5192 47.5808C91.5819 37.5778 86.907 28.2819 79.4104 21.5145C71.9138 14.7471 62.1358 10.9958 51.9924 10.9958C41.8489 10.9958 32.0709 14.7471 24.5743 21.5145C17.0777 28.2819 12.4028 37.5778 11.4655 47.5808C10.5283 57.5837 13.3962 67.5729 19.5074 75.5909C25.6185 83.609 34.5326 89.0781 44.5028 90.9267C44.672 90.9587 44.8461 90.9536 45.013 90.9117C45.18 90.8698 45.3356 90.7922 45.4689 90.6842C45.6022 90.5763 45.71 90.4407 45.7846 90.2871C45.8593 90.1334 45.899 89.9654 45.9009 89.7948Z" fill="#0D3643"/>
<path d="M52 91.9981C52.789 91.9981 53.4286 91.3647 53.4286 90.5833C53.4286 89.8019 52.789 89.1685 52 89.1685C51.211 89.1685 50.5714 89.8019 50.5714 90.5833C50.5714 91.3647 51.211 91.9981 52 91.9981Z" fill="#0D3643"/>
<path d="M26.7543 51.5C26.7543 44.8688 29.4141 38.5092 34.1486 33.8203C38.8831 29.1313 45.3044 26.4971 52 26.4971C58.6956 26.4971 65.1169 29.1313 69.8514 33.8203C74.5859 38.5092 77.2457 44.8688 77.2457 51.5C77.2457 58.1312 74.5859 64.4908 69.8514 69.1798C65.1169 73.8688 58.6956 76.503 52 76.503C45.3044 76.503 38.8831 73.8688 34.1486 69.1798C29.4141 64.4908 26.7543 58.1312 26.7543 51.5ZM34.7124 34.3786C32.4396 36.6251 30.6373 39.294 29.4089 42.2322C28.1805 45.1704 27.5502 48.3199 27.5543 51.5C27.5502 54.6801 28.1805 57.8297 29.4089 60.7679C30.6373 63.7061 32.4396 66.375 34.7124 68.6214C36.9806 70.8723 39.6755 72.6573 42.6422 73.8739C45.6089 75.0905 48.789 75.7147 52 75.7107C55.2109 75.7147 58.3911 75.0905 61.3578 73.8739C64.3245 72.6573 67.0194 70.8723 69.2876 68.6214C71.5603 66.375 73.3627 63.7061 74.5911 60.7679C75.8194 57.8297 76.4497 54.6801 76.4457 51.5C76.4497 48.3199 75.8194 45.1704 74.5911 42.2322C73.3627 39.294 71.5603 36.6251 69.2876 34.3786C67.0194 32.1278 64.3245 30.3428 61.3578 29.1262C58.3911 27.9096 55.2109 27.2854 52 27.2894C48.789 27.2854 45.6089 27.9096 42.6422 29.1262C39.6755 30.3428 36.9806 32.1278 34.7124 34.3786Z" fill="#628CC9"/>
<path d="M93.1428 35.2314H10.8571C8.3324 35.2314 6.28571 37.2585 6.28571 39.7589V63.2414C6.28571 65.7419 8.3324 67.7689 10.8571 67.7689H93.1428C95.6676 67.7689 97.7143 65.7419 97.7143 63.2414V39.7589C97.7143 37.2585 95.6676 35.2314 93.1428 35.2314Z" fill="#0D3643"/>
<path d="M16.5371 47.9724H16.0648V42.3621H16.5371V44.9352H19.84V42.3621H20.3124V47.9724H19.84V45.3804H16.5371V47.9724Z" fill="#C1FEC9"/>
<path d="M21.4095 44.0107C21.4054 43.747 21.471 43.4869 21.6 43.2561C21.725 43.0428 21.8937 42.8578 22.0952 42.7128C22.3154 42.5658 22.5587 42.4561 22.8152 42.3884C23.0862 42.3173 23.3654 42.2818 23.6457 42.2827C23.9222 42.2821 24.1976 42.3176 24.4648 42.3884C24.722 42.4543 24.9656 42.5641 25.1848 42.7128C25.3913 42.8555 25.5642 43.0409 25.6914 43.2561C25.8242 43.4855 25.8913 43.7464 25.8857 44.0107V46.3235C25.8919 46.5879 25.8247 46.8489 25.6914 47.0781C25.5664 47.2949 25.3931 47.4807 25.1848 47.6214C24.9663 47.7713 24.7224 47.8812 24.4648 47.9458C24.1978 48.0179 23.9224 48.0547 23.6457 48.0553C23.3653 48.0549 23.086 48.0181 22.8152 47.9458C22.558 47.88 22.3144 47.7702 22.0952 47.6214C21.8878 47.4796 21.7148 47.2941 21.5886 47.0781C21.4582 46.8479 21.3925 46.5874 21.3981 46.3235L21.4095 44.0107ZM21.8819 46.3235C21.8764 46.518 21.9295 46.7098 22.0343 46.8743C22.1388 47.0283 22.2768 47.1572 22.4381 47.2516C22.613 47.3609 22.8047 47.4411 23.0057 47.4893C23.2187 47.5425 23.4375 47.5692 23.6571 47.5686C23.8755 47.5685 24.093 47.5419 24.3048 47.4893C24.506 47.4419 24.6978 47.3615 24.8724 47.2516C25.0234 47.1521 25.1529 47.0239 25.2533 46.8743C25.3582 46.7098 25.4112 46.518 25.4057 46.3235V44.0107C25.4121 43.809 25.3592 43.6097 25.2533 43.4372C25.1478 43.284 25.0101 43.1553 24.8495 43.0599C24.6732 42.954 24.48 42.8788 24.2781 42.8373C24.0631 42.7889 23.8433 42.7648 23.6229 42.7657C23.4059 42.764 23.1896 42.7894 22.9791 42.8411C22.7789 42.8844 22.588 42.9623 22.4152 43.0713C22.2611 43.1669 22.1309 43.2959 22.0343 43.4486C21.929 43.6171 21.876 43.8126 21.8819 44.0107V46.3235Z" fill="#C1FEC9"/>
<path d="M27.4629 47.9724H26.9905V42.3621H27.68L29.5848 46.599L31.4895 42.3621H32.1524V47.9724H31.68V43.011L29.8019 47.2027H29.3524L27.4476 43.011L27.4629 47.9724Z" fill="#C1FEC9"/>
<path d="M33.2495 44.0107C33.2428 43.7467 33.3086 43.4859 33.44 43.2561C33.5684 43.0417 33.741 42.8566 33.9467 42.7128C34.1668 42.5658 34.4101 42.4561 34.6667 42.3884C34.9377 42.3173 35.2169 42.2818 35.4972 42.2827C35.7737 42.2821 36.0491 42.3176 36.3162 42.3884C36.5734 42.4543 36.8171 42.5641 37.0362 42.7128C37.2428 42.8555 37.4157 43.0409 37.5429 43.2561C37.6756 43.4855 37.7428 43.7464 37.7372 44.0107V46.3235C37.7433 46.5879 37.6761 46.8489 37.5429 47.0781C37.4178 47.2949 37.2445 47.4807 37.0362 47.6214C36.8177 47.7713 36.5739 47.8812 36.3162 47.9458C36.0492 48.0179 35.7739 48.0547 35.4972 48.0553C35.2167 48.0549 34.9375 48.0181 34.6667 47.9458C34.4095 47.88 34.1658 47.7702 33.9467 47.6214C33.7393 47.4796 33.5662 47.2941 33.44 47.0781C33.3079 46.8486 33.242 46.5876 33.2495 46.3235V44.0107ZM33.7219 46.3235C33.7164 46.518 33.7695 46.7098 33.8743 46.8743C33.9788 47.0283 34.1168 47.1572 34.2781 47.2516C34.453 47.3609 34.6448 47.4411 34.8457 47.4893C35.0587 47.5425 35.2775 47.5692 35.4972 47.5686C35.7155 47.5685 35.933 47.5419 36.1448 47.4893C36.346 47.4419 36.5378 47.3615 36.7124 47.2516C36.8634 47.1521 36.9929 47.0239 37.0934 46.8743C37.1982 46.7098 37.2512 46.518 37.2457 46.3235V44.0107C37.2521 43.809 37.1992 43.6097 37.0934 43.4372C36.9879 43.284 36.8501 43.1553 36.6895 43.0599C36.5133 42.954 36.32 42.8788 36.1181 42.8373C35.9032 42.7889 35.6833 42.7648 35.4629 42.7657C35.2459 42.764 35.0296 42.7894 34.8191 42.8411C34.6189 42.8844 34.4281 42.9623 34.2553 43.0713C34.1011 43.1669 33.9709 43.2959 33.8743 43.4486C33.769 43.6171 33.716 43.8126 33.7219 44.0107V46.3235Z" fill="#C1FEC9"/>
<path d="M38.8343 47.9724V42.3621H39.3029V47.5045H42.1371V47.9724H38.8343Z" fill="#C1FEC9"/>
<path d="M42.5448 44.011C42.5406 43.7473 42.6063 43.4871 42.7352 43.2564C42.8639 43.041 43.038 42.8556 43.2457 42.7131C43.4649 42.5643 43.7085 42.4545 43.9657 42.3886C44.5051 42.2477 45.0721 42.2477 45.6114 42.3886C45.8687 42.4545 46.1123 42.5643 46.3314 42.7131C46.5392 42.8556 46.7133 43.041 46.8419 43.2564C46.9709 43.4871 47.0366 43.7473 47.0324 44.011V46.3237C47.038 46.5876 46.9722 46.8481 46.8419 47.0783C46.7154 47.2953 46.5409 47.4811 46.3314 47.6216C46.113 47.7716 45.8691 47.8815 45.6114 47.9461C45.0727 48.092 44.5044 48.092 43.9657 47.9461C43.708 47.8815 43.4642 47.7716 43.2457 47.6216C43.0363 47.4811 42.8617 47.2953 42.7352 47.0783C42.6049 46.8481 42.5391 46.5876 42.5448 46.3237V44.011ZM43.0171 46.3237C43.0116 46.5183 43.0647 46.71 43.1695 46.8746C43.275 47.0278 43.4128 47.1565 43.5733 47.2519C43.7483 47.3611 43.94 47.4414 44.141 47.4896C44.3539 47.5428 44.5728 47.5694 44.7924 47.5688C45.0107 47.5687 45.2282 47.5421 45.44 47.4896C45.6412 47.4421 45.8331 47.3618 46.0076 47.2519C46.1602 47.1543 46.2901 47.0257 46.3886 46.8746C46.4934 46.71 46.5465 46.5183 46.541 46.3237V44.011C46.5474 43.8092 46.4944 43.61 46.3886 43.4375C46.2841 43.2834 46.1462 43.1545 45.9848 43.0602C45.8085 42.9543 45.6152 42.879 45.4133 42.8376C45.1984 42.7889 44.9786 42.7649 44.7581 42.7659C44.5412 42.7643 44.3249 42.7896 44.1143 42.8414C43.9141 42.8846 43.7233 42.9625 43.5505 43.0715C43.3894 43.1649 43.2525 43.294 43.1505 43.4488C43.0451 43.6173 42.9922 43.8128 42.9981 44.011L43.0171 46.3237Z" fill="#C1FEC9"/>
<path d="M50.0876 42.2829C50.2875 42.2818 50.4869 42.3034 50.6819 42.347C50.872 42.3871 51.0563 42.4505 51.2305 42.5357C51.3995 42.6175 51.555 42.7243 51.6914 42.8526C51.8272 42.9791 51.9371 43.1303 52.0152 43.2978L51.5924 43.5016C51.5284 43.3775 51.4419 43.2662 51.3371 43.1733C51.2271 43.0804 51.1055 43.0018 50.9752 42.9394C50.8378 42.8754 50.6933 42.8272 50.5448 42.796C50.3891 42.7658 50.2309 42.7507 50.0724 42.7507C49.8691 42.7508 49.6667 42.7775 49.4705 42.83C49.2842 42.8776 49.1077 42.9568 48.9486 43.0639C48.7952 43.1605 48.6652 43.2893 48.5676 43.4412C48.4721 43.6037 48.4234 43.789 48.4267 43.9769V46.3237C48.424 46.5152 48.4726 46.7039 48.5676 46.8707C48.6654 47.0224 48.7954 47.1512 48.9486 47.248C49.1126 47.3537 49.2926 47.4327 49.4819 47.4819C49.6793 47.5351 49.883 47.5617 50.0876 47.5612C50.2934 47.5616 50.4984 47.5349 50.6971 47.4819C50.8843 47.4334 51.0619 47.3543 51.2229 47.248C51.3772 47.1526 51.5074 47.0236 51.6038 46.8707C51.7006 46.7046 51.7493 46.5154 51.7448 46.3237V45.6181H50.0076V45.1503H52.2171V46.3161C52.2239 46.5796 52.1595 46.8401 52.0305 47.0707C51.9129 47.2846 51.749 47.4701 51.5505 47.614C51.3472 47.7636 51.1171 47.8737 50.8724 47.9385C50.3634 48.0843 49.8232 48.0843 49.3143 47.9385C49.0702 47.8722 48.8404 47.7622 48.6362 47.614C48.4366 47.4703 48.2714 47.2848 48.1524 47.0707C48.026 46.8393 47.963 46.5791 47.9695 46.3161V43.9769C47.9617 43.7138 48.0249 43.4533 48.1524 43.2224C48.2712 43.0114 48.435 42.8286 48.6324 42.6866C48.8362 42.5411 49.0645 42.4325 49.3067 42.3659C49.5618 42.3026 49.8247 42.2746 50.0876 42.2829Z" fill="#C1FEC9"/>
<path d="M57.3105 47.9724H56.8153L56.1372 46.0859H53.7143L53.0514 47.9724H52.5562L54.5867 42.3621H55.2762L57.3105 47.9724ZM53.8819 45.6332H55.981L54.9295 42.7092L53.8819 45.6332Z" fill="#C1FEC9"/>
<path d="M57.9924 42.3621H59.8971C60.154 42.3624 60.4099 42.394 60.659 42.4564C60.9015 42.5155 61.1321 42.615 61.3409 42.7507C61.5372 42.8814 61.7012 43.0542 61.8209 43.2562C61.9459 43.488 62.0077 43.7481 62 44.0108V46.35C62.0102 46.6129 61.9484 46.8737 61.8209 47.1046C61.7025 47.3085 61.5382 47.4828 61.3409 47.6139C61.1327 47.7498 60.9019 47.8482 60.659 47.9044C60.4101 47.968 60.1542 48.001 59.8971 48.0025H57.9924V42.3621ZM59.8971 47.5045C60.1007 47.5041 60.3038 47.4826 60.5028 47.4404C60.6905 47.4034 60.8699 47.3331 61.0324 47.2329C61.1879 47.139 61.3185 47.0096 61.4133 46.8556C61.5114 46.6955 61.5603 46.5107 61.5543 46.3236V43.9844C61.5604 43.7961 61.5115 43.61 61.4133 43.4487C61.3185 43.2946 61.1879 43.1653 61.0324 43.0714C60.8689 42.974 60.6898 42.9051 60.5028 42.8676C60.3041 42.8234 60.1008 42.8019 59.8971 42.8035H58.48V47.4781L59.8971 47.5045Z" fill="#C1FEC9"/>
<path d="M62.9448 44.011C62.9406 43.7473 63.0063 43.4871 63.1353 43.2564C63.2639 43.041 63.438 42.8556 63.6457 42.7131C63.8649 42.5643 64.1085 42.4545 64.3657 42.3886C64.9051 42.2477 65.4721 42.2477 66.0114 42.3886C66.2687 42.4545 66.5123 42.5643 66.7314 42.7131C66.9392 42.8556 67.1133 43.041 67.2419 43.2564C67.3709 43.4871 67.4366 43.7473 67.4324 44.011V46.3237C67.438 46.5876 67.3723 46.8481 67.2419 47.0783C67.1154 47.2953 66.9409 47.4811 66.7314 47.6216C66.513 47.7716 66.2691 47.8815 66.0114 47.9461C65.4728 48.092 64.9044 48.092 64.3657 47.9461C64.1081 47.8815 63.8642 47.7716 63.6457 47.6216C63.4363 47.4811 63.2617 47.2953 63.1353 47.0783C63.0049 46.8481 62.9392 46.5876 62.9448 46.3237V44.011ZM63.4172 46.3237C63.4117 46.5183 63.4647 46.71 63.5696 46.8746C63.675 47.0278 63.8128 47.1565 63.9734 47.2519C64.1483 47.3611 64.34 47.4414 64.541 47.4896C64.7539 47.5428 64.9728 47.5694 65.1924 47.5688C65.4107 47.5687 65.6282 47.5421 65.84 47.4896C66.0412 47.4421 66.2331 47.3618 66.4076 47.2519C66.5663 47.1554 66.7026 47.0268 66.8076 46.8746C66.9125 46.71 66.9655 46.5183 66.96 46.3237V44.011C66.9664 43.8092 66.9135 43.61 66.8076 43.4375C66.7021 43.2843 66.5644 43.1556 66.4038 43.0602C66.2275 42.9543 66.0343 42.879 65.8324 42.8376C65.6175 42.7889 65.3976 42.7649 65.1772 42.7659C64.9602 42.7643 64.7439 42.7896 64.5334 42.8414C64.3332 42.8846 64.1424 42.9625 63.9696 43.0715C63.8154 43.1672 63.6852 43.2962 63.5886 43.4488C63.4833 43.6173 63.4303 43.8128 63.4362 44.011L63.4172 46.3237Z" fill="#C1FEC9"/>
<path d="M70.2781 47.9725V42.3622H72.4152C72.7799 42.3485 73.1409 42.4389 73.4552 42.6225C73.7177 42.7803 73.9333 43.0043 74.08 43.2715C74.224 43.5234 74.2989 43.8082 74.2971 44.0977C74.2994 44.3992 74.2248 44.6965 74.08 44.9617C73.9374 45.2294 73.7241 45.4537 73.4628 45.6107C73.1485 45.7943 72.7875 45.8847 72.4228 45.871H70.7505V47.9725H70.2781ZM72.4152 45.4031C72.6911 45.4134 72.9643 45.3467 73.2038 45.2107C73.4 45.0949 73.5617 44.9295 73.6724 44.7316C73.7727 44.5391 73.8249 44.3256 73.8247 44.109C73.827 43.8913 73.7718 43.6767 73.6647 43.4865C73.5503 43.2911 73.3878 43.1276 73.1924 43.0111C72.9692 42.8838 72.7145 42.821 72.4571 42.83H70.7505V45.4031H72.4152Z" fill="#C1FEC9"/>
<path d="M75.6571 44.9276H78.4952V45.403H75.6571V47.5045H78.7352V47.9724H75.1848V42.3621H78.7352V42.8299H75.6571V44.9276Z" fill="#C1FEC9"/>
<path d="M79.7371 47.9724V42.3621H80.2095V47.5045H83.0476V47.9724H79.7371Z" fill="#C1FEC9"/>
<path d="M83.4476 44.011C83.4434 43.7473 83.5091 43.4871 83.6381 43.2564C83.7667 43.041 83.9408 42.8556 84.1485 42.7131C84.3677 42.5643 84.6113 42.4545 84.8686 42.3886C85.1382 42.3174 85.4162 42.2818 85.6952 42.283C85.9718 42.2821 86.2472 42.3176 86.5143 42.3886C86.7715 42.4545 87.0151 42.5643 87.2343 42.7131C87.442 42.8556 87.6161 43.041 87.7447 43.2564C87.8737 43.4871 87.9394 43.7473 87.9352 44.011V46.3238C87.9408 46.5876 87.8751 46.8481 87.7447 47.0783C87.6183 47.2953 87.4437 47.4811 87.2343 47.6216C87.0158 47.7716 86.7719 47.8815 86.5143 47.9461C86.2474 48.0184 85.9719 48.0552 85.6952 48.0555C85.416 48.0554 85.138 48.0186 84.8686 47.9461C84.6109 47.8815 84.367 47.7716 84.1485 47.6216C83.9391 47.4811 83.7645 47.2953 83.6381 47.0783C83.5077 46.8481 83.442 46.5876 83.4476 46.3238V44.011ZM83.92 46.3238C83.9145 46.5183 83.9675 46.71 84.0724 46.8746C84.1778 47.0278 84.3156 47.1565 84.4762 47.2519C84.6514 47.3605 84.843 47.4407 85.0438 47.4896C85.2567 47.5428 85.4756 47.5694 85.6952 47.5688C85.9136 47.5688 86.1311 47.5421 86.3428 47.4896C86.5441 47.4421 86.7359 47.3618 86.9105 47.2519C87.0699 47.1565 87.2064 47.0277 87.3105 46.8746C87.4153 46.71 87.4683 46.5183 87.4628 46.3238V44.011C87.4692 43.8092 87.4163 43.61 87.3105 43.4375C87.206 43.2834 87.068 43.1545 86.9067 43.0602C86.7304 42.9543 86.5371 42.879 86.3352 42.8376C86.1203 42.7889 85.9004 42.7649 85.68 42.7659C85.463 42.7643 85.2467 42.7896 85.0362 42.8414C84.836 42.8846 84.6452 42.9626 84.4724 43.0715C84.3113 43.1649 84.1744 43.294 84.0724 43.4488C83.967 43.6174 83.914 43.8128 83.92 44.011V46.3238Z" fill="#C1FEC9"/>
<path d="M20.2667 50.5569C20.7675 50.5561 21.2662 50.6234 21.7486 50.7569C22.2081 50.8825 22.6397 51.0923 23.021 51.3756C23.3977 51.6583 23.7029 52.0238 23.9124 52.4433C24.1428 52.9131 24.2577 53.4303 24.2476 53.9525V57.3481C24.2589 57.8704 24.1439 58.3879 23.9124 58.8573C23.7013 59.2695 23.3961 59.6274 23.021 59.9024C22.6392 60.1798 22.2073 60.3822 21.7486 60.4985C21.2647 60.6232 20.7666 60.6854 20.2667 60.6833H16.4305V50.5569H20.2667ZM20.3505 58.2989C20.704 58.3282 21.0552 58.22 21.3295 57.997C21.4345 57.8915 21.5164 57.7657 21.5702 57.6274C21.6239 57.4892 21.6483 57.3414 21.6419 57.1934V54.028C21.6501 53.8813 21.6256 53.7347 21.5703 53.5985C21.5151 53.4622 21.4302 53.3397 21.3219 53.2394C21.0455 53.0272 20.6991 52.9249 20.3505 52.9527H19.0476V58.2989H20.3505Z" fill="white"/>
<path d="M28.2552 54.5524H32.4076V56.7746H28.2552V58.2838H32.7619V60.706H25.6343V50.5569H32.7619V52.964H28.2552V54.5524Z" fill="white"/>
<path d="M34.1448 50.5569H36.6057L39.0819 54.8882L39.9505 56.9218H40.0229L39.981 56.6501L39.8781 56.0464L39.7752 55.4466L39.7333 55.1749V50.5569H42.3086V60.706H39.6914L37.3753 56.7067L36.4762 54.6731H36.4038L36.7353 56.6388V60.6946H34.1448V50.5569Z" fill="white"/>
<path d="M52.6286 60.7172H49.8514L49.1847 58.6836H46.4495L45.8133 60.7172H43.0476L46.6247 50.5681H48.9828L52.6286 60.7172ZM48.5638 56.4048L47.8514 53.4355H47.779L47.0171 56.4048H48.5638Z" fill="white"/>
<path d="M56.9448 52.9904V60.7173H54.3238V52.9904H51.6038V50.5569H59.6648V52.9942L56.9448 52.9904Z" fill="white"/>
<path d="M63.2991 57.4913V60.7172H60.6781V50.5568H64.7619C65.2609 50.5535 65.7581 50.617 66.24 50.7454C66.6737 50.8574 67.0796 51.0565 67.4324 51.3302C67.7831 51.608 68.0613 51.9651 68.2438 52.3715C68.452 52.8482 68.5621 53.3613 68.5676 53.8807C68.6097 54.6592 68.4246 55.4333 68.0343 56.1105C67.6894 56.6392 67.1653 57.0285 66.5562 57.2084L69.3486 60.6908H66.1333L63.76 57.4649L63.2991 57.4913ZM64.8229 55.2842C65.0618 55.2924 65.2982 55.2335 65.5048 55.1144C65.677 55.0085 65.8187 54.8604 65.9162 54.6843C66.0083 54.5096 66.0564 54.3155 66.0564 54.1184C66.0564 53.9213 66.0083 53.7271 65.9162 53.5524C65.8187 53.3764 65.677 53.2282 65.5048 53.1223C65.2982 53.0032 65.0618 52.9444 64.8229 52.9526H63.2991V55.2729L64.8229 55.2842Z" fill="white"/>
<path d="M78.7277 60.7172H75.9467L75.28 58.6836H72.5448L71.9086 60.7172H69.1315L72.7048 50.5681H75.0477L78.7277 60.7172ZM74.6667 56.4048L73.9581 53.4355H73.8858L73.1238 56.4048H74.6667Z" fill="white"/>
<path d="M79.4057 50.5569H81.8666L84.3428 54.8882L85.2114 56.9218H85.2838L85.2381 56.6501C85.2114 56.469 85.1771 56.2728 85.139 56.0464L85.0362 55.4466L84.9943 55.1749V50.5569H87.5695V60.706H84.9524L82.64 56.7067L81.7409 54.6731H81.6686L82 56.6388V60.6946H79.4095L79.4057 50.5569Z" fill="white"/>
</svg>
