<svg width="103" height="103" viewBox="0 0 103 103" fill="none" xmlns="http://www.w3.org/2000/svg">
<path d="M51.5 103C79.9427 103 103 79.9427 103 51.5C103 23.0573 79.9427 0 51.5 0C23.0573 0 0 23.0573 0 51.5C0 79.9427 23.0573 103 51.5 103Z" fill="white"/>
<path d="M40.4568 26.8931L42.5205 25.3953L44.5805 26.8931L43.792 24.4709L45.852 22.9769H43.3053L42.5205 20.5547L41.732 22.9769H39.1853L41.2453 24.4709L40.4568 26.8931Z" fill="#C1FEC9"/>
<path d="M49.44 26.8931L51.5 25.3953L53.56 26.8931L52.7752 24.4709L54.8352 22.9769H52.2885L51.5 20.5547L50.7115 22.9769H48.1648L50.2285 24.4709L49.44 26.8931Z" fill="#C1FEC9"/>
<path d="M58.4195 26.8931L60.4795 25.3953L62.5395 26.8931L61.7547 24.4709L63.8147 22.9769H61.268L60.4795 20.5547L59.6947 22.9769H57.148L59.208 24.4709L58.4195 26.8931Z" fill="#C1FEC9"/>
<path d="M43.3053 77.7933L42.5205 75.3711L41.732 77.7933H39.1853L41.2453 79.2873L40.4605 81.7095L42.5205 80.2155L44.5805 81.7095L43.792 79.2873L45.852 77.7933H43.3053Z" fill="#C1FEC9"/>
<path d="M52.7752 79.2873L54.8352 77.7933H52.2885L51.5 75.3711L50.7115 77.7933H48.1648L50.2285 79.2873L49.44 81.7095L51.5 80.2155L53.56 81.7095L52.7752 79.2873Z" fill="#C1FEC9"/>
<path d="M60.4795 80.2155L62.5395 81.7095L61.7547 79.2911L63.8147 77.7933H61.268L60.4795 75.3711L59.6947 77.7933H57.148L59.208 79.2911L58.4195 81.7095L60.4795 80.2155Z" fill="#C1FEC9"/>
<path d="M95.0166 63.8184L95.1109 63.5657L95.1863 63.2902C95.2807 62.6866 95.3712 62.0791 95.4542 61.4717C95.4731 61.3095 95.5297 60.8416 95.5599 60.5738C95.624 60.0003 95.6844 59.4419 95.7372 58.8533C95.991 56.3032 96.117 53.742 96.1145 51.1793C96.1145 49.8965 96.0315 48.6175 95.8994 47.3384C95.873 47.0555 95.8202 46.6367 95.8013 46.482C95.7221 45.95 95.6429 45.4218 95.5599 44.8936C95.209 42.6827 94.8656 40.468 94.6166 38.242C94.5965 38.0825 94.5479 37.9279 94.4733 37.7855C94.1631 37.1962 93.9249 36.5717 93.764 35.9254C93.6922 35.6423 93.5276 35.3914 93.2964 35.2129C93.0652 35.0343 92.7808 34.9385 92.4887 34.9407H11.1414C10.8435 34.9427 10.5548 35.0445 10.3216 35.2298C10.0884 35.4152 9.924 35.6734 9.8548 35.9632C9.61024 36.9012 9.1677 37.776 8.55693 38.5287C8.40661 38.7165 8.30779 38.9401 8.27019 39.1777C8.15046 39.9048 7.90535 40.6057 7.54579 41.249C7.54579 41.3509 7.56466 41.4527 7.5722 41.5584C7.59354 42.1049 7.54151 42.6518 7.41752 43.1845C7.39671 43.2672 7.38532 43.352 7.38356 43.4373C7.36909 44.2647 7.18817 45.0808 6.85158 45.8368C6.75557 46.0628 6.72171 46.3103 6.75349 46.5537C6.78367 46.7725 6.80631 46.9951 6.81762 47.2177C6.84595 47.9468 6.74373 48.6751 6.51579 49.3683C6.44326 49.6146 6.44326 49.8765 6.51579 50.1228C6.68119 50.7085 6.77991 51.3109 6.81008 51.9187C6.84407 52.7484 6.7093 53.5763 6.41393 54.3523C6.35177 54.5159 6.32309 54.6904 6.32957 54.8654C6.33605 55.0404 6.37757 55.2123 6.45165 55.3709C6.88945 56.3001 7.13947 57.3066 7.18737 58.3327C7.18737 58.4421 7.18737 58.5515 7.18737 58.6609C7.17651 58.9941 7.29246 59.3191 7.51184 59.5702C8.68941 60.8999 9.37293 62.5947 9.44733 64.3693C9.47545 65.0637 9.38486 65.7578 9.17946 66.4218C9.12787 66.5847 9.10897 66.7563 9.12387 66.9265C9.13876 67.0968 9.18714 67.2625 9.26623 67.414C9.395 67.6471 9.50965 67.8878 9.60957 68.1346C9.70753 68.3831 9.87711 68.5968 10.0968 68.7486C10.3165 68.9004 10.5763 68.9835 10.8433 68.9873H91.8096C92.0775 68.9871 92.3389 68.9054 92.5593 68.7531C92.7796 68.6008 92.9484 68.3851 93.0433 68.1346C93.115 67.9385 93.1943 67.7574 93.281 67.5536C93.8017 66.4192 94.3198 65.2874 94.8355 64.158C94.926 64.0146 94.9751 63.9052 95.0166 63.8184Z" fill="#0D3643"/>
<path d="M58.3554 8.055C58.3542 8.36186 58.4603 8.65947 58.6552 8.89644C58.8502 9.13341 59.1218 9.29485 59.4231 9.35288C69.9805 11.3276 79.42 17.1735 85.8919 25.7451C92.3637 34.3167 95.4015 44.9962 94.4099 55.6908C93.4184 66.3854 88.4689 76.3243 80.5314 83.5599C72.5939 90.7955 62.2405 94.8063 51.5 94.8063C40.7595 94.8063 30.4061 90.7955 22.4686 83.5599C14.5311 76.3243 9.58165 66.3854 8.59006 55.6908C7.59848 44.9962 10.6363 34.3167 17.1082 25.7451C23.58 17.1735 33.0195 11.3276 43.5769 9.35288C43.8782 9.29485 44.1498 9.13341 44.3448 8.89644C44.5397 8.65947 44.6458 8.36186 44.6447 8.055C44.6446 7.86117 44.6019 7.66972 44.5195 7.49425C44.4371 7.31878 44.3172 7.1636 44.1681 7.03972C44.019 6.91585 43.8444 6.82631 43.6569 6.77747C43.4693 6.72863 43.2732 6.72168 43.0827 6.75713C31.8794 8.85487 21.8632 15.0603 14.9965 24.1576C8.1297 33.2549 4.90734 44.5885 5.96072 55.9376C7.0141 67.2868 12.2673 77.8337 20.6911 85.5118C29.1148 93.1899 40.1021 97.4459 51.5 97.4459C62.898 97.4459 73.8852 93.1899 82.3089 85.5118C90.7327 77.8337 95.9859 67.2868 97.0393 55.9376C98.0927 44.5885 94.8703 33.2549 88.0036 24.1576C81.1368 15.0603 71.1206 8.85487 59.9173 6.75713C59.7268 6.72168 59.5307 6.72863 59.3431 6.77747C59.1556 6.82631 58.981 6.91585 58.8319 7.03972C58.6829 7.1636 58.5629 7.31878 58.4805 7.49425C58.3981 7.66972 58.3554 7.86117 58.3554 8.055Z" fill="#0D3643"/>
<path d="M51.5 8.75701C52.3856 8.75701 53.1035 8.03911 53.1035 7.15353C53.1035 6.26795 52.3856 5.55005 51.5 5.55005C50.6144 5.55005 49.8965 6.26795 49.8965 7.15353C49.8965 8.03911 50.6144 8.75701 51.5 8.75701Z" fill="#0D3643"/>
<path d="M18.2306 51.3114C18.7 51.3087 19.1674 51.3722 19.619 51.5C20.0481 51.6131 20.4524 51.805 20.8113 52.0659C21.1607 52.3298 21.4448 52.6707 21.6413 53.062C21.8605 53.5101 21.9679 54.0046 21.9545 54.5032V57.7253C21.9667 58.219 21.8592 58.7083 21.6413 59.1514C21.4456 59.5412 21.1614 59.8798 20.8113 60.1399C20.4543 60.4057 20.0495 60.6004 19.619 60.7134C19.1658 60.832 18.6991 60.8916 18.2306 60.8907H14.6464V51.3114H18.2306ZM18.3136 58.6157C18.6432 58.6441 18.9709 58.5426 19.2267 58.3327C19.3242 58.2336 19.4003 58.1154 19.4503 57.9856C19.5003 57.8558 19.523 57.7171 19.5172 57.5781V54.59C19.526 54.4501 19.5038 54.3099 19.4523 54.1795C19.4008 54.0491 19.3212 53.9316 19.2191 53.8354C18.9608 53.6373 18.6382 53.5418 18.3136 53.5675H17.0837V58.6119L18.3136 58.6157Z" fill="white"/>
<path d="M25.701 55.0842H29.5833V57.1781H25.701V58.6156H29.9228V60.902H23.2523V51.3113H29.9228V53.575H25.701V55.0842Z" fill="white"/>
<path d="M35.6312 53.5977V60.8907H33.2014V53.5977H30.6396V51.3113H38.1854V53.6127L35.6312 53.5977Z" fill="white"/>
<path d="M41.5697 57.846V60.8907H39.1211V51.3113H42.9506C43.4166 51.3066 43.8811 51.365 44.3315 51.4849C44.7418 51.5928 45.1266 51.7814 45.4634 52.0395C45.789 52.3021 46.0477 52.6383 46.2179 53.0204C46.4147 53.4756 46.5173 53.9658 46.5198 54.4617C46.5596 55.1967 46.3866 55.9276 46.0218 56.5669C45.6996 57.0653 45.2098 57.4319 44.6409 57.6007L47.2517 60.8907H44.2334L42.0149 57.846H41.5697ZM43.011 55.7633C43.2345 55.7695 43.4553 55.7133 43.6486 55.6011C43.8071 55.4997 43.937 55.3594 44.0259 55.1936C44.1103 55.0303 44.1543 54.8492 44.1543 54.6654C44.1543 54.4816 44.1103 54.3005 44.0259 54.1372C43.9379 53.9718 43.8077 53.8325 43.6486 53.7335C43.4556 53.6208 43.2343 53.5658 43.011 53.575H41.5886V55.7671L43.011 55.7633Z" fill="white"/>
<path d="M55.9935 60.8907H53.3977L52.7752 58.9665H50.2172L49.6211 60.8907H47.0253L50.3643 51.3113H52.5715L55.9935 60.8907ZM52.1942 56.8159L51.5302 54.0164H51.4623L50.7567 56.8159H52.1942Z" fill="white"/>
<path d="M56.6311 51.3113H58.9288L61.2454 55.3973L62.0566 57.3177H62.1245L62.083 57.0612C62.0566 56.8914 62.0226 56.7027 61.9886 56.4952C61.9547 56.2877 61.9207 56.1179 61.8943 55.9255L61.8528 55.669V51.3113H64.2599V60.8907H61.8113L59.6495 57.1178L58.8081 55.1974H58.7402L59.0533 57.0499V60.8793H56.6311V51.3113Z" fill="white"/>
<path d="M67.4292 61.8378L65.2899 61.0644L69.2817 50.5569L71.4058 51.3115L67.4292 61.8378Z" fill="white"/>
<path d="M75.5031 58.778C75.7642 58.7871 76.0235 58.7314 76.2577 58.6158C76.3671 58.5659 76.4603 58.4866 76.527 58.3866C76.5937 58.2866 76.6311 58.17 76.635 58.0498C76.6402 57.9809 76.6308 57.9117 76.6074 57.8467C76.584 57.7817 76.5471 57.7223 76.4992 57.6726C76.3907 57.5581 76.263 57.4636 76.1219 57.3934C75.9533 57.3124 75.7778 57.2467 75.5975 57.1972C75.4014 57.1446 75.2024 57.1043 75.0013 57.0764C74.6119 57.0162 74.2316 56.9072 73.8695 56.752C73.524 56.6062 73.2062 56.402 72.93 56.1483C72.6549 55.8954 72.433 55.5901 72.2773 55.2504C72.1091 54.8666 72.0267 54.4507 72.0358 54.0317C72.0272 53.6014 72.1271 53.1758 72.3264 52.7942C72.5165 52.4416 72.7819 52.135 73.1036 51.8963C73.4373 51.6476 73.813 51.461 74.2128 51.3454C74.6309 51.2243 75.0641 51.1633 75.4994 51.1643C75.7874 51.1644 76.0751 51.1871 76.3596 51.2322C76.6476 51.2783 76.9289 51.3594 77.1972 51.4737C77.4861 51.5982 77.7585 51.7578 78.0083 51.9491C78.2903 52.1682 78.5438 52.4217 78.7629 52.7037L77.1783 53.9223C76.9418 53.6628 76.6506 53.4592 76.3256 53.3262C76.0526 53.2079 75.7591 53.1438 75.4616 53.1375C75.4575 53.1358 75.453 53.1349 75.4484 53.1349C75.4439 53.1349 75.4394 53.1358 75.4352 53.1375C75.1801 53.1313 74.9298 53.2081 74.7222 53.3564C74.6242 53.4297 74.5456 53.5256 74.493 53.6361C74.4405 53.7465 74.4155 53.868 74.4203 53.9902C74.43 54.1083 74.4697 54.222 74.5358 54.3204C74.6018 54.4188 74.692 54.4987 74.7976 54.5524C75.0778 54.7149 75.3842 54.8273 75.7031 54.8844C76.1248 54.9656 76.5418 55.0702 76.9519 55.1975C77.3447 55.3122 77.7122 55.5004 78.0348 55.7522C78.3569 55.9983 78.6156 56.3178 78.7893 56.6841C78.9525 57.073 79.031 57.4923 79.0195 57.914V58.1442C79.0102 58.58 78.8796 59.0047 78.6422 59.3704C78.4094 59.7258 78.108 60.0311 77.7556 60.2683C77.3904 60.5182 76.9862 60.7056 76.5595 60.8229C76.1295 60.9496 75.6836 61.0144 75.2353 61.0153C74.6332 61.0082 74.0413 60.8595 73.5073 60.5815C72.9065 60.2667 72.3822 59.8236 71.9717 59.2836L73.5035 57.8461C73.7416 58.1353 74.0457 58.363 74.3901 58.5101C74.7106 58.6588 75.0562 58.7459 75.4088 58.7667L75.5031 58.778Z" fill="white"/>
<path d="M83.6073 61.0266C83.1407 61.0269 82.6767 60.9582 82.2302 60.8228C81.7918 60.695 81.381 60.4864 81.0191 60.2079C80.6602 59.9319 80.3665 59.5802 80.1589 59.1779C79.9354 58.7363 79.824 58.2465 79.8344 57.7517V54.4504C79.8242 53.9544 79.9356 53.4635 80.1589 53.0205C80.3661 52.621 80.66 52.273 81.0191 52.0018C81.3867 51.7248 81.8006 51.5153 82.2415 51.3831C82.6978 51.2448 83.172 51.1749 83.6488 51.1755C83.9589 51.1758 84.2679 51.2125 84.5694 51.285C84.8924 51.358 85.2027 51.4788 85.49 51.6434C85.8051 51.8231 86.0903 52.051 86.3351 52.3187C86.621 52.631 86.8519 52.9895 87.018 53.3789L85.0448 54.1788C84.8937 53.8919 84.6427 53.6704 84.3392 53.5562C84.1122 53.4609 83.8687 53.4109 83.6224 53.4091C83.5508 53.4053 83.479 53.4053 83.4073 53.4091C83.1147 53.4404 82.8358 53.5499 82.5999 53.726C82.4893 53.8083 82.4003 53.9161 82.3405 54.0403C82.2807 54.1645 82.2519 54.3013 82.2566 54.4391V57.7404C82.2528 57.8753 82.282 58.0092 82.3419 58.1302C82.4017 58.2512 82.4903 58.3557 82.5999 58.4346C82.8336 58.6129 83.1142 58.7191 83.4073 58.7402C83.4613 58.746 83.5157 58.746 83.5696 58.7402C83.8314 58.7398 84.0896 58.6791 84.3242 58.5629C84.4712 58.4969 84.6033 58.4017 84.7123 58.283C84.8212 58.1643 84.9049 58.0246 84.958 57.8724L87.0708 58.8458C86.8876 59.2118 86.6497 59.5477 86.3653 59.8419C86.1115 60.1055 85.8204 60.3305 85.5013 60.5097C85.2055 60.6805 84.8865 60.8076 84.5543 60.887C84.2451 60.9699 83.9273 61.0167 83.6073 61.0266Z" fill="white"/>
<path d="M16.8497 42.6714C17.0501 42.6724 17.2499 42.6939 17.4459 42.7355C17.6386 42.7786 17.8259 42.8431 18.0042 42.9279C18.1752 43.0095 18.3329 43.1163 18.4721 43.2449C18.6069 43.3747 18.7169 43.5282 18.7966 43.6976L18.3702 43.9089C18.3066 43.7808 18.2181 43.6666 18.1099 43.5731C17.9966 43.4756 17.8694 43.3955 17.7326 43.3354C17.5917 43.2702 17.4435 43.2221 17.2912 43.192C17.1336 43.1587 16.973 43.1422 16.812 43.143C16.607 43.1431 16.4028 43.1697 16.2046 43.2222C16.0167 43.272 15.8382 43.3523 15.6764 43.4599C15.5254 43.5577 15.3968 43.6862 15.2991 43.8372C15.2027 44.0045 15.1544 44.1951 15.1595 44.388V46.7989C15.1545 46.9931 15.2028 47.1849 15.2991 47.3535C15.394 47.5119 15.5229 47.6472 15.6764 47.7497C15.8368 47.8591 16.0158 47.9383 16.2046 47.9836C16.4028 48.0361 16.607 48.0627 16.812 48.0628C16.973 48.0636 17.1336 48.0471 17.2912 48.0138C17.4436 47.9825 17.5918 47.9331 17.7326 47.8667C17.8694 47.8065 17.9966 47.7264 18.1099 47.629C18.2181 47.5355 18.3066 47.4213 18.3702 47.2932L18.7966 47.5045C18.7187 47.6769 18.6056 47.8311 18.4645 47.9572C18.3233 48.0869 18.1645 48.1961 17.9929 48.2817C17.8147 48.3699 17.6257 48.4346 17.4308 48.4741C16.97 48.5729 16.492 48.5573 16.0386 48.4288C15.795 48.361 15.5652 48.2512 15.3594 48.1043C15.1623 47.9589 14.9978 47.7739 14.8765 47.561C14.7522 47.3293 14.6898 47.0694 14.6954 46.8065V44.3956C14.6912 44.1324 14.7548 43.8725 14.8803 43.641C15.0032 43.426 15.1704 43.2395 15.3708 43.0939C15.5786 42.9451 15.8111 42.834 16.0574 42.7657C16.316 42.6983 16.5826 42.6666 16.8497 42.6714Z" fill="#C1FEC9"/>
<path d="M20.1322 46.0558V48.4817H19.6568V42.7545H21.8149C22.0692 42.7525 22.3228 42.7829 22.5695 42.845C22.7876 42.9026 22.9917 43.004 23.1694 43.1431C23.3447 43.2802 23.4844 43.4575 23.5768 43.66C23.6804 43.8981 23.7343 44.1549 23.7353 44.4146C23.7418 44.6746 23.6889 44.9327 23.5806 45.1691C23.485 45.3697 23.3411 45.5434 23.1618 45.6747C22.9793 45.8069 22.7731 45.903 22.5544 45.9577C22.3154 46.0195 22.0693 46.05 21.8224 46.0482L23.7391 48.4742H23.1354L21.249 46.0482L20.1322 46.0558ZM21.8224 45.6181C22.0227 45.6193 22.2226 45.599 22.4186 45.5577C22.58 45.5214 22.7325 45.4534 22.8675 45.3578C22.9953 45.2601 23.0944 45.1298 23.1543 44.9805C23.2272 44.7983 23.2619 44.6031 23.2561 44.407C23.2631 44.2129 23.227 44.0196 23.1505 43.8411C23.0882 43.6911 22.9865 43.5608 22.8562 43.4638C22.7203 43.3673 22.5663 43.2993 22.4035 43.2638C22.2125 43.2233 22.0177 43.2031 21.8224 43.2035H20.1322V45.5917L21.8224 45.6181Z" fill="#C1FEC9"/>
<path d="M25.135 45.3728H28.0062V45.8595H25.135V48.0025H28.2477V48.4817H24.6559V42.7544H28.2477V43.2298H25.135V45.3728Z" fill="#C1FEC9"/>
<path d="M29.2588 42.7544H31.1679C31.4336 42.753 31.6985 42.7847 31.9564 42.8488C32.2022 42.9088 32.4358 43.011 32.6468 43.1506C32.8465 43.2822 33.012 43.4594 33.1298 43.6675C33.2579 43.8979 33.3217 44.1585 33.3146 44.4221V46.8065C33.3221 47.0701 33.2582 47.3308 33.1298 47.5611C33.0099 47.7677 32.8448 47.9444 32.6468 48.078C32.4356 48.2164 32.202 48.3173 31.9564 48.376C31.6986 48.4413 31.4338 48.4743 31.1679 48.4741H29.2588V42.7544ZM31.1679 48.0025C31.3746 48.0042 31.5809 47.9827 31.7829 47.9384C31.9718 47.8997 32.1529 47.8295 32.3186 47.7309C32.4713 47.6353 32.6004 47.5063 32.6959 47.3536C32.7931 47.1894 32.8415 47.001 32.8355 46.8103V44.4258C32.8426 44.2326 32.7941 44.0415 32.6959 43.875C32.6004 43.7223 32.4713 43.5932 32.3186 43.4977C32.1531 43.3978 31.972 43.3264 31.7829 43.2864C31.5806 43.244 31.3745 43.2225 31.1679 43.2223H29.7379V47.995L31.1679 48.0025Z" fill="#C1FEC9"/>
<path d="M34.9144 45.3728H37.7893V45.8595H34.9144V48.0025H38.0308V48.4817H34.439V42.7544H38.0308V43.2298H34.9144V45.3728Z" fill="#C1FEC9"/>
<path d="M42.8601 42.7544H43.3392V48.4817H42.6337L39.5248 43.4901V48.4817H39.0494V42.7544H39.6154L42.8525 47.9572L42.8601 42.7544Z" fill="#C1FEC9"/>
<path d="M46.6065 42.6713C46.8082 42.6721 47.0092 42.6936 47.2064 42.7355C47.3992 42.7785 47.5865 42.8431 47.7648 42.9279C47.9351 43.0086 48.0917 43.1156 48.2289 43.2448C48.366 43.3735 48.4774 43.5272 48.5571 43.6976L48.127 43.9088C48.0633 43.7818 47.9763 43.6679 47.8705 43.5731C47.7568 43.4761 47.6297 43.396 47.4932 43.3354C47.3527 43.2691 47.2044 43.2209 47.0517 43.192C46.8955 43.1585 46.7361 43.1421 46.5764 43.1429C46.3713 43.1428 46.1671 43.1694 45.9689 43.2222C45.7799 43.272 45.6002 43.3523 45.437 43.4599C45.2866 43.5584 45.1582 43.6868 45.0597 43.8372C44.9622 44.0041 44.9126 44.1947 44.9163 44.388V46.7989C44.9125 46.9934 44.9621 47.1852 45.0597 47.3535C45.1554 47.5112 45.2841 47.6463 45.437 47.7496C45.5987 47.8591 45.7789 47.9383 45.9689 47.9836C46.1671 48.0363 46.3713 48.0629 46.5764 48.0628C46.7361 48.0637 46.8955 48.0472 47.0517 48.0137C47.2045 47.9836 47.3528 47.9341 47.4932 47.8666C47.6297 47.806 47.7568 47.7259 47.8705 47.6289C47.9763 47.5341 48.0633 47.4202 48.127 47.2931L48.5571 47.5044C48.478 47.6761 48.3651 47.8301 48.2251 47.9572C48.0838 48.0868 47.9251 48.196 47.7535 48.2816C47.5737 48.3692 47.3835 48.4339 47.1876 48.474C46.9894 48.5181 46.7869 48.5396 46.5839 48.5382C46.3184 48.5402 46.054 48.5033 45.7991 48.4288C45.5551 48.3624 45.325 48.2525 45.12 48.1043C44.922 47.9599 44.7573 47.7746 44.6371 47.561C44.5128 47.3292 44.4504 47.0693 44.456 46.8064V44.3955C44.4507 44.1322 44.5145 43.872 44.6409 43.641C44.7627 43.4251 44.93 43.2384 45.1313 43.0939C45.3384 42.9437 45.5711 42.8324 45.818 42.7657C46.0753 42.6985 46.3406 42.6668 46.6065 42.6713Z" fill="#C1FEC9"/>
<path d="M49.8927 48.4817H49.4249V42.7544H49.9041L49.8927 48.4817Z" fill="#C1FEC9"/>
<path d="M55.4087 48.4817H54.9069L54.2202 46.5726H51.7603L51.0887 48.4817H50.5869L52.6432 42.7544H53.3374L55.4087 48.4817ZM51.9301 46.0934H54.0505L52.9903 43.109L51.9301 46.0934Z" fill="#C1FEC9"/>
<path d="M56.0992 42.7544H58.0082C58.274 42.7535 58.5388 42.7851 58.7968 42.8487C59.0417 42.908 59.2742 43.0102 59.4834 43.1506C59.685 43.281 59.852 43.4584 59.9701 43.6675C60.0952 43.8989 60.1577 44.159 60.1512 44.422V46.8065C60.1577 47.0695 60.0952 47.3296 59.9701 47.5611C59.85 47.7686 59.6834 47.9455 59.4834 48.078C59.2739 48.2171 59.0414 48.318 58.7968 48.376C58.5389 48.4409 58.2741 48.4738 58.0082 48.4741H56.0992V42.7544ZM58.0082 48.0025C58.215 48.0042 58.4213 47.9827 58.6232 47.9384C58.8112 47.9003 58.9911 47.8301 59.1552 47.7309C59.3088 47.6364 59.438 47.5072 59.5325 47.3536C59.631 47.1898 59.6808 47.0013 59.6759 46.8103V44.4258C59.6816 44.2323 59.6318 44.0411 59.5325 43.875C59.438 43.7214 59.3088 43.5921 59.1552 43.4977C58.9913 43.3972 58.8114 43.3257 58.6232 43.2864C58.421 43.244 58.2149 43.2225 58.0082 43.2223H56.5934V47.995L58.0082 48.0025Z" fill="#C1FEC9"/>
<path d="M61.1209 44.4371C61.1171 44.1725 61.1848 43.9117 61.3171 43.6825C61.4438 43.4611 61.6192 43.2714 61.8302 43.1279C62.0516 42.9754 62.298 42.863 62.5584 42.7959C63.1047 42.6501 63.6797 42.6501 64.226 42.7959C64.486 42.8638 64.7323 42.9762 64.9541 43.1279C65.1633 43.2734 65.3384 43.4626 65.4673 43.6825C65.5963 43.9129 65.6626 44.1731 65.6597 44.4371V46.7838C65.6626 47.0479 65.5963 47.308 65.4673 47.5384C65.3363 47.7567 65.1616 47.9455 64.9541 48.093C64.7321 48.2436 64.4858 48.3546 64.226 48.4213C63.6797 48.5671 63.1047 48.5671 62.5584 48.4213C62.2983 48.3553 62.0518 48.2442 61.8302 48.093C61.6209 47.9476 61.4458 47.7584 61.3171 47.5384C61.1854 47.309 61.1176 47.0484 61.1209 46.7838V44.4371ZM61.6 46.7989C61.5946 46.997 61.647 47.1924 61.751 47.3611C61.8576 47.5225 61.9979 47.6589 62.1622 47.761C62.3385 47.8731 62.5323 47.9547 62.7357 48.0025C63.1664 48.113 63.618 48.113 64.0486 48.0025C64.2534 47.9554 64.4486 47.8738 64.6259 47.761C64.788 47.6587 64.9257 47.5222 65.0296 47.3611C65.1346 47.1927 65.1884 46.9974 65.1843 46.7989V44.4371C65.1893 44.2314 65.1357 44.0286 65.0296 43.8523C64.9264 43.6894 64.7869 43.5525 64.6221 43.4524C64.4426 43.3439 64.2462 43.2661 64.0411 43.2222C63.8232 43.1734 63.6004 43.1493 63.3771 43.1505C63.1586 43.151 62.9409 43.1763 62.7281 43.226C62.5267 43.2722 62.3342 43.3513 62.1584 43.4599C61.9944 43.5611 61.8552 43.6978 61.751 43.8598C61.6466 44.0339 61.5943 44.2342 61.6 44.4371V46.7989Z" fill="#C1FEC9"/>
<path d="M68.5271 48.4817V42.7544H70.6852C71.0541 42.7399 71.4194 42.8315 71.7378 43.0185C72.0018 43.1816 72.2189 43.4104 72.3679 43.6826C72.5136 43.9389 72.5891 44.2291 72.5867 44.5239C72.5904 44.8321 72.515 45.136 72.3679 45.4068C72.2251 45.681 72.0098 45.9107 71.7453 46.0708C71.4274 46.2591 71.062 46.3521 70.6927 46.3387H69.0025V48.4817H68.5271ZM70.6852 45.8407C70.9648 45.8507 71.2417 45.7828 71.485 45.6445C71.683 45.5258 71.8458 45.3565 71.9566 45.154C72.0594 44.9572 72.1125 44.7383 72.1113 44.5164C72.1113 44.2948 72.0555 44.0769 71.9491 43.8825C71.8329 43.6825 71.6681 43.5151 71.4699 43.3958C71.2406 43.2648 70.9792 43.2008 70.7153 43.211H68.9911V45.852L70.6852 45.8407Z" fill="#C1FEC9"/>
<path d="M73.9487 45.3728H76.8199V45.8595H73.9487V48.0025H77.0614V48.4817H73.4696V42.7544H77.0614V43.2298H73.9487V45.3728Z" fill="#C1FEC9"/>
<path d="M78.0989 48.4817V42.7544H78.578V48.0025H81.4417V48.4817H78.0989Z" fill="#C1FEC9"/>
<path d="M81.8416 44.4371C81.8398 44.1727 81.9074 43.9125 82.0378 43.6825C82.1655 43.4618 82.3408 43.2724 82.5509 43.1279C82.7727 42.9762 83.019 42.8638 83.2791 42.7959C83.8254 42.6501 84.4004 42.6501 84.9467 42.7959C85.2067 42.8638 85.453 42.9762 85.6749 43.1279C85.885 43.2724 86.0602 43.4618 86.188 43.6825C86.3183 43.9125 86.386 44.1727 86.3842 44.4371V46.7838C86.386 47.0482 86.3183 47.3084 86.188 47.5384C86.0582 47.7576 85.8833 47.9466 85.6749 48.093C85.4529 48.2436 85.2065 48.3546 84.9467 48.4213C84.4004 48.5671 83.8254 48.5671 83.2791 48.4213C83.0192 48.3546 82.7729 48.2436 82.5509 48.093C82.3425 47.9466 82.1676 47.7576 82.0378 47.5384C81.9074 47.3084 81.8398 47.0482 81.8416 46.7838V44.4371ZM82.3207 46.7989C82.3167 46.9974 82.3704 47.1927 82.4754 47.3611C82.5797 47.5231 82.7189 47.6598 82.8829 47.761C83.0594 47.8727 83.2532 47.9543 83.4564 48.0025C83.8883 48.1136 84.3413 48.1136 84.7731 48.0025C84.9767 47.9554 85.1707 47.8737 85.3466 47.761C85.5087 47.6587 85.6465 47.5222 85.7503 47.3611C85.8553 47.1927 85.9091 46.9974 85.905 46.7989V44.4371C85.91 44.2314 85.8564 44.0286 85.7503 43.8523C85.6471 43.6894 85.5076 43.5525 85.3428 43.4524C85.1645 43.3443 84.9694 43.2665 84.7656 43.2222C84.5476 43.1738 84.3249 43.1498 84.1016 43.1505C83.8818 43.151 83.6629 43.1763 83.4488 43.226C83.2476 43.2729 83.0552 43.3519 82.8791 43.4599C82.7163 43.5613 82.5783 43.6979 82.4754 43.8598C82.3698 44.0335 82.3161 44.2338 82.3207 44.4371V46.7989Z" fill="#C1FEC9"/>
</svg>
