<svg width="76" height="109" viewBox="0 0 76 109" fill="none" xmlns="http://www.w3.org/2000/svg">
<g filter="url(#filter0_d)">
<path d="M21.9124 75.1801V19.9245C21.9123 17.6106 21.4537 15.3193 20.5629 13.1815C19.6725 11.0401 18.3654 9.09454 16.7166 7.45654C13.3907 10.7641 11.5219 15.2485 11.5208 19.9245V78.0395H20.5138H20.7224H21.9124V78.0029C22.2319 77.9837 22.5524 77.996 22.8694 78.0395C23.078 78.137 23.3479 77.4298 23.3479 77.4298C22.9123 76.6537 22.4331 75.9026 21.9124 75.1801Z" fill="#C4E0BF"/>
<path d="M21.9125 67.7054H4.61346V62.5414L21.9125 40.166V67.7054Z" fill="white"/>
<path d="M63.5037 19.9246C63.5025 15.2485 61.6337 10.7641 58.3079 7.45654C56.6544 9.09128 55.3413 11.0338 54.4434 13.1731C53.5456 15.3124 53.0807 17.6066 53.0752 19.9246V74.8569L51.3331 77.4298L51.7809 78.6492L53.1059 78.0395H63.5037V19.9246Z" fill="#C4E0BF"/>
<path d="M44.4319 81.478C45.8851 83.8837 46.4359 86.7224 45.9869 89.4926C45.5379 92.2628 44.118 94.7861 41.9781 96.6164L37.5184 100.415L33.0649 96.6164C30.9219 94.7882 29.4997 92.2647 29.0505 89.4935C28.6013 86.7224 29.1542 83.8826 30.6111 81.478H44.4319Z" fill="#C4E0BF"/>
<path d="M21.9125 74.5947L25.3784 81.478H49.6277L53.0753 74.5947H21.9125Z" fill="#C4E0BF"/>
<path d="M47.0267 10.9013H27.9733L32.2674 3.54849C32.7952 2.63804 33.555 1.88186 34.4704 1.35608C35.3858 0.830293 36.4244 0.553467 37.4816 0.553467C38.5388 0.553467 39.5774 0.830293 40.4928 1.35608C41.4082 1.88186 42.168 2.63804 42.6958 3.54849L47.0267 10.9013Z" fill="#C4E0BF"/>
<path d="M53.0753 40.166L70.3988 62.5414V67.7054H53.0753V40.166Z" fill="white"/>
<path d="M32.3041 18.9001C32.1483 18.9023 31.9992 18.9634 31.887 19.0709C31.7751 19.1829 31.7114 19.3337 31.7091 19.4915C31.7091 19.6532 31.7737 19.8083 31.8888 19.9226C32.0038 20.037 32.1599 20.1012 32.3225 20.1012H42.6958C42.8538 20.1006 43.0054 20.0394 43.1191 19.9305C43.2273 19.819 43.2887 19.6708 43.2909 19.5159C43.2909 19.3542 43.2262 19.1992 43.1112 19.0848C42.9962 18.9705 42.8401 18.9062 42.6774 18.9062L32.3041 18.9001Z" fill="#0D3643"/>
<path d="M15.5756 98.104H14.3917V99.2807H15.5756V98.104Z" fill="#0D3643"/>
<path d="M22.5014 92.9402H21.3174V94.1169H22.5014V92.9402Z" fill="#0D3643"/>
<path d="M60.6083 98.104H59.4244V99.2807H60.6083V98.104Z" fill="#0D3643"/>
<path d="M53.6826 92.9402H52.4987V94.1169H53.6826V92.9402Z" fill="#0D3643"/>
<path d="M70.865 62.1885L64.0743 53.3908V19.9253C64.0802 17.532 63.609 15.1613 62.6876 12.9501C61.7663 10.7389 60.4133 8.73113 58.7066 7.04271C58.5929 6.9364 58.4426 6.87721 58.2864 6.87721C58.1303 6.87721 57.98 6.9364 57.8662 7.04271C55.4096 9.47419 53.7064 12.555 52.9587 15.9197L52.3453 18.7364L43.2234 3.25049C42.6404 2.25862 41.8074 1.43489 40.8064 0.860534C39.7983 0.298713 38.6619 0.00366211 37.5061 0.00366211C36.3503 0.00366211 35.2139 0.298713 34.2058 0.860534C33.2026 1.43405 32.3674 2.25784 31.7827 3.25049L22.6915 18.7364L22.0781 15.9197C21.3252 12.557 19.6227 9.47749 17.1706 7.04271C17.0568 6.9364 16.9065 6.87721 16.7504 6.87721C16.5942 6.87721 16.4439 6.9364 16.3302 7.04271C14.621 8.72961 13.266 10.737 12.3435 12.9484C11.421 15.1599 10.9496 17.5314 10.9564 19.9253V53.3908L4.12269 62.1885C4.0443 62.2924 4.00132 62.4184 4 62.5482V67.7122C4.00063 67.8692 4.06215 68.0199 4.17176 68.1329C4.29297 68.2397 4.45174 68.2945 4.61344 68.2853H10.9257V78.0402C10.9257 78.2019 10.9904 78.357 11.1054 78.4714C11.2205 78.5857 11.3765 78.6499 11.5392 78.6499H14.4101V92.4226H15.594V78.6499H21.3358V87.2586H22.5259V78.4426H23.2498L24.857 81.741C24.9077 81.8386 24.984 81.9208 25.0778 81.9788C25.1708 82.0392 25.2796 82.071 25.3907 82.0702H29.4762L28.9609 83.5701C28.1391 85.9262 28.0507 88.4737 28.7073 90.8804C29.3638 93.2872 30.7349 95.4415 32.6415 97.0623L37.1258 100.861C37.2351 100.949 37.3715 100.997 37.5123 100.997C37.653 100.997 37.7894 100.949 37.8987 100.861L42.3523 97.0684C44.2631 95.4489 45.6395 93.2955 46.3025 90.8882C46.9655 88.4809 46.8844 85.931 46.0698 83.5701L45.5483 82.0702H49.64C49.7491 82.0709 49.856 82.0391 49.9467 81.9788C50.0427 81.9234 50.1197 81.8405 50.1676 81.741L51.7932 78.6926H52.5109V87.2282H53.6887V78.6499H59.4305V92.4226H60.6144V78.6499H63.5038C63.6617 78.6493 63.8133 78.5882 63.927 78.4792C64.0366 78.3662 64.0982 78.2155 64.0988 78.0585V68.2853H70.4356C70.5915 68.2831 70.7406 68.2221 70.8528 68.1146C70.9624 68.0016 71.0239 67.8509 71.0245 67.6939V62.5299C71.0089 62.4022 70.9531 62.2827 70.865 62.1885ZM53.6887 19.9314C53.6728 16.087 54.9705 12.351 57.3693 9.33512L58.2588 8.2194L59.2097 9.33512C61.6094 12.3505 62.9072 16.0868 62.8903 19.9314V24.0833H53.6887V19.9314ZM53.6887 25.26H62.8903V51.8605L53.6887 39.9656V25.26ZM32.8317 3.84188C33.311 3.02594 33.9971 2.34905 34.8215 1.87863C35.646 1.40821 36.58 1.16067 37.5307 1.16067C38.4813 1.16067 39.4154 1.40821 40.2398 1.87863C41.0643 2.34905 41.7503 3.02594 42.2296 3.84188L46.0268 10.3106H29.01L32.8317 3.84188ZM12.1158 19.9253C12.11 16.0793 13.4186 12.3453 15.8271 9.33512L16.7166 8.2194L17.6061 9.33512C20.016 12.347 21.3246 16.0833 21.3174 19.9314V24.0833H12.1158V19.9253ZM12.1158 25.26H21.3174V39.9656L12.1158 51.8605V25.26ZM5.18394 67.1208V62.7433L22.4032 40.5265C22.4816 40.4226 22.5246 40.2966 22.5259 40.1668V21.3885L28.3352 11.4934H46.6832L52.4986 21.3885V74.0041H38.095V67.1208H36.9111V74.0041H22.5075V55.0674H21.3174V67.1208H5.18394ZM12.1158 77.4306V68.2853H21.3174V74.5833C21.3188 74.6729 21.342 74.7607 21.3849 74.8394L21.9984 76.1076L22.6854 77.4306H12.1158ZM25.7465 80.8753L22.8694 75.1625H36.9111V80.8753H25.7465ZM45.303 89.9047C44.7861 92.3406 43.4725 94.5379 41.5671 96.1539L37.5 99.623L33.4452 96.1722C31.5396 94.5571 30.2262 92.3601 29.7101 89.9246C29.194 87.489 29.5044 84.9521 30.5927 82.7104L30.8994 82.1007H36.9234V88.9536H38.1073V82.0702H44.1252L44.438 82.6799C45.5224 84.9333 45.8265 87.4799 45.303 89.923V89.9047ZM49.2597 80.8753H38.095V75.1625H52.1306L49.2597 80.8753ZM62.8903 77.4306H52.3146L52.9832 76.1014L53.5967 74.8333C53.6356 74.7534 53.6566 74.666 53.658 74.5772V68.2853H62.8903V77.4306ZM69.8161 67.1025H53.6887V41.8983L69.8222 62.7433L69.8161 67.1025Z" fill="#0D3643"/>
</g>
<defs>
<filter id="filter0_d" x="0" y="0.00366211" width="75.0245" height="108.993" filterUnits="userSpaceOnUse" color-interpolation-filters="sRGB">
<feFlood flood-opacity="0" result="BackgroundImageFix"/>
<feColorMatrix in="SourceAlpha" type="matrix" values="0 0 0 0 0 0 0 0 0 0 0 0 0 0 0 0 0 0 127 0"/>
<feOffset dy="4"/>
<feGaussianBlur stdDeviation="2"/>
<feColorMatrix type="matrix" values="0 0 0 0 0 0 0 0 0 0 0 0 0 0 0 0 0 0 0.25 0"/>
<feBlend mode="normal" in2="BackgroundImageFix" result="effect1_dropShadow"/>
<feBlend mode="normal" in="SourceGraphic" in2="effect1_dropShadow" result="shape"/>
</filter>
</defs>
</svg>
