<svg width="102" height="102" viewBox="0 0 102 102" fill="none" xmlns="http://www.w3.org/2000/svg">
<g clip-path="url(#clip0)">
<path d="M51 56.6994C53.2419 56.7026 55.4403 56.081 57.3485 54.9044C59.2567 53.7278 60.7993 52.0428 61.8032 50.0384C62.3567 48.9486 62.7387 47.78 62.9358 46.5738C63.221 44.8424 63.126 43.0696 62.6575 41.3785C62.189 39.6875 61.3581 38.1186 60.2225 36.7807C59.087 35.4429 57.6739 34.3681 56.0813 33.631C54.4888 32.8939 52.7549 32.5121 51 32.5121C49.2451 32.5121 47.5113 32.8939 45.9187 33.631C44.3262 34.3681 42.9131 35.4429 41.7775 36.7807C40.6419 38.1186 39.811 39.6875 39.3425 41.3785C38.874 43.0696 38.7791 44.8424 39.0643 46.5738C39.2594 47.7823 39.6463 48.9519 40.2103 50.0384C41.2131 52.0407 42.7536 53.7244 44.6593 54.9009C46.5649 56.0773 48.7604 56.7001 51 56.6994Z" fill="#C4E0BF"/>
<path d="M65.6767 46.9089C67.6635 46.9101 69.6112 46.357 71.3008 45.3117C72.9903 44.2664 74.3546 42.7704 75.2402 40.9921C76.1258 39.2137 76.4975 37.2235 76.3136 35.2454C76.1296 33.2673 75.3973 31.3797 74.199 29.7951C73.0007 28.2105 71.3839 26.9917 69.5306 26.2758C67.6773 25.5599 65.661 25.3754 63.7085 25.7429C61.756 26.1105 59.9448 27.0155 58.4787 28.3563C57.0126 29.697 55.9498 31.4202 55.4097 33.3321C57.9904 34.3445 60.1457 36.2116 61.5154 38.6216C62.8852 41.0317 63.3865 43.8387 62.9358 46.5738C63.8315 46.8011 64.7526 46.9137 65.6767 46.9089Z" fill="#C4E0BF"/>
<path d="M38.9034 44.6036C38.9022 42.1706 39.6343 39.7937 41.0044 37.783C42.3744 35.7723 44.3187 34.2212 46.5836 33.3321C46.0435 31.4202 44.9807 29.697 43.5146 28.3563C42.0485 27.0155 40.2373 26.1105 38.2848 25.7429C36.3323 25.3754 34.316 25.5599 32.4627 26.2758C30.6094 26.9917 28.9927 28.2105 27.7943 29.7951C26.596 31.3797 25.8637 33.2673 25.6797 35.2454C25.4958 37.2235 25.8675 39.2137 26.7531 40.9921C27.6387 42.7704 29.003 44.2664 30.6925 45.3117C32.3821 46.357 34.3298 46.9101 36.3166 46.9089C37.2438 46.9077 38.1672 46.7884 39.0643 46.5537C38.9567 45.9025 38.9029 45.2435 38.9034 44.5835V44.6036Z" fill="#C4E0BF"/>
<path d="M33.3276 64.0038C33.3322 61.305 33.9549 58.6431 35.1479 56.2223C36.341 53.8015 38.0727 51.6861 40.2103 50.0384C39.6509 48.9511 39.2686 47.7815 39.0777 46.5738C38.1806 46.8085 37.2573 46.9278 36.33 46.929C34.3548 46.9278 32.4186 46.3785 30.7372 45.342C29.0558 44.3055 27.6952 42.8227 26.8068 41.0587C24.9277 42.5149 23.4071 44.3821 22.3615 46.5172C21.316 48.6522 20.7734 50.9983 20.7753 53.3756V59.4067C20.7699 60.7008 21.2761 61.9446 22.1837 62.8671C23.0912 63.7897 24.3266 64.3163 25.6206 64.3322H33.3276V64.0105V64.0038Z" fill="#C4E0BF"/>
<path d="M38.8699 76.3945H63.1234C64.5934 76.3892 66.0018 75.8029 67.0413 74.7634C68.0808 73.724 68.6671 72.3158 68.6724 70.8458V64.0038C68.6692 61.3069 68.0492 58.6463 66.8597 56.2258C65.6703 53.8053 63.9429 51.6888 61.8098 50.0384C60.8114 52.0509 59.2708 53.7447 57.3614 54.9288C55.4521 56.1129 53.2501 56.7403 51.0033 56.7403C48.7566 56.7403 46.5545 56.1129 44.6452 54.9288C42.7359 53.7447 41.1952 52.0509 40.1968 50.0384C38.0617 51.6875 36.3326 53.8035 35.1419 56.2242C33.9512 58.6449 33.3306 61.3061 33.3276 64.0038V70.8659C33.3364 72.3318 33.9236 73.7349 34.9614 74.7702C35.9993 75.8054 37.4039 76.3892 38.8699 76.3945Z" fill="#C4E0BF"/>
<path d="M76.3995 64.3322C77.6977 64.3286 78.9417 63.8114 79.8597 62.8935C80.7776 61.9756 81.2949 60.7317 81.2984 59.4335V53.4024C81.2998 51.0252 80.757 48.6793 79.7115 46.5443C78.666 44.4094 77.1457 42.5421 75.2669 41.0855C74.3663 42.8505 72.9923 44.33 71.2986 45.3585C69.6048 46.387 67.6583 46.9238 65.6767 46.9089C64.7495 46.9077 63.8261 46.7884 62.929 46.5537C62.7313 47.7589 62.3517 48.9271 61.8032 50.0183C63.9363 51.6687 65.6636 53.7852 66.853 56.2057C68.0425 58.6263 68.6625 61.2868 68.6657 63.9837V64.3322H76.3995Z" fill="#C4E0BF"/>
<path d="M60.436 77.1115H63.1167C64.7727 77.1097 66.3604 76.4511 67.5313 75.2802C68.7023 74.1093 69.3609 72.5218 69.3627 70.8659V65.0023H76.3995C77.8831 65.0005 79.3054 64.4104 80.3544 63.3614C81.4035 62.3125 81.9936 60.8902 81.9954 59.4067V53.3756C82.0037 51.1393 81.5455 48.9259 80.65 46.8766C79.7546 44.8274 78.4416 42.9874 76.7949 41.4742L76.1247 40.8643L76.4196 40.02C76.8556 38.8142 77.0822 37.5427 77.0898 36.2606C77.0734 33.6855 76.185 31.1919 74.5695 29.1865C72.954 27.1811 70.7067 25.7821 68.194 25.2178C65.6814 24.6534 63.0516 24.9569 60.7336 26.0788C58.4155 27.2007 56.546 29.0748 55.4298 31.3955L54.954 32.3805L53.8616 32.1661C51.9788 31.7304 50.0213 31.7304 48.1384 32.1661L47.0728 32.414L46.597 31.4223C45.2908 28.893 43.0851 26.9443 40.4139 25.9599C37.7428 24.9755 34.7999 25.0266 32.1646 26.1034C29.5293 27.1801 27.3927 29.2044 26.1753 31.7775C24.958 34.3507 24.7481 37.2864 25.5871 40.0066L25.882 40.8777L25.2118 41.4876C23.5643 43.0015 22.2508 44.8426 21.3553 46.8931C20.4598 48.9435 20.0021 51.1583 20.0113 53.3957V59.4268C20.0184 60.9092 20.6127 62.3283 21.6641 63.3733C22.7155 64.4183 24.1382 65.0041 25.6206 65.0023H32.6306V70.8458C32.6289 71.6669 32.7888 72.4802 33.1014 73.2395C33.414 73.9987 33.8731 74.6889 34.4525 75.2708C35.0319 75.8526 35.7202 76.3146 36.4781 76.6304C37.2361 76.9463 38.0488 77.1097 38.8699 77.1115H41.5506C41.7354 77.1115 41.9127 77.0381 42.0434 76.9074C42.1741 76.7767 42.2476 76.5994 42.2476 76.4146C42.2476 76.2297 42.1741 76.0524 42.0434 75.9217C41.9127 75.791 41.7354 75.7176 41.5506 75.7176H38.8699C37.5842 75.7158 36.3518 75.2039 35.4433 74.2942C34.5349 73.3845 34.0246 72.1515 34.0246 70.8659V64.0038C34.0205 59.6232 35.7252 55.4136 38.7761 52.2699L39.8819 51.1307L40.8402 52.3905C42.0329 53.9534 43.5701 55.22 45.3323 56.0918C47.0944 56.9636 49.034 57.4172 51 57.4172C52.966 57.4172 54.9056 56.9636 56.6677 56.0918C58.4299 55.22 59.9671 53.9534 61.1598 52.3905L62.1248 51.1307L63.2239 52.2699C66.2767 55.4206 67.9812 59.637 67.9754 64.0239V70.886C67.9701 72.1699 67.4568 73.3995 66.5476 74.3061C65.6385 75.2127 64.4074 75.7226 63.1234 75.7243H60.4427C60.2579 75.7243 60.0806 75.7978 59.9499 75.9285C59.8192 76.0592 59.7457 76.2364 59.7457 76.4213C59.7457 76.6061 59.8192 76.7834 59.9499 76.9141C60.0806 77.0448 60.2579 77.1182 60.4427 77.1182L60.436 77.1115ZM56.8104 31.6903C57.622 30.1152 58.8385 28.7845 60.3348 27.8352C61.8311 26.8859 63.5532 26.3521 65.3242 26.2888C67.0951 26.2254 68.851 26.6347 70.4113 27.4747C71.9716 28.3147 73.2801 29.555 74.2022 31.0681C75.1244 32.5812 75.6269 34.3126 75.6583 36.0843C75.6896 37.8559 75.2485 39.604 74.3804 41.1488C73.5123 42.6935 72.2484 43.9793 70.7188 44.8738C69.1891 45.7684 67.4488 46.2395 65.6768 46.2388C65.469 46.2388 65.2679 46.2388 65.0669 46.2388L63.7601 46.1583V44.6237C63.7597 42.3711 63.1669 40.1581 62.0413 38.2068C60.9156 36.2555 59.2965 34.6345 57.3465 33.5064L56.2139 32.8362L56.8104 31.6903ZM36.3166 26.2824C38.1479 26.2901 39.9423 26.7979 41.5061 27.751C43.0699 28.7041 44.3436 30.0662 45.1896 31.6903L45.7861 32.8362L44.6535 33.5064C42.6994 34.6282 41.0746 36.2439 39.9419 38.1916C38.8092 40.1393 38.2084 42.3506 38.1997 44.6036L38.2332 46.1315L36.8929 46.212C36.6852 46.212 36.4841 46.212 36.2764 46.212C33.6755 46.1445 31.2037 45.064 29.388 43.2007C27.5722 41.3374 26.5561 38.8387 26.5561 36.2371C26.5561 33.6355 27.5722 31.1368 29.388 29.2735C31.2037 27.4102 33.6755 26.3297 36.2764 26.2623L36.3166 26.2824ZM38.6152 50.4606C35.2323 53.5371 33.1236 57.7685 32.7043 62.3218V62.6636L32.0744 63.662H25.6206C25.0683 63.6585 24.522 63.5462 24.0131 63.3313C23.5042 63.1165 23.0426 62.8035 22.6548 62.4101C22.267 62.0167 21.9606 61.5508 21.7531 61.0389C21.5456 60.527 21.4411 59.9792 21.4455 59.4268V53.3957C21.4494 49.6653 22.8643 46.0744 25.4062 43.3438L26.4785 42.1845L27.477 43.3572C28.6407 44.8395 30.1601 46.0037 31.8941 46.7417C33.6281 47.4798 35.5205 47.7678 37.3955 47.579L38.4879 47.4718L38.823 48.5172C38.8699 48.6713 38.9235 48.8321 38.9771 48.9863L39.2921 49.844L38.6152 50.4606ZM51 56.0025C48.7467 56.0025 46.544 55.3344 44.6704 54.0826C42.7969 52.8308 41.3366 51.0516 40.4743 48.9699C39.612 46.8883 39.3864 44.5977 39.826 42.3878C40.2656 40.178 41.3507 38.1481 42.944 36.5549C44.5373 34.9617 46.5674 33.8767 48.7774 33.4371C50.9874 32.9975 53.2781 33.2231 55.3599 34.0854C57.4417 34.9476 59.221 36.4078 60.4729 38.2812C61.7247 40.1546 62.3929 42.3572 62.3929 44.6103C62.3929 47.6317 61.1926 50.5294 59.056 52.6658C56.9194 54.8023 54.0216 56.0025 51 56.0025ZM63.3848 50.4606L62.7146 49.844L62.9961 48.9796C63.0564 48.8254 63.1033 48.6713 63.1569 48.5105L63.492 47.4718L64.5844 47.579C64.9463 47.579 65.3015 47.6259 65.6566 47.6259C67.3605 47.6276 69.0428 47.2445 70.578 46.5054C72.1132 45.7663 73.4617 44.6901 74.523 43.3572L75.5149 42.1242L76.5871 43.2835C79.1318 46.0123 80.5472 49.6043 80.5478 53.3354V59.3665C80.5603 59.9217 80.4626 60.4738 80.2603 60.9909C80.0581 61.508 79.7553 61.98 79.3696 62.3794C78.9838 62.7788 78.5227 63.0979 78.0129 63.318C77.5031 63.5382 76.9548 63.6551 76.3995 63.662H69.4297L69.3225 62.4156C68.9223 57.8243 66.8013 53.5539 63.3848 50.4606Z" fill="#0D3643"/>
<path d="M52.2733 76.3945C52.2716 76.052 52.1347 75.724 51.8925 75.4819C51.6504 75.2397 51.3224 75.1029 50.9799 75.1011C50.7241 75.1011 50.474 75.177 50.2613 75.3191C50.0486 75.4612 49.8828 75.6632 49.7849 75.8995C49.687 76.1358 49.6614 76.3959 49.7113 76.6468C49.7612 76.8977 49.8844 77.1281 50.0653 77.309C50.2462 77.4899 50.4767 77.613 50.7276 77.6629C50.9785 77.7128 51.2385 77.6872 51.4749 77.5893C51.7112 77.4915 51.9132 77.3257 52.0553 77.113C52.1975 76.9003 52.2733 76.6503 52.2733 76.3945Z" fill="#0D3643"/>
<path d="M102 54.8633V47.13C101.998 45.5405 101.366 44.0167 100.241 42.8934C99.1162 41.7701 97.5916 41.1391 96.002 41.1391H91.7062L91.4314 40.1272C90.494 36.6086 89.097 33.2288 87.2763 30.0753L86.7536 29.1639L89.8029 26.1349C90.9181 25.0061 91.5435 23.4832 91.5435 21.8964C91.5435 20.3096 90.9181 18.7867 89.8029 17.6578L84.3276 12.1896C83.1989 11.0765 81.6774 10.4524 80.0921 10.4524C78.5068 10.4524 76.9853 11.0765 75.8566 12.1896L72.7873 15.2521L71.8825 14.7294C68.6948 12.8879 65.2759 11.4794 61.716 10.5411L60.6974 10.273V5.99093C60.6869 4.40759 60.0541 2.89189 58.9357 1.77102C57.8173 0.650155 56.3029 0.0140397 54.7195 1.49133e-09L46.9857 1.49133e-09C45.393 -3.53904e-05 43.8649 0.629864 42.7349 1.75224C41.6049 2.87462 40.9648 4.39835 40.9541 5.99093V10.3267L39.9489 10.6014C36.4575 11.5537 33.1052 12.9572 29.9767 14.7763L29.0653 15.3057L26.0294 12.27C24.9005 11.1548 23.3775 10.5295 21.7906 10.5295C20.2037 10.5295 18.6807 11.1548 17.5518 12.27L12.0765 17.7383C10.9612 18.8671 10.3358 20.39 10.3358 21.9768C10.3358 23.5636 10.9612 25.0865 12.0765 26.2154L15.166 29.3046L14.6432 30.2093C12.8604 33.3253 11.4886 36.659 10.5619 40.1272L10.2938 41.1391H5.99133C4.40558 41.1496 2.88778 41.7842 1.76646 42.9054C0.645147 44.0267 0.0105369 45.5444 0 47.13L0 54.8633C0.00878119 56.4501 0.642617 57.9695 1.76412 59.0922C2.88562 60.2149 4.40443 60.8504 5.99133 60.8609H10.3474L10.6155 61.8728C11.5515 65.3622 12.9393 68.7144 14.7438 71.8443L15.2665 72.749L12.2038 75.8114C11.0886 76.9403 10.4632 78.4632 10.4632 80.05C10.4632 81.6368 11.0886 83.1597 12.2038 84.2886L17.6724 89.7568C18.8013 90.872 20.3243 91.4973 21.9112 91.4973C23.4981 91.4973 25.0211 90.872 26.1501 89.7568L29.2127 86.6943L30.1175 87.217C33.2569 89.025 36.618 90.4171 40.1164 91.3584L41.1217 91.6331V95.9957C41.1217 97.5894 41.7525 99.1184 42.8764 100.249C44.0003 101.379 45.5259 102.018 47.1197 102.027H54.8669C56.4607 102.018 57.9863 101.379 59.1102 100.249C60.2341 99.1184 60.8649 97.5894 60.8649 95.9957V91.6398L61.8769 91.3651C65.3953 90.4298 68.7753 89.0351 71.9294 87.217L72.8342 86.6943L75.8969 89.7568C77.0258 90.872 78.5488 91.4973 80.1357 91.4973C81.7226 91.4973 83.2456 90.872 84.3745 89.7568L89.8498 84.2886C90.9651 83.1597 91.5904 81.6368 91.5904 80.05C91.5904 78.4632 90.9651 76.9403 89.8498 75.8114L86.7871 72.749L87.3099 71.8443C89.1173 68.7127 90.5074 65.3582 91.4448 61.8661L91.7196 60.8609H96.0355C97.6177 60.8434 99.1297 60.2048 100.245 59.0828C101.361 57.9609 101.991 56.4455 102 54.8633ZM91.1432 59.4604C90.9855 59.4575 90.8318 59.5103 90.7092 59.6096C90.5866 59.7089 90.503 59.8483 90.4731 60.0032C89.4631 64.4197 87.7139 68.6339 85.2993 72.4675C85.2105 72.6 85.1717 72.7598 85.1902 72.9183C85.2086 73.0767 85.283 73.2234 85.3999 73.332L88.8579 76.7965C89.7165 77.6603 90.1985 78.8288 90.1985 80.0466C90.1985 81.2645 89.7165 82.433 88.8579 83.2968L83.3827 88.7717C82.5179 89.6286 81.3498 90.1094 80.1323 90.1094C78.9149 90.1094 77.7467 89.6286 76.882 88.7717L73.4105 85.3138C73.302 85.1969 73.1553 85.1226 72.9968 85.1042C72.8383 85.0857 72.6785 85.1244 72.546 85.2133C68.7006 87.6397 64.4691 89.3916 60.0339 90.3934C59.879 90.4233 59.7397 90.507 59.6404 90.6296C59.5411 90.7521 59.4882 90.9058 59.4911 91.0635V95.989C59.4911 97.2088 59.0069 98.3788 58.1449 99.242C57.283 100.105 56.1136 100.591 54.8937 100.593H47.1331C45.9132 100.591 44.7439 100.105 43.8819 99.242C43.0199 98.3788 42.5357 97.2088 42.5357 95.989V91.0568C42.5386 90.8991 42.4857 90.7454 42.3865 90.6228C42.2872 90.5003 42.1478 90.4166 41.9929 90.3867C37.5604 89.383 33.3314 87.6312 29.4875 85.2066C29.3516 85.1246 29.1924 85.09 29.0347 85.1082C28.8771 85.1264 28.7299 85.1964 28.6163 85.3071L25.1582 88.765C24.2915 89.6207 23.1225 90.1005 21.9045 90.1005C20.6865 90.1005 19.5176 89.6207 18.6509 88.765L13.189 83.2968C12.3283 82.4327 11.8451 81.2628 11.8451 80.0433C11.8451 78.8238 12.3283 77.6539 13.189 76.7898L16.6537 73.3253C16.7707 73.2167 16.845 73.07 16.8634 72.9116C16.8819 72.7531 16.8432 72.5933 16.7543 72.4608C14.3374 68.6283 12.5881 64.4138 11.5806 59.9965C11.5506 59.8416 11.467 59.7022 11.3444 59.6029C11.2218 59.5036 11.0681 59.4508 10.9104 59.4537H5.99133C4.77203 59.4537 3.60267 58.9693 2.74049 58.1072C1.87832 57.2451 1.39396 56.0758 1.39396 54.8566V47.13C1.39573 45.9113 1.88066 44.7431 2.74245 43.8814C3.60424 43.0196 4.77257 42.5347 5.99133 42.5329H10.897C11.0547 42.5358 11.2084 42.483 11.331 42.3837C11.4536 42.2844 11.5372 42.145 11.5671 41.9901C12.5587 37.5932 14.29 33.3965 16.6873 29.5794C16.7687 29.4446 16.8031 29.2865 16.7849 29.13C16.7667 28.9735 16.697 28.8275 16.5867 28.7149L13.1018 25.2303C12.2416 24.3673 11.7586 23.1986 11.7586 21.9802C11.7586 20.7617 12.2416 19.593 13.1018 18.73L18.5838 13.2551C19.4468 12.3949 20.6157 11.9119 21.8342 11.9119C23.0527 11.9119 24.2215 12.3949 25.0845 13.2551L28.5225 16.6929C28.6363 16.8036 28.784 16.8731 28.9419 16.8901C29.0998 16.9071 29.2589 16.8707 29.3937 16.7867C33.22 14.3519 37.4331 12.5866 41.8522 11.5664C42.0071 11.5364 42.1464 11.4528 42.2457 11.3302C42.345 11.2077 42.3979 11.054 42.395 10.8963V5.99093C42.3968 4.77288 42.8819 3.60531 43.7439 2.74465C44.6059 1.88398 45.7742 1.40056 46.9924 1.40056H54.7195C55.9376 1.40056 57.1059 1.88398 57.9679 2.74465C58.8299 3.60531 59.315 4.77288 59.3168 5.99093V10.8158C59.3142 10.9745 59.368 11.129 59.4687 11.2517C59.5693 11.3744 59.7102 11.4574 59.8664 11.486C64.3513 12.4902 68.6309 14.2559 72.5192 16.7063C72.6517 16.7951 72.8115 16.8339 72.97 16.8154C73.1285 16.797 73.2752 16.7227 73.3837 16.6057L76.8552 13.1479C77.7191 12.2893 78.8876 11.8075 80.1055 11.8075C81.3235 11.8075 82.492 12.2893 83.3559 13.1479L88.8244 18.6094C89.6834 19.4744 90.1655 20.6439 90.1655 21.8629C90.1655 23.0819 89.6834 24.2514 88.8244 25.1164L85.3664 28.5809C85.2494 28.6895 85.1751 28.8361 85.1567 28.9946C85.1382 29.1531 85.1769 29.3129 85.2658 29.4454C87.7005 33.3014 89.4613 37.5435 90.4731 41.9901C90.503 42.145 90.5866 42.2844 90.7092 42.3837C90.8318 42.483 90.9855 42.5358 91.1432 42.5329H96.0087C97.2286 42.5329 98.3986 43.0171 99.2619 43.879C100.125 44.7409 100.611 45.9102 100.613 47.13V54.8633C100.611 56.0831 100.125 57.2524 99.2619 58.1143C98.3986 58.9762 97.2286 59.4604 96.0087 59.4604H91.1432Z" fill="#0D3643"/>
</g>
<defs>
<clipPath id="clip0">
<rect width="102" height="102" fill="white"/>
</clipPath>
</defs>
</svg>
