<svg width="69" height="78" viewBox="0 0 69 78" fill="none" xmlns="http://www.w3.org/2000/svg">
<g clip-path="url(#clip0)">
<path d="M58.0059 65.46C70.9615 52.5414 70.9615 31.5963 58.0059 18.6777C45.0503 5.75913 24.045 5.75913 11.0894 18.6777C-1.86626 31.5963 -1.86626 52.5414 11.0894 65.46C24.045 78.3786 45.0503 78.3786 58.0059 65.46Z" fill="#EEEEEE"/>
<path d="M68.2596 35.4463L59.5576 35.4596C59.1473 35.4596 58.8172 35.1305 58.8172 34.7214C58.8172 34.3122 59.1473 33.9831 59.5576 33.9831L68.2596 33.9697C68.6699 33.9697 69 34.2988 69 34.708C69 35.1127 68.6699 35.4463 68.2596 35.4463Z" fill="#EEEEEE"/>
<path d="M11.2309 60.2366L4.31304 60.2499C3.90269 60.2499 3.57264 59.9208 3.57264 59.5116C3.57264 59.1025 3.90269 58.7734 4.31304 58.7734L11.2309 58.76C11.6412 58.76 11.9713 59.0891 11.9713 59.4983C11.9713 59.903 11.6368 60.2366 11.2309 60.2366Z" fill="#EEEEEE"/>
<path d="M66.2882 7.58286H65.2266C64.9456 7.58286 64.7226 7.35604 64.7226 7.08029V6.0885C64.7226 5.80831 64.9501 5.58594 65.2266 5.58594H66.2882C66.5692 5.58594 66.7922 5.81276 66.7922 6.0885V7.08029C66.7922 7.35604 66.5647 7.58286 66.2882 7.58286Z" fill="#EEEEEE"/>
<path d="M1.56999 18.7728H0.508453C0.227457 18.7728 -1.52588e-05 18.546 -1.52588e-05 18.2702V17.2784C-1.52588e-05 16.9983 0.227457 16.7759 0.503993 16.7759H1.56553C1.84653 16.7759 2.06954 17.0027 2.06954 17.2784V18.2702C2.074 18.546 1.84653 18.7683 1.56999 18.7728Z" fill="#EEEEEE"/>
<path d="M27.1986 6.76007L25.0443 4.02487C24.237 2.9975 22.7517 2.81071 21.7125 3.60236C20.7892 4.30506 20.5037 5.56815 21.039 6.59552L24.0095 12.3328L27.1986 6.76007Z" fill="#EEEEEE"/>
<path d="M43.7059 44.0745L52.8048 70.239L34.045 77.4662L26.8016 56.1716L43.7059 44.0745Z" fill="#EEEEEE"/>
<path d="M31.1057 59.6585L13.2692 53.0851C10.7447 52.1556 9.45571 49.3626 10.3879 46.8453L26.6009 3.17543C27.5331 0.658157 30.3341 -0.627166 32.8586 0.302359L50.6951 6.87574C53.2196 7.80527 54.5086 10.5983 53.5765 13.1156L37.3635 56.7854C36.4313 59.3027 33.6258 60.588 31.1057 59.6585Z" fill="#DBDBDB"/>
<path d="M50.28 15.9028L27.2612 7.41907L14.3042 42.3741L37.323 50.8579L50.28 15.9028Z" fill="#EFE8E8"/>
<path d="M36.4714 5.87946C36.4 5.85278 36.3198 5.85722 36.2484 5.88836C36.177 5.91949 36.1235 5.98175 36.0967 6.05291C36.07 6.12852 36.0744 6.20413 36.1057 6.27529C36.1369 6.34645 36.1993 6.39982 36.2707 6.4265L44.4151 9.42855C44.4865 9.45079 44.5668 9.45079 44.6381 9.41966C44.7095 9.38853 44.763 9.32626 44.7898 9.2551C44.8165 9.17949 44.8121 9.10389 44.7809 9.03273C44.7496 8.96157 44.6872 8.9082 44.6158 8.88151L36.4714 5.87946Z" fill="#EDE8E8"/>
<path d="M24.5536 49.4382C24.5358 49.4337 24.5224 49.4248 24.5046 49.4204C23.9337 49.2291 23.3226 49.2736 22.7874 49.5405C22.2522 49.8073 21.8507 50.2698 21.6589 50.8391C21.2664 52.0133 21.9176 53.2897 23.0818 53.6766C24.2593 54.068 25.5349 53.432 25.9274 52.2579C26.1192 51.6886 26.0746 51.0837 25.807 50.5456C25.5483 50.0252 25.1022 49.6339 24.5536 49.4382Z" fill="#EDE8E8"/>
<path d="M39.7943 35.473L22.3458 28.9753C21.7526 28.7529 21.4538 28.0947 21.6723 27.5031L25.8828 16.2643C26.1058 15.6728 26.7659 15.3749 27.3591 15.5928L44.8121 22.0906C45.4053 22.3129 45.7041 22.9712 45.4856 23.5627L41.2751 34.8015C41.0476 35.393 40.3875 35.691 39.7943 35.473Z" fill="#E9E9E9"/>
<path d="M38.1574 26.8405C37.243 29.2821 34.5134 30.523 32.0647 29.6112C29.616 28.6995 28.3716 25.9776 29.286 23.536C30.2003 21.0943 32.93 19.8535 35.3787 20.7652C37.8273 21.6814 39.0717 24.3988 38.1574 26.8405Z" fill="#DADADA"/>
<path d="M31.6633 24.679L32.872 26.5069L35.7845 24.7368" stroke="#EDE8E8" stroke-width="2.10965" stroke-miterlimit="10" stroke-linecap="round" stroke-linejoin="round"/>
<path d="M46.4757 52.04L50.374 44.2614C51.382 42.2467 52.0956 40.0941 52.4837 37.8748L54.8744 19.6668C54.9502 19.222 54.5934 18.8262 54.1429 18.8484C52.4168 18.9329 48.5096 20.703 48.1662 27.6856L45.8201 34.0321C45.8201 34.0321 35.9763 43.403 41.2483 54.1081L46.4757 52.04Z" fill="#EEEEEE"/>
<path d="M24.3931 16.3089L22.1674 14.9969C22.1674 14.9969 21.0657 14.4365 19.8436 16.1488C18.6171 17.8611 20.2986 20.2494 20.2986 20.2494L20.5528 19.5422L21.5608 20.2983C22.5778 21.0632 24.0095 20.9254 24.8614 19.9825C25.8605 18.8751 25.6419 17.1361 24.3931 16.3089Z" fill="#EEEEEE"/>
<path d="M22.493 24.888L19.2504 22.7844C19.2504 22.7844 18.1487 22.224 16.9266 23.9363C15.7 25.6485 17.3816 28.0368 17.3816 28.0368L17.6358 27.3297L19.6607 28.8774C20.6777 29.6424 22.1094 29.5045 22.9613 28.5616C23.9604 27.4542 23.7374 25.7152 22.493 24.888Z" fill="#EEEEEE"/>
<path d="M18.6081 31.6971L15.1247 30.4518C15.1247 30.4518 13.7866 30.1672 13.3049 32.0529C13.3049 32.0529 12.7117 33.276 14.6564 35.4419L15.0533 34.3434L17.3637 35.1662C18.345 35.5175 19.4244 34.9883 19.7455 33.9965C20.0533 33.0536 19.5492 32.0351 18.6081 31.6971Z" fill="#EEEEEE"/>
<path d="M57.9832 77.9999L51.7388 60.29C51.4177 59.3783 50.4231 58.889 49.4998 59.1915L28.7017 66.0184C27.7695 66.3252 27.261 67.3259 27.5643 68.2554L30.5928 77.9999H57.9832Z" fill="#DBDBDB"/>
</g>
<defs>
<clipPath id="clip0">
<rect width="69" height="78" fill="white"/>
</clipPath>
</defs>
</svg>
