<svg width="86" height="79" viewBox="0 0 86 79" fill="none" xmlns="http://www.w3.org/2000/svg">
<g clip-path="url(#clip0)">
<path d="M68.4708 67.4314C83.9237 52.0059 83.9237 26.9961 68.4708 11.5705C53.018 -3.85503 27.9639 -3.85503 12.5111 11.5705C-2.94177 26.9961 -2.94177 52.0059 12.5111 67.4314C27.9639 82.857 53.018 82.857 68.4708 67.4314Z" fill="#F5F5F5"/>
<path d="M4.64062 37.29C5.11961 34.1448 6.31176 31.0316 8.55237 28.7099C11.4849 25.6764 15.2157 25.2195 19.1966 24.837C22.6613 24.5023 26.142 24.3588 29.6226 24.3694C33.247 24.3854 36.866 24.5713 40.4691 24.9592C43.3111 25.262 46.2116 25.6445 48.9419 26.5211C50.134 26.9036 51.2943 27.3764 52.4013 27.9821C56.5844 30.2559 60.411 32.9123 65.1371 34.0014C68.3303 34.7345 72.7158 34.5858 74.9617 37.3696C76.2071 38.9156 76.3933 41.0726 76.5477 42.9852C76.6701 44.4887 76.6701 46.6775 75.0468 47.416C74.3922 47.7135 73.6418 47.7241 72.9233 47.7241C71.3054 47.7294 69.6875 47.7347 68.0696 47.7347C68.16 47.2938 68.2079 46.8422 68.2079 46.3747C68.2079 42.6611 65.1903 39.6541 61.4755 39.6541C57.7553 39.6541 54.743 42.6664 54.743 46.3747C54.743 46.8528 54.7962 47.3204 54.8867 47.7666C49.6071 47.7826 44.3276 47.7932 39.0481 47.8038C34.5349 47.8144 30.0218 47.8516 25.5139 47.756C25.6097 47.3097 25.6576 46.8422 25.6576 46.3694C25.6576 42.6558 22.64 39.6488 18.9252 39.6488C15.205 39.6488 12.1927 42.6611 12.1927 46.3694C12.1927 46.5606 12.2033 46.7519 12.2193 46.9378C10.5375 46.7413 8.85573 46.5181 7.16862 46.3056C3.12914 45.8115 4.20953 40.1004 4.64062 37.29Z" fill="#E1E1E1"/>
<path d="M35.3974 26.4467C36.6853 26.4255 36.2968 26.4627 36.2968 26.4627C38.8195 26.5317 41.406 26.8293 43.8436 27.4827C45.7542 27.9981 47.3508 29.0022 49.0752 29.9372C51.4701 31.2388 53.8385 32.5935 56.1749 33.9961C56.9626 34.4689 58.2399 35.2074 56.5687 35.2233C55.8609 35.2287 55.153 35.234 54.4452 35.2393C53.0295 35.2499 51.6138 35.2552 50.1982 35.2605C47.3668 35.2712 44.5354 35.2765 41.7041 35.2712C39.2665 35.2658 38.6013 35.2233 36.1638 35.218L35.3974 26.4467Z" fill="#E1E1E1"/>
<path d="M59.4161 33.7305L47.7287 27.6368C47.7287 27.6368 47.2763 27.4031 47.75 27.0418L49.352 26.6593C50.4164 27.0206 51.4489 27.4562 52.4441 27.9981C55.7385 29.7938 58.8147 31.8179 62.2847 33.1302L60.2729 33.7677C60.2782 33.7677 59.9217 33.9908 59.4161 33.7305Z" fill="#E1E1E1"/>
<path d="M70.4541 43.5802C70.4541 43.1392 70.8107 42.7886 71.2471 42.7886H76.7395C76.7502 42.9426 76.7661 43.0967 76.7768 43.2508C76.8034 43.5961 76.8247 43.9786 76.8247 44.3771H71.2471C70.8107 44.3718 70.4541 44.0158 70.4541 43.5802Z" fill="#E1E1E1"/>
<path d="M5.11455 41.9439C5.43388 41.9545 5.68402 42.2255 5.67338 42.5443C5.66273 42.863 5.3913 43.1127 5.07198 43.1021L4.2577 43.0808C4.2098 42.7036 4.18851 42.3105 4.18319 41.9174L5.11455 41.9439Z" fill="#E1E1E1"/>
<path d="M8.52603 38.7084C8.52603 40.0579 7.42967 41.1523 6.07786 41.1523H4.1619C4.22576 39.8029 4.45461 38.4587 4.60363 37.4706C4.6675 37.0668 4.74201 36.663 4.82716 36.2593H6.07786C7.42967 36.2646 8.52603 37.359 8.52603 38.7084Z" fill="#E1E1E1"/>
<path opacity="0.29" d="M5.80642 38.7403C5.80642 39.3247 5.33275 39.7976 4.74732 39.7976H4.27365C4.34816 39.0378 4.45993 38.3153 4.55572 37.6831H4.74732C5.33275 37.6831 5.80642 38.1559 5.80642 38.7403Z" fill="#E1E1E1"/>
<path d="M12.177 46.38C12.177 46.5713 12.1876 46.7625 12.2036 46.9485C10.5218 46.7519 8.84003 46.5288 7.15292 46.3163C6.22155 46.1994 5.56693 45.8063 5.11456 45.2378C7.50418 45.3706 9.87785 45.4875 12.2249 45.5831C12.193 45.8434 12.177 46.1091 12.177 46.38Z" fill="#E1E1E1"/>
<path d="M54.7539 45.8169C54.7379 46.0028 54.7273 46.1888 54.7273 46.38C54.7273 46.8582 54.7805 47.3257 54.871 47.7773C49.5914 47.7932 44.3119 47.8038 39.0324 47.8145C34.5192 47.8251 30.0061 47.8623 25.4982 47.7667C25.594 47.3204 25.6419 46.8529 25.6419 46.38C25.6419 46.2472 25.6366 46.1144 25.6313 45.9816C36.515 46.1728 46.4993 46.0453 54.7539 45.8169Z" fill="#E1E1E1"/>
<path d="M75.0365 47.4214C74.3818 47.7189 73.6314 47.7295 72.9129 47.7295C71.295 47.7348 69.6771 47.7401 68.0592 47.7401C68.1496 47.2992 68.1975 46.8476 68.1975 46.3801C68.1975 46.0135 68.1656 45.6522 68.1124 45.3016C72.0987 45.105 75.0045 44.9137 76.5533 44.8075C76.4415 45.8966 76.069 46.9538 75.0365 47.4214Z" fill="#E1E1E1"/>
<path d="M53.6149 35.2498C53.6149 35.2498 55.1105 39.5265 54.5303 42.1775C54.5303 42.1775 54.6261 45.1474 52.6942 45.2377L38.0691 45.1845C38.0691 45.1845 28.2391 45.1474 28.2232 45.1474C27.4089 45.142 26.7596 44.4036 26.403 43.7554C25.94 42.9107 25.6632 42.0182 25.0671 41.2372C24.4445 40.419 23.6621 39.7921 22.7786 39.2768C21.7515 38.6765 20.5806 38.3683 19.5854 37.7255C18.787 37.2155 18.3772 36.1264 18.489 35.2073" fill="#F3F3F3"/>
<path d="M33.359 35.2232C31.443 35.2179 28.0475 35.2445 26.1262 35.2445C22.0335 35.2392 17.9408 35.2338 13.8481 35.2285C13.0019 35.2285 12.1504 35.2285 11.3042 35.2232C10.6336 35.2232 9.97363 35.0266 9.96299 34.2032C9.94702 32.9388 11.6874 30.9518 12.4537 30.0115C13.4117 28.8427 15.2106 26.8185 16.8871 26.7919C16.8871 26.7919 27.6963 26.6113 33.5719 26.5104L33.359 35.2232Z" fill="#E1E1E1"/>
<path d="M18.9361 26.8026C18.9361 26.8026 19.4363 26.792 20.2772 26.7814L19.5588 35.2392C18.7871 35.2392 18.0153 35.2392 17.249 35.2339L18.3879 26.877C18.5688 26.8345 18.7551 26.8026 18.9361 26.8026Z" fill="#E1E1E1"/>
<path d="M38.1116 37.4227C38.1116 37.8636 38.7024 38.2196 39.4315 38.2196C40.1607 38.2196 40.7514 37.8636 40.7514 37.4227C40.7514 36.9817 40.1607 36.6258 39.4315 36.6258C38.7077 36.6205 38.1116 36.9817 38.1116 37.4227Z" fill="#E1E1E1"/>
<path d="M40.5651 37.6299H38.3086C38.1649 37.6299 38.0478 37.513 38.0478 37.3696C38.0478 37.2261 38.1649 37.1093 38.3086 37.1093H40.5651C40.7088 37.1093 40.8259 37.2261 40.8259 37.3696C40.8259 37.513 40.7088 37.6299 40.5651 37.6299Z" fill="#E1E1E1"/>
<path opacity="0.24" d="M40.4374 37.513C40.5811 37.513 40.6982 37.3961 40.6982 37.2527C40.6982 37.2102 40.6822 37.1677 40.6609 37.1305C40.7567 37.1677 40.8206 37.2633 40.8206 37.3696C40.8206 37.513 40.7035 37.6299 40.5598 37.6299H38.3032C38.2021 37.6299 38.1223 37.5715 38.0797 37.4918C38.1116 37.5024 38.1436 37.513 38.1808 37.513H40.4374Z" fill="#E1E1E1"/>
<path d="M21.5333 37.4228C21.5333 37.8637 22.124 38.2197 22.8532 38.2197C23.5823 38.2197 24.173 37.8637 24.173 37.4228C24.173 36.9818 23.5823 36.6259 22.8532 36.6259C22.124 36.6259 21.5333 36.9818 21.5333 37.4228Z" fill="#E1E1E1"/>
<path d="M23.9814 37.63H21.7249C21.5812 37.63 21.4641 37.5131 21.4641 37.3697C21.4641 37.2263 21.5812 37.1094 21.7249 37.1094H23.9814C24.1251 37.1094 24.2422 37.2263 24.2422 37.3697C24.2422 37.5131 24.1251 37.63 23.9814 37.63Z" fill="#E1E1E1"/>
<path opacity="0.24" d="M23.859 37.513C24.0027 37.513 24.1198 37.3961 24.1198 37.2527C24.1198 37.2102 24.1039 37.1677 24.0826 37.1305C24.1784 37.1677 24.2422 37.2633 24.2422 37.3696C24.2422 37.513 24.1251 37.6299 23.9814 37.6299H21.7249C21.6238 37.6299 21.5439 37.5714 21.5013 37.4918C21.5333 37.5024 21.5652 37.513 21.6025 37.513H23.859Z" fill="#E1E1E1"/>
<path d="M54.8923 47.7666C54.7965 47.3097 54.7432 46.8369 54.7432 46.3534C54.7432 42.6452 57.7556 39.6382 61.4704 39.6382C65.1852 39.6382 68.1976 42.6452 68.1976 46.3534C68.1976 46.8263 68.1497 47.2885 68.0539 47.7348L54.8923 47.7666Z" fill="#E1E1E1"/>
<path d="M12.342 47.8039C12.2462 47.347 12.193 46.8741 12.193 46.3907C12.193 42.6824 15.2053 39.6754 18.9201 39.6754C22.6349 39.6754 25.6473 42.6824 25.6473 46.3907C25.6473 46.8635 25.5994 47.3257 25.5036 47.772L12.342 47.8039Z" fill="#E1E1E1"/>
<path d="M75.409 40.4988C75.409 40.4988 74.4244 36.6258 69.8314 36.1211H65.6163C65.6163 36.1211 68.3732 39.8559 70.6138 40.3978C70.6138 40.3978 72.0614 40.8229 75.409 40.4988Z" fill="#E1E1E1"/>
<g opacity="0.14">
<g opacity="0.14">
<path opacity="0.14" d="M30.9161 26.5477L29.1173 35.2234C28.154 35.2287 27.2226 35.2287 26.4562 35.234L28.2445 26.5955C29.1652 26.5796 30.0593 26.5637 30.9161 26.5477Z" fill="#E1E1E1"/>
<path opacity="0.14" d="M24.0613 35.2288C23.5237 35.2288 22.9915 35.2288 22.454 35.2288L24.2316 26.6594C24.7585 26.6488 25.3013 26.6434 25.8442 26.6328L24.0613 35.2288Z" fill="#E1E1E1"/>
<path opacity="0.14" d="M47.6648 29.1722L46.4035 35.2659C45.52 35.2659 44.6312 35.2659 43.7478 35.2659L45.2592 27.9716C46.0895 28.3169 46.8772 28.7313 47.6648 29.1722Z" fill="#E1E1E1"/>
<path opacity="0.14" d="M42.9973 27.2756L41.3422 35.2659C40.6077 35.2659 40.0383 35.2553 39.522 35.2499L41.2464 26.9249C41.8371 27.0259 42.4226 27.1374 42.9973 27.2756Z" fill="#E1E1E1"/>
<path opacity="0.14" d="M16.8498 26.7868C16.8498 26.7868 16.9775 26.7868 17.2117 26.7815L14.7689 35.2234C14.4495 35.2234 14.1249 35.2234 13.8056 35.2234C13.7843 35.2234 13.763 35.2234 13.7364 35.2234L16.142 26.9143C16.3815 26.8293 16.6156 26.7868 16.8498 26.7868Z" fill="#E1E1E1"/>
</g>
</g>
<path opacity="0.29" d="M52.476 35.6589L13.6991 35.6695C13.6991 35.6695 10.3834 35.5208 9.20726 36.1211C9.20726 36.1211 8.62183 36.8702 10.2025 36.9233H58.2346C58.2346 36.9233 58.7561 36.7374 57.6491 36.4718C57.6544 36.4771 55.6533 35.9086 52.476 35.6589Z" fill="#E1E1E1"/>
<path d="M53.3489 32.7317C53.3489 32.7317 57.697 32.9973 57.7183 34.9577C57.7183 34.9577 58.2825 36.1796 53.1466 36.2646C53.1466 36.2699 52.5293 34.3999 53.3489 32.7317Z" fill="#E1E1E1"/>
<path d="M25.1499 48.0291C25.9591 44.6082 23.837 41.1802 20.41 40.3725C16.9831 39.5647 13.549 41.683 12.7398 45.1039C11.9306 48.5248 14.0527 51.9528 17.4797 52.7606C20.9066 53.5683 24.3407 51.45 25.1499 48.0291Z" fill="#E1E1E1"/>
<path d="M24.0933 47.7801C24.7647 44.9417 23.0039 42.0974 20.1605 41.4272C17.3172 40.757 14.4679 42.5146 13.7964 45.353C13.125 48.1914 14.8858 51.0356 17.7292 51.7058C20.5726 52.3761 23.4218 50.6184 24.0933 47.7801Z" fill="#E1E1E1"/>
<path d="M23.4562 47.63C24.0445 45.1428 22.5016 42.6505 20.0101 42.0632C17.5186 41.476 15.0218 43.0161 14.4335 45.5032C13.8452 47.9904 15.3881 50.4827 17.8796 51.07C20.3711 51.6572 22.8678 50.1171 23.4562 47.63Z" fill="#E1E1E1"/>
<path d="M16.9988 41.6516L18.8775 46.5605L18.6806 41.2797C18.6806 41.2797 18.0579 41.3222 17.7173 41.4178C17.7173 41.4178 17.217 41.5612 16.9988 41.6516Z" fill="#E1E1E1"/>
<path d="M14.2633 44.1113L18.9467 46.5976L15.3277 42.6981C15.3277 42.6981 14.87 43.1497 14.6678 43.4472C14.6678 43.4525 14.3697 43.8935 14.2633 44.1113Z" fill="#E1E1E1"/>
<path d="M20.0697 51.7085L18.9254 46.5977L18.3613 51.8254C18.3613 51.8254 18.984 51.8732 19.3299 51.8307C19.3299 51.8307 19.8408 51.7669 20.0697 51.7085Z" fill="#E1E1E1"/>
<path d="M24.0985 45.3545L18.9467 46.5658L24.2103 47.1236C24.2103 47.1236 24.2635 46.4808 24.2209 46.1195C24.2209 46.1195 24.1571 45.5883 24.0985 45.3545Z" fill="#E1E1E1"/>
<path d="M13.7896 47.8089L18.9414 46.5976L13.6778 46.0398C13.6778 46.0398 13.6246 46.6826 13.6672 47.0439C13.6725 47.0439 13.7311 47.5752 13.7896 47.8089Z" fill="#E1E1E1"/>
<path d="M16.3655 51.1612L18.8988 46.5604L15.0084 50.0934C15.0084 50.0934 15.4395 50.5503 15.7268 50.7521C15.7322 50.7521 16.1579 51.055 16.3655 51.1612Z" fill="#E1E1E1"/>
<path d="M23.1565 49.5993L18.8988 46.5977L21.959 50.8478C21.959 50.8478 22.454 50.4653 22.6882 50.1944C22.6829 50.1944 23.0288 49.8012 23.1565 49.5993Z" fill="#E1E1E1"/>
<path d="M21.1288 41.7578L18.8935 46.5977L22.5764 42.7566C22.5764 42.7566 22.1081 42.3156 21.7994 42.1297C21.8047 42.135 21.347 41.8534 21.1288 41.7578Z" fill="#E1E1E1"/>
<path d="M19.8355 46.5977C19.8355 47.0918 19.4363 47.4955 18.9467 47.4955C18.4571 47.4955 18.0579 47.0918 18.0579 46.5977C18.0579 46.1036 18.4571 45.6998 18.9467 45.6998C19.4363 45.6998 19.8355 46.1036 19.8355 46.5977Z" fill="#E1E1E1"/>
<path d="M67.7085 48.0325C68.5177 44.6116 66.3956 41.1836 62.9687 40.3759C59.5417 39.5681 56.1077 41.6865 55.2985 45.1073C54.4893 48.5282 56.6114 51.9562 60.0383 52.764C63.4652 53.5718 66.8993 51.4534 67.7085 48.0325Z" fill="#E1E1E1"/>
<path d="M66.6519 47.7835C67.3233 44.9451 65.5626 42.1009 62.7192 41.4306C59.8758 40.7604 57.0265 42.5181 56.3551 45.3564C55.6837 48.1948 57.4445 51.039 60.2878 51.7093C63.1312 52.3795 65.9805 50.6219 66.6519 47.7835Z" fill="#E1E1E1"/>
<path d="M66.0148 47.6334C66.6032 45.1463 65.0603 42.6539 62.5688 42.0667C60.0772 41.4794 57.5805 43.0195 56.9922 45.5067C56.4039 47.9938 57.9467 50.4861 60.4383 51.0734C62.9298 51.6607 65.4265 50.1205 66.0148 47.6334Z" fill="#E1E1E1"/>
<path d="M59.5597 41.6517L61.4385 46.5606L61.2415 41.2798C61.2415 41.2798 60.6188 41.3223 60.2782 41.4179C60.2729 41.4179 59.7726 41.5614 59.5597 41.6517Z" fill="#E1E1E1"/>
<path d="M56.8189 44.1114L61.5023 46.5978L57.8833 42.6982C57.8833 42.6982 57.4256 43.1498 57.2233 43.4473C57.2233 43.4526 56.9253 43.8936 56.8189 44.1114Z" fill="#E1E1E1"/>
<path d="M62.6253 51.7086L61.481 46.5978L60.9169 51.8255C60.9169 51.8255 61.5396 51.8733 61.8855 51.8308C61.8855 51.8308 62.4018 51.7671 62.6253 51.7086Z" fill="#E1E1E1"/>
<path d="M66.6595 45.3546L61.5077 46.5659L66.7712 47.1237C66.7712 47.1237 66.8244 46.4809 66.7819 46.1196C66.7765 46.1196 66.718 45.5884 66.6595 45.3546Z" fill="#E1E1E1"/>
<path d="M56.3505 47.8091L61.5023 46.5978L56.2387 46.0399C56.2387 46.0399 56.1855 46.6828 56.2281 47.044C56.2281 47.044 56.2866 47.5753 56.3505 47.8091Z" fill="#E1E1E1"/>
<path d="M58.9211 51.1614L61.4544 46.5605L57.5639 50.0935C57.5639 50.0935 57.995 50.5504 58.2824 50.7523C58.2878 50.7523 58.7135 51.0551 58.9211 51.1614Z" fill="#E1E1E1"/>
<path d="M65.7121 49.5995L61.4544 46.5978L64.5146 50.8479C64.5146 50.8479 65.0096 50.4654 65.2438 50.1945C65.2438 50.1945 65.5844 49.8013 65.7121 49.5995Z" fill="#E1E1E1"/>
<path d="M63.6897 41.7579L61.4544 46.5978L65.1373 42.7567C65.1373 42.7567 64.669 42.3158 64.3603 42.1298C64.3603 42.1351 63.9079 41.8536 63.6897 41.7579Z" fill="#E1E1E1"/>
<path d="M62.3911 46.5978C62.3911 47.0919 61.992 47.4956 61.5023 47.4956C61.0127 47.4956 60.6135 47.0919 60.6135 46.5978C60.6135 46.1037 61.0127 45.7 61.5023 45.7C61.992 45.7 62.3911 46.1037 62.3911 46.5978Z" fill="#E1E1E1"/>
<path d="M62.1463 29.629C69.9237 29.629 76.2286 23.3353 76.2286 15.5716C76.2286 7.80789 69.9237 1.51416 62.1463 1.51416C54.3688 1.51416 48.064 7.80789 48.064 15.5716C48.064 23.3353 54.3688 29.629 62.1463 29.629Z" fill="#E3E3E3"/>
<path d="M59.6768 21.6811L54.9189 17.3885L56.8242 15.2793L59.5172 17.7126L67.3034 9.46191L69.3737 11.4064L59.6768 21.6811Z" fill="#F7F7F7"/>
<path d="M85.1165 52.6597L80.0552 52.6756C79.5656 52.6756 79.1717 52.2825 79.1717 51.7937C79.1717 51.305 79.5656 50.9118 80.0552 50.9118L85.1165 50.8959C85.6062 50.8959 86 51.289 86 51.7778C86 52.2612 85.6008 52.6597 85.1165 52.6597Z" fill="#EEEEEE"/>
<path d="M9.67028 65.5907L0.883471 65.6067C0.393836 65.6067 0 65.2135 0 64.7248C0 64.236 0.393836 63.8428 0.883471 63.8428L9.67028 63.8269C10.1599 63.8269 10.5537 64.22 10.5537 64.7088C10.5537 65.1976 10.1599 65.5907 9.67028 65.5907Z" fill="#AAAAAA"/>
<path d="M74.8395 14.5782H73.5729C73.2376 14.5782 72.9715 14.3072 72.9715 13.9778V12.7931C72.9715 12.4584 73.2429 12.1927 73.5729 12.1927H74.8395C75.1748 12.1927 75.4409 12.4637 75.4409 12.7931V13.9778C75.4463 14.3125 75.1748 14.5782 74.8395 14.5782Z" fill="#EEEEEE"/>
<path d="M18.2176 5.78555H16.9509C16.6156 5.78555 16.3495 5.51461 16.3495 5.18522V4.00048C16.3495 3.66578 16.621 3.40015 16.9509 3.40015H18.2176C18.5529 3.40015 18.819 3.67109 18.819 4.00048V5.18522C18.819 5.51461 18.5476 5.78555 18.2176 5.78555Z" fill="#AAAAAA"/>
</g>
<defs>
<clipPath id="clip0">
<rect width="86" height="79" fill="white"/>
</clipPath>
</defs>
</svg>
