<svg width="71" height="78" viewBox="0 0 71 78" fill="none" xmlns="http://www.w3.org/2000/svg">
<g clip-path="url(#clip0)">
<path d="M59.2657 65.599C72.0285 53.0364 72.0285 32.6684 59.2657 20.1059C46.503 7.54331 25.8105 7.5433 13.0477 20.1059C0.284999 32.6684 0.284999 53.0364 13.0477 65.599C25.8105 78.1615 46.503 78.1615 59.2657 65.599Z" fill="#EEEEEE"/>
<path d="M70.2706 40.1051L66.0921 40.118C65.6879 40.118 65.3627 39.798 65.3627 39.4001C65.3627 39.0022 65.6879 38.6822 66.0921 38.6822L70.2706 38.6692C70.6749 38.6692 71 38.9892 71 39.3871C71 39.7807 70.6705 40.1007 70.2706 40.1051Z" fill="#B2B5BA"/>
<path d="M7.98358 50.6319L0.729358 50.6449C0.325125 50.6449 -1.90735e-05 50.3249 -1.90735e-05 49.927C-1.90735e-05 49.5291 0.325125 49.209 0.729358 49.209L7.98358 49.196C8.38781 49.196 8.71296 49.5161 8.71296 49.914C8.71296 50.3076 8.38781 50.6319 7.98358 50.6319Z" fill="#AAAAAA"/>
<path d="M61.7861 9.104H60.7404C60.4636 9.104 60.2439 8.88343 60.2439 8.61528V7.65083C60.2439 7.37836 60.468 7.16211 60.7404 7.16211H61.7861C62.0629 7.16211 62.2826 7.38268 62.2826 7.65083V8.61528C62.287 8.88343 62.0629 9.104 61.7861 9.104Z" fill="#B2B5BA"/>
<path d="M15.0401 1.94629H13.9943C13.7175 1.94629 13.4978 1.72571 13.4978 1.45757V0.493111C13.4978 0.220641 13.7219 0.00439453 13.9943 0.00439453H15.0401C15.3169 0.00439453 15.5366 0.224966 15.5366 0.493111V1.45757C15.5366 1.72571 15.3125 1.94629 15.0401 1.94629Z" fill="#AAAAAA"/>
<path d="M62.9241 30.7546C66.6224 30.7546 69.6203 27.8037 69.6203 24.1634C69.6203 20.5232 66.6224 17.5723 62.9241 17.5723C59.2259 17.5723 56.2279 20.5232 56.2279 24.1634C56.2279 27.8037 59.2259 30.7546 62.9241 30.7546Z" fill="#AAAAAA"/>
<path d="M59.9451 24.4922L62.4496 26.2957L65.433 22.5676" stroke="#EDE8E8" stroke-width="3.34448" stroke-miterlimit="10" stroke-linecap="round" stroke-linejoin="round"/>
<path d="M28.7664 21.4042C28.7664 21.4042 22.6063 26.2481 22.4833 43.9673H48.8639C48.8639 43.9673 48.776 28.1381 43.3496 21.9534L28.7664 21.4042Z" fill="#DBDBDB"/>
<path d="M32.7824 39.6164L32.053 49.2134H39.5665L38.5076 39.5083L32.7824 39.6164Z" fill="#DDE4EC"/>
<path d="M32.6901 40.862L39.1227 45.161L38.5076 39.5083L32.6901 40.862Z" fill="#A4A9B0"/>
<path d="M27.6197 36.2733C29.0465 36.2733 30.2032 35.1347 30.2032 33.7302C30.2032 32.3257 29.0465 31.1871 27.6197 31.1871C26.1928 31.1871 25.0361 32.3257 25.0361 33.7302C25.0361 35.1347 26.1928 36.2733 27.6197 36.2733Z" fill="#DDE4EC"/>
<path d="M26.1653 33.3323C26.1653 33.3323 27.2067 32.8695 28.1337 34.6514" stroke="#C3C6CA" stroke-width="0.847093" stroke-miterlimit="10" stroke-linecap="round" stroke-linejoin="round"/>
<path d="M44.057 36.2733C45.4839 36.2733 46.6406 35.1347 46.6406 33.7302C46.6406 32.3257 45.4839 31.1871 44.057 31.1871C42.6301 31.1871 41.4734 32.3257 41.4734 33.7302C41.4734 35.1347 42.6301 36.2733 44.057 36.2733Z" fill="#DDE4EC"/>
<path d="M45.5158 33.3323C45.5158 33.3323 44.4744 32.8695 43.5473 34.6514" stroke="#C3C6CA" stroke-width="0.847093" stroke-miterlimit="10" stroke-linecap="round" stroke-linejoin="round"/>
<path d="M35.8098 36.9955C41.1387 36.9955 45.4586 32.8479 45.4586 27.7315C45.4586 22.6152 41.1387 18.4675 35.8098 18.4675C30.4808 18.4675 26.1609 22.6152 26.1609 27.7315C26.1609 32.8479 30.4808 36.9955 35.8098 36.9955Z" fill="#DBDBDB"/>
<path d="M27.6548 26.6979C27.6548 26.6979 26.6354 41.4545 35.4758 41.4545C45.0368 41.4545 44.035 26.6979 44.035 26.6979C44.035 26.6979 43.9823 20.2581 35.7702 20.2581C28.2436 20.2581 27.6548 26.6979 27.6548 26.6979Z" fill="#DDE4EC"/>
<path d="M33.916 37.1902C33.916 37.1902 35.3352 37.973 36.7588 37.1902" stroke="#C3C6CA" stroke-width="0.847093" stroke-miterlimit="10" stroke-linecap="round" stroke-linejoin="round"/>
<path d="M39.1491 29.2063C39.1491 29.2063 37.3915 28.869 37.3125 29.8031C37.3125 29.8031 37.2729 30.4346 38.8064 30.6897C40.3442 30.9449 40.955 30.893 41.1351 30.3092C41.3153 29.7296 39.9795 29.2841 39.1491 29.2063Z" fill="#C3C6CA"/>
<path d="M31.5741 29.2496C31.5741 29.2496 29.7858 29.3274 29.9264 30.2529C29.9264 30.2529 30.0363 30.8757 31.5917 30.7719C33.1471 30.6638 33.7271 30.4735 33.7666 29.868C33.8062 29.2539 32.4001 29.1285 31.5741 29.2496Z" fill="#C3C6CA"/>
<path d="M32.9098 32.9171C32.9098 33.2934 32.6023 33.5961 32.22 33.5961C31.8377 33.5961 31.5302 33.2934 31.5302 32.9171C31.5302 32.5408 31.8377 32.2381 32.22 32.2381C32.6023 32.2338 32.9098 32.5408 32.9098 32.9171Z" fill="#C3C6CA"/>
<path d="M39.6851 32.9171C39.6851 33.2934 39.3776 33.5961 38.9953 33.5961C38.613 33.5961 38.3055 33.2934 38.3055 32.9171C38.3055 32.5408 38.613 32.2381 38.9953 32.2381C39.3776 32.2338 39.6851 32.5408 39.6851 32.9171Z" fill="#C3C6CA"/>
<path d="M34.9793 34.6774V35.7845H35.8933" stroke="#C3C6CA" stroke-width="0.847093" stroke-miterlimit="10" stroke-linecap="round" stroke-linejoin="round"/>
<path d="M26.7277 28.3067C26.7277 28.3067 41.1483 28.1856 41.4778 21.1403C41.4778 21.1403 36.8203 17.7885 32.053 19.8428C27.2857 21.8972 26.7277 28.3067 26.7277 28.3067Z" fill="#DBDBDB"/>
<path d="M40.4848 20.1196C40.4848 20.1196 39.9268 26.6113 45.072 29.2452C45.072 29.2452 45.8365 23.1298 40.4848 20.1196Z" fill="#DBDBDB"/>
<path d="M27.8437 48.7462L21.0113 50.3334C21.0113 50.3334 23.8497 67.7802 25.6908 77.4983H45.1027C45.1027 77.4983 50.0282 59.0957 52.2032 50.3334L44.3514 48.2748L27.8437 48.7462Z" fill="#B2B5BA"/>
<path d="M35.8844 45.1306L27.8437 48.7462C27.8437 48.7462 28.0898 52.2062 36.3985 52.2192C43.477 52.2321 44.3514 48.2748 44.3514 48.2748L35.8844 45.1306Z" fill="#DDE4EC"/>
<path d="M48.4333 49.9918C48.4333 49.9918 53.8377 48.2834 57.3528 55.9688C60.8678 63.6542 65.1518 73.5453 65.1518 73.5453L57.9108 74.1637L47.4403 58.8622L48.4333 49.9918Z" fill="#B2B5BA"/>
<path d="M62.4496 77.8096H38.947V73.2814L62.4496 71.4434C64.1105 71.4434 65.4594 72.3256 65.4594 74.8471C65.4594 76.4819 64.1105 77.8096 62.4496 77.8096Z" fill="#DDE4EC"/>
<path d="M24.7812 49.9918C24.7812 49.9918 19.3768 48.2834 15.8618 55.9688C12.3467 63.6542 8.06271 73.5453 8.06271 73.5453L15.3037 74.1637L25.7743 58.8622L24.7812 49.9918Z" fill="#B2B5BA"/>
<path d="M10.7649 77.8096H34.2675V73.2814L10.7649 71.4434C9.10405 71.4434 7.75514 72.3256 7.75514 74.8471C7.75514 76.4819 9.09965 77.8096 10.7649 77.8096Z" fill="#DDE4EC"/>
<path d="M52.4844 77.892H21.5474C20.695 77.892 20.0051 77.2129 20.0051 76.3739V57.1496C20.0051 56.3106 20.695 55.6316 21.5474 55.6316H52.4844C53.3368 55.6316 54.0266 56.3106 54.0266 57.1496V76.3739C54.0266 77.2129 53.3368 77.892 52.4844 77.892Z" fill="#F3F3F3"/>
<path d="M37.0137 68.8183C38.1664 68.8183 39.1008 67.8985 39.1008 66.7639C39.1008 65.6294 38.1664 64.7096 37.0137 64.7096C35.861 64.7096 34.9266 65.6294 34.9266 66.7639C34.9266 67.8985 35.861 68.8183 37.0137 68.8183Z" fill="#EDE8E8"/>
<path d="M3.61613 77.892H69.594" stroke="#C3C6CA" stroke-width="0.621643" stroke-miterlimit="10" stroke-linecap="round" stroke-linejoin="round"/>
</g>
<defs>
<clipPath id="clip0">
<rect width="71" height="78" fill="white"/>
</clipPath>
</defs>
</svg>
