<svg width="145" height="48" viewBox="0 0 145 48" fill="none" xmlns="http://www.w3.org/2000/svg">
<circle cx="24" cy="24" r="23" fill="#C1FEC9" stroke="#0D3643" stroke-width="2"/>
<path d="M28.7573 16.0641C26.6682 16.047 24.5749 15.9653 22.4816 16.0169C20.0572 16.0771 18.1659 16.2232 16.7346 18.1618C16.3606 19.0859 16.1715 20.1649 16.0812 21.2911C16.064 21.5877 16.0468 21.8929 16.0253 22.2067C15.9479 24.1195 16.0769 26.0925 16.0339 27.6571C16.2359 28.6845 16.6314 29.6086 17.3708 30.3135C19.8209 32.6476 24.8071 31.9211 28.0738 31.7922C29.6428 31.2205 30.9495 30.7476 31.6501 28.9552C32.2046 27.5453 32.1143 25.7485 32.153 24.2356C32.2261 21.1233 32.3637 16.8293 28.7573 16.0641Z" fill="#0D3643"/>
<path d="M27.7988 17.173C31.9725 17.7102 30.7475 23.7582 30.6314 26.6897C30.5669 28.3016 30.279 29.5482 28.6155 30.1069C26.4276 30.842 23.2038 30.5969 20.9729 30.2703C19.4813 30.0553 18.3121 29.6083 17.8995 28.0609C17.2461 25.6151 17.431 22.3052 17.7147 19.8122C17.7233 19.7649 17.7361 19.7305 17.7576 19.7004C17.7963 15.9695 25.628 16.8936 27.7988 17.173Z" fill="#C1FEC9"/>
<path d="M29.5308 19.4463C29.5394 18.4189 28.2585 18.0923 27.5707 18.7242C27.3858 18.8961 27.2998 19.1583 27.287 19.442C27.3557 19.8074 27.575 20.1684 27.8587 20.3747C28.525 20.8433 29.5222 20.22 29.5308 19.4463Z" fill="#0D3643"/>
<path d="M27.9479 20.9587C26.4585 18.5423 23.0964 18.3044 21.2892 20.4456C20.0567 21.9057 19.9696 24.3362 20.8972 26.0622C20.9495 26.0808 20.9974 26.1135 21.041 26.1695C22.5478 27.9702 25.1433 28.6233 27.0073 26.9905C28.6709 25.5304 29.1586 22.9227 27.9479 20.9587Z" fill="#0D3643"/>
<path d="M21.7679 24.4973C22.288 25.9588 24.1363 27.1194 25.6106 26.2167C28.5894 24.3942 25.0905 19.4424 22.6361 21.6389C21.7679 22.1504 21.4283 23.5387 21.7679 24.4973Z" fill="#C1FEC9"/>
<path d="M68.322 22.694C68.322 23.018 68.388 23.276 68.52 23.468C68.688 23.708 68.916 23.906 69.204 24.062C69.504 24.206 69.846 24.32 70.23 24.404C70.614 24.488 71.016 24.572 71.436 24.656C71.988 24.764 72.54 24.89 73.092 25.034C73.644 25.166 74.136 25.376 74.568 25.664C75 25.94 75.342 26.318 75.594 26.798C75.81 27.218 75.918 27.752 75.918 28.4C75.918 28.496 75.918 28.592 75.918 28.688C75.882 29.276 75.726 29.792 75.45 30.236C75.186 30.668 74.838 31.028 74.406 31.316C73.974 31.604 73.488 31.82 72.948 31.964C72.408 32.108 71.856 32.18 71.292 32.18C70.812 32.18 70.332 32.12 69.852 32C69.372 31.892 68.922 31.724 68.502 31.496C68.082 31.268 67.698 30.986 67.35 30.65C67.014 30.302 66.75 29.9 66.558 29.444L67.944 28.814C68.076 29.126 68.262 29.396 68.502 29.624C68.742 29.852 69.012 30.05 69.312 30.218C69.624 30.374 69.948 30.494 70.284 30.578C70.632 30.65 70.98 30.686 71.328 30.686C71.7 30.686 72.066 30.644 72.426 30.56C72.786 30.476 73.11 30.35 73.398 30.182C73.686 30.002 73.92 29.786 74.1 29.534C74.28 29.27 74.382 28.964 74.406 28.616C74.418 28.532 74.424 28.454 74.424 28.382C74.424 28.034 74.352 27.74 74.208 27.5C74.04 27.212 73.794 26.978 73.47 26.798C73.158 26.618 72.792 26.48 72.372 26.384C71.952 26.276 71.52 26.174 71.076 26.078C70.56 25.97 70.05 25.844 69.546 25.7C69.042 25.556 68.586 25.352 68.178 25.088C67.782 24.824 67.458 24.488 67.206 24.08C66.954 23.66 66.828 23.132 66.828 22.496C66.864 21.944 67.014 21.458 67.278 21.038C67.542 20.606 67.878 20.246 68.286 19.958C68.706 19.67 69.174 19.454 69.69 19.31C70.218 19.154 70.758 19.076 71.31 19.076C71.778 19.076 72.246 19.13 72.714 19.238C73.194 19.346 73.638 19.514 74.046 19.742C74.466 19.958 74.844 20.234 75.18 20.57C75.516 20.906 75.78 21.296 75.972 21.74L74.604 22.352C74.472 22.052 74.286 21.794 74.046 21.578C73.818 21.35 73.554 21.158 73.254 21.002C72.966 20.846 72.654 20.732 72.318 20.66C71.982 20.576 71.646 20.534 71.31 20.534C70.938 20.534 70.578 20.576 70.23 20.66C69.882 20.744 69.57 20.87 69.294 21.038C69.018 21.206 68.79 21.416 68.61 21.668C68.442 21.92 68.346 22.214 68.322 22.55C68.322 22.598 68.322 22.646 68.322 22.694ZM79.4959 32H78.0019V19.256H79.4959V32ZM81.7899 23.054C81.7899 22.394 81.9279 21.818 82.2039 21.326C82.4799 20.834 82.8399 20.42 83.2839 20.084C83.7399 19.748 84.2559 19.496 84.8319 19.328C85.4199 19.16 86.0139 19.076 86.6139 19.076C87.0699 19.076 87.5199 19.13 87.9639 19.238C88.4199 19.346 88.8459 19.508 89.2419 19.724C89.6379 19.94 89.9979 20.21 90.3219 20.534C90.6459 20.858 90.9099 21.236 91.1139 21.668L89.7459 22.28C89.6019 21.992 89.4159 21.74 89.1879 21.524C88.9599 21.308 88.7079 21.128 88.4319 20.984C88.1559 20.84 87.8559 20.732 87.5319 20.66C87.2199 20.588 86.9019 20.552 86.5779 20.552C86.1699 20.552 85.7679 20.606 85.3719 20.714C84.9759 20.81 84.6219 20.96 84.3099 21.164C84.0099 21.368 83.7639 21.626 83.5719 21.938C83.3799 22.25 83.2839 22.61 83.2839 23.018V28.148C83.2839 28.568 83.3799 28.94 83.5719 29.264C83.7639 29.576 84.0159 29.84 84.3279 30.056C84.6399 30.26 84.9939 30.416 85.3899 30.524C85.7859 30.62 86.1939 30.668 86.6139 30.668C87.0219 30.668 87.4239 30.62 87.8199 30.524C88.2279 30.416 88.5879 30.26 88.8999 30.056C89.2239 29.84 89.4819 29.576 89.6739 29.264C89.8659 28.94 89.9619 28.568 89.9619 28.148V26.87H86.1999V25.376H91.4559V28.148C91.4559 28.82 91.3179 29.408 91.0419 29.912C90.7659 30.416 90.3999 30.836 89.9439 31.172C89.4879 31.508 88.9719 31.76 88.3959 31.928C87.8199 32.096 87.2259 32.18 86.6139 32.18C86.0019 32.18 85.4079 32.096 84.8319 31.928C84.2559 31.76 83.7399 31.508 83.2839 31.172C82.8399 30.836 82.4799 30.416 82.2039 29.912C81.9279 29.408 81.7899 28.82 81.7899 28.148V23.054ZM103.086 32H101.502L100.026 27.914H95.112C94.872 28.586 94.626 29.27 94.374 29.966C94.134 30.65 93.9 31.328 93.672 32H92.07L96.642 19.256H98.478L103.086 32ZM99.504 26.402C99.324 25.91 99.156 25.442 99 24.998C98.844 24.554 98.688 24.11 98.532 23.666C98.388 23.222 98.232 22.772 98.064 22.316C97.908 21.86 97.74 21.38 97.56 20.876C97.236 21.812 96.918 22.73 96.606 23.63C96.294 24.518 95.964 25.442 95.616 26.402H99.504ZM108.48 27.374H103.782V25.898H108.48V27.374ZM119.027 19.256H120.539V32H118.631L112.367 21.902V32H110.855V19.256H112.475L119.027 29.786V19.256ZM122.817 23.072C122.817 22.412 122.961 21.83 123.249 21.326C123.537 20.822 123.921 20.408 124.401 20.084C124.881 19.748 125.427 19.496 126.039 19.328C126.651 19.16 127.275 19.076 127.911 19.076C128.547 19.076 129.171 19.16 129.783 19.328C130.395 19.496 130.935 19.748 131.403 20.084C131.883 20.408 132.267 20.822 132.555 21.326C132.855 21.83 133.005 22.412 133.005 23.072V28.166C133.005 28.838 132.855 29.426 132.555 29.93C132.267 30.422 131.883 30.836 131.403 31.172C130.935 31.508 130.395 31.76 129.783 31.928C129.171 32.096 128.547 32.18 127.911 32.18C127.275 32.18 126.651 32.096 126.039 31.928C125.427 31.76 124.881 31.508 124.401 31.172C123.921 30.836 123.537 30.422 123.249 29.93C122.961 29.426 122.817 28.838 122.817 28.166V23.072ZM124.311 28.148C124.311 28.568 124.413 28.934 124.617 29.246C124.821 29.558 125.091 29.822 125.427 30.038C125.763 30.242 126.147 30.398 126.579 30.506C127.011 30.614 127.455 30.668 127.911 30.668C128.355 30.668 128.793 30.614 129.225 30.506C129.657 30.398 130.041 30.242 130.377 30.038C130.725 29.822 131.001 29.558 131.205 29.246C131.409 28.934 131.511 28.568 131.511 28.148V23.072C131.511 22.628 131.403 22.25 131.187 21.938C130.983 21.614 130.713 21.35 130.377 21.146C130.041 20.942 129.651 20.792 129.207 20.696C128.775 20.6 128.337 20.552 127.893 20.552C127.437 20.552 126.993 20.606 126.561 20.714C126.141 20.81 125.763 20.966 125.427 21.182C125.091 21.386 124.821 21.644 124.617 21.956C124.413 22.268 124.311 22.64 124.311 23.072V28.148ZM136.297 22.694C136.297 23.018 136.363 23.276 136.495 23.468C136.663 23.708 136.891 23.906 137.179 24.062C137.479 24.206 137.821 24.32 138.205 24.404C138.589 24.488 138.991 24.572 139.411 24.656C139.963 24.764 140.515 24.89 141.067 25.034C141.619 25.166 142.111 25.376 142.543 25.664C142.975 25.94 143.317 26.318 143.569 26.798C143.785 27.218 143.893 27.752 143.893 28.4C143.893 28.496 143.893 28.592 143.893 28.688C143.857 29.276 143.701 29.792 143.425 30.236C143.161 30.668 142.813 31.028 142.381 31.316C141.949 31.604 141.463 31.82 140.923 31.964C140.383 32.108 139.831 32.18 139.267 32.18C138.787 32.18 138.307 32.12 137.827 32C137.347 31.892 136.897 31.724 136.477 31.496C136.057 31.268 135.673 30.986 135.325 30.65C134.989 30.302 134.725 29.9 134.533 29.444L135.919 28.814C136.051 29.126 136.237 29.396 136.477 29.624C136.717 29.852 136.987 30.05 137.287 30.218C137.599 30.374 137.923 30.494 138.259 30.578C138.607 30.65 138.955 30.686 139.303 30.686C139.675 30.686 140.041 30.644 140.401 30.56C140.761 30.476 141.085 30.35 141.373 30.182C141.661 30.002 141.895 29.786 142.075 29.534C142.255 29.27 142.357 28.964 142.381 28.616C142.393 28.532 142.399 28.454 142.399 28.382C142.399 28.034 142.327 27.74 142.183 27.5C142.015 27.212 141.769 26.978 141.445 26.798C141.133 26.618 140.767 26.48 140.347 26.384C139.927 26.276 139.495 26.174 139.051 26.078C138.535 25.97 138.025 25.844 137.521 25.7C137.017 25.556 136.561 25.352 136.153 25.088C135.757 24.824 135.433 24.488 135.181 24.08C134.929 23.66 134.803 23.132 134.803 22.496C134.839 21.944 134.989 21.458 135.253 21.038C135.517 20.606 135.853 20.246 136.261 19.958C136.681 19.67 137.149 19.454 137.665 19.31C138.193 19.154 138.733 19.076 139.285 19.076C139.753 19.076 140.221 19.13 140.689 19.238C141.169 19.346 141.613 19.514 142.021 19.742C142.441 19.958 142.819 20.234 143.155 20.57C143.491 20.906 143.755 21.296 143.947 21.74L142.579 22.352C142.447 22.052 142.261 21.794 142.021 21.578C141.793 21.35 141.529 21.158 141.229 21.002C140.941 20.846 140.629 20.732 140.293 20.66C139.957 20.576 139.621 20.534 139.285 20.534C138.913 20.534 138.553 20.576 138.205 20.66C137.857 20.744 137.545 20.87 137.269 21.038C136.993 21.206 136.765 21.416 136.585 21.668C136.417 21.92 136.321 22.214 136.297 22.55C136.297 22.598 136.297 22.646 136.297 22.694Z" fill="#C1FEC9"/>
</svg>
