<svg width="153" height="56" viewBox="0 0 153 56" fill="none" xmlns="http://www.w3.org/2000/svg">
<g clip-path="url(#clip0)">
<path d="M36.8973 50.8814V52.6438C36.8973 53.7166 36.6375 54.5442 36.1178 55.1113C35.5981 55.6937 34.8186 55.9695 33.7945 55.9695C32.7704 55.9695 32.0062 55.6783 31.4712 55.1113C30.9516 54.5289 30.6917 53.7166 30.6917 52.6438V45.7473C30.6917 44.6745 30.9516 43.8469 31.4712 43.2799C31.9909 42.6975 32.7704 42.4216 33.7945 42.4216C34.8186 42.4216 35.5828 42.7128 36.1178 43.2799C36.6375 43.8622 36.8973 44.6745 36.8973 45.7473V47.0347H34.9256V45.6094C34.9256 45.1343 34.8339 44.7971 34.6352 44.5979C34.4365 44.3986 34.1766 44.3067 33.8556 44.3067C33.5347 44.3067 33.2595 44.3986 33.0761 44.5979C32.8774 44.7971 32.7857 45.1343 32.7857 45.6094V52.7818C32.7857 53.2569 32.8774 53.594 33.0761 53.7933C33.2748 53.9772 33.5347 54.0845 33.8556 54.0845C34.1766 54.0845 34.4518 53.9925 34.6352 53.7933C34.8339 53.6094 34.9256 53.2722 34.9256 52.7818V50.8814H36.8973Z" fill="white"/>
<path d="M39.6944 45.7473C39.6944 44.6745 39.9695 43.8469 40.5045 43.2799C41.0395 42.6975 41.8343 42.4216 42.8431 42.4216C43.8671 42.4216 44.6467 42.7128 45.1816 43.2799C45.7166 43.8622 45.9917 44.6745 45.9917 45.7473V52.6438C45.9917 53.7166 45.7166 54.5442 45.1816 55.1113C44.6467 55.6937 43.8518 55.9695 42.8431 55.9695C41.819 55.9695 41.0395 55.6783 40.5045 55.1113C39.9695 54.5289 39.6944 53.7166 39.6944 52.6438V45.7473ZM41.7731 52.7818C41.7731 53.2569 41.8648 53.594 42.0635 53.7933C42.2622 53.9925 42.5221 54.0845 42.8431 54.0845C43.164 54.0845 43.4392 53.9925 43.6226 53.7933C43.8213 53.594 43.913 53.2569 43.913 52.7818V45.6094C43.913 45.1343 43.8213 44.7971 43.6226 44.5979C43.4239 44.3986 43.164 44.3067 42.8431 44.3067C42.5221 44.3067 42.247 44.3986 42.0635 44.5979C41.8648 44.7971 41.7731 45.1343 41.7731 45.6094V52.7818Z" fill="white"/>
<path d="M50.9134 46.2224V55.8316H49.0334V42.5596H51.6471L53.7869 50.5136V42.5596H55.6364V55.8316H53.4965L50.9134 46.2224Z" fill="white"/>
<path d="M58.571 45.7473C58.571 44.6745 58.8309 43.8469 59.3353 43.2799C59.8397 42.6975 60.6192 42.4216 61.628 42.4216C62.652 42.4216 63.4163 42.7128 63.9207 43.2799C64.4251 43.8622 64.6849 44.6745 64.6849 45.7473V46.1611H62.7132V45.6094C62.7132 45.1343 62.6215 44.7971 62.4381 44.5979C62.2546 44.3986 61.9948 44.3067 61.6738 44.3067C61.3528 44.3067 61.093 44.3986 60.9096 44.5979C60.7262 44.7971 60.6345 45.1343 60.6345 45.6094C60.6345 46.0691 60.7415 46.4676 60.9402 46.8201C61.1389 47.1726 61.3987 47.4944 61.6891 47.8009C61.9948 48.1075 62.3158 48.414 62.6673 48.7358C63.0189 49.0423 63.3399 49.3795 63.6456 49.7473C63.9512 50.1151 64.1958 50.5289 64.4098 51.004C64.6085 51.4791 64.7155 52.0155 64.7155 52.6592C64.7155 53.732 64.4556 54.5596 63.936 55.1266C63.4163 55.709 62.6368 55.9848 61.6127 55.9848C60.5886 55.9848 59.8244 55.6937 59.2894 55.1266C58.7697 54.5442 58.5099 53.732 58.5099 52.6592V51.8469H60.4816V52.7971C60.4816 53.2722 60.5733 53.6094 60.772 53.8086C60.9707 53.9925 61.2306 54.0998 61.5515 54.0998C61.8725 54.0998 62.1476 54.0078 62.3311 53.8086C62.5298 53.6247 62.6215 53.2875 62.6215 52.7971C62.6215 52.3373 62.5145 51.9389 62.3158 51.5864C62.1171 51.2339 61.8572 50.9121 61.5515 50.6055C61.2459 50.299 60.9249 49.9925 60.5733 49.6707C60.2218 49.3642 59.9008 49.027 59.5951 48.6592C59.2894 48.2914 59.0449 47.8776 58.8461 47.4025C58.6627 46.9274 58.571 46.3757 58.571 45.7473Z" fill="white"/>
<path d="M69.5913 42.5596V52.7971C69.5913 53.2722 69.683 53.6094 69.8817 53.8086C70.0804 53.9925 70.3403 54.0998 70.6612 54.0998C70.9822 54.0998 71.2573 54.0079 71.4408 53.8086C71.6395 53.6247 71.7312 53.2875 71.7312 52.7971V42.5596H73.7029V52.6745C73.7029 53.7473 73.4431 54.5749 72.9234 55.1419C72.4037 55.7243 71.6242 56.0002 70.6001 56.0002C69.576 56.0002 68.8118 55.709 68.2768 55.1419C67.7572 54.5596 67.4973 53.7473 67.4973 52.6745V42.5596H69.5913Z" fill="white"/>
<path d="M76.8363 42.5596H78.915V53.9312H82.3388V55.8316H76.8363V42.5596Z" fill="white"/>
<path d="M83.4087 42.5596H89.8436V44.4446H87.6731V55.8163H85.5944V44.4446H83.424V42.5596H83.4087Z" fill="white"/>
<path d="M92.2738 45.7473C92.2738 44.6745 92.5489 43.8469 93.0839 43.2799C93.6189 42.6975 94.4137 42.4216 95.4225 42.4216C96.4465 42.4216 97.2261 42.7128 97.761 43.2799C98.296 43.8622 98.5711 44.6745 98.5711 45.7473V52.6438C98.5711 53.7166 98.296 54.5442 97.761 55.1113C97.2261 55.6937 96.4313 55.9695 95.4225 55.9695C94.3984 55.9695 93.6189 55.6783 93.0839 55.1113C92.5489 54.5289 92.2738 53.7166 92.2738 52.6438V45.7473ZM94.3525 52.7818C94.3525 53.2569 94.4443 53.594 94.643 53.7933C94.8417 53.9925 95.1015 54.0845 95.4225 54.0845C95.7434 54.0845 96.0186 53.9925 96.202 53.7933C96.4007 53.594 96.4924 53.2569 96.4924 52.7818V45.6094C96.4924 45.1343 96.4007 44.7971 96.202 44.5979C96.0033 44.3986 95.7434 44.3067 95.4225 44.3067C95.1015 44.3067 94.8264 44.3986 94.643 44.5979C94.4443 44.7971 94.3525 45.1343 94.3525 45.6094V52.7818Z" fill="white"/>
<path d="M105.984 55.8316C105.954 55.7396 105.938 55.663 105.908 55.5864C105.877 55.5098 105.862 55.4178 105.847 55.2952C105.831 55.1879 105.816 55.0347 105.816 54.8661C105.816 54.6822 105.801 54.4676 105.801 54.2071V52.1075C105.801 51.4944 105.694 51.05 105.48 50.8048C105.266 50.5596 104.914 50.4216 104.44 50.4216H103.722V55.8316H101.643V42.5596H104.777C105.862 42.5596 106.641 42.8201 107.131 43.3259C107.62 43.8316 107.864 44.5979 107.864 45.6247V46.6668C107.864 48.0308 107.406 48.9351 106.504 49.3642C107.039 49.5787 107.39 49.9312 107.589 50.4216C107.788 50.9121 107.88 51.4944 107.88 52.1994V54.2531C107.88 54.5749 107.895 54.8661 107.91 55.1113C107.941 55.3565 108.002 55.6017 108.094 55.8623H105.984V55.8316ZM103.722 44.4446V48.5213H104.532C104.93 48.5213 105.235 48.414 105.449 48.2147C105.663 48.0155 105.786 47.6477 105.786 47.1113V45.8239C105.786 45.3488 105.694 44.9964 105.526 44.7818C105.358 44.5672 105.082 44.46 104.716 44.46H103.722V44.4446Z" fill="white"/>
<path d="M110.936 42.5596H113.015V55.8316H110.936V42.5596Z" fill="white"/>
<path d="M122.966 55.8316H120.872L120.505 53.4255H117.952L117.585 55.8316H115.675L117.799 42.5596H120.841L122.966 55.8316ZM118.227 51.617H120.23L119.221 44.9044L118.227 51.617Z" fill="white"/>
<path d="M22.4991 47.1418C21.8266 45.8391 20.6038 45.0269 19.3505 45.0269L15.1777 45.0422L15.193 54.6667H15.8961V45.7318L19.3505 45.7165C19.7937 45.7165 20.2675 45.8851 20.7414 46.2223C21.7349 46.9272 22.3004 48.0154 22.3004 49.1954C22.3004 49.9924 21.9336 50.8813 21.3375 51.5709C20.7414 52.2453 19.9924 52.659 19.3657 52.659H17.9901V53.364H19.3657C19.916 53.364 20.4662 53.1495 21.0776 52.7357C22.2545 51.8928 23.0188 50.4981 23.0188 49.1954C23.0035 48.4751 22.8201 47.8008 22.4991 47.1418Z" fill="white"/>
<path d="M23.676 44.3526C22.5144 43.1266 21.0165 42.4062 19.5644 42.4062H13.8785V43.1112L19.5644 43.1266C20.4815 43.1266 21.3528 43.4177 22.1781 43.9848C23.8136 45.1342 24.8988 47.1879 24.8988 49.1955C24.8988 50.253 24.6695 51.2185 24.1804 52.138C23.2175 53.9465 21.2458 55.2645 19.5644 55.2645H14.5816V55.2492H13.8785V55.9541H19.9771C21.2458 55.8315 22.5755 55.1419 23.6149 54.0384C24.8682 52.7357 25.5713 51.0039 25.5713 49.1955C25.5713 47.3871 24.9141 45.6859 23.676 44.3526Z" fill="white"/>
<path d="M16.5534 46.2835L16.5381 54.3142V54.6667H19.4269C20.4968 54.6667 21.7349 54.069 22.6825 53.0575C23.7066 51.954 24.2721 50.59 24.2721 49.2107C24.2721 47.8161 23.7219 46.4061 22.7437 45.318C21.6737 44.2452 20.5121 43.6628 19.4116 43.6628H13.8785V54.6667H14.5816V44.3678L19.4116 44.3831C20.1147 44.3831 20.7872 44.5977 21.4292 45.0422C22.7284 45.9157 23.5843 47.5862 23.5843 49.2107C23.5843 50.3908 23.0799 51.6169 22.1628 52.5671C21.3069 53.4253 20.2828 53.9617 19.4269 53.9617H17.2106L17.2259 46.2835H16.5534Z" fill="white"/>
<path d="M13.4658 55.2492H11.1578V54.6515V47.004L7.36723 52.6438L3.59191 47.0499V55.2338H0.748951V43.1419H4.03516L7.3978 48.4292L10.7604 43.1419H11.54L14.8109 43.1112V42.4062H10.3478L7.3978 47.0499L4.46314 42.4062H0V55.9541H4.34086V49.4867L7.12268 53.6093H7.61179L10.4089 49.4561V55.9695H14.8262V55.2645L13.4658 55.2492Z" fill="white"/>
<path d="M134.292 50.8814V52.6438C134.292 53.7166 134.032 54.5442 133.512 55.1113C132.992 55.6937 132.213 55.9695 131.189 55.9695C130.165 55.9695 129.4 55.6783 128.865 55.1113C128.346 54.5289 128.086 53.7166 128.086 52.6438V45.7473C128.086 44.6745 128.346 43.8469 128.865 43.2799C129.385 42.6975 130.165 42.4216 131.189 42.4216C132.213 42.4216 132.977 42.7128 133.512 43.2799C134.032 43.8622 134.292 44.6745 134.292 45.7473V47.0347H132.32V45.6094C132.32 45.1343 132.228 44.7971 132.029 44.5979C131.831 44.3986 131.571 44.3067 131.25 44.3067C130.929 44.3067 130.654 44.3986 130.47 44.5979C130.272 44.7971 130.18 45.1343 130.18 45.6094V52.7818C130.18 53.2569 130.272 53.594 130.47 53.7933C130.669 53.9772 130.929 54.0845 131.25 54.0845C131.571 54.0845 131.846 53.9925 132.029 53.7933C132.228 53.6094 132.32 53.2722 132.32 52.7818V50.8814H134.292Z" fill="white"/>
<path d="M138.831 46.2224V55.8316H136.951V42.5596H139.565L141.705 50.5136V42.5596H143.554V55.8316H141.414L138.831 46.2224Z" fill="white"/>
<path d="M150.921 42.5596V48.1534H148.308V42.5596H146.229V55.8316H148.308V50.2377H150.921V55.8316H153V42.5596H150.921Z" fill="white"/>
<path d="M56.1102 29.2568C57.8679 29.364 59.855 29.456 61.9948 29.456C71.4561 29.456 84.6162 27.9234 94.4595 20.751L93.3285 19.8162C92.9158 19.479 92.7629 18.9426 92.9311 18.4368C93.0839 17.9311 93.5272 17.5939 94.0622 17.548H94.0774H94.0927L96.4313 17.4867L93.68 1.76251C93.4813 0.59776 92.3655 -0.18385 91.2039 0.0153842L54.3066 6.51347C53.145 6.7127 52.3654 7.83148 52.5641 8.99623L56.1102 29.2568Z" fill="#C1FEC9"/>
<path d="M93.5883 1.85455C93.3896 0.689801 92.2738 -0.0918085 91.1122 0.107425L54.2302 6.59018C53.0685 6.78942 52.289 7.90819 52.4877 9.07294L52.8393 11.1113L93.9399 3.89287L93.5883 1.85455Z" fill="white"/>
<path d="M73.2589 9.03687L59.5885 11.4387L62.4747 27.9535L76.145 25.5517L73.2589 9.03687Z" fill="white"/>
<path fill-rule="evenodd" clip-rule="evenodd" d="M67.0388 21.2568C64.4862 22.9579 63.7678 23.7548 63.4927 24.1073C63.0647 24.6437 63.08 26.3602 63.0342 27.8468L69.3009 26.7433L75.5676 25.6399C75.0174 24.2759 74.4518 22.6514 73.871 22.2836C73.4889 22.0537 72.5871 21.5633 69.6066 20.8276L67.0388 21.2568Z" fill="#FFDECC"/>
<path fill-rule="evenodd" clip-rule="evenodd" d="M67.0388 21.2568C64.4862 22.9579 63.7678 23.7548 63.4927 24.1073C63.0647 24.6437 63.08 26.3602 63.0342 27.8468L69.3009 26.7433L75.5676 25.6399C75.0174 24.2759 74.4518 22.6514 73.871 22.2836C73.4889 22.0537 72.5871 21.5633 69.6066 20.8276L67.0388 21.2568Z" fill="#4E616F"/>
<path fill-rule="evenodd" clip-rule="evenodd" d="M66.5344 18.8352L66.9012 20.8889L67.0846 21.9003C67.9711 22.6513 69.1939 22.4674 69.7747 21.4253L69.5913 20.4138L69.2245 18.3601C68.9188 16.7049 66.2439 17.18 66.5344 18.8352Z" fill="#FCC09B"/>
<path fill-rule="evenodd" clip-rule="evenodd" d="M64.7308 17.1648C64.96 17.0422 65.2963 17.2567 65.5103 17.6552C65.7243 18.0384 65.709 18.4521 65.4797 18.5748C65.2504 18.6974 64.9142 18.4828 64.7002 18.0843C64.4862 17.7012 64.5015 17.2874 64.7308 17.1648Z" fill="#FCC09B"/>
<path fill-rule="evenodd" clip-rule="evenodd" d="M70.325 16.1841C70.0804 16.1535 69.8206 16.4753 69.7594 16.9045C69.6983 17.3336 69.8511 17.7167 70.0957 17.7627C70.3402 17.7933 70.6001 17.4715 70.6612 17.0424C70.7224 16.5979 70.5695 16.2148 70.325 16.1841Z" fill="#FCC09B"/>
<path fill-rule="evenodd" clip-rule="evenodd" d="M68.5367 22.345C68.5367 22.345 66.7331 23.1266 66.7636 23.2339C66.7789 23.3411 68.1393 26.9273 68.1393 26.9273L70.6918 26.4829L70.325 22.6362L68.5367 22.345Z" fill="#F4F4F4"/>
<path fill-rule="evenodd" clip-rule="evenodd" d="M66.9623 21.3027L67.0693 21.9158L68.5367 26.866L67.5279 27.0499L66.03 24.9809L66.9623 24.092L65.5714 23.7242L66.4274 21.6705L66.9623 21.3027Z" fill="#435560"/>
<path fill-rule="evenodd" clip-rule="evenodd" d="M69.6524 20.843L69.7594 21.4407L70.0498 26.6055L71.0433 26.4216L71.7617 23.9848L70.5848 23.4637L71.7617 22.6361L70.4014 21.0269L69.6524 20.843Z" fill="#435560"/>
<path fill-rule="evenodd" clip-rule="evenodd" d="M68.0628 23.0806L68.4755 23.525C68.6436 23.4944 68.8118 23.4637 68.9799 23.4331L69.2244 22.866L68.5366 22.345L68.0628 23.0806Z" fill="#3F87EF"/>
<path fill-rule="evenodd" clip-rule="evenodd" d="M68.4755 23.5251L68.5825 26.8661L70.004 26.6055L68.9799 23.4331L68.4755 23.5251Z" fill="white"/>
<path fill-rule="evenodd" clip-rule="evenodd" d="M66.8859 20.9043L66.8553 21.3794L67.6043 23.7089L68.5367 22.3449L66.8859 20.9043Z" fill="white"/>
<path d="M66.7942 20.3372L66.8095 20.4291C66.8095 20.4291 67.6349 21.1188 68.2921 21.0421C68.9494 20.9502 69.4996 20.0153 69.4996 20.0153L69.469 19.8621" fill="#F1B791"/>
<path fill-rule="evenodd" clip-rule="evenodd" d="M66.9012 13.0882C62.759 13.8085 65.3422 19.2184 65.6937 19.6016C66.0758 20.0307 67.5737 20.8583 68.2462 20.7357C68.9188 20.6131 70.0498 19.3257 70.2638 18.8046C70.4473 18.3142 71.0434 12.3525 66.9012 13.0882Z" fill="#FCC09B"/>
<path d="M68.7812 12.889C67.1916 12.0307 65.1435 13.0729 64.6543 14.0997C64.043 15.3871 64.6391 17.0882 65.0517 18.3603C65.0517 18.3756 65.067 18.3909 65.067 18.4062C65.067 18.4216 65.0976 18.4369 65.1129 18.4522C65.1282 18.4675 65.174 18.4369 65.1893 18.4369V18.4216C65.174 18.2989 65.1282 18.0691 65.1282 18.0691C65.0823 17.8852 65.0059 17.7319 64.96 17.548C64.9448 16.7051 65.2963 16.4599 65.3269 15.4177C65.3574 15.3411 65.388 15.2645 65.4339 15.2032C65.4797 15.1265 65.5256 15.0346 65.5714 14.9733C65.602 14.9426 65.6326 14.912 65.6631 14.8813C66.3662 14.4675 67.2069 14.6668 67.9558 14.8353C68.2463 14.8967 68.5672 14.9733 68.8729 14.8966C68.9952 14.866 69.0869 14.7587 69.0716 14.6514C69.5913 15.617 69.9581 16.0308 70.2486 16.7511C70.2486 16.889 70.2486 17.0116 70.2638 17.1495C70.2638 17.1495 70.2944 17.3794 70.325 17.502C70.325 17.502 70.325 17.5173 70.3403 17.5173C70.3555 17.5173 70.4167 17.5327 70.4167 17.5173C70.4167 17.502 70.432 17.4714 70.432 17.456C70.432 17.4101 70.432 17.3641 70.432 17.3181C70.432 17.2568 70.432 17.1802 70.432 17.1035C70.4931 16.2453 70.3403 12.9809 68.7812 12.889ZM66.8553 14.3449C66.8248 14.3449 66.8095 14.3449 66.7789 14.3296C66.8095 14.3296 66.8553 14.3296 66.8859 14.3449C66.8859 14.3449 66.8706 14.3449 66.8553 14.3449Z" fill="#363533"/>
<path fill-rule="evenodd" clip-rule="evenodd" d="M69.576 20.4292L69.7441 20.8583L69.8511 23.3258L68.5214 22.3449L69.576 20.4292Z" fill="white"/>
<path opacity="0.05" d="M66.8859 20.9044L68.5367 22.345L69.576 20.4293V20.3833L68.5214 22.299L66.8859 20.8584V20.9044Z" fill="black"/>
<path opacity="0.1" fill-rule="evenodd" clip-rule="evenodd" d="M68.4755 23.5251L68.9799 23.4331V23.4484L68.4755 23.5404V23.5251Z" fill="black"/>
<path d="M56.9203 8.44452C56.9356 8.59777 56.905 8.72038 56.8133 8.82766C56.7216 8.93494 56.5993 8.99624 56.4465 9.02689C56.263 9.05754 56.1102 9.02689 55.9879 8.91961C55.8656 8.81233 55.7892 8.65907 55.7434 8.44452L55.7281 8.35256C55.6975 8.21463 55.7128 8.09203 55.7434 7.98475C55.7739 7.87747 55.8198 7.78551 55.9115 7.70888C55.9879 7.63226 56.0796 7.58628 56.2019 7.57095C56.3548 7.5403 56.4923 7.55563 56.6146 7.63226C56.7216 7.69356 56.798 7.81616 56.8439 7.96942L56.5535 8.0154C56.5382 7.92344 56.4923 7.86214 56.4465 7.83149C56.4006 7.80084 56.3242 7.78551 56.2325 7.80084C56.1408 7.81616 56.0643 7.86214 56.0338 7.93877C56.0032 8.0154 55.9879 8.12268 56.0185 8.27593L56.0338 8.38321C56.0643 8.53647 56.0949 8.64375 56.1561 8.70505C56.2172 8.76635 56.2936 8.78168 56.3853 8.76635C56.477 8.75103 56.5382 8.72038 56.5687 8.6744C56.5993 8.62842 56.6146 8.5518 56.6146 8.47517L56.9203 8.44452Z" fill="#C1FEC9"/>
<path d="M57.9138 8.4597L57.4094 8.55166L57.3636 8.85817L57.0579 8.90415L57.333 7.41756L57.5928 7.37158L58.3571 8.67426L58.0514 8.72024L57.9138 8.4597ZM57.4553 8.30645L57.8068 8.24515L57.547 7.75472L57.4553 8.30645Z" fill="#C1FEC9"/>
<path d="M58.9226 8.04606L58.6933 8.09204L58.785 8.59778L58.4946 8.64376L58.2501 7.24913L58.7697 7.15717C58.9379 7.12652 59.0602 7.14185 59.1671 7.20315C59.2741 7.26445 59.3353 7.35641 59.3506 7.49434C59.3658 7.58629 59.3659 7.67824 59.3353 7.73955C59.3047 7.81617 59.2589 7.87748 59.1824 7.92345L59.5798 8.44453V8.45985L59.2741 8.52116L58.9226 8.04606ZM58.6627 7.86215L58.892 7.81617C58.9684 7.80085 59.0143 7.7702 59.0449 7.72422C59.0754 7.67824 59.0907 7.63227 59.0754 7.55564C59.0602 7.49434 59.0296 7.44836 58.999 7.41771C58.9532 7.38706 58.892 7.37173 58.8156 7.38706L58.5863 7.43303L58.6627 7.86215Z" fill="#C1FEC9"/>
<path d="M60.5428 7.09585L60.1148 7.17248L60.3135 8.33723L60.0231 8.38321L59.8244 7.21846L59.4117 7.29509L59.3658 7.0652L60.4969 6.86597L60.5428 7.09585Z" fill="#C1FEC9"/>
<path d="M61.6433 7.47901L61.093 7.57096L61.1542 7.93878L61.7961 7.8315L61.842 8.06138L60.9096 8.22997L60.665 6.83533L61.5974 6.66675L61.6433 6.89663L61.0013 7.00391L61.0625 7.34108L61.6127 7.24912L61.6433 7.47901Z" fill="#C1FEC9"/>
<path d="M62.3158 7.98472L62.0254 8.0307L61.7808 6.63606L62.0712 6.59009L62.3158 7.98472Z" fill="#C1FEC9"/>
<path d="M63.0036 7.34098L62.7743 7.38696L62.8661 7.89271L62.5756 7.93868L62.3311 6.54405L62.8508 6.45209C63.0189 6.42144 63.1412 6.43677 63.2482 6.49807C63.3552 6.55937 63.4163 6.65133 63.4316 6.78926C63.4469 6.88121 63.4469 6.97317 63.4163 7.03447C63.3857 7.1111 63.3399 7.1724 63.2635 7.21838L63.6609 7.73945V7.75477L63.3552 7.81608L63.0036 7.34098ZM62.7285 7.14175L62.9578 7.09577C63.0342 7.08045 63.08 7.04979 63.1106 7.00382C63.1412 6.95784 63.1565 6.91186 63.1412 6.83523C63.1259 6.77393 63.0953 6.72796 63.0648 6.6973C63.0189 6.66665 62.9578 6.65133 62.8813 6.66665L62.6521 6.71263L62.7285 7.14175Z" fill="#C1FEC9"/>
<path d="M64.5627 7.29491L64.0583 7.38686L64.0124 7.69338L63.7067 7.73935L63.9818 6.25276L64.2417 6.20679L65.0059 7.50947L64.7002 7.55545L64.5627 7.29491ZM64.0888 7.12633L64.4404 7.06502L64.1805 6.5746L64.0888 7.12633Z" fill="#C1FEC9"/>
<path d="M66.7636 7.20304L66.4732 7.24902L65.7549 6.43676L65.9077 7.3563L65.6173 7.40227L65.3727 6.00764L65.6632 5.96166L66.3815 6.78925L66.2134 5.86971L66.5038 5.82373L66.7636 7.20304Z" fill="#C1FEC9"/>
<path d="M67.7572 6.72802L67.2528 6.81997L67.2069 7.12648L66.9012 7.17246L67.1763 5.68587L67.4362 5.63989L68.2004 6.94258L67.8947 6.98855L67.7572 6.72802ZM67.2986 6.57476L67.6502 6.51346L67.3903 6.02303L67.2986 6.57476Z" fill="#C1FEC9"/>
<path d="M69.3315 6.26825C69.3468 6.4215 69.3162 6.54411 69.2245 6.65139C69.1328 6.75867 69.0105 6.81997 68.8577 6.85062C68.6742 6.88127 68.5214 6.85062 68.3991 6.74334C68.2768 6.63606 68.2004 6.48281 68.1546 6.26825L68.1393 6.17629C68.1087 6.03836 68.124 5.91576 68.1546 5.80848C68.1851 5.7012 68.231 5.60924 68.3227 5.53261C68.3991 5.45599 68.4908 5.41001 68.6131 5.39468C68.766 5.36403 68.9035 5.37936 69.0258 5.45599C69.1328 5.51729 69.2092 5.63989 69.2551 5.79315L68.9647 5.83913C68.9494 5.74717 68.9035 5.68587 68.8577 5.65522C68.8118 5.62457 68.7354 5.60924 68.6437 5.62457C68.552 5.63989 68.4755 5.68587 68.445 5.7625C68.4144 5.83913 68.3991 5.94641 68.4297 6.09966L68.445 6.20694C68.4755 6.3602 68.5061 6.46748 68.5673 6.52878C68.6284 6.59008 68.7048 6.60541 68.7965 6.59008C68.8882 6.57476 68.9494 6.54411 68.9799 6.49813C69.0105 6.45215 69.0258 6.37553 69.0258 6.2989L69.3315 6.26825Z" fill="#C1FEC9"/>
<path d="M69.9123 6.65123L69.6219 6.69721L69.3773 5.30257L69.6677 5.25659L69.9123 6.65123Z" fill="#C1FEC9"/>
<path d="M71.1962 5.73176C71.2268 5.86969 71.2115 5.99229 71.1809 6.09957C71.1503 6.20685 71.0892 6.29881 71.0128 6.37543C70.9364 6.45206 70.8294 6.49804 70.7224 6.51336C70.6001 6.52869 70.4931 6.52869 70.4014 6.48271C70.2944 6.43674 70.218 6.37543 70.1568 6.28348C70.0957 6.19153 70.0499 6.06892 70.0193 5.94632L70.004 5.88501C69.9734 5.74708 69.9887 5.62448 70.0193 5.5172C70.0499 5.40992 70.111 5.31796 70.1874 5.24134C70.2638 5.16471 70.3708 5.11873 70.4778 5.1034C70.6001 5.08808 70.7071 5.08808 70.7988 5.13406C70.9058 5.18003 70.9822 5.24134 71.0433 5.33329C71.1045 5.42524 71.1503 5.54785 71.1809 5.68578L71.1962 5.73176ZM70.8905 5.71643C70.8599 5.56317 70.8141 5.47122 70.7529 5.39459C70.6918 5.33329 70.6001 5.30264 70.5084 5.31796C70.4167 5.33329 70.3403 5.37927 70.3097 5.47122C70.2638 5.54785 70.2638 5.67045 70.2944 5.80838L70.3097 5.86969C70.3403 6.00762 70.3861 6.1149 70.4473 6.19153C70.5084 6.26815 70.6001 6.28348 70.6918 6.26815C70.7835 6.25283 70.8599 6.20685 70.8905 6.1149C70.9364 6.02294 70.9364 5.91566 70.9058 5.77773L70.8905 5.71643Z" fill="#C1FEC9"/>
<path d="M72.6483 6.1608L72.3579 6.20678L71.6395 5.39452L71.7923 6.31406L71.5019 6.36004L71.2574 4.9654L71.5478 4.91942L72.2661 5.74701L72.098 4.82747L72.3884 4.78149L72.6483 6.1608Z" fill="#C1FEC9"/>
<path d="M73.657 5.70116L73.1527 5.79311L73.1068 6.09963L72.8011 6.1456L73.0762 4.65901L73.3361 4.61304L74.1003 5.91572L73.7946 5.9617L73.657 5.70116ZM73.1832 5.53258L73.5348 5.47128L73.2749 4.98085L73.1832 5.53258Z" fill="#C1FEC9"/>
<path d="M74.4824 5.60909L75.0938 5.50181L75.1397 5.73169L74.2379 5.88495L73.9933 4.49031L74.2837 4.44434L74.4824 5.60909Z" fill="#C1FEC9"/>
<path d="M75.7816 5.60909L75.5371 4.21446L75.9651 4.13783C76.0873 4.1225 76.1943 4.1225 76.3013 4.16848C76.4083 4.19913 76.5 4.27576 76.5611 4.36771C76.6376 4.45967 76.6834 4.56695 76.6987 4.70488L76.714 4.76618C76.7293 4.88879 76.7293 5.01139 76.6987 5.11867C76.6681 5.22595 76.607 5.31791 76.5153 5.39453C76.4236 5.47116 76.3166 5.51714 76.2096 5.53246L75.7816 5.60909ZM75.8581 4.39836L76.0262 5.33323L76.1637 5.30258C76.2707 5.28725 76.3624 5.22595 76.4083 5.14932C76.4542 5.07269 76.4694 4.95009 76.4389 4.81216L76.4236 4.75086C76.393 4.61292 76.3472 4.50564 76.286 4.44434C76.2096 4.38304 76.1179 4.36771 76.0109 4.38304L75.8581 4.39836Z" fill="#C1FEC9"/>
<path d="M77.7839 4.64356L77.2337 4.73551L77.2948 5.10333L77.9367 4.99605L77.9826 5.22593L77.0502 5.39452L76.8057 3.99988L77.7381 3.8313L77.7839 4.06118L77.142 4.16846L77.2031 4.50563L77.7533 4.41367L77.7839 4.64356Z" fill="#C1FEC9"/>
<path d="M79.7709 4.91954L79.4805 4.96552L79.3735 4.36781L78.808 4.45977L78.915 5.05747L78.6246 5.10345L78.38 3.70881L78.6704 3.66283L78.7621 4.22988L79.3277 4.13793L79.236 3.57088L79.5264 3.5249L79.7709 4.91954Z" fill="#C1FEC9"/>
<path d="M80.7645 4.44432L80.2601 4.53628L80.2142 4.84279L79.9085 4.88877L80.1836 3.40218L80.4435 3.3562L81.2077 4.65888L80.902 4.70486L80.7645 4.44432ZM80.3059 4.29107L80.6575 4.22976L80.3976 3.73934L80.3059 4.29107Z" fill="#C1FEC9"/>
<path d="M81.3453 4.64365L81.1007 3.24901L81.5898 3.15706C81.7579 3.12641 81.8955 3.14173 81.9872 3.18771C82.0789 3.23369 82.1401 3.32564 82.1706 3.44825C82.1859 3.50955 82.1706 3.58618 82.1553 3.63216C82.1248 3.69346 82.0942 3.73944 82.0331 3.77009C82.1095 3.77009 82.1706 3.80074 82.2165 3.84671C82.2623 3.89269 82.2929 3.95399 82.3082 4.03062C82.3388 4.16855 82.3082 4.27583 82.2318 4.35246C82.1553 4.42909 82.0484 4.49039 81.8802 4.52104L81.3453 4.64365ZM81.4981 3.78541L81.7121 3.75476C81.8496 3.72411 81.9108 3.66281 81.8955 3.5402C81.8802 3.4789 81.8649 3.43292 81.8191 3.4176C81.7732 3.40227 81.7121 3.38695 81.6357 3.40227L81.437 3.43292L81.4981 3.78541ZM81.5287 3.98465L81.5898 4.36779L81.8344 4.32181C81.8955 4.30649 81.9566 4.29116 81.9872 4.24518C82.0178 4.19921 82.0331 4.15323 82.0178 4.10725C82.0025 3.98465 81.9108 3.92334 81.7885 3.95399L81.5287 3.98465Z" fill="#C1FEC9"/>
<path d="M82.9043 4.36778L82.6139 4.41376L82.3693 3.01912L82.6597 2.97314L82.9043 4.36778Z" fill="#C1FEC9"/>
<path d="M83.4087 4.03072L84.0201 3.92344L84.0659 4.15332L83.1641 4.30658L82.9196 2.91194L83.21 2.86597L83.4087 4.03072Z" fill="#C1FEC9"/>
<path d="M84.5245 4.07652L84.2341 4.1225L83.9895 2.72786L84.2799 2.68188L84.5245 4.07652Z" fill="#C1FEC9"/>
<path d="M85.6097 2.69741L85.1817 2.77404L85.3804 3.93879L85.09 3.98477L84.8913 2.82002L84.4786 2.89665L84.4328 2.66676L85.5638 2.46753L85.6097 2.69741Z" fill="#C1FEC9"/>
<path d="M86.6032 3.41771L86.0988 3.50967L86.0529 3.81618L85.7473 3.86216L86.0224 2.37557L86.2822 2.32959L87.0464 3.63227L86.7408 3.67825L86.6032 3.41771ZM86.1294 3.26446L86.4809 3.20315L86.2211 2.71273L86.1294 3.26446Z" fill="#C1FEC9"/>
<path d="M88.1623 2.95794C88.1775 3.1112 88.147 3.23381 88.0553 3.34109C87.9635 3.44837 87.8413 3.50967 87.6884 3.54032C87.505 3.57097 87.3522 3.54032 87.2299 3.43304C87.1076 3.32576 87.0312 3.1725 86.9853 2.95794L86.97 2.86599C86.9395 2.72806 86.9547 2.60545 86.9853 2.49817C87.0159 2.39089 87.0617 2.29894 87.1535 2.22231C87.2299 2.14568 87.3216 2.09971 87.4439 2.08438C87.5967 2.05373 87.7343 2.06906 87.8566 2.14568C87.9636 2.20699 88.04 2.32959 88.0858 2.48285L87.7954 2.52883C87.7801 2.43687 87.7343 2.37557 87.6884 2.34492C87.6426 2.31427 87.5661 2.29894 87.4744 2.31427C87.3827 2.32959 87.3063 2.37557 87.2757 2.4522C87.2452 2.52883 87.2299 2.63611 87.2605 2.78936L87.2757 2.89664C87.3063 3.0499 87.3369 3.15718 87.398 3.21848C87.4591 3.27978 87.5356 3.29511 87.6273 3.27978C87.719 3.26446 87.7801 3.23381 87.8107 3.18783C87.8413 3.14185 87.8566 3.06522 87.8566 2.9886L88.1623 2.95794ZM87.7954 3.49434V3.55565C87.8871 3.55565 87.9483 3.60162 87.9636 3.69358C87.9788 3.7702 87.9635 3.83151 87.9024 3.87748C87.8566 3.92346 87.7801 3.96944 87.6731 3.98476L87.6426 3.83151C87.719 3.81618 87.7496 3.78553 87.7343 3.73955C87.7343 3.7089 87.719 3.69358 87.6884 3.69358C87.6579 3.69358 87.6273 3.69358 87.5814 3.69358V3.55565L87.7954 3.49434Z" fill="#C1FEC9"/>
<path d="M89.171 2.97316L88.6666 3.06512L88.6208 3.37163L88.3151 3.41761L88.5902 1.93102L88.8501 1.88504L89.6143 3.18772L89.3086 3.2337L89.171 2.97316ZM89.0335 1.48657C89.0488 1.5632 89.0335 1.6245 89.0029 1.68581C88.9723 1.74711 88.9265 1.77776 88.8654 1.79309C88.8348 1.79309 88.8195 1.79309 88.8042 1.79309C88.7889 1.79309 88.7584 1.77776 88.7278 1.77776C88.6972 1.76243 88.6666 1.76243 88.6514 1.76243C88.6361 1.76243 88.6208 1.76243 88.6055 1.76243C88.5902 1.76243 88.5597 1.77776 88.5597 1.79309C88.5444 1.80841 88.5444 1.83906 88.5444 1.86971L88.3762 1.88504C88.361 1.80841 88.3762 1.74711 88.4068 1.68581C88.4374 1.6245 88.4832 1.59385 88.5444 1.57853C88.5597 1.57853 88.5749 1.57853 88.6055 1.57853C88.6208 1.57853 88.6514 1.59385 88.6972 1.59385C88.7431 1.60918 88.7736 1.60918 88.7889 1.60918C88.8042 1.60918 88.8195 1.60918 88.8348 1.60918C88.8501 1.60918 88.8806 1.59385 88.8959 1.57853C88.9112 1.5632 88.9112 1.53255 88.9112 1.5019L89.0335 1.48657ZM88.7125 2.80458L89.0641 2.74328L88.8042 2.25286L88.7125 2.80458Z" fill="#C1FEC9"/>
<path d="M90.7606 2.2989C90.7912 2.43683 90.7759 2.55943 90.7454 2.66671C90.7148 2.77399 90.6536 2.86595 90.5772 2.94257C90.5008 3.0192 90.3938 3.06518 90.2868 3.0805C90.1645 3.09583 90.0575 3.09583 89.9658 3.04985C89.8588 3.00388 89.7824 2.94257 89.7213 2.85062C89.6601 2.75867 89.6143 2.63606 89.5837 2.51345L89.5684 2.45215C89.5379 2.31422 89.5531 2.19162 89.5837 2.08434C89.6143 1.97706 89.6754 1.8851 89.7519 1.80847C89.8283 1.73185 89.9353 1.68587 90.0423 1.67054C90.1645 1.65522 90.2715 1.65522 90.3632 1.70119C90.4702 1.74717 90.5466 1.80847 90.6078 1.90043C90.6689 1.99238 90.7148 2.11499 90.7454 2.25292L90.7606 2.2989ZM90.4549 2.28357C90.4244 2.13031 90.3785 2.03836 90.3174 1.96173C90.2562 1.90043 90.1645 1.86978 90.0728 1.8851C89.9811 1.90043 89.9047 1.9464 89.8741 2.03836C89.8283 2.11499 89.8283 2.23759 89.8588 2.37552L89.8741 2.43683C89.9047 2.57476 89.9506 2.68204 90.0117 2.75867C90.0728 2.83529 90.1645 2.85062 90.2562 2.83529C90.348 2.81997 90.4244 2.77399 90.4549 2.68204C90.5008 2.59008 90.5008 2.4828 90.4702 2.34487L90.4549 2.28357Z" fill="#C1FEC9"/>
<path d="M91.6082 17.7694L76.7937 20.3723L76.981 21.4441L91.7955 18.8412L91.6082 17.7694Z" fill="#63A887"/>
<path d="M91.1955 15.362L76.381 17.9648L76.5683 19.0366L91.3829 16.4338L91.1955 15.362Z" fill="#63A887"/>
<path d="M93.864 12.4232L75.9631 15.5684L76.1504 16.6402L94.0513 13.495L93.864 12.4232Z" fill="#63A887"/>
<path d="M93.4491 10.0026L75.5332 13.1504L75.7205 14.2222L93.6365 11.0744L93.4491 10.0026Z" fill="#63A887"/>
<path d="M89.7181 6.12086L74.7681 8.74756L75.2165 11.3138L90.1666 8.68715L89.7181 6.12086Z" fill="#63A887"/>
<path fill-rule="evenodd" clip-rule="evenodd" d="M54.4289 13.8391V13.8697C54.5053 13.9157 54.5817 13.9923 54.5817 14.069C54.7651 14.0383 54.6123 14.0996 54.7346 14.1149C54.811 14.1149 54.7804 14.0843 54.8569 14.0383L54.9027 14.2069C55.1473 14.1762 55.132 14.2222 55.3001 14.0383C55.5294 13.7931 55.5141 14.1303 55.5447 14.1762C55.6058 14.2529 55.7281 14.2375 55.8045 14.2682L55.8962 14.2988L55.9421 14.3142C56.0491 14.3448 56.0491 14.3142 56.1561 14.3295C56.1713 14.3755 56.1713 14.4215 56.1866 14.4828C56.2019 14.5594 56.2172 14.5594 56.2478 14.636L56.4465 14.6054C56.477 14.7739 56.4312 14.6973 56.5687 14.7586C56.584 14.8199 56.584 14.8659 56.584 14.9119C56.5535 15.1877 56.5687 14.9579 56.6299 15.3257C56.7674 15.3103 56.798 15.295 56.905 15.295L56.9814 15.4789L57.119 15.4943C57.1496 15.5862 57.119 15.5709 57.119 15.6628C57.226 15.7395 57.226 15.6475 57.2565 15.8621C57.2107 15.8927 57.2107 15.908 57.1496 15.954C56.9814 16.0766 57.0731 16.0306 56.9661 16.1992C56.9356 16.2452 56.905 16.2759 56.8897 16.3218C56.9661 16.3678 56.8744 16.3218 56.9356 16.3372C57.0273 16.3525 56.9814 16.3372 57.0426 16.3831C57.1801 16.4904 57.2107 16.3525 57.4247 16.5977C57.5164 16.5517 57.44 16.5977 57.5011 16.5057C57.5164 16.613 57.5011 16.5977 57.44 16.6437L57.4552 16.7356H57.4858C57.5011 16.6743 57.5164 16.6743 57.547 16.5977C57.547 16.5824 57.5622 16.5211 57.5775 16.5211V16.4598C57.5775 16.4444 57.5622 16.4444 57.5775 16.3985C57.5928 16.3372 57.5928 16.3831 57.6234 16.3372C57.6692 16.2605 57.6234 16.2605 57.7151 16.2146C57.7151 16.2759 57.7151 16.2759 57.6845 16.3372L57.6387 16.4138C57.6387 16.4138 57.6387 16.4291 57.6234 16.4291C57.8221 16.2605 57.6998 16.2146 57.8068 16.0306C57.9749 15.7395 57.8221 15.8621 57.8374 15.5709C57.8374 15.4789 58.0361 15.295 58.1125 15.249C58.2501 15.1571 58.1431 15.1571 58.2653 15.1264L58.4946 15.0805C58.4946 15.0805 58.5252 14.9885 58.6169 14.9425C58.6474 14.59 58.6322 14.8506 58.6933 14.636C58.7239 14.5134 58.6933 14.6054 58.6933 14.4981C58.6933 14.4215 58.7239 14.4215 58.7239 14.3602C58.7544 14.1916 58.6933 13.9464 58.678 13.8697C58.6627 13.7471 58.7239 13.8238 58.678 13.7318C58.785 13.7318 58.8003 13.6858 58.8309 13.5479C58.8614 13.4253 58.9073 13.4253 58.9684 13.318C58.999 13.2567 59.0143 13.2567 59.0143 13.1954C59.0449 12.9962 59.0143 12.9502 58.9226 12.7816C58.785 12.7816 58.785 12.8582 58.6322 12.751C58.2806 12.5057 58.2806 12.6897 58.0361 12.6437C57.9444 12.6284 57.8832 12.613 57.8068 12.705C57.8068 12.705 57.8068 12.7203 57.7915 12.7203C57.7915 12.7203 57.7915 12.7356 57.7762 12.7356C57.7762 12.6743 57.8068 12.6284 57.7609 12.5824C57.7151 12.5364 57.7457 12.5824 57.6539 12.5517C57.5622 12.5211 57.4858 12.4904 57.3635 12.5211C57.2871 12.6437 57.2718 12.613 57.226 12.7356C57.1496 12.613 57.2413 12.751 57.1037 12.705C57.2107 12.6284 57.3024 12.6743 57.3024 12.4751C57.1648 12.5057 57.1343 12.5057 57.0273 12.5211C56.9814 12.5824 57.012 12.5517 56.9814 12.613L56.9356 12.5824C57.012 12.4291 57.0426 12.4751 57.0884 12.2912C57.0578 12.2759 57.0731 12.2912 57.0426 12.2759L56.9356 12.1839C56.8897 12.1073 56.8897 12.0766 56.8591 12C56.8286 12.0307 56.8439 12.0153 56.8133 12.0613L56.7369 12.2759C56.6452 12.2759 56.691 12.2605 56.5993 12.2912C56.5229 12.3218 56.6299 12.3218 56.4923 12.2912C56.4617 12.2912 56.4312 12.2759 56.3853 12.3065C56.3242 12.3678 56.4159 12.3065 56.3395 12.3831C56.1255 12.4138 56.1866 12.4138 56.0338 12.5211C55.9421 12.4904 55.8656 12.4138 55.8656 12.3065C55.8656 12.1839 55.9268 12.2299 55.8045 12.092L55.7892 12.0613C55.7892 12.0613 55.7892 12.0766 55.7739 12.0766L55.7586 12.1073C55.7128 12.1686 55.5599 12.2759 55.4835 12.2912C55.4377 12.3065 55.3918 12.2912 55.3307 12.2912C55.3918 12.3525 55.3612 12.3525 55.4071 12.4138C55.453 12.4904 55.453 12.4444 55.4988 12.4904L55.3307 12.659C55.2848 12.705 55.3307 12.6743 55.2848 12.6897C55.1014 12.751 55.0403 12.5977 55.0403 12.5977C55.0097 12.5824 55.0556 12.5977 54.9791 12.6284C54.9333 12.6437 54.9638 12.6284 54.918 12.6437C54.918 12.6437 54.8416 12.659 54.8416 12.6743L54.7804 12.705C54.7804 12.705 54.7651 12.705 54.7651 12.7203C54.8416 12.8123 54.7957 12.705 54.8569 12.7969C54.7957 12.8429 54.7499 12.8123 54.7957 12.9195C54.8263 12.9962 54.8416 12.9349 54.8569 13.0728C54.8721 13.1801 54.8569 13.2874 54.8569 13.41C54.704 13.4253 54.9791 13.41 54.811 13.41C54.7804 13.41 54.8263 13.3946 54.7804 13.41C54.7651 13.41 54.597 13.4866 54.5512 13.5326C54.49 13.6092 54.49 13.7625 54.4289 13.8391Z" fill="#63A887"/>
<path d="M103.264 18.345L94.108 18.5595C93.8634 18.5749 93.7717 18.8814 93.9551 19.0346L96.0644 20.7817C80.7033 32.889 56.6451 30.6055 49.7365 29.64C49.4308 29.594 49.3085 30.0384 49.5989 30.1457C55.4377 32.5672 75.0327 38.7434 98.5711 24.6898L99.1061 26.7281C99.1672 26.958 99.4729 27.004 99.5952 26.8047L103.493 18.7588C103.63 18.5595 103.478 18.3296 103.264 18.345Z" fill="white"/>
</g>
<defs>
<clipPath id="clip0">
<rect width="153" height="56" fill="white"/>
</clipPath>
</defs>
</svg>
