<svg width="211" height="77" viewBox="0 0 211 77" fill="none" xmlns="http://www.w3.org/2000/svg">
<g clip-path="url(#clip0)">
<path d="M50.8845 69.9618V72.3851C50.8845 73.8602 50.5262 74.9982 49.8095 75.7779C49.0928 76.5786 48.0178 76.9579 46.6055 76.9579C45.1932 76.9579 44.1393 76.5576 43.4015 75.7779C42.6848 74.9771 42.3265 73.8602 42.3265 72.3851V62.9024C42.3265 61.4273 42.6848 60.2894 43.4015 59.5097C44.1182 58.7089 45.1932 58.3296 46.6055 58.3296C48.0178 58.3296 49.0717 58.73 49.8095 59.5097C50.5262 60.3104 50.8845 61.4273 50.8845 62.9024V64.6725H48.1653V62.7127C48.1653 62.0595 48.0389 61.5959 47.7648 61.3219C47.4908 61.048 47.1325 60.9215 46.6898 60.9215C46.2472 60.9215 45.8677 61.048 45.6148 61.3219C45.3408 61.5959 45.2143 62.0595 45.2143 62.7127V72.5748C45.2143 73.228 45.3408 73.6917 45.6148 73.9656C45.8888 74.2185 46.2472 74.366 46.6898 74.366C47.1325 74.366 47.5119 74.2395 47.7648 73.9656C48.0389 73.7127 48.1653 73.2491 48.1653 72.5748V69.9618H50.8845Z" fill="white"/>
<path d="M54.7419 62.9024C54.7419 61.4273 55.1214 60.2894 55.8591 59.5097C56.5969 58.7089 57.693 58.3296 59.0842 58.3296C60.4965 58.3296 61.5715 58.73 62.3093 59.5097C63.047 60.3104 63.4265 61.4273 63.4265 62.9024V72.3851C63.4265 73.8602 63.047 74.9982 62.3093 75.7779C61.5715 76.5786 60.4754 76.9579 59.0842 76.9579C57.6719 76.9579 56.5969 76.5576 55.8591 75.7779C55.1214 74.9771 54.7419 73.8602 54.7419 72.3851V62.9024ZM57.6087 72.5748C57.6087 73.228 57.7351 73.6917 58.0092 73.9656C58.2832 74.2395 58.6415 74.366 59.0842 74.366C59.5269 74.366 59.9063 74.2395 60.1592 73.9656C60.4332 73.6917 60.5597 73.228 60.5597 72.5748V62.7127C60.5597 62.0595 60.4332 61.5959 60.1592 61.3219C59.8852 61.048 59.5269 60.9215 59.0842 60.9215C58.6415 60.9215 58.2621 61.048 58.0092 61.3219C57.7351 61.5959 57.6087 62.0595 57.6087 62.7127V72.5748Z" fill="white"/>
<path d="M70.2139 63.5557V76.7683H67.6212V58.5193H71.2257L74.1767 69.4561V58.5193H76.7273V76.7683H73.7762L70.2139 63.5557Z" fill="white"/>
<path d="M80.7744 62.9024C80.7744 61.4273 81.1328 60.2894 81.8284 59.5097C82.524 58.7089 83.599 58.3296 84.9902 58.3296C86.4025 58.3296 87.4564 58.73 88.152 59.5097C88.8476 60.3104 89.206 61.4273 89.206 62.9024V63.4714H86.4868V62.7127C86.4868 62.0595 86.3603 61.5959 86.1074 61.3219C85.8544 61.048 85.4961 60.9215 85.0534 60.9215C84.6108 60.9215 84.2524 61.048 83.9995 61.3219C83.7465 61.5959 83.6201 62.0595 83.6201 62.7127C83.6201 63.3449 83.7676 63.8928 84.0417 64.3775C84.3157 64.8622 84.674 65.3047 85.0745 65.7261C85.4961 66.1476 85.9388 66.569 86.4236 67.0116C86.9084 67.433 87.351 67.8966 87.7726 68.4024C88.1942 68.9081 88.5315 69.4771 88.8266 70.1303C89.1006 70.7836 89.2481 71.5212 89.2481 72.4062C89.2481 73.8813 88.8898 75.0192 88.1731 75.7989C87.4564 76.5997 86.3814 76.979 84.9691 76.979C83.5568 76.979 82.5029 76.5786 81.7651 75.7989C81.0484 74.9982 80.6901 73.8813 80.6901 72.4062V71.2893H83.4093V72.5959C83.4093 73.2491 83.5358 73.7127 83.8098 73.9867C84.0838 74.2395 84.4422 74.3871 84.8848 74.3871C85.3275 74.3871 85.7069 74.2606 85.9598 73.9867C86.2339 73.7338 86.3603 73.2702 86.3603 72.5959C86.3603 71.9637 86.2128 71.4158 85.9388 70.9311C85.6647 70.4464 85.3064 70.0039 84.8848 69.5825C84.4632 69.161 84.0206 68.7395 83.5358 68.297C83.0509 67.8756 82.6083 67.412 82.1867 66.9062C81.7651 66.4005 81.4279 65.8315 81.1538 65.1782C80.9009 64.525 80.7744 63.7664 80.7744 62.9024Z" fill="white"/>
<path d="M95.9723 58.5193V72.5959C95.9723 73.2492 96.0988 73.7128 96.3728 73.9867C96.6469 74.2396 97.0052 74.3871 97.4479 74.3871C97.8905 74.3871 98.2699 74.2607 98.5229 73.9867C98.7969 73.7339 98.9234 73.2703 98.9234 72.5959V58.5193H101.643V72.4273C101.643 73.9024 101.284 75.0404 100.568 75.8201C99.8509 76.6208 98.7758 77.0001 97.3635 77.0001C95.9513 77.0001 94.8973 76.5998 94.1596 75.8201C93.4429 75.0193 93.0845 73.9024 93.0845 72.4273V58.5193H95.9723Z" fill="white"/>
<path d="M105.964 58.5193H108.83V74.1553H113.552V76.7683H105.964V58.5193Z" fill="white"/>
<path d="M115.028 58.5193H123.902V61.1112H120.909V76.7473H118.042V61.1112H115.049V58.5193H115.028Z" fill="white"/>
<path d="M127.253 62.9024C127.253 61.4273 127.633 60.2894 128.371 59.5097C129.108 58.7089 130.204 58.3296 131.596 58.3296C133.008 58.3296 134.083 58.73 134.821 59.5097C135.559 60.3104 135.938 61.4273 135.938 62.9024V72.3851C135.938 73.8602 135.559 74.9982 134.821 75.7779C134.083 76.5786 132.987 76.9579 131.596 76.9579C130.183 76.9579 129.108 76.5576 128.371 75.7779C127.633 74.9771 127.253 73.8602 127.253 72.3851V62.9024ZM130.12 72.5748C130.12 73.228 130.247 73.6917 130.521 73.9656C130.795 74.2395 131.153 74.366 131.596 74.366C132.038 74.366 132.418 74.2395 132.671 73.9656C132.945 73.6917 133.071 73.228 133.071 72.5748V62.7127C133.071 62.0595 132.945 61.5959 132.671 61.3219C132.397 61.048 132.038 60.9215 131.596 60.9215C131.153 60.9215 130.774 61.048 130.521 61.3219C130.247 61.5959 130.12 62.0595 130.12 62.7127V72.5748Z" fill="white"/>
<path d="M146.161 76.7683C146.119 76.6419 146.098 76.5365 146.056 76.4312C146.014 76.3258 145.993 76.1994 145.972 76.0308C145.95 75.8833 145.929 75.6725 145.929 75.4407C145.929 75.1879 145.908 74.8929 145.908 74.5346V71.6476C145.908 70.8047 145.761 70.1936 145.466 69.8565C145.171 69.5193 144.686 69.3296 144.032 69.3296H143.042V76.7683H140.175V58.5193H144.496C145.993 58.5193 147.068 58.8775 147.742 59.5729C148.417 60.2683 148.754 61.322 148.754 62.7338V64.1668C148.754 66.0423 148.122 67.2856 146.878 67.8756C147.616 68.1706 148.1 68.6553 148.375 69.3296C148.649 70.004 148.775 70.8047 148.775 71.7741V74.5978C148.775 75.0404 148.796 75.4407 148.817 75.7779C148.859 76.1151 148.944 76.4522 149.07 76.8105H146.161V76.7683ZM143.042 61.1112V66.7166H144.159C144.707 66.7166 145.128 66.5691 145.423 66.2952C145.719 66.0212 145.887 65.5155 145.887 64.7779V63.0078C145.887 62.3545 145.761 61.8699 145.529 61.5748C145.297 61.2798 144.918 61.1323 144.412 61.1323H143.042V61.1112Z" fill="white"/>
<path d="M152.991 58.5193H155.858V76.7683H152.991V58.5193Z" fill="white"/>
<path d="M169.58 76.7683H166.692L166.186 73.4599H162.666L162.16 76.7683H159.525L162.455 58.5193H166.65L169.58 76.7683ZM163.045 70.9733H165.807L164.416 61.7434L163.045 70.9733Z" fill="white"/>
<path d="M31.0282 64.8202C30.1007 63.029 28.4144 61.9121 26.6859 61.9121L20.9314 61.9332L20.9525 75.1669H21.9221V62.8815L26.6859 62.8604C27.2972 62.8604 27.9507 63.0922 28.6041 63.5558C29.9743 64.5251 30.7542 66.0213 30.7542 67.6439C30.7542 68.7397 30.2483 69.9619 29.4262 70.9102C28.6041 71.8374 27.5713 72.4064 26.707 72.4064H24.8099V73.3757H26.707C27.4659 73.3757 28.2247 73.0807 29.0679 72.5117C30.6909 71.3527 31.7449 69.4351 31.7449 67.6439C31.7238 66.6535 31.4709 65.7263 31.0282 64.8202Z" fill="white"/>
<path d="M32.6513 60.9848C31.0493 59.299 28.9835 58.3086 26.981 58.3086H19.1397V59.2779L26.981 59.299C28.2458 59.299 29.4473 59.6994 30.5855 60.4791C32.841 62.0595 34.3376 64.8833 34.3376 67.6438C34.3376 69.0979 34.0214 70.4254 33.3469 71.6898C32.0189 74.1764 29.2997 75.9887 26.981 75.9887H20.1093V75.9676H19.1397V76.9369H27.5502C29.2997 76.7684 31.1336 75.8201 32.567 74.3028C34.2954 72.5117 35.2651 70.1304 35.2651 67.6438C35.2651 65.1572 34.3587 62.8182 32.6513 60.9848Z" fill="white"/>
<path d="M22.8285 63.6401L22.8074 74.6822V75.1669H26.7913C28.2669 75.1669 29.9742 74.345 31.2811 72.9542C32.6934 71.437 33.4734 69.5615 33.4734 67.665C33.4734 65.7473 32.7145 63.8087 31.3655 62.3125C29.8899 60.8374 28.2879 60.0366 26.7703 60.0366H19.1397V75.1669H20.1093V61.006L26.7703 61.027C27.7399 61.027 28.6674 61.3221 29.5527 61.9332C31.3444 63.1343 32.5248 65.4313 32.5248 67.665C32.5248 69.2876 31.8292 70.9734 30.5645 72.2799C29.384 73.46 27.9718 74.1975 26.7913 74.1975H23.7349L23.756 63.6401H22.8285Z" fill="white"/>
<path d="M18.5705 75.9676H15.3876V75.1458V64.6304L10.16 72.3852L4.95355 64.6936V75.9465H1.03287V59.3201H5.56484L10.2022 66.5902L14.8396 59.3201H15.9146L20.4255 59.2779V58.3086H14.2704L10.2022 64.6936L6.15505 58.3086H0V76.9369H5.98641V68.0442L9.82278 73.7128H10.4973L14.3547 68.0021V76.958H20.4466V75.9887L18.5705 75.9676Z" fill="white"/>
<path d="M185.199 69.9618V72.3851C185.199 73.8602 184.841 74.9982 184.124 75.7779C183.408 76.5786 182.333 76.9579 180.92 76.9579C179.508 76.9579 178.454 76.5576 177.716 75.7779C177 74.9771 176.641 73.8602 176.641 72.3851V62.9024C176.641 61.4273 177 60.2894 177.716 59.5097C178.433 58.7089 179.508 58.3296 180.92 58.3296C182.333 58.3296 183.387 58.73 184.124 59.5097C184.841 60.3104 185.199 61.4273 185.199 62.9024V64.6725H182.48V62.7127C182.48 62.0595 182.354 61.5959 182.08 61.3219C181.806 61.048 181.447 60.9215 181.005 60.9215C180.562 60.9215 180.183 61.048 179.93 61.3219C179.656 61.5959 179.529 62.0595 179.529 62.7127V72.5748C179.529 73.228 179.656 73.6917 179.93 73.9656C180.204 74.2185 180.562 74.366 181.005 74.366C181.447 74.366 181.827 74.2395 182.08 73.9656C182.354 73.7127 182.48 73.2491 182.48 72.5748V69.9618H185.199Z" fill="white"/>
<path d="M191.46 63.5557V76.7683H188.867V58.5193H192.472L195.423 69.4561V58.5193H197.973V76.7683H195.022L191.46 63.5557Z" fill="white"/>
<path d="M208.133 58.5193V66.2109H204.529V58.5193H201.662V76.7683H204.529V69.0768H208.133V76.7683H211V58.5193H208.133Z" fill="white"/>
<path d="M77.3807 40.2281C79.8048 40.3756 82.5451 40.502 85.4961 40.502C98.544 40.502 116.693 38.3947 130.268 28.5327L128.708 27.2472C128.139 26.7836 127.928 26.0461 128.16 25.3507C128.371 24.6553 128.982 24.1917 129.72 24.1284H129.741H129.762L132.987 24.0441L129.193 2.42345C128.919 0.82192 127.38 -0.252793 125.778 0.0211532L74.8934 8.95602C73.2914 9.22997 72.2164 10.7683 72.4904 12.3698L77.3807 40.2281Z" fill="#C1FEC9"/>
<path d="M129.066 2.54992C128.792 0.948384 127.253 -0.126328 125.651 0.147618L74.788 9.06141C73.186 9.33536 72.111 10.8737 72.385 12.4752L72.8698 15.2779L129.551 5.3526L129.066 2.54992Z" fill="white"/>
<path d="M101.03 12.4257L82.1776 15.7283L86.1579 38.4361L105.01 35.1336L101.03 12.4257Z" fill="#FFFDFF"/>
<path fill-rule="evenodd" clip-rule="evenodd" d="M92.4522 29.228C88.932 31.5671 87.9413 32.6628 87.5618 33.1475C86.9716 33.8851 86.9927 36.2452 86.9295 38.2893L95.5718 36.772L104.214 35.2548C103.455 33.3793 102.675 31.1456 101.874 30.6399C101.347 30.3238 100.104 29.6494 95.9934 28.6379L92.4522 29.228Z" fill="#FFDECC"/>
<path fill-rule="evenodd" clip-rule="evenodd" d="M92.4522 29.228C88.932 31.5671 87.9413 32.6628 87.5618 33.1475C86.9716 33.8851 86.9927 36.2452 86.9295 38.2893L95.5718 36.772L104.214 35.2548C103.455 33.3793 102.675 31.1456 101.874 30.6399C101.347 30.3238 100.104 29.6494 95.9934 28.6379L92.4522 29.228Z" fill="#4E616F"/>
<path fill-rule="evenodd" clip-rule="evenodd" d="M91.7565 25.8985L92.2624 28.7223L92.5154 30.1131C93.738 31.1457 95.4243 30.8928 96.2253 29.4598L95.9723 28.069L95.4664 25.2453C95.0449 22.9694 91.356 23.6227 91.7565 25.8985Z" fill="#FCC09B"/>
<path fill-rule="evenodd" clip-rule="evenodd" d="M89.2692 23.6015C89.5854 23.4329 90.0492 23.728 90.3443 24.2759C90.6394 24.8027 90.6183 25.3716 90.3021 25.5402C89.9859 25.7088 89.5222 25.4138 89.2271 24.8659C88.932 24.3391 88.9531 23.7701 89.2692 23.6015Z" fill="#FCC09B"/>
<path fill-rule="evenodd" clip-rule="evenodd" d="M96.9841 22.2528C96.6469 22.2106 96.2885 22.6532 96.2042 23.2432C96.1199 23.8332 96.3307 24.3601 96.6679 24.4233C97.0052 24.4654 97.3635 24.0229 97.4478 23.4329C97.5322 22.8217 97.3214 22.2949 96.9841 22.2528Z" fill="#FCC09B"/>
<path fill-rule="evenodd" clip-rule="evenodd" d="M94.5179 30.7241C94.5179 30.7241 92.0306 31.7988 92.0727 31.9463C92.0938 32.0939 93.9698 37.0249 93.9698 37.0249L97.49 36.4138L96.9841 31.1245L94.5179 30.7241Z" fill="#E8E8E8"/>
<path fill-rule="evenodd" clip-rule="evenodd" d="M92.3468 29.2913L92.4943 30.1342L94.5179 36.9407L93.1267 37.1936L91.061 34.3487L92.3468 33.1265L90.4286 32.6208L91.609 29.797L92.3468 29.2913Z" fill="#435560"/>
<path fill-rule="evenodd" clip-rule="evenodd" d="M96.0566 28.6589L96.2042 29.4808L96.6047 36.5823L97.9748 36.3294L98.9655 32.9789L97.3424 32.2624L98.9655 31.1245L97.0895 28.9118L96.0566 28.6589Z" fill="#435560"/>
<path fill-rule="evenodd" clip-rule="evenodd" d="M93.8644 31.7356L94.4335 32.3467C94.6654 32.3046 94.8973 32.2624 95.1291 32.2203L95.4664 31.4406L94.5179 30.7241L93.8644 31.7356Z" fill="#3F87EF"/>
<path fill-rule="evenodd" clip-rule="evenodd" d="M94.4336 32.3467L94.5811 36.9405L96.5415 36.5823L95.1292 32.2202L94.4336 32.3467Z" fill="#0D3643"/>
<path fill-rule="evenodd" clip-rule="evenodd" d="M92.2413 28.7434L92.1992 29.3967L93.2321 32.5997L94.5179 30.7243L92.2413 28.7434Z" fill="white"/>
<path d="M92.1149 27.9636L92.136 28.09C92.136 28.09 93.2742 29.0383 94.1806 28.9329C95.087 28.8065 95.8459 27.521 95.8459 27.521L95.8037 27.3103" fill="#F1B791"/>
<path fill-rule="evenodd" clip-rule="evenodd" d="M92.2624 17.9962C86.55 18.9867 90.1124 26.4254 90.5972 26.9522C91.1242 27.5422 93.1899 28.6801 94.1174 28.5116C95.0448 28.343 96.6047 26.5729 96.8998 25.8564C97.1527 25.1821 97.9748 16.9847 92.2624 17.9962Z" fill="#FCC09B"/>
<path d="M94.8551 17.7222C92.6629 16.5422 89.8383 17.9751 89.1638 19.387C88.3207 21.1571 89.1427 23.4962 89.7119 25.2452C89.7119 25.2663 89.733 25.2874 89.733 25.3084C89.733 25.3295 89.7751 25.3506 89.7962 25.3717C89.8173 25.3927 89.8805 25.3506 89.9016 25.3506V25.3295C89.8805 25.1609 89.8173 24.8448 89.8173 24.8448C89.754 24.592 89.6486 24.3812 89.5854 24.1284C89.5643 22.9694 90.0491 22.6322 90.0913 21.1992C90.1335 21.0939 90.1756 20.9885 90.2388 20.9042C90.3021 20.7989 90.3653 20.6724 90.4286 20.5881C90.4707 20.546 90.5129 20.5038 90.555 20.4617C91.5247 19.8927 92.684 20.1667 93.7169 20.3985C94.1174 20.4828 94.56 20.5881 94.9816 20.4828C95.1502 20.4406 95.2767 20.2931 95.2556 20.1456C95.9723 21.4732 96.4782 22.0422 96.8787 23.0326C96.8787 23.2222 96.8787 23.3908 96.8998 23.5805C96.8998 23.5805 96.942 23.8966 96.9841 24.0651C96.9841 24.0651 96.9841 24.0862 97.0052 24.0862C97.0263 24.0862 97.1106 24.1073 97.1106 24.0862C97.1106 24.0651 97.1317 24.023 97.1317 24.0019C97.1317 23.9387 97.1317 23.8755 97.1317 23.8123C97.1317 23.728 97.1317 23.6226 97.1317 23.5173C97.216 22.3372 97.0052 17.8487 94.8551 17.7222ZM92.1992 19.7242C92.157 19.7242 92.136 19.7242 92.0938 19.7031C92.136 19.7031 92.1992 19.7031 92.2413 19.7242C92.2413 19.7242 92.2203 19.7242 92.1992 19.7242Z" fill="#363533"/>
<path fill-rule="evenodd" clip-rule="evenodd" d="M95.9512 28.0901L96.1831 28.6801L96.3306 32.0728L94.4968 30.7242L95.9512 28.0901Z" fill="white"/>
<path opacity="0.05" d="M92.2414 28.7433L94.5179 30.7242L95.9512 28.0901V28.0269L94.4968 30.661L92.2414 28.6801V28.7433Z" fill="black"/>
<path opacity="0.1" fill-rule="evenodd" clip-rule="evenodd" d="M94.4336 32.3467L95.1292 32.2202V32.2413L94.4336 32.3677V32.3467Z" fill="black"/>
<path d="M78.4979 11.6111C78.519 11.8219 78.4769 11.9905 78.3504 12.138C78.2239 12.2855 78.0553 12.3698 77.8445 12.4119C77.5915 12.4541 77.3807 12.4119 77.2121 12.2644C77.0435 12.1169 76.9381 11.9062 76.8748 11.6111L76.8538 11.4847C76.8116 11.2951 76.8327 11.1265 76.8748 10.979C76.917 10.8315 76.9802 10.705 77.1067 10.5997C77.2121 10.4943 77.3386 10.4311 77.5072 10.41C77.718 10.3679 77.9077 10.3889 78.0763 10.4943C78.2239 10.5786 78.3293 10.7472 78.3925 10.9579L77.992 11.0211C77.971 10.8947 77.9077 10.8104 77.8445 10.7682C77.7812 10.7261 77.6758 10.705 77.5494 10.7261C77.4229 10.7472 77.3175 10.8104 77.2753 10.9157C77.2332 11.0211 77.2121 11.1686 77.2543 11.3793L77.2753 11.5269C77.3175 11.7376 77.3597 11.8851 77.444 11.9694C77.5283 12.0537 77.6337 12.0747 77.7602 12.0537C77.8866 12.0326 77.971 11.9905 78.0131 11.9272C78.0553 11.864 78.0763 11.7587 78.0763 11.6533L78.4979 11.6111Z" fill="#C1FEC9"/>
<path d="M79.8681 11.6324L79.1725 11.7588L79.1092 12.1803L78.6877 12.2435L79.0671 10.1994L79.4254 10.1362L80.4793 11.9274L80.0578 11.9906L79.8681 11.6324ZM79.2357 11.4217L79.7205 11.3374L79.3622 10.6631L79.2357 11.4217Z" fill="#C1FEC9"/>
<path d="M81.2593 11.0634L80.9431 11.1266L81.0696 11.822L80.6691 11.8852L80.3318 9.96758L81.0485 9.84114C81.2803 9.799 81.449 9.82007 81.5965 9.90436C81.7441 9.98865 81.8284 10.1151 81.8495 10.3047C81.8706 10.4312 81.8706 10.5576 81.8284 10.6419C81.7862 10.7473 81.723 10.8316 81.6176 10.8948L82.1657 11.6113V11.6323L81.7441 11.7166L81.2593 11.0634ZM80.9009 10.8105L81.2171 10.7473C81.3225 10.7262 81.3857 10.6841 81.4279 10.6208C81.47 10.5576 81.4911 10.4944 81.4701 10.389C81.449 10.3047 81.4068 10.2415 81.3647 10.1994C81.3014 10.1572 81.2171 10.1362 81.1117 10.1572L80.7955 10.2205L80.9009 10.8105Z" fill="#C1FEC9"/>
<path d="M83.4936 9.75677L82.9034 9.86213L83.1774 11.4637L82.7769 11.5269L82.5029 9.92535L81.9338 10.0307L81.8705 9.71462L83.4304 9.44067L83.4936 9.75677Z" fill="#C1FEC9"/>
<path d="M85.0113 10.2836L84.2525 10.41L84.3368 10.9158L85.2221 10.7683L85.2853 11.0844L83.9995 11.3162L83.6623 9.39855L84.9481 9.16675L85.0113 9.48284L84.126 9.63035L84.2103 10.094L84.9692 9.96751L85.0113 10.2836Z" fill="#C1FEC9"/>
<path d="M85.9388 10.9791L85.5383 11.0424L85.201 9.12474L85.6015 9.06152L85.9388 10.9791Z" fill="#C1FEC9"/>
<path d="M86.8873 10.0941L86.5712 10.1573L86.6976 10.8527L86.2971 10.916L85.9599 8.99834L86.6766 8.8719C86.9084 8.82976 87.0771 8.85083 87.2246 8.93512C87.3722 9.01941 87.4565 9.14585 87.4776 9.3355C87.4986 9.46194 87.4986 9.58838 87.4565 9.67267C87.4143 9.77803 87.3511 9.86232 87.2457 9.92554L87.7937 10.642V10.6631L87.3722 10.7474L86.8873 10.0941ZM86.5079 9.82018L86.8241 9.75696C86.9295 9.73589 86.9927 9.69374 87.0349 9.63052C87.0771 9.56731 87.0981 9.50409 87.0771 9.39872C87.056 9.31443 87.0138 9.25121 86.9717 9.20907C86.9084 9.16692 86.8241 9.14585 86.7187 9.16692L86.4025 9.23014L86.5079 9.82018Z" fill="#C1FEC9"/>
<path d="M89.0374 10.0308L88.3418 10.1573L88.2785 10.5787L87.857 10.6419L88.2364 8.59789L88.5947 8.53467L89.6487 10.3259L89.2271 10.3891L89.0374 10.0308ZM88.3839 9.79904L88.8688 9.71474L88.5104 9.04042L88.3839 9.79904Z" fill="#C1FEC9"/>
<path d="M92.0728 9.90436L91.6723 9.96758L90.6815 8.85072L90.8923 10.1151L90.4918 10.1783L90.1546 8.26069L90.5551 8.19747L91.5458 9.3354L91.3139 8.07103L91.7144 8.00781L92.0728 9.90436Z" fill="#C1FEC9"/>
<path d="M93.4429 9.25105L92.7473 9.37749L92.684 9.79895L92.2625 9.86216L92.6419 7.8181L93.0002 7.75488L94.0542 9.54607L93.6326 9.60929L93.4429 9.25105ZM92.8105 9.04032L93.2953 8.95603L92.937 8.2817L92.8105 9.04032Z" fill="#C1FEC9"/>
<path d="M95.614 8.61896C95.6351 8.82969 95.5929 8.99827 95.4665 9.14578C95.34 9.29329 95.1714 9.37758 94.9606 9.41973C94.7076 9.46187 94.4968 9.41973 94.3282 9.27222C94.1596 9.12471 94.0542 8.91398 93.9909 8.61896L93.9698 8.49252C93.9277 8.30287 93.9488 8.13429 93.9909 7.98678C94.0331 7.83927 94.0963 7.71283 94.2228 7.60747C94.3282 7.5021 94.4547 7.43888 94.6233 7.41781C94.8341 7.37567 95.0238 7.39674 95.1924 7.5021C95.34 7.58639 95.4454 7.75498 95.5086 7.9657L95.1081 8.02892C95.087 7.90249 95.0238 7.8182 94.9606 7.77605C94.8973 7.7339 94.7919 7.71283 94.6655 7.7339C94.539 7.75498 94.4336 7.81819 94.3914 7.92356C94.3493 8.02892 94.3282 8.17643 94.3704 8.38716L94.3914 8.53467C94.4336 8.7454 94.4757 8.89291 94.5601 8.9772C94.6444 9.06149 94.7498 9.08256 94.8762 9.06149C95.0027 9.04042 95.087 8.99827 95.1292 8.93505C95.1713 8.87183 95.1924 8.76647 95.1924 8.66111L95.614 8.61896Z" fill="#C1FEC9"/>
<path d="M96.415 9.14565L96.0145 9.20887L95.6772 7.29125L96.0777 7.22803L96.415 9.14565Z" fill="#C1FEC9"/>
<path d="M98.1856 7.88147C98.2278 8.07113 98.2067 8.23971 98.1645 8.38722C98.1224 8.53473 98.0381 8.66116 97.9327 8.76653C97.8273 8.87189 97.6797 8.93511 97.5322 8.95618C97.3636 8.97726 97.216 8.97725 97.0895 8.91404C96.942 8.85082 96.8366 8.76653 96.7523 8.64009C96.6679 8.51365 96.6047 8.34507 96.5626 8.17649L96.5415 8.0922C96.4993 7.90254 96.5204 7.73396 96.5626 7.58645C96.6047 7.43894 96.689 7.31251 96.7944 7.20714C96.8998 7.10178 97.0474 7.03856 97.1949 7.01749C97.3635 6.99641 97.5111 6.99641 97.6376 7.05963C97.7851 7.12285 97.8905 7.20714 97.9748 7.33358C98.0591 7.46001 98.1224 7.6286 98.1645 7.81825L98.1856 7.88147ZM97.764 7.8604C97.7219 7.64967 97.6587 7.52323 97.5743 7.41787C97.49 7.33358 97.3635 7.29143 97.2371 7.31251C97.1106 7.33358 97.0052 7.3968 96.9631 7.52323C96.8998 7.6286 96.8998 7.79718 96.942 7.98683L96.9631 8.07113C97.0052 8.26078 97.0684 8.40829 97.1528 8.51365C97.2371 8.61902 97.3635 8.64009 97.49 8.61902C97.6165 8.59795 97.7219 8.53473 97.764 8.40829C97.8273 8.28185 97.8273 8.13434 97.7851 7.94469L97.764 7.8604Z" fill="#C1FEC9"/>
<path d="M100.188 8.4715L99.7876 8.53472L98.7969 7.41786L99.0077 8.68223L98.6072 8.74545L98.27 6.82782L98.6705 6.76461L99.6612 7.90254L99.4293 6.63817L99.8298 6.57495L100.188 8.4715Z" fill="#C1FEC9"/>
<path d="M101.579 7.83919L100.884 7.96562L100.821 8.38708L100.399 8.4503L100.778 6.40624L101.137 6.34302L102.191 8.13421L101.769 8.19743L101.579 7.83919ZM100.926 7.60739L101.411 7.5231L101.052 6.84876L100.926 7.60739Z" fill="#C1FEC9"/>
<path d="M102.718 7.71286L103.561 7.56535L103.624 7.88144L102.38 8.09217L102.043 6.17455L102.444 6.11133L102.718 7.71286Z" fill="#C1FEC9"/>
<path d="M104.509 7.71284L104.172 5.79521L104.762 5.68985C104.931 5.66878 105.078 5.66878 105.226 5.73199C105.374 5.77414 105.5 5.8795 105.584 6.00594C105.69 6.13238 105.753 6.27989 105.774 6.46954L105.795 6.55383C105.816 6.72242 105.816 6.891 105.774 7.03851C105.732 7.18602 105.648 7.31246 105.521 7.41782C105.395 7.52318 105.247 7.5864 105.1 7.60747L104.509 7.71284ZM104.615 6.04809L104.847 7.33353L105.036 7.29138C105.184 7.27031 105.31 7.18602 105.374 7.08065C105.437 6.97529 105.458 6.80671 105.416 6.61705L105.395 6.53276C105.352 6.34311 105.289 6.1956 105.205 6.11131C105.1 6.02701 104.973 6.00594 104.825 6.02701L104.615 6.04809Z" fill="#C1FEC9"/>
<path d="M107.271 6.38517L106.512 6.51161L106.596 7.01735L107.481 6.86984L107.545 7.18593L106.259 7.41774L105.922 5.50011L107.207 5.26831L107.271 5.5844L106.385 5.73191L106.47 6.19551L107.228 6.06908L107.271 6.38517Z" fill="#C1FEC9"/>
<path d="M110.011 6.76455L109.61 6.82777L109.463 6.00593L108.683 6.13237L108.83 6.9542L108.43 7.01742L108.093 5.0998L108.493 5.03658L108.62 5.81627L109.4 5.68984L109.273 4.91014L109.674 4.84692L110.011 6.76455Z" fill="#C1FEC9"/>
<path d="M111.381 6.11116L110.685 6.2376L110.622 6.65905L110.201 6.72227L110.58 4.67821L110.938 4.61499L111.992 6.40618L111.571 6.4694L111.381 6.11116ZM110.749 5.90043L111.233 5.81614L110.875 5.14181L110.749 5.90043Z" fill="#C1FEC9"/>
<path d="M112.182 6.38508L111.845 4.46746L112.519 4.34102C112.751 4.29887 112.941 4.31995 113.067 4.38316C113.194 4.44638 113.278 4.57282 113.32 4.7414C113.341 4.82569 113.32 4.93106 113.299 4.99428C113.257 5.07857 113.215 5.14178 113.131 5.18393C113.236 5.18393 113.32 5.22608 113.384 5.28929C113.447 5.35251 113.489 5.4368 113.51 5.54217C113.552 5.73182 113.51 5.87933 113.405 5.9847C113.299 6.09006 113.152 6.17435 112.92 6.2165L112.182 6.38508ZM112.393 5.205L112.688 5.16286C112.878 5.12071 112.962 5.03642 112.941 4.86784C112.92 4.78355 112.899 4.72033 112.835 4.69926C112.772 4.67818 112.688 4.65711 112.583 4.67818L112.308 4.72033L112.393 5.205ZM112.435 5.47895L112.519 6.00577L112.857 5.94255C112.941 5.92148 113.025 5.90041 113.067 5.83719C113.11 5.77397 113.131 5.71075 113.109 5.64753C113.088 5.47895 112.962 5.39466 112.793 5.4368L112.435 5.47895Z" fill="#C1FEC9"/>
<path d="M114.332 6.00576L113.932 6.06898L113.594 4.15135L113.995 4.08813L114.332 6.00576Z" fill="#C1FEC9"/>
<path d="M115.028 5.54221L115.871 5.3947L115.934 5.71079L114.69 5.92152L114.353 4.00389L114.754 3.94067L115.028 5.54221Z" fill="#C1FEC9"/>
<path d="M116.566 5.60561L116.166 5.66883L115.829 3.75121L116.229 3.68799L116.566 5.60561Z" fill="#C1FEC9"/>
<path d="M118.063 3.70891L117.473 3.81428L117.747 5.41581L117.346 5.47903L117.072 3.8775L116.503 3.98286L116.44 3.66677L118 3.39282L118.063 3.70891Z" fill="#C1FEC9"/>
<path d="M119.433 4.69929L118.738 4.82573L118.674 5.24719L118.253 5.31041L118.632 3.26634L118.991 3.20312L120.044 4.99431L119.623 5.05753L119.433 4.69929ZM118.78 4.48857L119.265 4.40427L118.906 3.72995L118.78 4.48857Z" fill="#C1FEC9"/>
<path d="M121.583 4.0672C121.604 4.27793 121.562 4.44651 121.436 4.59402C121.309 4.74153 121.141 4.82582 120.93 4.86797C120.677 4.91012 120.466 4.86797 120.297 4.72046C120.129 4.57295 120.023 4.36222 119.96 4.0672L119.939 3.94077C119.897 3.75111 119.918 3.58253 119.96 3.43502C120.002 3.28751 120.066 3.16107 120.192 3.05571C120.297 2.95035 120.424 2.88713 120.593 2.86605C120.803 2.82391 120.993 2.84498 121.162 2.95035C121.309 3.03464 121.415 3.20322 121.478 3.41395L121.077 3.47717C121.056 3.35073 120.993 3.26644 120.93 3.22429C120.867 3.18215 120.761 3.16107 120.635 3.18215C120.508 3.20322 120.403 3.26644 120.361 3.3718C120.318 3.47717 120.297 3.62467 120.34 3.8354L120.361 3.98291C120.403 4.19364 120.445 4.34115 120.529 4.42544C120.614 4.50973 120.719 4.53081 120.845 4.50973C120.972 4.48866 121.056 4.44651 121.098 4.3833C121.141 4.32008 121.162 4.21471 121.162 4.10935L121.583 4.0672ZM121.077 4.80475V4.88904C121.204 4.88904 121.288 4.95226 121.309 5.0787C121.33 5.18406 121.309 5.26835 121.225 5.33157C121.162 5.39479 121.056 5.45801 120.909 5.47908L120.867 5.26835C120.972 5.24728 121.014 5.20513 120.993 5.14192C120.993 5.09977 120.972 5.0787 120.93 5.0787C120.888 5.0787 120.845 5.0787 120.782 5.0787V4.88904L121.077 4.80475Z" fill="#C1FEC9"/>
<path d="M122.974 4.08825L122.279 4.21469L122.216 4.63614L121.794 4.69936L122.173 2.6553L122.532 2.59208L123.586 4.38327L123.164 4.44649L122.974 4.08825ZM122.785 2.04419C122.806 2.14955 122.785 2.23384 122.743 2.31814C122.7 2.40243 122.637 2.44457 122.553 2.46565C122.511 2.46565 122.49 2.46565 122.469 2.46565C122.447 2.46565 122.405 2.44457 122.363 2.44457C122.321 2.4235 122.279 2.4235 122.258 2.4235C122.237 2.4235 122.216 2.4235 122.195 2.4235C122.173 2.4235 122.131 2.44457 122.131 2.46565C122.11 2.48672 122.11 2.52886 122.11 2.57101L121.878 2.59208C121.857 2.48672 121.878 2.40243 121.92 2.31814C121.963 2.23384 122.026 2.1917 122.11 2.17063C122.131 2.17063 122.152 2.17063 122.195 2.17063C122.216 2.17063 122.258 2.1917 122.321 2.1917C122.384 2.21277 122.426 2.21277 122.447 2.21277C122.469 2.21277 122.49 2.21277 122.511 2.21277C122.532 2.21277 122.574 2.1917 122.595 2.17063C122.616 2.14955 122.616 2.10741 122.616 2.06526L122.785 2.04419ZM122.342 3.85645L122.827 3.77216L122.469 3.09783L122.342 3.85645Z" fill="#C1FEC9"/>
<path d="M125.167 3.16101C125.209 3.35067 125.188 3.51925 125.146 3.66676C125.103 3.81427 125.019 3.9407 124.914 4.04607C124.808 4.15143 124.661 4.21465 124.513 4.23572C124.345 4.2568 124.197 4.2568 124.071 4.19358C123.923 4.13036 123.818 4.04607 123.733 3.91963C123.649 3.7932 123.586 3.62461 123.544 3.45603L123.522 3.37174C123.48 3.18208 123.501 3.0135 123.544 2.86599C123.586 2.71848 123.67 2.59205 123.775 2.48668C123.881 2.38132 124.028 2.3181 124.176 2.29703C124.345 2.27595 124.492 2.27595 124.619 2.33917C124.766 2.40239 124.872 2.48668 124.956 2.61312C125.04 2.73956 125.103 2.90814 125.146 3.09779L125.167 3.16101ZM124.745 3.13994C124.703 2.92921 124.64 2.80277 124.555 2.69741C124.471 2.61312 124.345 2.57097 124.218 2.59205C124.092 2.61312 123.986 2.67634 123.944 2.80277C123.881 2.90814 123.881 3.07672 123.923 3.26638L123.944 3.35067C123.986 3.54032 124.049 3.68783 124.134 3.7932C124.218 3.89856 124.345 3.91963 124.471 3.89856C124.598 3.87749 124.703 3.81427 124.745 3.68783C124.808 3.56139 124.808 3.41388 124.766 3.22423L124.745 3.13994Z" fill="#C1FEC9"/>
<path d="M126.336 24.4328L105.905 28.0117L106.163 29.4854L126.594 25.9065L126.336 24.4328Z" fill="#63A887"/>
<path d="M125.766 21.1224L105.336 24.7014L105.594 26.1751L126.025 22.5962L125.766 21.1224Z" fill="#63A887"/>
<path d="M129.446 17.0822L104.76 21.4067L105.018 22.8805L129.705 18.5559L129.446 17.0822Z" fill="#63A887"/>
<path d="M128.874 13.7536L104.167 18.0818L104.425 19.5555L129.133 15.2273L128.874 13.7536Z" fill="#63A887"/>
<path d="M123.729 8.41613L103.112 12.0278L103.73 15.5565L124.347 11.9448L123.729 8.41613Z" fill="#63A887"/>
<path fill-rule="evenodd" clip-rule="evenodd" d="M75.0621 19.0287V19.0709C75.1675 19.1341 75.2729 19.2395 75.2729 19.3448C75.5258 19.3027 75.315 19.387 75.4836 19.408C75.589 19.408 75.5469 19.3659 75.6523 19.3027L75.7155 19.5345C76.0528 19.4923 76.0317 19.5556 76.2636 19.3027C76.5797 18.9655 76.5587 19.4291 76.6008 19.4923C76.6851 19.5977 76.8538 19.5766 76.9592 19.6188L77.0856 19.6609L77.1489 19.682C77.2964 19.7241 77.2964 19.682 77.444 19.7031C77.4651 19.7663 77.4651 19.8295 77.4861 19.9138C77.5072 20.0192 77.5283 20.0192 77.5705 20.1245L77.8445 20.0824C77.8866 20.3142 77.8234 20.2088 78.0131 20.2931C78.0342 20.3774 78.0342 20.4406 78.0342 20.5038C77.992 20.8831 78.0131 20.567 78.0974 21.0728C78.2871 21.0517 78.3293 21.0306 78.4768 21.0306L78.5822 21.2835L78.772 21.3046C78.8141 21.431 78.772 21.41 78.772 21.5364C78.9195 21.6418 78.9195 21.5153 78.9617 21.8103C78.8984 21.8525 78.8984 21.8736 78.8141 21.9368C78.5822 22.1054 78.7087 22.0421 78.5612 22.2739C78.519 22.3372 78.4768 22.3793 78.4558 22.4425C78.5612 22.5057 78.4347 22.4425 78.519 22.4636C78.6455 22.4847 78.5822 22.4636 78.6666 22.5268C78.8563 22.6743 78.8984 22.4847 79.1935 22.8218C79.32 22.7586 79.2146 22.8218 79.2989 22.6954C79.32 22.8429 79.2989 22.8218 79.2146 22.8851L79.2357 23.0115H79.2778C79.2989 22.9272 79.32 22.9272 79.3622 22.8218C79.3622 22.8008 79.3832 22.7165 79.4043 22.7165V22.6322C79.4043 22.6111 79.3832 22.6111 79.4043 22.5479C79.4254 22.4636 79.4254 22.5268 79.4675 22.4636C79.5308 22.3582 79.4676 22.3582 79.594 22.295C79.594 22.3793 79.594 22.3793 79.5519 22.4636L79.4886 22.569C79.4886 22.569 79.4886 22.59 79.4675 22.59C79.7416 22.3582 79.5729 22.295 79.7205 22.0421C79.9524 21.6418 79.7416 21.8103 79.7627 21.41C79.7627 21.2835 80.0367 21.0306 80.1421 20.9674C80.3318 20.841 80.1842 20.841 80.3529 20.7988L80.669 20.7356C80.669 20.7356 80.7112 20.6092 80.8377 20.546C80.8798 20.0613 80.8588 20.4195 80.9431 20.1245C80.9852 19.9559 80.9431 20.0824 80.9431 19.9349C80.9431 19.8295 80.9852 19.8295 80.9852 19.7452C81.0274 19.5134 80.9431 19.1762 80.922 19.0709C80.9009 18.9023 80.9852 19.0077 80.922 18.8812C81.0695 18.8812 81.0906 18.818 81.1328 18.6284C81.1749 18.4598 81.2382 18.4598 81.3225 18.3123C81.3646 18.228 81.3857 18.228 81.3857 18.1437C81.4279 17.8697 81.3857 17.8065 81.2593 17.5747C81.0695 17.5747 81.0695 17.6801 80.8588 17.5326C80.3739 17.1954 80.3739 17.4483 80.0367 17.3851C79.9102 17.364 79.8259 17.3429 79.7205 17.4693C79.7205 17.4693 79.7205 17.4904 79.6994 17.4904C79.6994 17.4904 79.6994 17.5115 79.6783 17.5115C79.6783 17.4272 79.7205 17.364 79.6573 17.3008C79.594 17.2375 79.6362 17.3008 79.5097 17.2586C79.3832 17.2165 79.2778 17.1743 79.1092 17.2165C79.0038 17.3851 78.9827 17.3429 78.9195 17.5115C78.8141 17.3429 78.9406 17.5326 78.7509 17.4693C78.8984 17.364 79.0249 17.4272 79.0249 17.1533C78.8352 17.1954 78.793 17.1954 78.6455 17.2165C78.5822 17.3008 78.6244 17.2586 78.5822 17.3429L78.519 17.3008C78.6244 17.09 78.6666 17.1533 78.7298 16.9004C78.6876 16.8793 78.7087 16.9004 78.6666 16.8793L78.519 16.7529C78.4558 16.6475 78.4558 16.6054 78.4136 16.5C78.3714 16.5421 78.3925 16.5211 78.3504 16.5843L78.245 16.8793C78.1185 16.8793 78.1817 16.8582 78.0553 16.9004C77.9499 16.9425 78.0974 16.9425 77.9077 16.9004C77.8656 16.9004 77.8234 16.8793 77.7602 16.9215C77.6758 17.0057 77.8023 16.9215 77.6969 17.0268C77.4018 17.069 77.4861 17.069 77.2754 17.2165C77.1489 17.1743 77.0435 17.069 77.0435 16.9215C77.0435 16.7529 77.1278 16.8161 76.9592 16.6264L76.9381 16.5843C76.9381 16.5843 76.9381 16.6054 76.917 16.6054L76.8959 16.6475C76.8327 16.7318 76.6219 16.8793 76.5165 16.9004C76.4533 16.9215 76.39 16.9004 76.3057 16.9004C76.39 16.9847 76.3479 16.9847 76.4111 17.069C76.4744 17.1743 76.4744 17.1111 76.5376 17.1743L76.3057 17.4061C76.2425 17.4693 76.3057 17.4272 76.2425 17.4483C75.9895 17.5326 75.9052 17.3218 75.9052 17.3218C75.8631 17.3008 75.9263 17.3218 75.8209 17.364C75.7577 17.3851 75.7998 17.364 75.7366 17.3851C75.7366 17.3851 75.6312 17.4061 75.6312 17.4272L75.5469 17.4693C75.5469 17.4693 75.5258 17.4693 75.5258 17.4904C75.6312 17.6169 75.568 17.4693 75.6523 17.5958C75.568 17.659 75.5047 17.6169 75.568 17.7644C75.6101 17.8697 75.6312 17.7854 75.6523 17.9751C75.6734 18.1226 75.6523 18.2701 75.6523 18.4387C75.4415 18.4598 75.8209 18.4387 75.589 18.4387C75.5469 18.4387 75.6101 18.4176 75.5469 18.4387C75.5258 18.4387 75.2939 18.5441 75.2307 18.6073C75.1464 18.7126 75.1464 18.9234 75.0621 19.0287Z" fill="#63A887"/>
<path d="M142.409 25.2241L129.783 25.5192C129.446 25.5402 129.319 25.9617 129.572 26.1724L132.481 28.5747C111.297 45.2222 78.1185 42.0824 68.5908 40.7548C68.1692 40.6916 68.0006 41.3027 68.4011 41.4502C76.4532 44.7797 103.476 53.272 135.938 33.9483L136.676 36.751C136.76 37.0671 137.182 37.1303 137.35 36.8563L142.725 25.7931C142.915 25.5192 142.704 25.2031 142.409 25.2241Z" fill="white"/>
</g>
<defs>
<clipPath id="clip0">
<rect width="211" height="77" fill="white"/>
</clipPath>
</defs>
</svg>
