<svg width="195" height="201" viewBox="0 0 195 201" fill="none" xmlns="http://www.w3.org/2000/svg">
<path d="M162.759 165.863C175.319 153.302 183.872 137.3 187.337 119.878C190.802 102.457 189.024 84.399 182.226 67.9885C175.428 51.578 163.917 37.5517 149.148 27.6833C134.379 17.8149 117.015 12.5477 99.2524 12.5477C81.4897 12.5477 64.1259 17.8149 49.3567 27.6833C34.5875 37.5517 23.0763 51.578 16.2786 67.9885C9.48101 84.399 7.70229 102.457 11.1674 119.878C14.6325 137.3 23.1858 153.302 35.7457 165.863C44.0854 174.203 53.9862 180.818 64.8827 185.332C75.7792 189.845 87.458 192.169 99.2524 192.169C111.047 192.169 122.726 189.845 133.622 185.332C144.519 180.818 154.419 174.203 162.759 165.863Z" fill="#C4E0BF"/>
<path d="M192.997 94.6833H181.516C180.985 94.6833 180.476 94.4723 180.1 94.0968C179.725 93.7212 179.514 93.2119 179.514 92.6808C179.514 92.1497 179.725 91.6403 180.1 91.2648C180.476 90.8892 180.985 90.6782 181.516 90.6782H192.997C193.261 90.6773 193.522 90.7284 193.765 90.8287C194.008 90.929 194.229 91.0764 194.416 91.2626C194.602 91.4487 194.749 91.6699 194.85 91.9133C194.95 92.1567 195.001 92.4175 195 92.6808C194.996 93.2107 194.784 93.7178 194.409 94.0925C194.034 94.4672 193.527 94.6794 192.997 94.6833Z" fill="#0D3643"/>
<path d="M21.8244 124.076L1.88792 124.113C1.37692 124.082 0.897032 123.857 0.546192 123.484C0.195352 123.112 0 122.619 0 122.107C0 121.595 0.195352 121.102 0.546192 120.73C0.897032 120.357 1.37692 120.132 1.88792 120.101L21.8244 120.064C22.3354 120.095 22.8153 120.32 23.1661 120.693C23.5169 121.065 23.7123 121.558 23.7123 122.07C23.7123 122.582 23.5169 123.075 23.1661 123.447C22.8153 123.82 22.3354 124.045 21.8244 124.076Z" fill="#0D3643"/>
<path d="M132.298 5.4217H129.428C129.066 5.4217 128.719 5.27792 128.463 5.02199C128.207 4.76606 128.063 4.41895 128.063 4.05701V1.3647C128.063 1.00276 128.207 0.655641 128.463 0.399711C128.719 0.14378 129.066 0 129.428 0L132.298 0C132.66 0 133.007 0.14378 133.263 0.399711C133.519 0.655641 133.663 1.00276 133.663 1.3647V4.05701C133.665 4.23677 133.631 4.41513 133.563 4.5816C133.495 4.74807 133.395 4.8993 133.268 5.02642C133.14 5.15354 132.989 5.25399 132.823 5.32187C132.656 5.38975 132.478 5.42369 132.298 5.4217Z" fill="#0D3643"/>
<path d="M32.8162 22.4804H29.9384C29.5765 22.4804 29.2294 22.3366 28.9734 22.0807C28.7175 21.8248 28.5737 21.4777 28.5737 21.1157V18.4234C28.5737 18.0615 28.7175 17.7144 28.9734 17.4584C29.2294 17.2025 29.5765 17.0587 29.9384 17.0587H32.8162C33.1781 17.0587 33.5252 17.2025 33.7811 17.4584C34.0371 17.7144 34.1809 18.0615 34.1809 18.4234V21.1157C34.1789 21.4771 34.0345 21.823 33.779 22.0786C33.5235 22.3341 33.1775 22.4785 32.8162 22.4804Z" fill="#0D3643"/>
<path d="M172.809 68.576C176.448 68.576 180.006 67.4968 183.032 65.4749C186.058 63.4529 188.417 60.579 189.809 57.2167C191.202 53.8543 191.566 50.1544 190.856 46.585C190.146 43.0155 188.394 39.7367 185.82 37.1633C183.247 34.5898 179.968 32.8373 176.399 32.1273C172.829 31.4173 169.129 31.7817 165.767 33.1744C162.405 34.5671 159.531 36.9257 157.509 39.9517C155.487 42.9778 154.408 46.5354 154.408 50.1749C154.408 55.0551 156.346 59.7356 159.797 63.1864C163.248 66.6373 167.929 68.576 172.809 68.576Z" fill="#0D3643"/>
<path d="M171.503 57.3692C171.237 57.3746 170.976 57.2911 170.762 57.1318L163.879 52.0958C163.747 51.9984 163.636 51.8761 163.552 51.7358C163.468 51.5954 163.412 51.4399 163.388 51.2781C163.364 51.1162 163.372 50.9512 163.412 50.7925C163.451 50.6337 163.522 50.4843 163.619 50.3528C163.717 50.2214 163.839 50.1103 163.979 50.0261C164.12 49.9419 164.275 49.8862 164.437 49.8621C164.599 49.838 164.764 49.846 164.923 49.8856C165.081 49.9253 165.231 49.9959 165.362 50.0933L171.296 54.4247L178.713 44.9534C178.813 44.8253 178.938 44.7183 179.081 44.6386C179.223 44.5588 179.379 44.5079 179.541 44.4886C179.703 44.4693 179.867 44.4821 180.024 44.5262C180.181 44.5703 180.327 44.6449 180.456 44.7457C180.584 44.8465 180.691 44.9716 180.77 45.1137C180.85 45.2559 180.901 45.4123 180.92 45.5742C180.94 45.736 180.927 45.9001 180.883 46.057C180.839 46.2139 180.764 46.3606 180.663 46.4887L172.505 56.8722C172.388 57.0278 172.237 57.1538 172.063 57.2401C171.889 57.3264 171.698 57.3706 171.503 57.3692Z" fill="#F4F4F4"/>
<path d="M78.9414 42.4762C78.9414 42.4762 62.0088 55.9971 61.675 105.467H134.167C134.167 105.467 133.93 61.2779 119.015 44.0041L78.9414 42.4762Z" fill="#0D3643"/>
<path d="M89.9776 93.3185L87.9751 120.153H108.616L105.709 93.059L89.9776 93.3185Z" fill="#F4F4F4"/>
<path d="M89.7255 96.797L107.429 108.797L105.738 93.0219L89.7255 96.797Z" fill="#C4C4C4"/>
<path d="M75.7893 83.9882C77.1952 83.9897 78.57 83.574 79.7396 82.7939C80.9092 82.0137 81.821 80.9041 82.3597 79.6054C82.8984 78.3068 83.0398 76.8775 82.7658 75.4986C82.4919 74.1196 81.815 72.8528 80.8209 71.8587C79.8268 70.8646 78.56 70.1877 77.181 69.9138C75.802 69.6398 74.3728 69.7812 73.0742 70.3199C71.7755 70.8586 70.6659 71.7704 69.8857 72.94C69.1055 74.1096 68.6899 75.4844 68.6913 76.8903C68.6913 78.7728 69.4392 80.5782 70.7703 81.9093C72.1014 83.2404 73.9068 83.9882 75.7893 83.9882Z" fill="#F4F4F4"/>
<path d="M71.8287 75.7778C71.8287 75.7778 74.6916 74.4873 77.2355 79.4862L71.8287 75.7778Z" fill="#0D3643"/>
<path d="M120.958 83.9882C122.364 83.9897 123.738 83.574 124.908 82.7939C126.078 82.0137 126.99 80.9041 127.528 79.6054C128.067 78.3068 128.208 76.8775 127.934 75.4986C127.66 74.1196 126.984 72.8528 125.989 71.8587C124.995 70.8646 123.729 70.1877 122.35 69.9138C120.971 69.6398 119.541 69.7812 118.243 70.3199C116.944 70.8586 115.834 71.7704 115.054 72.94C114.274 74.1096 113.858 75.4844 113.86 76.8903C113.862 78.7722 114.61 80.5765 115.941 81.9071C117.272 83.2378 119.076 83.9863 120.958 83.9882Z" fill="#F4F4F4"/>
<path d="M124.97 75.7778C124.97 75.7778 122.107 74.4873 119.556 79.4862L124.97 75.7778Z" fill="#0D3643"/>
<path d="M98.2993 86.0353C112.94 86.0353 124.814 74.4502 124.814 60.1654C124.814 45.8805 112.948 34.3029 98.2993 34.3029C83.651 34.3029 71.7767 45.8509 71.7767 60.1357C71.7767 74.4205 83.651 86.0353 98.2993 86.0353Z" fill="#0D3643"/>
<path d="M75.8857 57.2505C75.8857 57.2505 73.0821 98.451 97.3945 98.451C123.665 98.451 120.913 57.2505 120.913 57.2505C120.913 57.2505 120.78 39.3092 98.1881 39.3092C77.5026 39.3092 75.8857 57.2505 75.8857 57.2505Z" fill="#F4F4F4"/>
<path d="M93.0927 86.547C93.0927 86.547 96.994 88.772 100.903 86.547H93.0927Z" fill="#0D3643"/>
<path d="M107.474 64.2594C107.474 64.2594 102.646 63.3175 102.423 65.9208C102.423 65.9208 102.319 67.686 106.532 68.398C110.745 69.11 112.466 68.9691 112.933 67.3374C113.4 65.7057 109.758 64.4745 107.474 64.2594Z" fill="#5396FF"/>
<path d="M86.6624 64.3781C86.6624 64.3781 81.745 64.5932 82.1381 67.1817C82.1381 67.1817 82.4348 68.9172 86.7143 68.665C90.9938 68.4129 92.581 67.8344 92.6477 66.1433C92.7145 64.4523 88.9245 64.0369 86.6624 64.3781Z" fill="#5396FF"/>
<path d="M90.3263 74.6133C90.3277 74.9892 90.2176 75.357 90.0099 75.6702C89.8022 75.9834 89.5061 76.228 89.1593 76.3728C88.8125 76.5177 88.4305 76.5563 88.0617 76.4839C87.6929 76.4115 87.3539 76.2312 87.0876 75.966C86.8213 75.7007 86.6398 75.3624 86.5659 74.9939C86.492 74.6254 86.5292 74.2433 86.6727 73.8959C86.8162 73.5485 87.0595 73.2515 87.3719 73.0426C87.6843 72.8336 88.0517 72.7221 88.4276 72.7221C88.6766 72.7211 88.9233 72.7693 89.1536 72.8639C89.3839 72.9585 89.5933 73.0977 89.7697 73.2734C89.9461 73.4491 90.0861 73.6579 90.1816 73.8879C90.2771 74.1178 90.3263 74.3644 90.3263 74.6133Z" fill="#0D3643"/>
<path d="M108.913 74.6133C108.914 74.9895 108.804 75.3576 108.596 75.671C108.388 75.9844 108.091 76.2289 107.744 76.3735C107.397 76.5181 107.015 76.5564 106.646 76.4833C106.277 76.4103 105.938 76.2293 105.672 75.9633C105.406 75.6974 105.225 75.3584 105.152 74.9894C105.079 74.6204 105.117 74.238 105.261 73.8907C105.406 73.5435 105.651 73.247 105.964 73.039C106.277 72.8309 106.645 72.7206 107.022 72.7221C107.27 72.7221 107.516 72.771 107.745 72.866C107.975 72.9611 108.183 73.1004 108.359 73.276C108.535 73.4516 108.674 73.6601 108.769 73.8896C108.864 74.119 108.913 74.365 108.913 74.6133Z" fill="#0D3643"/>
<path d="M96.015 79.5306V82.6235H98.5293" fill="#0D3643"/>
<path d="M73.312 61.7451C73.312 61.7451 112.948 61.4039 113.852 41.7196C113.852 41.7196 101.051 32.367 87.9528 38.1002C74.8547 43.8334 73.312 61.7451 73.312 61.7451Z" fill="#0D3643"/>
<path d="M111.138 38.8865C111.138 38.8865 109.603 57.0132 123.746 64.3633C123.746 64.3633 125.853 47.2897 111.138 38.8865Z" fill="#0D3643"/>
<path d="M76.4048 118.81L57.6254 123.26C57.6254 123.26 65.4279 171.967 70.4862 199.097H123.835C123.835 199.097 137.371 147.721 143.349 123.26L121.766 117.512L76.4048 118.81Z" fill="#0D3643"/>
<path d="M98.5292 108.716L76.4345 118.81C76.4345 118.81 77.1094 128.452 99.9458 128.504C119.4 128.541 121.796 117.497 121.796 117.497L98.5292 108.716Z" fill="#F4F4F4"/>
<path d="M132.988 122.289C132.988 122.289 147.822 117.52 157.463 138.977C167.105 160.434 178.898 188.046 178.898 188.046L158.999 189.775L130.221 147.054L132.988 122.289Z" fill="#0D3643"/>
<path d="M171.504 199.958H106.918V187.312L171.504 182.18C176.072 182.18 179.773 184.642 179.773 191.681C179.773 193.875 178.902 195.979 177.352 197.531C175.801 199.083 173.697 199.956 171.504 199.958Z" fill="#F4F4F4"/>
<path d="M67.9868 122.289C67.9868 122.289 53.1531 117.52 43.5112 138.977C33.8693 160.434 22.0766 188.046 22.0766 188.046L41.9759 189.775L70.7532 147.054L67.9868 122.289Z" fill="#0D3643"/>
<path d="M29.4712 199.958H94.0792V187.312L29.4934 182.18C24.9246 182.18 21.2236 184.642 21.2236 191.681C21.2217 193.871 22.089 195.973 23.6353 197.525C25.1816 199.077 27.2804 199.952 29.4712 199.958Z" fill="#F4F4F4"/>
<path d="M144.121 200.18H59.1014C58.5446 200.181 57.9931 200.072 57.4784 199.86C56.9638 199.648 56.496 199.336 56.102 198.943C55.7079 198.549 55.3953 198.082 55.182 197.568C54.9687 197.053 54.8589 196.502 54.8589 195.945V142.27C54.8609 141.146 55.3087 140.069 56.1041 139.275C56.8995 138.481 57.9775 138.035 59.1014 138.035H144.121C144.677 138.035 145.227 138.144 145.741 138.357C146.255 138.57 146.722 138.882 147.115 139.275C147.508 139.668 147.82 140.135 148.033 140.649C148.246 141.163 148.356 141.714 148.356 142.27V195.945C148.357 196.502 148.248 197.053 148.035 197.567C147.823 198.081 147.511 198.549 147.117 198.942C146.724 199.336 146.257 199.647 145.742 199.86C145.228 200.072 144.677 200.181 144.121 200.18Z" fill="white"/>
<path d="M101.607 174.852C102.743 174.852 103.853 174.515 104.797 173.884C105.741 173.254 106.476 172.357 106.911 171.308C107.345 170.259 107.459 169.105 107.238 167.991C107.016 166.878 106.469 165.855 105.667 165.052C104.864 164.249 103.841 163.702 102.727 163.481C101.614 163.259 100.459 163.373 99.4104 163.808C98.3615 164.242 97.4649 164.978 96.8341 165.922C96.2033 166.866 95.8666 167.976 95.8666 169.111C95.8657 169.865 96.0135 170.612 96.3016 171.309C96.5898 172.006 97.0126 172.639 97.5459 173.173C98.0791 173.706 98.7123 174.129 99.4093 174.417C100.106 174.705 100.853 174.853 101.607 174.852Z" fill="#5396FF"/>
</svg>
