<svg width="202" height="186" viewBox="0 0 202 186" fill="none" xmlns="http://www.w3.org/2000/svg">
<path d="M162.127 159.575C174.614 147.088 183.117 131.179 186.562 113.86C190.007 96.5405 188.239 78.5886 181.481 62.2742C174.723 45.9598 163.279 32.0157 148.597 22.2051C133.914 12.3946 116.652 7.1582 98.9936 7.1582C81.335 7.1582 64.073 12.3946 49.3904 22.2051C34.7078 32.0157 23.264 45.9598 16.5063 62.2742C9.74861 78.5886 7.98042 96.5405 11.4253 113.86C14.8703 131.179 23.3736 147.088 35.86 159.575C52.605 176.317 75.3145 185.723 98.9936 185.723C122.673 185.723 145.382 176.317 162.127 159.575Z" fill="#C4E0BF"/>
<path d="M19.175 101.958C19.5074 101.992 19.8143 102.151 20.0336 102.404C20.2528 102.656 20.368 102.982 20.3557 103.316C20.3434 103.65 20.2045 103.966 19.9673 104.202C19.7301 104.437 19.4123 104.573 19.0783 104.583L17.2418 104.531C17.1355 103.657 17.0784 102.778 17.0708 101.899L19.175 101.958Z" fill="#F4F4F4"/>
<path d="M26.8705 94.6491C26.8705 96.1143 26.2885 97.5194 25.2525 98.5555C24.2164 99.5915 22.8112 100.174 21.3461 100.174H17.0261C17.2137 97.3848 17.5463 94.6076 18.0225 91.8534C18.1637 90.9388 18.3347 90.0243 18.5281 89.1097H21.3461C22.812 89.1156 24.216 89.7016 25.2512 90.7396C26.2864 91.7776 26.8686 93.1831 26.8705 94.6491Z" fill="#F4F4F4"/>
<path opacity="0.29" d="M20.7365 94.7234C20.7345 95.3571 20.4814 95.9642 20.0326 96.4115C19.5838 96.8589 18.976 97.1102 18.3423 97.1102H17.2791C17.4426 95.3926 17.6954 93.7568 17.9111 92.3292H18.3423C18.9773 92.3292 19.5863 92.5815 20.0353 93.0305C20.4842 93.4795 20.7365 94.0884 20.7365 94.7234Z" fill="#F4F4F4"/>
<path d="M1.25582 99.0508C2.56444 90.4555 5.81369 81.9495 11.933 75.5923C19.9334 67.3018 30.1199 66.0155 40.9829 65.0043C50.4407 64.0898 59.9431 63.6957 69.438 63.7254C79.3284 63.7535 89.2107 64.292 99.0456 65.3389C106.801 66.1642 114.719 67.2126 122.17 69.6068C125.434 70.6373 128.593 71.9741 131.605 73.5996C143.026 79.823 153.465 87.0799 166.365 90.0615C175.087 92.069 187.05 91.6601 193.185 99.2739C196.583 103.497 197.088 109.393 197.512 114.628C197.847 118.732 197.847 124.718 193.415 126.74C191.631 127.551 189.578 127.58 187.623 127.58C183.206 127.58 178.79 127.58 174.373 127.58C174.898 125.06 174.888 122.458 174.344 119.942C173.799 117.427 172.733 115.053 171.212 112.976C169.692 110.899 167.753 109.164 165.52 107.884C163.286 106.604 160.809 105.807 158.248 105.545C155.688 105.284 153.101 105.563 150.655 106.364C148.209 107.166 145.958 108.473 144.049 110.2C142.14 111.926 140.615 114.035 139.573 116.389C138.531 118.742 137.995 121.289 137.999 123.863C138.001 125.142 138.133 126.417 138.393 127.669C123.984 127.714 109.572 127.746 95.1569 127.766C82.8439 127.766 70.5236 127.9 58.2181 127.64C58.7537 125.119 58.7534 122.514 58.217 119.993C57.6806 117.473 56.6203 115.093 55.1047 113.009C53.5891 110.925 51.6522 109.183 49.4197 107.896C47.1872 106.609 44.709 105.805 42.146 105.538C39.5829 105.271 36.9923 105.545 34.5422 106.344C32.0922 107.143 29.8375 108.448 27.9245 110.174C26.0115 111.901 24.4829 114.011 23.438 116.366C22.3931 118.722 21.8552 121.271 21.8592 123.848C21.8592 124.368 21.8592 124.896 21.9335 125.402C17.3459 124.866 12.7509 124.257 8.14839 123.677C-2.8708 122.353 0.0810309 106.739 1.25582 99.0508Z" fill="#0D3643"/>
<path d="M85.2009 69.4061C88.7178 69.3466 87.6546 69.4507 87.6546 69.4507C94.6077 69.573 101.522 70.5088 108.258 72.2389C113.463 73.6442 117.827 76.3953 122.534 78.9307C129.072 82.4948 135.531 86.1951 141.91 90.0317C144.067 91.3255 147.546 93.3405 142.988 93.3851L137.189 93.4297C133.332 93.4594 129.469 93.4792 125.597 93.4892C117.874 93.5189 110.147 93.5189 102.414 93.4892C95.7666 93.4892 93.9449 93.3553 87.2977 93.3405L85.2009 69.4061Z" fill="white"/>
<path d="M150.758 89.3179L118.861 72.3951C118.861 72.3951 117.626 71.7482 118.92 70.7444L123.292 69.6812C126.208 70.6738 129.031 71.9177 131.731 73.3988C140.721 78.3805 149.115 84.0016 158.588 87.645L153.101 89.4146C152.735 89.6027 152.327 89.6928 151.917 89.6758C151.506 89.6589 151.107 89.5355 150.758 89.3179Z" fill="white"/>
<path d="M180.886 116.249C180.886 115.675 181.114 115.125 181.52 114.719C181.926 114.313 182.476 114.085 183.05 114.085H198.04C198.04 114.509 198.114 114.933 198.144 115.349C198.218 116.294 198.278 117.342 198.278 118.427H183.05C182.476 118.422 181.926 118.19 181.521 117.782C181.117 117.374 180.888 116.824 180.886 116.249Z" fill="#5396FF"/>
<path d="M21.822 123.907C21.822 124.428 21.822 124.956 21.8964 125.461C17.3087 124.926 12.7137 124.316 8.1112 123.736C7.03164 123.641 5.98251 123.328 5.02679 122.817C4.07107 122.306 3.22847 121.607 2.54956 120.762C9.07284 121.129 15.5416 121.444 21.9558 121.706C21.865 122.436 21.8203 123.172 21.822 123.907Z" fill="#0D3643"/>
<path d="M138.037 122.368C137.992 122.874 137.962 123.387 137.962 123.907C137.968 125.191 138.1 126.471 138.356 127.729C123.947 127.774 109.537 127.808 95.1272 127.833C82.8068 127.833 70.4864 127.96 58.1809 127.699C58.4482 126.453 58.5803 125.182 58.575 123.907C58.575 123.543 58.575 123.164 58.575 122.814C88.2569 123.342 115.507 122.993 138.037 122.368Z" fill="#0D3643"/>
<path d="M193.393 126.755C191.608 127.565 189.556 127.595 187.601 127.595C183.184 127.595 178.767 127.595 174.351 127.595C174.602 126.372 174.729 125.126 174.73 123.877C174.728 122.881 174.648 121.887 174.492 120.903C185.377 120.368 193.311 119.847 197.542 119.557C197.229 122.584 196.211 125.498 193.393 126.755Z" fill="#0D3643"/>
<path d="M134.929 93.4743C134.929 93.4743 139.011 105.17 137.427 112.42C137.427 112.42 137.687 120.539 132.415 120.784L92.4951 120.636L65.6237 120.539C63.3931 120.539 61.6235 118.502 60.6569 116.732C59.3929 114.42 58.6345 111.981 57.0061 109.847C55.3017 107.662 53.1783 105.84 50.7604 104.486C47.9573 102.843 44.7601 102.003 42.0462 100.24C39.8676 98.8501 38.7449 95.8685 39.0721 93.3553" fill="#0D3643"/>
<path d="M79.6393 93.4C74.4346 93.4 65.1404 93.4595 59.8984 93.4595L26.3873 93.4148C24.0749 93.4148 21.7551 93.4148 19.4427 93.4148C17.6136 93.4148 15.8142 92.8795 15.7845 90.6266C15.7399 87.1691 20.4911 81.7042 22.5804 79.1687C25.1976 75.9715 30.105 70.4396 34.6777 70.3652L80.2193 69.6217L79.6393 93.4Z" fill="white"/>
<path d="M92.614 99.4153C92.614 100.62 94.22 101.594 96.2127 101.594C98.2054 101.594 99.8189 100.62 99.8189 99.4153C99.8189 98.2107 98.2054 97.2441 96.2127 97.2441C94.22 97.2441 92.614 98.2107 92.614 99.4153Z" fill="#C4E0BF"/>
<path d="M99.3058 99.9802H93.1494C93.0381 100.015 92.9203 100.023 92.8054 100.003C92.6905 99.984 92.5817 99.9379 92.4879 99.8688C92.3941 99.7997 92.3178 99.7095 92.2652 99.6055C92.2127 99.5016 92.1853 99.3867 92.1853 99.2701C92.1853 99.1536 92.2127 99.0387 92.2652 98.9347C92.3178 98.8308 92.3941 98.7406 92.4879 98.6715C92.5817 98.6024 92.6905 98.5563 92.8054 98.5369C92.9203 98.5176 93.0381 98.5255 93.1494 98.5601H99.3058C99.4171 98.5255 99.535 98.5176 99.6499 98.5369C99.7648 98.5563 99.8735 98.6024 99.9673 98.6715C100.061 98.7406 100.137 98.8308 100.19 98.9347C100.243 99.0387 100.27 99.1536 100.27 99.2701C100.27 99.3867 100.243 99.5016 100.19 99.6055C100.137 99.7095 100.061 99.7997 99.9673 99.8688C99.8735 99.9379 99.7648 99.984 99.6499 100.003C99.535 100.023 99.4171 100.015 99.3058 99.9802Z" fill="#C4E0BF"/>
<path opacity="0.24" d="M98.9564 99.6605C99.1473 99.6607 99.331 99.5875 99.4694 99.456C99.6078 99.3245 99.6903 99.1448 99.6999 98.9541C99.6963 98.8352 99.6603 98.7195 99.5958 98.6195C99.7274 98.6701 99.8403 98.76 99.9188 98.8772C99.9973 98.9943 100.038 99.1328 100.034 99.2738C100.034 99.471 99.9561 99.6601 99.8167 99.7996C99.6773 99.939 99.4881 100.017 99.2909 100.017H93.1345C93.0077 100.017 92.8835 99.9811 92.7759 99.9142C92.6682 99.8472 92.5813 99.7516 92.5248 99.6381C92.6124 99.6736 92.7055 99.6937 92.7999 99.6976L98.9564 99.6605Z" fill="#F4F4F4"/>
<path d="M47.3624 99.4153C47.3624 100.62 48.9759 101.594 50.9611 101.594C52.9464 101.594 54.5673 100.62 54.5673 99.4153C54.5673 98.2107 52.9538 97.2441 50.9611 97.2441C48.9685 97.2441 47.3624 98.2107 47.3624 99.4153Z" fill="#C4E0BF"/>
<path d="M54.0468 99.9802H47.8829C47.7313 99.9331 47.5988 99.8388 47.5047 99.7111C47.4106 99.5833 47.3599 99.4288 47.3599 99.2701C47.3599 99.1115 47.4106 98.9569 47.5047 98.8292C47.5988 98.7014 47.7313 98.6071 47.8829 98.5601H54.0468C54.1983 98.6071 54.3308 98.7014 54.4249 98.8292C54.519 98.9569 54.5698 99.1115 54.5698 99.2701C54.5698 99.4288 54.519 99.5833 54.4249 99.7111C54.3308 99.8388 54.1983 99.9331 54.0468 99.9802Z" fill="#C4E0BF"/>
<path d="M53.7122 99.6605C53.9031 99.6607 54.0868 99.5875 54.2252 99.456C54.3637 99.3245 54.4462 99.1448 54.4557 98.9541C54.4547 98.8358 54.4213 98.7201 54.3591 98.6195C54.4893 98.6713 54.6006 98.7618 54.6777 98.8788C54.7548 98.9958 54.7941 99.1337 54.7903 99.2738C54.7903 99.471 54.712 99.6601 54.5726 99.7996C54.4331 99.939 54.244 100.017 54.0468 100.017H47.8829C47.7561 100.017 47.632 99.9811 47.5243 99.9142C47.4166 99.8472 47.3297 99.7516 47.2732 99.6381C47.3611 99.6728 47.454 99.6929 47.5483 99.6976L53.7122 99.6605Z" fill="#C4E0BF"/>
<path d="M138.416 127.729C137.87 125.21 137.861 122.604 138.388 120.081C138.916 117.558 139.969 115.174 141.479 113.085C142.988 110.995 144.921 109.247 147.15 107.954C149.38 106.661 151.857 105.851 154.42 105.578C156.983 105.306 159.575 105.575 162.027 106.37C164.48 107.165 166.737 108.467 168.652 110.192C170.568 111.916 172.099 114.025 173.146 116.38C174.194 118.736 174.733 121.285 174.73 123.863C174.732 125.132 174.6 126.398 174.336 127.64L138.416 127.729Z" fill="#0D3643"/>
<path d="M22.3052 127.796C22.0367 126.527 21.8997 125.234 21.8963 123.937C21.8471 121.495 22.2857 119.067 23.1864 116.796C24.0871 114.525 25.4318 112.457 27.1417 110.713C28.8516 108.968 30.8924 107.582 33.1445 106.636C35.3967 105.69 37.815 105.202 40.2579 105.202C42.7008 105.202 45.1191 105.69 47.3713 106.636C49.6235 107.582 51.6642 108.968 53.3741 110.713C55.084 112.457 56.4287 114.525 57.3294 116.796C58.2301 119.067 58.6687 121.495 58.6195 123.937C58.6248 125.207 58.4926 126.473 58.2254 127.714L22.3052 127.796Z" fill="#0D3643"/>
<path d="M194.411 107.825C194.411 107.825 191.727 97.244 179.191 95.8536H167.681C167.681 95.8536 175.206 106.07 181.325 107.549C181.325 107.549 185.273 108.709 194.411 107.825Z" fill="#5396FF"/>
<path opacity="0.29" d="M131.821 94.5897H25.9784C25.9784 94.5897 16.9296 94.1882 13.7175 95.8239C13.7175 95.8239 12.1189 97.8761 16.4389 98.0545H147.532C147.532 98.0545 148.959 97.5489 145.94 96.8203C141.308 95.6666 136.583 94.9202 131.821 94.5897Z" fill="#F4F4F4"/>
<path d="M134.2 86.5892C134.2 86.5892 146.097 87.3328 146.097 92.6788C146.097 92.6788 147.636 96.0173 133.62 96.2478C133.65 96.2626 131.962 91.1471 134.2 86.5892Z" fill="#0D3643"/>
<path d="M57.2515 128.413C58.0433 125.062 57.8237 121.552 56.6205 118.327C55.4173 115.101 53.2845 112.304 50.4919 110.291C47.6993 108.277 44.3722 107.137 40.9316 107.015C37.491 106.892 34.0913 107.793 31.1624 109.602C28.2336 111.412 25.9073 114.05 24.4776 117.182C23.0479 120.314 22.5791 123.799 23.1305 127.198C23.6818 130.596 25.2286 133.754 27.5752 136.274C29.9218 138.793 32.9628 140.56 36.3135 141.351C38.5379 141.877 40.844 141.959 43.1003 141.594C45.3565 141.228 47.5186 140.421 49.4631 139.22C51.4075 138.018 53.0961 136.446 54.4325 134.591C55.7689 132.737 56.7268 130.638 57.2515 128.413Z" fill="#0D3643"/>
<path d="M54.3517 127.729C55.0092 124.949 54.8276 122.037 53.83 119.361C52.8324 116.685 51.0634 114.365 48.747 112.694C46.4305 111.023 43.6706 110.077 40.8163 109.975C37.962 109.873 35.1415 110.619 32.7116 112.12C30.2816 113.621 28.3514 115.809 27.1651 118.407C25.9788 121.005 25.5896 123.897 26.0468 126.716C26.504 129.536 27.7871 132.156 29.7337 134.246C31.6803 136.336 34.203 137.802 36.9827 138.458C40.7087 139.338 44.6315 138.702 47.8886 136.69C51.1456 134.678 53.4704 131.454 54.3517 127.729Z" fill="#F4F4F4"/>
<path d="M52.6118 127.328C53.1839 124.895 53.022 122.347 52.1467 120.007C51.2713 117.666 49.7218 115.637 47.6939 114.177C45.666 112.716 43.2508 111.89 40.7533 111.802C38.2559 111.714 35.7883 112.368 33.6625 113.681C31.5367 114.995 29.8479 116.91 28.8097 119.183C27.7715 121.456 27.4304 123.986 27.8295 126.453C28.2285 128.92 29.3499 131.213 31.0519 133.043C32.7539 134.873 34.96 136.157 37.3916 136.733C39.0087 137.117 40.6854 137.177 42.3259 136.912C43.9664 136.647 45.5385 136.06 46.9522 135.187C48.3659 134.313 49.5934 133.169 50.5646 131.821C51.5357 130.472 52.2314 128.945 52.6118 127.328Z" fill="#0D3643"/>
<path d="M34.9825 110.977L40.1501 124.398L39.6148 109.958C38.7291 110.018 37.8491 110.145 36.9827 110.338C36.9827 110.338 35.5848 110.732 34.9825 110.977Z" fill="#F4F4F4"/>
<path d="M27.5101 117.706L40.2915 124.502L30.4248 113.84C29.775 114.478 29.1735 115.164 28.6254 115.892C28.6254 115.892 27.8075 117.111 27.5101 117.706Z" fill="#F4F4F4"/>
<path d="M43.3696 138.473L40.2468 124.502L38.7076 138.793C39.5862 138.86 40.4686 138.86 41.3472 138.793C41.3472 138.793 42.745 138.637 43.3696 138.473Z" fill="#F4F4F4"/>
<path d="M54.3665 121.104L40.2988 124.413L54.6714 125.944C54.7372 125.029 54.7372 124.109 54.6714 123.193C54.6714 123.193 54.5227 121.781 54.3665 121.104Z" fill="#F4F4F4"/>
<path d="M26.2237 127.818L40.2914 124.502L25.9188 123.015C25.8529 123.928 25.8529 124.845 25.9188 125.759C25.9188 125.759 26.0675 127.179 26.2237 127.818Z" fill="#F4F4F4"/>
<path d="M33.2576 136.979L40.1502 124.398L29.5325 134.064C30.1383 134.712 30.7919 135.313 31.488 135.863C31.488 135.863 32.7148 136.689 33.2576 136.979Z" fill="#F4F4F4"/>
<path d="M51.7939 132.711L40.1501 124.502L48.5001 136.124C49.2072 135.578 49.8732 134.982 50.4927 134.339C50.4927 134.339 51.4445 133.261 51.7939 132.711Z" fill="#F4F4F4"/>
<path d="M46.2546 111.267L40.1501 124.502L50.2027 114.003C49.5437 113.375 48.8351 112.8 48.0837 112.286C48.0837 112.286 46.842 111.527 46.2546 111.267Z" fill="#F4F4F4"/>
<path d="M42.7302 124.502C42.7258 124.982 42.5794 125.45 42.3096 125.847C42.0398 126.244 41.6585 126.552 41.2139 126.732C40.7693 126.913 40.2811 126.958 39.811 126.862C39.3408 126.765 38.9097 126.532 38.5719 126.191C38.234 125.85 38.0047 125.417 37.9127 124.946C37.8206 124.475 37.8701 123.987 38.0547 123.544C38.2394 123.101 38.551 122.723 38.9504 122.457C39.3497 122.19 39.8189 122.048 40.2988 122.048C40.9463 122.052 41.5658 122.313 42.0216 122.773C42.4773 123.233 42.7322 123.855 42.7302 124.502Z" fill="#C4E0BF"/>
<path d="M173.392 128.428C174.182 125.079 173.961 121.571 172.758 118.347C171.554 115.123 169.422 112.329 166.63 110.317C163.838 108.305 160.513 107.166 157.074 107.044C153.635 106.922 150.237 107.823 147.31 109.632C144.383 111.442 142.058 114.078 140.629 117.209C139.201 120.339 138.733 123.823 139.284 127.22C139.835 130.616 141.382 133.773 143.727 136.291C146.073 138.809 149.112 140.575 152.461 141.365C156.952 142.423 161.68 141.655 165.604 139.229C169.529 136.803 172.33 132.918 173.392 128.428Z" fill="#0D3643"/>
<path d="M170.507 127.729C171.16 124.95 170.974 122.039 169.972 119.366C168.971 116.693 167.199 114.376 164.881 112.71C162.563 111.044 159.803 110.102 156.949 110.005C154.096 109.908 151.278 110.659 148.852 112.163C146.426 113.667 144.5 115.858 143.319 118.457C142.137 121.056 141.754 123.947 142.215 126.764C142.677 129.581 143.965 132.198 145.914 134.284C147.864 136.369 150.388 137.83 153.168 138.481C155.012 138.913 156.924 138.979 158.793 138.672C160.663 138.366 162.454 137.695 164.064 136.697C165.674 135.698 167.072 134.392 168.178 132.854C169.283 131.315 170.075 129.574 170.507 127.729Z" fill="#F4F4F4"/>
<path d="M168.782 127.335C169.354 124.902 169.193 122.354 168.317 120.013C167.442 117.672 165.892 115.643 163.864 114.182C161.836 112.722 159.42 111.895 156.922 111.807C154.424 111.72 151.956 112.374 149.831 113.689C147.705 115.003 146.016 116.918 144.979 119.192C143.941 121.466 143.601 123.996 144.001 126.463C144.401 128.93 145.523 131.224 147.226 133.053C148.93 134.882 151.137 136.166 153.569 136.741C155.186 137.123 156.862 137.183 158.501 136.917C160.141 136.651 161.712 136.064 163.125 135.191C164.538 134.317 165.765 133.174 166.735 131.826C167.706 130.478 168.401 128.952 168.782 127.335Z" fill="#0D3643"/>
<path d="M151.152 110.977L156.283 124.398L155.74 109.958C154.857 110.018 153.979 110.145 153.115 110.338C153.115 110.338 151.732 110.732 151.152 110.977Z" fill="#F4F4F4"/>
<path d="M143.673 117.706L156.454 124.502L146.58 113.84C145.927 114.477 145.323 115.163 144.773 115.892C144.773 115.892 143.963 117.111 143.673 117.706Z" fill="#F4F4F4"/>
<path d="M159.517 138.473L156.395 124.502L154.855 138.793C155.737 138.86 156.621 138.86 157.502 138.793C157.502 138.793 158.908 138.637 159.517 138.473Z" fill="#F4F4F4"/>
<path d="M170.529 121.104L156.469 124.413L170.834 125.944C170.904 125.029 170.904 124.109 170.834 123.193C170.834 123.193 170.693 121.781 170.529 121.104Z" fill="#F4F4F4"/>
<path d="M142.394 127.818L156.454 124.502L142.089 123.015C142.019 123.928 142.019 124.845 142.089 125.759C142.152 126.45 142.254 127.138 142.394 127.818Z" fill="#F4F4F4"/>
<path d="M149.45 136.979L156.357 124.398L145.74 134.064C146.349 134.711 147.005 135.313 147.703 135.863C147.703 135.863 148.84 136.689 149.45 136.979Z" fill="#F4F4F4"/>
<path d="M167.942 132.711L156.32 124.532L164.678 136.153C165.382 135.607 166.045 135.011 166.663 134.369C166.663 134.369 167.592 133.261 167.942 132.711Z" fill="#F4F4F4"/>
<path d="M162.425 111.267L156.32 124.502L166.38 114.003C165.718 113.375 165.007 112.801 164.254 112.286C164.254 112.286 163.019 111.527 162.425 111.267Z" fill="#F4F4F4"/>
<path d="M158.878 124.502C158.872 124.98 158.725 125.446 158.455 125.84C158.185 126.235 157.804 126.541 157.361 126.72C156.918 126.899 156.431 126.943 155.963 126.846C155.495 126.749 155.066 126.516 154.73 126.176C154.394 125.836 154.166 125.404 154.075 124.934C153.983 124.465 154.033 123.979 154.217 123.538C154.402 123.097 154.712 122.72 155.11 122.455C155.508 122.19 155.976 122.048 156.454 122.048C156.774 122.05 157.091 122.115 157.386 122.24C157.681 122.364 157.949 122.545 158.174 122.773C158.399 123.001 158.577 123.271 158.698 123.568C158.819 123.864 158.88 124.182 158.878 124.502Z" fill="#C4E0BF"/>
<path d="M200.122 162.222H188.701C188.173 162.222 187.666 162.012 187.292 161.638C186.918 161.264 186.708 160.757 186.708 160.229C186.708 159.7 186.918 159.194 187.292 158.82C187.666 158.446 188.173 158.236 188.701 158.236H200.122C200.63 158.267 201.108 158.491 201.457 158.862C201.806 159.233 202 159.723 202 160.233C202 160.742 201.806 161.232 201.457 161.603C201.108 161.974 200.63 162.198 200.122 162.229V162.222Z" fill="#0D3643"/>
<path d="M42.5443 159.374L22.7217 159.411C22.1932 159.411 21.6863 159.201 21.3126 158.827C20.9389 158.454 20.729 157.947 20.729 157.418C20.729 156.89 20.9389 156.383 21.3126 156.009C21.6863 155.636 22.1932 155.426 22.7217 155.426L42.5443 155.389C43.0728 155.389 43.5797 155.598 43.9534 155.972C44.3271 156.346 44.537 156.853 44.537 157.381C44.537 157.91 44.3271 158.417 43.9534 158.79C43.5797 159.164 43.0728 159.374 42.5443 159.374Z" fill="#0D3643"/>
<path d="M124.497 42.2968H121.634C121.275 42.2968 120.931 42.1542 120.677 41.9004C120.424 41.6466 120.281 41.3024 120.281 40.9435V38.2594C120.281 37.9005 120.424 37.5563 120.677 37.3025C120.931 37.0487 121.275 36.9061 121.634 36.9061H124.497C124.675 36.9052 124.851 36.9395 125.016 37.0072C125.18 37.0748 125.33 37.1744 125.456 37.3003C125.582 37.4262 125.681 37.5757 125.749 37.7404C125.817 37.905 125.851 38.0814 125.85 38.2594V40.9435C125.852 41.1218 125.818 41.2987 125.751 41.4638C125.684 41.6288 125.584 41.7788 125.458 41.9049C125.332 42.0309 125.182 42.1305 125.017 42.1978C124.852 42.2651 124.675 42.2988 124.497 42.2968Z" fill="#0D3643"/>
<path d="M48.9537 5.9751H46.0985C45.7396 5.9751 45.3954 5.83253 45.1416 5.57875C44.8878 5.32497 44.7453 4.98077 44.7453 4.62187V1.94514C44.7443 1.76681 44.7786 1.59004 44.8461 1.425C44.9137 1.25996 45.0132 1.1099 45.139 0.983451C45.2647 0.857003 45.4142 0.756659 45.5789 0.688188C45.7436 0.619717 45.9202 0.58447 46.0985 0.584473L48.9611 0.584473C49.1394 0.58447 49.316 0.619717 49.4807 0.688188C49.6454 0.756659 49.7949 0.857003 49.9206 0.983451C50.0464 1.1099 50.1459 1.25996 50.2135 1.425C50.281 1.59004 50.3153 1.76681 50.3143 1.94514V4.62187C50.3124 4.98145 50.1682 5.32564 49.9132 5.57921C49.6582 5.83278 49.3133 5.97511 48.9537 5.9751Z" fill="#0D3643"/>
<g opacity="0.14">
<path opacity="0.14" d="M72.9698 69.6812L68.0624 93.3999H60.7981L65.6831 69.8076L72.9698 69.6812Z" fill="white"/>
<path opacity="0.14" d="M54.2774 93.4148H49.8905L54.7235 69.986L59.1252 69.9116L54.2774 93.4148Z" fill="white"/>
<path opacity="0.14" d="M118.69 76.8563L115.247 93.5263H108.005L112.124 73.5847C114.375 74.5452 116.568 75.6376 118.69 76.8563Z" fill="white"/>
<path opacity="0.14" d="M105.946 71.6739L101.432 93.5264C99.4248 93.5264 97.8708 93.5264 96.4581 93.4818L101.165 70.7222C102.778 70.9898 104.377 71.2947 105.946 71.6739Z" fill="white"/>
<path opacity="0.14" d="M34.5811 70.3355H35.57L28.8782 93.3851H26.0825L32.6479 70.6701C33.2676 70.4457 33.9221 70.3324 34.5811 70.3355Z" fill="white"/>
</g>
<path d="M174.73 59.4576C178.379 59.4576 181.945 58.3757 184.979 56.3487C188.012 54.3217 190.377 51.4406 191.773 48.0699C193.169 44.6991 193.535 40.99 192.823 37.4116C192.111 33.8332 190.354 30.5463 187.774 27.9664C185.194 25.3865 181.907 23.6296 178.329 22.9178C174.751 22.206 171.041 22.5713 167.671 23.9676C164.3 25.3638 161.419 27.7282 159.392 30.7618C157.365 33.7954 156.283 37.362 156.283 41.0105C156.283 45.903 158.226 50.5951 161.686 54.0546C165.145 57.5141 169.838 59.4576 174.73 59.4576Z" fill="#0D3643"/>
<path d="M173.399 48.2228C173.131 48.2255 172.869 48.1392 172.656 47.9774L165.808 42.966C165.676 42.8684 165.565 42.7457 165.48 42.6051C165.396 42.4644 165.34 42.3085 165.316 42.1463C165.291 41.984 165.299 41.8186 165.339 41.6594C165.379 41.5003 165.45 41.3505 165.547 41.2187C165.645 41.0869 165.768 40.9756 165.908 40.8912C166.049 40.8068 166.205 40.7509 166.367 40.7267C166.529 40.7025 166.695 40.7106 166.854 40.7503C167.013 40.7901 167.163 40.8608 167.295 40.9585L173.243 45.3007L180.678 35.8058C180.882 35.5465 181.181 35.3788 181.509 35.3398C181.837 35.3008 182.166 35.3935 182.426 35.5976C182.685 35.8017 182.853 36.1004 182.892 36.4281C182.931 36.7558 182.838 37.0856 182.634 37.3449L174.418 47.7544C174.297 47.9069 174.141 48.0287 173.964 48.1101C173.787 48.1915 173.594 48.2301 173.399 48.2228Z" fill="#F4F4F4"/>
</svg>
