<svg width="185" height="210" viewBox="0 0 185 210" fill="none" xmlns="http://www.w3.org/2000/svg">
<path d="M155.522 176.012C167.962 163.572 176.433 147.722 179.866 130.468C183.298 113.213 181.536 95.3285 174.804 79.075C168.072 62.8216 156.671 48.9295 142.043 39.1556C127.415 29.3816 110.218 24.1648 92.6251 24.1648C75.0324 24.1648 57.8349 29.3816 43.2072 39.1556C28.5795 48.9295 17.1786 62.8216 10.4462 79.075C3.71381 95.3285 1.95233 113.213 5.38451 130.468C8.81669 147.722 17.2884 163.572 29.7282 176.012C46.4095 192.693 69.0342 202.064 92.6251 202.064C116.216 202.064 138.841 192.693 155.522 176.012Z" fill="#C4E0BF"/>
<path d="M183.015 95.3068H159.682C159.156 95.3068 158.651 95.0976 158.278 94.7253C157.906 94.3529 157.697 93.8479 157.697 93.3214C157.697 92.7948 157.906 92.2898 158.278 91.9175C158.651 91.5451 159.156 91.3359 159.682 91.3359H183.015C183.275 91.3359 183.534 91.3873 183.774 91.4871C184.015 91.5868 184.234 91.7331 184.419 91.9175C184.603 92.1018 184.749 92.3207 184.849 92.5616C184.949 92.8025 185 93.0606 185 93.3214C185 93.5821 184.949 93.8403 184.849 94.0811C184.749 94.322 184.603 94.5409 184.419 94.7253C184.234 94.9096 184.015 95.0559 183.774 95.1556C183.534 95.2554 183.275 95.3068 183.015 95.3068Z" fill="#0D3643"/>
<path d="M30.1147 161.962L11.5639 162C11.0373 162 10.5323 161.791 10.16 161.418C9.78767 161.046 9.57849 160.541 9.57849 160.014C9.57849 159.488 9.78767 158.983 10.16 158.611C10.5323 158.238 11.0373 158.029 11.5639 158.029H30.1147C30.6412 158.029 31.1462 158.238 31.5186 158.611C31.8909 158.983 32.1001 159.488 32.1001 160.014C32.1001 160.541 31.8909 161.046 31.5186 161.418C31.1462 161.791 30.6412 162 30.1147 162V161.962Z" fill="#0D3643"/>
<path d="M177.725 20.3913H174.876C174.519 20.3873 174.178 20.2426 173.926 19.9887C173.675 19.7347 173.535 19.392 173.535 19.0349V16.3674C173.535 16.0097 173.677 15.6666 173.93 15.4136C174.183 15.1607 174.526 15.0186 174.883 15.0186H177.733C178.09 15.0186 178.434 15.1607 178.687 15.4136C178.939 15.6666 179.082 16.0097 179.082 16.3674V19.0349C179.082 19.3946 178.939 19.7396 178.684 19.994C178.43 20.2484 178.085 20.3913 177.725 20.3913Z" fill="#0D3643"/>
<path d="M4.20577 50.4758H1.36405C1.18592 50.4768 1.00933 50.4427 0.844378 50.3754C0.679424 50.3082 0.52933 50.2091 0.402668 50.0839C0.276006 49.9586 0.175256 49.8096 0.106169 49.6454C0.0370828 49.4812 0.00101366 49.305 2.12883e-05 49.1269V46.4595C-0.000977452 46.2817 0.033175 46.1055 0.100515 45.941C0.167855 45.7764 0.267053 45.6268 0.392407 45.5008C0.517761 45.3747 0.666797 45.2747 0.830946 45.2064C0.995094 45.1382 1.17112 45.103 1.34889 45.103H4.19819C4.55663 45.105 4.89971 45.2488 5.15245 45.503C5.4052 45.7572 5.54707 46.101 5.54707 46.4595V49.1269C5.54707 49.4833 5.406 49.8253 5.15467 50.078C4.90335 50.3308 4.5622 50.4738 4.20577 50.4758Z" fill="#0D3643"/>
<path d="M72.9225 18.1861L67.1481 10.8279C66.1629 9.57168 64.7444 8.72823 63.1702 8.46257C61.596 8.19691 59.9794 8.52816 58.6365 9.3915C57.2936 10.2548 56.3212 11.5882 55.9094 13.1306C55.4977 14.6731 55.6762 16.3136 56.4102 17.7314L64.4124 33.1601L72.9225 18.1861Z" fill="#F4F4F4"/>
<path d="M117.178 118.503L141.579 188.856L91.2762 208.294L71.8616 151.035L117.178 118.503Z" fill="#F4F4F4"/>
<path d="M83.3951 160.409L35.6163 142.737C32.3668 141.537 29.7272 139.095 28.2777 135.949C26.8282 132.802 26.6876 129.209 27.8868 125.959L71.3235 8.53944C71.917 6.92987 72.8219 5.45304 73.9865 4.19335C75.151 2.93367 76.5524 1.91582 78.1105 1.19799C79.6686 0.480164 81.3529 0.0764205 83.0671 0.00983826C84.7814 -0.056744 86.4919 0.21514 88.101 0.809952L135.918 18.4893C139.167 19.6896 141.807 22.1314 143.256 25.2776C144.706 28.4238 144.846 32.0169 143.647 35.2668L100.173 152.725C98.965 155.967 96.5197 158.598 93.3739 160.038C90.2281 161.479 86.639 161.612 83.3951 160.409Z" fill="#0D3643"/>
<path d="M134.804 42.7615L73.0891 19.9443L38.3519 113.911L100.067 136.72L134.804 42.7615Z" fill="#5396FF"/>
<path d="M97.7553 15.8067C97.5629 15.7311 97.349 15.7311 97.1567 15.8067C97.0613 15.8491 96.9758 15.9106 96.9054 15.9876C96.835 16.0645 96.7812 16.1551 96.7474 16.2538C96.6718 16.4462 96.6718 16.6601 96.7474 16.8525C96.7906 16.9464 96.8526 17.0304 96.9295 17.0995C97.0064 17.1686 97.0966 17.2212 97.1945 17.2541L119.027 25.3246C119.22 25.3966 119.432 25.3966 119.625 25.3246C119.813 25.2365 119.96 25.079 120.034 24.8851C120.11 24.6927 120.11 24.4788 120.034 24.2864C119.992 24.1911 119.93 24.1056 119.854 24.0352C119.777 23.9647 119.686 23.911 119.587 23.8772L97.7553 15.8067Z" fill="#F4F4F4"/>
<path d="M65.8295 132.931L65.7006 132.878C63.9691 132.185 62.0336 132.206 60.3173 132.936C58.6011 133.666 57.2438 135.046 56.5421 136.774C55.8405 138.502 55.8518 140.438 56.5733 142.157C57.2949 143.877 58.6682 145.241 60.3928 145.951C62.1174 146.662 64.053 146.66 65.7764 145.947C67.4998 145.234 68.8707 143.867 69.5893 142.146C70.3079 140.425 70.3158 138.49 69.6112 136.763C68.9067 135.036 67.547 133.658 65.8295 132.931Z" fill="#F4F4F4"/>
<path d="M106.69 95.3824L59.9111 77.9077C59.1478 77.6218 58.5292 77.0446 58.1911 76.303C57.8529 75.5613 57.8229 74.7158 58.1076 73.952L69.3911 43.7313C69.6787 42.9674 70.2572 42.3487 71.0001 42.0106C71.743 41.6726 72.5896 41.6428 73.3544 41.9277L120.148 59.357C120.911 59.6461 121.528 60.2249 121.866 60.9672C122.204 61.7096 122.234 62.5553 121.952 63.3202L110.638 93.5713C110.347 94.3291 109.771 94.943 109.033 95.2814C108.295 95.6199 107.454 95.6562 106.69 95.3824Z" fill="#5396FF"/>
<path d="M102.302 72.1712C101.423 74.5223 99.866 76.5598 97.8288 78.0262C95.7916 79.4927 93.3653 80.3221 90.8567 80.4098C88.3481 80.4975 85.8699 79.8394 83.7353 78.5187C81.6006 77.1981 79.9055 75.2742 78.8642 72.9903C77.8229 70.7063 77.4821 68.1649 77.885 65.6873C78.2878 63.2098 79.4162 60.9073 81.1275 59.0709C82.8388 57.2346 85.0562 55.9469 87.4992 55.3706C89.9423 54.7943 92.5014 54.9553 94.853 55.8332C98.0067 57.0128 100.563 59.3964 101.96 62.4601C103.357 65.5238 103.48 69.0168 102.302 72.1712Z" fill="#0D3643"/>
<path d="M88.1314 72.0727C87.9987 72.0725 87.8682 72.0391 87.7517 71.9756C87.6353 71.912 87.5365 71.8204 87.4645 71.709L84.2287 66.7985C84.1132 66.6216 84.0726 66.4061 84.1159 66.1993C84.1593 65.9926 84.283 65.8115 84.4599 65.6959C84.6367 65.5803 84.8523 65.5398 85.059 65.5831C85.2658 65.6265 85.4469 65.7502 85.5625 65.927L88.3739 70.1934L95.5274 65.8361C95.7083 65.7256 95.9257 65.6914 96.1318 65.7411C96.3378 65.7909 96.5157 65.9204 96.6262 66.1013C96.7368 66.2822 96.7709 66.4996 96.7212 66.7057C96.6714 66.9117 96.5419 67.0896 96.361 67.2001L88.5482 71.9894C88.42 72.0563 88.2754 72.0853 88.1314 72.0727Z" fill="#F4F4F4"/>
<path d="M124.604 139.926L135.061 119.01C137.766 113.59 139.67 107.806 140.715 101.839L147.125 52.8778C147.172 52.5989 147.156 52.3129 147.078 52.041C146.999 51.7692 146.861 51.5185 146.672 51.3075C146.484 51.0965 146.25 50.9305 145.989 50.822C145.728 50.7134 145.445 50.665 145.163 50.6802C140.533 50.9076 130.06 55.6665 129.135 74.4371L122.846 91.5025C122.846 91.5025 96.4595 116.699 110.592 145.495L124.604 139.926Z" fill="#F4F4F4"/>
<path d="M65.3976 43.8525L59.4338 40.3212C59.4338 40.3212 56.4784 38.8056 53.2047 43.4206C49.931 48.0355 54.4248 54.4465 54.4248 54.4465L55.1068 52.5444L57.8045 54.5601C58.5063 55.0981 59.3095 55.4889 60.1659 55.7091C61.0223 55.9293 61.9143 55.9743 62.7886 55.8415C63.6628 55.7087 64.5012 55.4007 65.2536 54.9362C66.006 54.4716 66.6569 53.8599 67.1672 53.1378C67.6775 52.4156 68.0368 51.5979 68.2236 50.7336C68.4104 49.8693 68.4207 48.9761 68.2541 48.1077C68.0875 47.2393 67.7472 46.4135 67.2538 45.6797C66.7603 44.9459 66.1238 44.3193 65.3824 43.8374L65.3976 43.8525Z" fill="#F4F4F4"/>
<path d="M60.3052 66.9199L51.6133 61.2592C51.6133 61.2592 48.6579 59.7436 45.3842 64.3586C42.1106 68.9735 46.6043 75.3844 46.6043 75.3844L47.2863 73.5051L52.7121 77.6654C53.4139 78.2034 54.217 78.5942 55.0734 78.8144C55.9298 79.0345 56.8219 79.0796 57.6961 78.9467C58.5703 78.8139 59.4088 78.506 60.1612 78.0414C60.9135 77.5768 61.5644 76.9652 62.0748 76.243C62.5851 75.5209 62.9444 74.7032 63.1312 73.8389C63.3179 72.9746 63.3283 72.0814 63.1617 71.213C62.995 70.3446 62.6548 69.5188 62.1613 68.785C61.6679 68.0512 61.0314 67.4246 60.29 66.9426L60.3052 66.9199Z" fill="#F4F4F4"/>
<path d="M49.8931 85.2281L40.5495 81.8786C40.5495 81.8786 36.9652 81.1208 35.6693 86.1829C35.6693 86.1829 34.078 89.4717 39.2916 95.2764L40.3601 92.3286L46.5512 94.5413C47.1679 94.7794 47.826 94.8917 48.4867 94.8716C49.1474 94.8516 49.7974 94.6995 50.3985 94.4245C50.9996 94.1494 51.5395 93.7569 51.9866 93.27C52.4337 92.7831 52.7789 92.2117 53.0018 91.5894C53.2248 90.9671 53.3209 90.3065 53.2847 89.6465C53.2485 88.9864 53.0806 88.3403 52.791 87.7462C52.5013 87.152 52.0957 86.6218 51.598 86.1867C51.1003 85.7517 50.5207 85.4206 49.8931 85.2129V85.2281Z" fill="#F4F4F4"/>
<path d="M155.461 209.726L138.714 162.106C138.299 160.926 137.438 159.956 136.316 159.404C135.194 158.852 133.9 158.761 132.712 159.151L76.9539 177.512C75.7587 177.912 74.7697 178.768 74.202 179.893C73.6344 181.018 73.534 182.322 73.9227 183.521L82.0463 209.726H155.461Z" fill="#0D3643"/>
</svg>
