<svg width="102" height="102" viewBox="0 0 102 102" fill="none" xmlns="http://www.w3.org/2000/svg">
<g clip-path="url(#clip0)">
<path d="M46.9212 101.303C56.061 101.296 64.9936 98.5796 72.5898 93.4965C80.1859 88.4134 86.1045 81.1921 89.5972 72.7454C93.09 64.2988 94.0001 55.0061 92.2124 46.0423C90.4248 37.0784 86.0197 28.8458 79.5541 22.3854C73.0885 15.925 64.8526 11.5268 55.8878 9.74684C46.923 7.96688 37.6317 8.88511 29.1887 12.3854C20.7456 15.8858 13.5299 21.811 8.45374 29.4121C3.3776 37.0131 0.668965 45.9487 0.670289 55.0891C0.670286 61.1614 1.86689 67.1741 4.19171 72.7836C6.51653 78.3932 9.92398 83.4895 14.2193 87.7814C18.5146 92.0732 23.6136 95.4765 29.2248 97.7966C34.836 100.117 40.8493 101.308 46.9212 101.303Z" fill="#C4E0BF"/>
<path d="M46.9212 88.2109C53.4727 88.2083 59.8763 86.2629 65.3223 82.6208C70.7683 78.9787 75.0121 73.8034 77.5171 67.7493C80.0221 61.6952 80.6758 55.0343 79.3955 48.6086C78.1153 42.183 74.9586 36.2814 70.3246 31.6499C65.6906 27.0184 59.7874 23.865 53.3614 22.5886C46.9354 21.3122 40.2753 21.97 34.2232 24.4788C28.171 26.9877 22.9986 31.2349 19.36 36.6834C15.7215 42.132 13.7801 48.5372 13.7814 55.0891C13.7823 59.4402 14.6402 63.7484 16.3062 67.7679C17.9722 71.7873 20.4136 75.4392 23.491 78.5149C26.5684 81.5907 30.2215 84.03 34.2417 85.6937C38.2619 87.3573 42.5704 88.2127 46.9212 88.2109Z" fill="white"/>
<path d="M46.9212 75.1258C50.8854 75.1258 54.7606 73.9501 58.0567 71.7474C61.3527 69.5447 63.9216 66.414 65.4383 62.7511C66.955 59.0883 67.3515 55.0579 66.5777 51.1697C65.8038 47.2815 63.8943 43.7101 61.0907 40.9072C58.2871 38.1044 54.7153 36.196 50.8271 35.4234C46.9389 34.6507 42.9089 35.0486 39.2468 36.5667C35.5847 38.0847 32.455 40.6548 30.2536 43.9518C28.0521 47.2488 26.8778 51.1246 26.8792 55.0891C26.8809 60.4038 28.9933 65.5002 32.7517 69.2576C36.5101 73.015 41.6069 75.1258 46.9212 75.1258Z" fill="#C4E0BF"/>
<path d="M46.9212 62.0406C48.2973 62.0393 49.6422 61.6299 50.7856 60.8642C51.9291 60.0985 52.8198 59.011 53.3452 57.739C53.8706 56.4671 54.007 55.0679 53.7373 53.7184C53.4675 52.3689 52.8037 51.1297 51.8297 50.1575C50.8557 49.1853 49.6153 48.5238 48.2653 48.2566C46.9154 47.9894 45.5166 48.1286 44.2457 48.6564C42.9749 49.1843 41.8891 50.0772 41.1257 51.2222C40.3622 52.3672 39.9555 53.7129 39.9568 55.0891C39.9568 56.0031 40.137 56.9082 40.4872 57.7524C40.8373 58.5967 41.3506 59.3636 41.9974 60.0093C42.6443 60.655 43.4122 61.1668 44.2571 61.5153C45.102 61.8639 46.0073 62.0424 46.9212 62.0406Z" fill="white"/>
<path d="M59.1743 35.8032L78.5461 16.4302L85.5641 23.4621L66.1924 42.8352L59.1743 35.8032Z" fill="white"/>
<path d="M58.866 50.1554H51.8613V43.1502L59.181 35.8032L66.1991 42.8218L58.866 50.1554Z" fill="white"/>
<path d="M100.103 10.0552C99.4647 9.41956 98.7015 8.92334 97.8615 8.59794C97.0215 8.27255 96.1231 8.12506 95.2232 8.16482L93.7486 8.23186L93.8089 6.75709C93.8089 6.65654 93.8089 6.55599 93.8089 6.45544C93.8095 5.17292 93.4297 3.91905 92.7175 2.85249C92.0053 1.78593 90.9928 0.954608 89.808 0.46373C88.6232 -0.0271486 87.3194 -0.155524 86.0617 0.0948481C84.8039 0.34522 83.6487 0.963087 82.7422 1.87026L76.5285 8.08438C76.4388 8.16822 76.3739 8.27507 76.3408 8.39328C76.3077 8.51149 76.3077 8.63652 76.3408 8.75473L77.8892 16.1285L75.8381 18.1396L74.9064 17.4692C66.8098 11.4622 57.0025 8.20621 46.9212 8.17823C37.6461 8.18285 28.5804 10.9365 20.8694 16.0912C13.1583 21.246 7.14792 28.5706 3.59738 37.1398C0.0468373 45.709 -0.884532 55.1383 0.920927 64.2366C2.72638 73.3349 7.18767 81.694 13.7412 88.2579C20.3025 94.8202 28.6621 99.2896 37.7631 101.101C46.8641 102.912 56.2978 101.984 64.8714 98.4339C73.445 94.8836 80.7735 88.8708 85.9303 81.1556C91.087 73.4403 93.8404 64.3692 93.8424 55.0891C93.8217 45.0051 90.573 35.1926 84.5721 27.0887L83.9018 26.1502L85.9529 24.1392L93.3263 25.6944C93.4392 25.7153 93.5555 25.7086 93.6652 25.6747C93.775 25.6409 93.8749 25.5809 93.9564 25.5L100.17 19.2859C101.385 18.0692 102.067 16.4201 102.067 14.7007C102.067 12.9813 101.385 11.3322 100.17 10.1155L100.103 10.0552ZM77.7551 8.82846L83.7007 2.88249C84.6199 1.966 85.8543 1.43496 87.1517 1.39781C88.4492 1.36066 89.7119 1.82019 90.682 2.68258C91.6521 3.54497 92.2565 4.74517 92.3717 6.03811C92.4869 7.33105 92.1043 8.61922 91.302 9.63958V10.1826L90.6317 10.3502L80.2889 20.7271L77.7551 8.82846ZM92.4013 55.0824C92.4026 64.0881 89.733 72.8918 84.7302 80.3798C79.7274 87.8678 72.6161 93.7036 64.2962 97.149C55.9762 100.594 46.8213 101.495 37.9897 99.7355C29.1581 97.9765 21.0466 93.6373 14.6814 87.267C8.31625 80.8967 3.98337 72.7815 2.23096 63.948C0.478553 55.1146 1.38535 45.9597 4.83665 37.6418C8.28794 29.3238 14.1286 22.2164 21.6198 17.2188C29.1111 12.2212 37.9161 9.55789 46.9212 9.56585C56.5082 9.53768 65.8549 12.5642 73.606 18.2066L74.8795 19.1317L66.5075 27.4842L65.5824 26.8742C59.2679 22.6873 51.7306 20.7419 44.1786 21.3497C36.6267 21.9576 29.4975 25.0835 23.9338 30.2264C18.37 35.3693 14.694 42.2314 13.4949 49.7128C12.2957 57.1941 13.643 64.8615 17.3206 71.4858C17.4134 71.6435 17.5629 71.7598 17.7386 71.8109C17.9143 71.862 18.1029 71.844 18.2658 71.7606C18.3484 71.7193 18.4217 71.6614 18.4809 71.5904C18.5401 71.5194 18.584 71.4369 18.6098 71.3481C18.6356 71.2594 18.6428 71.1662 18.6309 71.0746C18.619 70.9829 18.5882 70.8947 18.5406 70.8155C15.058 64.5286 13.7617 57.2632 14.8553 50.1598C15.949 43.0564 19.3705 36.5174 24.5828 31.5694C29.7951 26.6214 36.503 23.5447 43.6532 22.8223C50.8034 22.0999 57.9911 23.7727 64.0877 27.5781L65.5221 28.4763L57.0361 36.9696L56.1647 36.5339C51.7662 34.3432 46.7321 33.7883 41.9621 34.9683C37.1921 36.1483 32.9972 38.9864 30.1273 42.9751C27.2573 46.9639 25.8993 51.8434 26.2961 56.7415C26.6929 61.6395 28.8185 66.2368 32.293 69.7115C35.7676 73.1863 40.3646 75.3121 45.2623 75.7089C50.16 76.1057 55.0392 74.7476 59.0277 71.8774C63.0162 69.0073 65.854 64.8121 67.034 60.0418C68.2139 55.2715 67.659 50.2371 65.4685 45.8383L65.0194 44.9669L73.5121 36.4803L74.4036 37.9148C78.2044 44.0146 79.8724 51.2037 79.1459 58.354C78.4193 65.5043 75.3393 72.211 70.3892 77.4214C65.4392 82.6318 58.8993 86.051 51.796 87.1424C44.6926 88.2338 37.428 86.9356 31.1423 83.4515C31.0637 83.4067 30.9769 83.3782 30.887 83.3679C30.7972 83.3575 30.7061 83.3654 30.6194 83.3912C30.5303 83.414 30.4468 83.4549 30.3741 83.5114C30.3014 83.5679 30.2412 83.6388 30.1971 83.7196C30.1104 83.8821 30.0889 84.0714 30.1368 84.2492C30.1612 84.3377 30.2036 84.4203 30.2612 84.4918C30.3189 84.5633 30.3906 84.6222 30.472 84.6648C37.0961 88.3491 44.7657 89.7014 52.2503 88.5049C59.7349 87.3085 66.6008 83.6325 71.7465 78.0668C76.8921 72.501 80.0193 65.3681 80.6263 57.8123C81.2334 50.2565 79.2851 42.7158 75.094 36.3998L74.5042 35.5284L82.8696 27.1625L83.7879 28.4227C89.3796 36.1922 92.4008 45.5165 92.4281 55.0891L92.4013 55.0824ZM47.196 54.774C47.3281 54.8995 47.5032 54.9694 47.6853 54.9694C47.8675 54.9694 48.0426 54.8995 48.1747 54.774L52.0423 50.9464L52.773 52.9172C53.0349 53.6113 53.1689 54.3472 53.1684 55.0891C53.1698 56.4245 52.7446 57.7255 51.9549 58.8024C51.1651 59.8792 50.0521 60.6757 48.778 61.0756C47.5039 61.4755 46.1355 61.458 44.872 61.0257C43.6086 60.5933 42.5163 59.7687 41.7543 58.672C40.9923 57.5754 40.6005 56.264 40.636 54.929C40.6715 53.594 41.1324 52.3053 41.9515 51.2506C42.7707 50.196 43.9053 49.4305 45.1899 49.0659C46.4745 48.7013 47.842 48.7565 49.093 49.2236L51.0637 49.961L47.2228 53.802C47.1559 53.8647 47.1025 53.9405 47.066 54.0247C47.0295 54.1089 47.0107 54.1996 47.0107 54.2914C47.0107 54.3831 47.0295 54.4739 47.066 54.5581C47.1025 54.6423 47.1559 54.718 47.2228 54.7808L47.196 54.774ZM51.3318 42.6408C51.2656 42.7038 51.2131 42.7798 51.1773 42.864C51.1416 42.9481 51.1234 43.0387 51.124 43.1301V48.4527L49.3343 47.8427C48.5571 47.5784 47.7421 47.4425 46.9212 47.4404C45.408 47.4378 43.928 47.8841 42.6685 48.723C41.409 49.5618 40.4266 50.7554 39.8457 52.1528C39.2648 53.5502 39.1114 55.0885 39.405 56.5731C39.6986 58.0576 40.4259 59.4217 41.495 60.4928C42.5641 61.5638 43.9268 62.2936 45.4108 62.5898C46.8947 62.886 48.4332 62.7353 49.8315 62.1568C51.2298 61.5783 52.4251 60.598 53.2661 59.3399C54.1071 58.0818 54.556 56.6024 54.556 55.0891C54.5576 54.252 54.4194 53.4205 54.1471 52.6289L53.5371 50.8391H58.866C58.9574 50.8397 59.048 50.8215 59.1321 50.7858C59.2163 50.7501 59.2922 50.6975 59.3553 50.6313L64.0474 45.9389L64.8116 47.8293C66.4881 51.9661 66.6826 56.5554 65.3621 60.8193C64.0416 65.0831 61.2875 68.7592 57.5665 71.2243C53.8455 73.6894 49.3866 74.7918 44.9456 74.3448C40.5047 73.8977 36.3549 71.9286 33.1999 68.7714C30.0448 65.6141 28.0784 61.4628 27.6342 57.0213C27.19 52.5798 28.2952 48.1213 30.7624 44.4016C33.2297 40.6819 36.9072 37.9299 41.1716 36.612C45.4361 35.2942 50.025 35.4915 54.1605 37.1707L56.044 37.9349L51.3318 42.6408ZM58.5778 49.4582H52.545V43.4251L59.181 36.7886L65.2138 42.8218L58.5778 49.4582ZM66.1991 41.8363L60.1664 35.8032L78.2646 17.7039L79.2231 22.2421C79.2479 22.3752 79.3124 22.4977 79.4081 22.5934C79.5038 22.6891 79.6263 22.7536 79.7593 22.7784L84.304 23.737L66.1991 41.8363ZM99.1244 18.2737L93.1721 24.2196L81.2742 21.7125L91.9186 11.0674C92.8742 10.1118 94.1702 9.57496 95.5215 9.57496C96.8729 9.57496 98.1689 10.1118 99.1244 11.0674C100.08 12.023 100.617 13.3191 100.617 14.6705C100.617 16.022 100.08 17.318 99.1244 18.2737Z" fill="#0D3643"/>
<path d="M24.8012 78.511C24.8014 78.3377 24.7664 78.1661 24.6983 78.0067C24.6302 77.8473 24.5305 77.7034 24.4051 77.5837C24.2798 77.4639 24.1314 77.3709 23.9691 77.3103C23.8067 77.2496 23.6337 77.2225 23.4606 77.2307C23.2914 77.2303 23.1238 77.2632 22.9674 77.3276C22.811 77.392 22.6688 77.4866 22.549 77.6061C22.3091 77.8461 22.1744 78.1717 22.1744 78.511C22.1744 78.8504 22.3091 79.1759 22.549 79.416C22.7965 79.644 23.1207 79.7706 23.4572 79.7706C23.7938 79.7706 24.118 79.644 24.3655 79.416C24.4957 79.3026 24.6014 79.1639 24.6763 79.0083C24.7512 78.8527 24.7937 78.6835 24.8012 78.511Z" fill="#0D3643"/>
</g>
<defs>
<clipPath id="clip0">
<rect width="102" height="102" fill="white"/>
</clipPath>
</defs>
</svg>
