<svg width="130" height="48" viewBox="0 0 130 48" fill="none" xmlns="http://www.w3.org/2000/svg">
<circle cx="24" cy="24" r="23" fill="#0D3643" stroke="white" stroke-width="2"/>
<path d="M28.7573 16.0641C26.6682 16.047 24.5749 15.9653 22.4816 16.0169C20.0572 16.0771 18.1659 16.2232 16.7346 18.1618C16.3606 19.0859 16.1715 20.1649 16.0812 21.2911C16.064 21.5877 16.0468 21.8929 16.0253 22.2067C15.9479 24.1195 16.0769 26.0925 16.0339 27.6571C16.2359 28.6845 16.6314 29.6086 17.3708 30.3135C19.8209 32.6476 24.8071 31.9211 28.0738 31.7922C29.6428 31.2205 30.9495 30.7476 31.6501 28.9552C32.2046 27.5453 32.1143 25.7485 32.153 24.2356C32.2261 21.1233 32.3637 16.8293 28.7573 16.0641Z" fill="white"/>
<path d="M27.7988 17.173C31.9726 17.7102 30.7476 23.7582 30.6315 26.6897C30.567 28.3016 30.2791 29.5482 28.6156 30.1069C26.4277 30.842 23.2038 30.5969 20.973 30.2703C19.4814 30.0553 18.3122 29.6083 17.8996 28.0609C17.2462 25.6151 17.431 22.3052 17.7147 19.8122C17.7233 19.7649 17.7362 19.7305 17.7577 19.7004C17.7963 15.9695 25.6281 16.8936 27.7988 17.173Z" fill="#0D3643"/>
<path d="M29.5308 19.4463C29.5394 18.4189 28.2585 18.0923 27.5707 18.7242C27.3858 18.8961 27.2998 19.1583 27.287 19.442C27.3557 19.8074 27.575 20.1684 27.8587 20.3747C28.525 20.8433 29.5222 20.22 29.5308 19.4463Z" fill="white"/>
<path d="M27.9479 20.9587C26.4585 18.5423 23.0964 18.3044 21.2891 20.4456C20.0567 21.9057 19.9696 24.3362 20.8972 26.0622C20.9495 26.0808 20.9974 26.1135 21.041 26.1695C22.5478 27.9702 25.1433 28.6233 27.0073 26.9905C28.6708 25.5304 29.1586 22.9227 27.9479 20.9587Z" fill="white"/>
<path d="M21.7679 24.4973C22.288 25.9588 24.1364 27.1194 25.6107 26.2167C28.5895 24.3942 25.0906 19.4424 22.6361 21.6389C21.7679 22.1504 21.4283 23.5387 21.7679 24.4973Z" fill="#0D3643"/>
<path d="M62.064 20.728C62.064 21.016 62.1227 21.2453 62.24 21.416C62.3893 21.6293 62.592 21.8053 62.848 21.944C63.1147 22.072 63.4187 22.1733 63.76 22.248C64.1013 22.3227 64.4587 22.3973 64.832 22.472C65.3227 22.568 65.8133 22.68 66.304 22.808C66.7947 22.9253 67.232 23.112 67.616 23.368C68 23.6133 68.304 23.9493 68.528 24.376C68.72 24.7493 68.816 25.224 68.816 25.8C68.816 25.8853 68.816 25.9707 68.816 26.056C68.784 26.5787 68.6453 27.0373 68.4 27.432C68.1653 27.816 67.856 28.136 67.472 28.392C67.088 28.648 66.656 28.84 66.176 28.968C65.696 29.096 65.2053 29.16 64.704 29.16C64.2773 29.16 63.8507 29.1067 63.424 29C62.9973 28.904 62.5973 28.7547 62.224 28.552C61.8507 28.3493 61.5093 28.0987 61.2 27.8C60.9013 27.4907 60.6667 27.1333 60.496 26.728L61.728 26.168C61.8453 26.4453 62.0107 26.6853 62.224 26.888C62.4373 27.0907 62.6773 27.2667 62.944 27.416C63.2213 27.5547 63.5093 27.6613 63.808 27.736C64.1173 27.8 64.4267 27.832 64.736 27.832C65.0667 27.832 65.392 27.7947 65.712 27.72C66.032 27.6453 66.32 27.5333 66.576 27.384C66.832 27.224 67.04 27.032 67.2 26.808C67.36 26.5733 67.4507 26.3013 67.472 25.992C67.4827 25.9173 67.488 25.848 67.488 25.784C67.488 25.4747 67.424 25.2133 67.296 25C67.1467 24.744 66.928 24.536 66.64 24.376C66.3627 24.216 66.0373 24.0933 65.664 24.008C65.2907 23.912 64.9067 23.8213 64.512 23.736C64.0533 23.64 63.6 23.528 63.152 23.4C62.704 23.272 62.2987 23.0907 61.936 22.856C61.584 22.6213 61.296 22.3227 61.072 21.96C60.848 21.5867 60.736 21.1173 60.736 20.552C60.768 20.0613 60.9013 19.6293 61.136 19.256C61.3707 18.872 61.6693 18.552 62.032 18.296C62.4053 18.04 62.8213 17.848 63.28 17.72C63.7493 17.5813 64.2293 17.512 64.72 17.512C65.136 17.512 65.552 17.56 65.968 17.656C66.3947 17.752 66.7893 17.9013 67.152 18.104C67.5253 18.296 67.8613 18.5413 68.16 18.84C68.4587 19.1387 68.6933 19.4853 68.864 19.88L67.648 20.424C67.5307 20.1573 67.3653 19.928 67.152 19.736C66.9493 19.5333 66.7147 19.3627 66.448 19.224C66.192 19.0853 65.9147 18.984 65.616 18.92C65.3173 18.8453 65.0187 18.808 64.72 18.808C64.3893 18.808 64.0693 18.8453 63.76 18.92C63.4507 18.9947 63.1733 19.1067 62.928 19.256C62.6827 19.4053 62.48 19.592 62.32 19.816C62.1707 20.04 62.0853 20.3013 62.064 20.6C62.064 20.6427 62.064 20.6853 62.064 20.728ZM71.9964 29H70.6684V17.672H71.9964V29ZM74.0355 21.048C74.0355 20.4613 74.1582 19.9493 74.4035 19.512C74.6488 19.0747 74.9688 18.7067 75.3635 18.408C75.7688 18.1093 76.2275 17.8853 76.7395 17.736C77.2622 17.5867 77.7902 17.512 78.3235 17.512C78.7288 17.512 79.1288 17.56 79.5235 17.656C79.9288 17.752 80.3075 17.896 80.6595 18.088C81.0115 18.28 81.3315 18.52 81.6195 18.808C81.9075 19.096 82.1422 19.432 82.3235 19.816L81.1075 20.36C80.9795 20.104 80.8142 19.88 80.6115 19.688C80.4088 19.496 80.1848 19.336 79.9395 19.208C79.6942 19.08 79.4275 18.984 79.1395 18.92C78.8622 18.856 78.5795 18.824 78.2915 18.824C77.9288 18.824 77.5715 18.872 77.2195 18.968C76.8675 19.0533 76.5528 19.1867 76.2755 19.368C76.0088 19.5493 75.7902 19.7787 75.6195 20.056C75.4488 20.3333 75.3635 20.6533 75.3635 21.016V25.576C75.3635 25.9493 75.4488 26.28 75.6195 26.568C75.7902 26.8453 76.0142 27.08 76.2915 27.272C76.5688 27.4533 76.8835 27.592 77.2355 27.688C77.5875 27.7733 77.9502 27.816 78.3235 27.816C78.6862 27.816 79.0435 27.7733 79.3955 27.688C79.7582 27.592 80.0782 27.4533 80.3555 27.272C80.6435 27.08 80.8728 26.8453 81.0435 26.568C81.2142 26.28 81.2995 25.9493 81.2995 25.576V24.44H77.9555V23.112H82.6275V25.576C82.6275 26.1733 82.5048 26.696 82.2595 27.144C82.0142 27.592 81.6888 27.9653 81.2835 28.264C80.8782 28.5627 80.4195 28.7867 79.9075 28.936C79.3955 29.0853 78.8675 29.16 78.3235 29.16C77.7795 29.16 77.2515 29.0853 76.7395 28.936C76.2275 28.7867 75.7688 28.5627 75.3635 28.264C74.9688 27.9653 74.6488 27.592 74.4035 27.144C74.1582 26.696 74.0355 26.1733 74.0355 25.576V21.048ZM92.9654 29H91.5574L90.2454 25.368H85.8774C85.664 25.9653 85.4454 26.5733 85.2214 27.192C85.008 27.8 84.8 28.4027 84.5974 29H83.1734L87.2374 17.672H88.8694L92.9654 29ZM89.7814 24.024C89.6214 23.5867 89.472 23.1707 89.3334 22.776C89.1947 22.3813 89.056 21.9867 88.9174 21.592C88.7894 21.1973 88.6507 20.7973 88.5014 20.392C88.3627 19.9867 88.2134 19.56 88.0534 19.112C87.7654 19.944 87.4827 20.76 87.2054 21.56C86.928 22.3493 86.6347 23.1707 86.3254 24.024H89.7814ZM97.7603 24.888H93.5843V23.576H97.7603V24.888ZM107.135 17.672H108.48V29H106.784L101.216 20.024V29H99.8715V17.672H101.312L107.135 27.032V17.672ZM110.504 21.064C110.504 20.4773 110.632 19.96 110.888 19.512C111.144 19.064 111.486 18.696 111.912 18.408C112.339 18.1093 112.824 17.8853 113.368 17.736C113.912 17.5867 114.467 17.512 115.032 17.512C115.598 17.512 116.152 17.5867 116.696 17.736C117.24 17.8853 117.72 18.1093 118.136 18.408C118.563 18.696 118.904 19.064 119.16 19.512C119.427 19.96 119.56 20.4773 119.56 21.064V25.592C119.56 26.1893 119.427 26.712 119.16 27.16C118.904 27.5973 118.563 27.9653 118.136 28.264C117.72 28.5627 117.24 28.7867 116.696 28.936C116.152 29.0853 115.598 29.16 115.032 29.16C114.467 29.16 113.912 29.0853 113.368 28.936C112.824 28.7867 112.339 28.5627 111.912 28.264C111.486 27.9653 111.144 27.5973 110.888 27.16C110.632 26.712 110.504 26.1893 110.504 25.592V21.064ZM111.832 25.576C111.832 25.9493 111.923 26.2747 112.104 26.552C112.286 26.8293 112.526 27.064 112.824 27.256C113.123 27.4373 113.464 27.576 113.848 27.672C114.232 27.768 114.627 27.816 115.032 27.816C115.427 27.816 115.816 27.768 116.2 27.672C116.584 27.576 116.926 27.4373 117.224 27.256C117.534 27.064 117.779 26.8293 117.96 26.552C118.142 26.2747 118.232 25.9493 118.232 25.576V21.064C118.232 20.6693 118.136 20.3333 117.944 20.056C117.763 19.768 117.523 19.5333 117.224 19.352C116.926 19.1707 116.579 19.0373 116.184 18.952C115.8 18.8667 115.411 18.824 115.016 18.824C114.611 18.824 114.216 18.872 113.832 18.968C113.459 19.0533 113.123 19.192 112.824 19.384C112.526 19.5653 112.286 19.7947 112.104 20.072C111.923 20.3493 111.832 20.68 111.832 21.064V25.576ZM122.486 20.728C122.486 21.016 122.545 21.2453 122.662 21.416C122.811 21.6293 123.014 21.8053 123.27 21.944C123.537 22.072 123.841 22.1733 124.182 22.248C124.523 22.3227 124.881 22.3973 125.254 22.472C125.745 22.568 126.235 22.68 126.726 22.808C127.217 22.9253 127.654 23.112 128.038 23.368C128.422 23.6133 128.726 23.9493 128.95 24.376C129.142 24.7493 129.238 25.224 129.238 25.8C129.238 25.8853 129.238 25.9707 129.238 26.056C129.206 26.5787 129.067 27.0373 128.822 27.432C128.587 27.816 128.278 28.136 127.894 28.392C127.51 28.648 127.078 28.84 126.598 28.968C126.118 29.096 125.627 29.16 125.126 29.16C124.699 29.16 124.273 29.1067 123.846 29C123.419 28.904 123.019 28.7547 122.646 28.552C122.273 28.3493 121.931 28.0987 121.622 27.8C121.323 27.4907 121.089 27.1333 120.918 26.728L122.15 26.168C122.267 26.4453 122.433 26.6853 122.646 26.888C122.859 27.0907 123.099 27.2667 123.366 27.416C123.643 27.5547 123.931 27.6613 124.23 27.736C124.539 27.8 124.849 27.832 125.158 27.832C125.489 27.832 125.814 27.7947 126.134 27.72C126.454 27.6453 126.742 27.5333 126.998 27.384C127.254 27.224 127.462 27.032 127.622 26.808C127.782 26.5733 127.873 26.3013 127.894 25.992C127.905 25.9173 127.91 25.848 127.91 25.784C127.91 25.4747 127.846 25.2133 127.718 25C127.569 24.744 127.35 24.536 127.062 24.376C126.785 24.216 126.459 24.0933 126.086 24.008C125.713 23.912 125.329 23.8213 124.934 23.736C124.475 23.64 124.022 23.528 123.574 23.4C123.126 23.272 122.721 23.0907 122.358 22.856C122.006 22.6213 121.718 22.3227 121.494 21.96C121.27 21.5867 121.158 21.1173 121.158 20.552C121.19 20.0613 121.323 19.6293 121.558 19.256C121.793 18.872 122.091 18.552 122.454 18.296C122.827 18.04 123.243 17.848 123.702 17.72C124.171 17.5813 124.651 17.512 125.142 17.512C125.558 17.512 125.974 17.56 126.39 17.656C126.817 17.752 127.211 17.9013 127.574 18.104C127.947 18.296 128.283 18.5413 128.582 18.84C128.881 19.1387 129.115 19.4853 129.286 19.88L128.07 20.424C127.953 20.1573 127.787 19.928 127.574 19.736C127.371 19.5333 127.137 19.3627 126.87 19.224C126.614 19.0853 126.337 18.984 126.038 18.92C125.739 18.8453 125.441 18.808 125.142 18.808C124.811 18.808 124.491 18.8453 124.182 18.92C123.873 18.9947 123.595 19.1067 123.35 19.256C123.105 19.4053 122.902 19.592 122.742 19.816C122.593 20.04 122.507 20.3013 122.486 20.6C122.486 20.6427 122.486 20.6853 122.486 20.728Z" fill="white"/>
</svg>
