<svg width="31" height="32" viewBox="0 0 31 32" fill="none" xmlns="http://www.w3.org/2000/svg">
<path d="M3.42569 25.1802L3.50512 24.9392L3.35746 24.7328C1.55862 22.2183 0.5 19.1209 0.5 15.7766C0.5 7.34345 7.23438 0.5 15.4961 0.5H15.5039C23.7656 0.5 30.5 7.34539 30.5 15.7766C30.5 24.2078 23.7656 31.0532 15.5039 31.0532C12.4546 31.0532 9.62769 30.1304 7.25647 28.5316L7.05421 28.3952L6.82223 28.4707L1.80293 30.1039L3.42569 25.1802Z" stroke="white"/>
<path d="M21.7864 20.6759C21.5086 21.4477 20.4063 22.0877 19.5271 22.2746C18.9255 22.4006 18.1398 22.5012 15.4948 21.4222C12.1115 20.043 9.93277 16.6601 9.76296 16.4406C9.60035 16.2211 8.39584 14.6493 8.39584 13.0237C8.39584 11.3982 9.23482 10.6066 9.573 10.2668C9.85074 9.98779 10.3098 9.86035 10.7502 9.86035C10.8926 9.86035 11.0207 9.86743 11.1358 9.8731C11.474 9.88726 11.6438 9.90708 11.8669 10.4324C12.1446 11.0909 12.821 12.7165 12.9016 12.8836C12.9836 13.0507 13.0656 13.2772 12.9505 13.4967C12.8426 13.7233 12.7476 13.8238 12.5778 14.0164C12.408 14.209 12.2468 14.3562 12.077 14.563C11.9216 14.7428 11.746 14.9354 11.9417 15.2681C12.1374 15.5938 12.8138 16.6799 13.8096 17.5522C15.0947 18.6779 16.1366 19.0376 16.5093 19.1905C16.7871 19.3038 17.118 19.2769 17.321 19.0645C17.5785 18.7912 17.8966 18.3381 18.2204 17.892C18.4506 17.572 18.7413 17.5324 19.0464 17.6456C19.3572 17.7518 21.0021 18.5519 21.3403 18.7176C21.6785 18.8847 21.9015 18.964 21.9835 19.1041C22.0641 19.2443 22.0641 19.9028 21.7864 20.6759Z" fill="white"/>
</svg>
