<svg width="56" height="56" viewBox="0 0 56 56" fill="none" xmlns="http://www.w3.org/2000/svg">
<circle cx="28" cy="28" r="28" fill="white"/>
<path d="M47.0496 15.9597C40.348 5.59963 26.6658 2.51961 16.055 8.95966C5.72346 15.3997 2.3727 29.3998 9.07423 39.7599L9.63269 40.5999L11.55 43.4L15.7758 46.7599L16.6135 47.32C20.2435 49.28 24.1527 50.4 28.0619 50.4C32.2504 50.4 36.4388 49.28 40.0688 47.0399C50.4003 40.3199 53.4719 26.5998 47.0496 15.9597ZM41.1857 37.5199C40.0688 39.1999 38.6727 40.3199 36.7181 40.5999C35.6011 40.5999 34.205 41.1599 28.6204 38.9199C23.8734 36.6799 19.9642 33.0398 17.1719 28.8398C15.4965 26.8798 14.6588 24.3598 14.3796 21.8398C14.3796 19.5997 15.2173 17.6397 16.6135 16.2397C17.1719 15.6797 17.7304 15.3997 18.2888 15.3997H19.685C20.2435 15.3997 20.8019 15.3997 21.0811 16.5197C21.6396 17.9197 23.0358 21.2798 23.0358 21.5598C23.315 21.8398 23.315 22.3998 23.0358 22.6798C23.315 23.2398 23.0358 23.7998 22.7565 24.0798C22.4773 24.3598 22.1981 24.9198 21.9188 25.1998C21.3604 25.4798 21.0811 26.0398 21.3604 26.5998C22.4773 28.2798 23.8734 29.9598 25.2696 31.3598C26.945 32.7598 28.6204 33.8798 30.575 34.7199C31.1334 34.9999 31.6919 34.9999 31.9711 34.4399C32.2504 33.8798 33.6465 32.4798 34.205 31.9198C34.7634 31.3598 35.0427 31.3598 35.6011 31.6398L40.0688 33.8799C40.6273 34.1599 41.1857 34.4399 41.465 34.7199C41.7442 35.5599 41.7442 36.6799 41.1857 37.5199Z" fill="#10D524"/>
</svg>
